<svg xmlns="http://www.w3.org/2000/svg">
<defs>
<font id="Vollkorn-SemiBold" horiz-adv-x="550" >
  <font-face 
    font-family="Vollkorn SemiBold"
    font-weight="600"
    font-stretch="normal"
    units-per-em="1000"
    panose-1="0 0 0 0 0 0 0 0 0 0"
    ascent="800"
    descent="-200"
    x-height="459.999"
    cap-height="678.999"
    bbox="-180 -291.004 3056 1086"
    underline-thickness="40"
    underline-position="-320"
    unicode-range="U+000D-U+1D550"
  />
<missing-glyph horiz-adv-x="454" 
d="M51 0v677h352v-677h-352zM112 99c3.33301 0 5 1.66699 5 5s-1.66699 5 -5 5s-5 -1.66699 -5 -5s1.66699 -5 5 -5zM117 163c3.33301 0 5.66602 0.666992 6.99902 2l-1 3c-1.33301 -0.666992 -2.66602 -1 -3.99902 -1c-2 0 -3 2 -3 6v16h7v3h-7v7c0 2 -0.666992 3 -2 3
l-5 -3v-7h-5v-3h5v-18c0 -5.33301 2.66699 -8 8 -8zM133 148c2 0 3.83301 0.833008 5.5 2.5s3.5 5.16699 5.5 10.5l9 22c2 4 3.66699 6 5 6v3h-12v-3c4 0 5 -2.33301 3 -7l-4 -11l-5 12c-2 4 -1 6 3 6v3h-17v-3c2.66699 0 4.66699 -2 6 -6l9 -21
c-0.666992 -2 -1.5 -3.83301 -2.5 -5.5s-2.83301 -2.5 -5.5 -2.5c-1.33301 0 -3 0.333008 -5 1v-5c1.33301 -1.33301 3 -2 5 -2zM161 148h18.001v3c-4 0 -6 2 -6 6v6h5c10.667 0 16 5.33301 16 16c0 9.33301 -3.66699 14 -11 14c-4.66699 0 -8 -2 -10 -6v3
c0 1.33301 -0.333008 2.33301 -1 3c-2.66699 -1.33301 -6.33398 -2 -11.001 -2v-3c3.33301 0 5 -1.66699 5 -5v-26c0 -4 -1.66699 -6 -5 -6v-3zM178.001 167h-5v9c0 8 2.33301 12 7 12c4 0 6 -3.33301 6 -10c0 -4.66699 -1 -7.66699 -3 -9s-3.66699 -2 -5 -2zM118.001 227h4
l9 21c2 4 3.66699 6 5 6v3h-12v-3c4 0 5 -2 3 -6l-5 -13l-4 10c-2 6 -1.33301 9 2 9v3h-16v-3c2 0 3.66699 -2 5 -6zM213.001 163c4.66699 0 8.33301 1.33301 11 4l-2 3c-2 -2 -4.66699 -3 -8 -3c-5.33301 0 -8 3.33301 -8 10h17l1 3c0 8.66699 -4 13 -12 13
c-9.33301 0 -14 -5 -14 -15s5 -15 15 -15zM153 227c10 0 15 5 15 15s-5 15 -15 15s-15 -5 -15 -15s5 -15 15 -15zM153 231c-4.66699 0 -7 3.66699 -7 11s2.33301 11 7 11s7 -3.66699 7 -11s-2.33301 -11 -7 -11zM206 181c0 5.33301 1.66699 8 5 8c4 0 6 -2.66699 6 -8h-11z

<glyph glyph-name="f_f" unicode="ff" horiz-adv-x="715" 
d="M354 448v-55c-31.333 0 -56.333 -1.5 -75 -4.5s-36 -7.16699 -52 -12.5v72h127zM111 473c0 46.667 11.1689 86.833 33.502 120.5s52.833 59.5 91.5 77.5s82 27 130 27c30 0 59.667 -4.16699 89 -12.5s54 -20.833 74 -37.5l-51 -103c-12 30.667 -28.833 54 -50.5 70
s-46.5 24 -74.5 24c-24.667 0 -45.834 -4.16699 -63.501 -12.5s-31.334 -22.5 -41.001 -42.5s-14.5 -47.333 -14.5 -82v-283h-123v254zM130.002 447.999v-71.001c-18 6 -35.667 10 -53 12s-32 3 -44 3c0 10.667 1.16699 20.834 3.5 30.501s5.83301 18.167 10.5 25.5h83z
M234.002 162.998c0 -30 2.66992 -52.8311 8.00293 -68.498s14.166 -26.334 26.499 -32.001s28.166 -9.5 47.499 -11.5c2.66699 -6.66699 4.5 -14.667 5.5 -24s1.5 -19.333 1.5 -30c-16.667 1.33301 -37.334 2.16602 -62.001 2.49902s-49.667 0.5 -75 0.5
c-28 0 -55.667 -0.166992 -83 -0.5s-49.333 -1.16602 -66 -2.49902c0 12 0.5 22.333 1.5 31s2.5 16.334 4.5 23.001c18 1.33301 32 4.66602 42 9.99902s16.833 14.666 20.5 27.999s5.5 32.333 5.5 57v81h123v-64zM682.005 448c0 -10 -0.666992 -20.1689 -2 -30.502
s-4 -19.166 -8 -26.499c-19.333 0 -37.333 -1.16699 -54 -3.5s-33 -6.16602 -49 -11.499v72h113zM453.005 483.998c0 52 10.3311 95.0029 30.998 129.003s48 59.5 82 76.5s70.667 25.5 110 25.5c26.667 0 49.167 -2.66699 67.5 -8s33.5 -12 45.5 -20
c-2 -20 -3.33301 -41 -4 -63s-1 -42 -1 -60c-10 -4 -22.167 -6.66699 -36.5 -8s-27.833 -2 -40.5 -2c0 29.333 -5.5 53.166 -16.5 71.499s-28.167 27.5 -51.5 27.5c-15.333 0 -27.666 -4.83301 -36.999 -14.5s-16.166 -24.334 -20.499 -44.001s-6.5 -45.834 -6.5 -78.501
v-297h-122v265zM472.003 448.001v-71c-18 6 -36.5 10.167 -55.5 12.5s-39.833 3.5 -62.5 3.5v55h118zM575.003 163.001c0 -28.667 3.16602 -50.832 9.49902 -66.499s16.5 -26.667 30.5 -33s32.667 -10.5 56 -12.5c2.66699 -6.66699 4.33398 -14.667 5.00098 -24
s1 -19.333 1 -30c-10.667 0.666992 -24 1.16699 -40 1.5s-32.833 0.666016 -50.5 0.999023s-35.167 0.5 -52.5 0.5c-27.333 0 -55.833 -0.166992 -85.5 -0.5s-52.834 -1.16602 -69.501 -2.49902c0 12 0.333008 22.333 1 31s2.33398 16.334 5.00098 23.001
c18 1.33301 31.833 4.66602 41.5 9.99902s16.5 14.666 20.5 27.999s6 32.333 6 57v81h122v-64z" />
    <glyph glyph-name="f_f_i" unicode="ffi" horiz-adv-x="1024" 
d="M382 -3c0 11.333 0.495117 21.3369 1.49512 30.0039s2.5 16.667 4.5 24c18 1.33301 32 4.66602 42 9.99902s16.833 14.5 20.5 27.5s5.5 31.833 5.5 56.5v340c0 44.667 10.833 84.334 32.5 119.001s53 62 94 82s91.167 30 150.5 30c39.333 0 72.5 -3.33301 99.5 -10
s50.167 -14.334 69.5 -23.001c-2.66699 -20.667 -4.33398 -39.5 -5.00098 -56.5s-1 -33.5 -1 -49.5c-13.333 -7.33301 -30.166 -12.833 -50.499 -16.5s-40.833 -4.5 -61.5 -2.5c-1.33301 33.333 -9.16602 58 -23.499 74s-35.5 24 -63.5 24c-42 0 -72.167 -11.667 -90.5 -35
s-27.5 -58.333 -27.5 -105v-68h160c11.333 0 24 0.5 38 1.5s28.333 2.16699 43 3.5s28.667 3.16602 42 5.49902s25 5.16602 35 8.49902c8 -3.33301 14.333 -8.5 19 -15.5s7 -17.5 7 -31.5v-282c0 -34 4.66699 -56.667 14 -68s25 -17.666 47 -18.999
c2.66699 -7.33301 4.33398 -15.666 5.00098 -24.999s1 -19 1 -29c-9.33301 0.666992 -21.333 1.16699 -36 1.5s-30.5 0.666016 -47.5 0.999023s-33.167 0.5 -48.5 0.5s-31.166 -0.166992 -47.499 -0.5s-31.666 -0.666016 -45.999 -0.999023s-26.833 -0.833008 -37.5 -1.5
c0 11.333 0.5 21.333 1.5 30s2.5 16.667 4.5 24c26.667 1.33301 44.667 7.66602 54 18.999s14 33.666 14 66.999v172c0 18 -2.16699 32.833 -6.5 44.5s-13.666 20.5 -27.999 26.5s-36.833 9.33301 -67.5 10c-13.333 0 -28.333 -0.5 -45 -1.5s-31.834 -2.5 -45.501 -4.5
s-23.5 -4 -29.5 -6v-228c0 -24.667 2 -43.834 6 -57.501s11.167 -23.5 21.5 -29.5s24.166 -10 41.499 -12c2.66699 -7.33301 4.33398 -15.333 5.00098 -24s1 -18.667 1 -30c-15.333 1.33301 -34.666 2.16602 -57.999 2.49902s-47.333 0.5 -72 0.5
c-24 0 -49.833 -0.166992 -77.5 -0.5s-49.167 -1.16602 -64.5 -2.49902zM129.995 377.004c-18 6 -35.667 9.99902 -53 11.999s-32 3 -44 3c0 10.667 1.16699 20.834 3.5 30.501s5.83301 18.167 10.5 25.5h83v-71zM36.9951 -2.99707c0 12 0.503906 22.335 1.50391 31.002
s2.5 16.334 4.5 23.001c18 1.33301 32 4.66602 42 9.99902s16.833 14.666 20.5 27.999s5.5 32.333 5.5 57v327c0 46.667 11.333 86.834 34 120.501s53.167 59.5 91.5 77.5s81.166 27 128.499 27c31.333 0 61.833 -4.33301 91.5 -13s56.167 -22.334 79.5 -41.001l-58 -99
c-12 30.667 -28.5 54 -49.5 70s-44.833 24 -71.5 24c-36.667 0 -66.334 -11 -89.001 -33s-34 -57.667 -34 -107v-336c0 -30 2.66699 -52.833 8 -68.5s14.166 -26.334 26.499 -32.001s28.166 -9.5 47.499 -11.5c2.66699 -6.66699 4.5 -14.667 5.5 -24s1.5 -19.333 1.5 -30
c-16.667 1.33301 -37.334 2.16602 -62.001 2.49902s-50 0.5 -76 0.5c-27.333 0 -54.666 -0.166992 -81.999 -0.5s-49.333 -1.16602 -66 -2.49902zM224.999 378.005l0.000976562 70h245v-69c-18 5.33301 -36.5 9.33301 -55.5 12s-40.167 4 -63.5 4
c-30.667 0 -55.334 -1.5 -74.001 -4.5s-36 -7.16699 -52 -12.5z" />
    <glyph glyph-name="f_f_l" unicode="ffl" horiz-adv-x="1024" 
d="M354 448v-55c-31.333 0 -56.333 -1.5 -75 -4.5s-36 -7.16699 -52 -12.5v72h127zM111 473c0 46.667 11.166 86.833 33.499 120.5s52.833 59.5 91.5 77.5s82 27 130 27c30 0 60 -4.33301 90 -13s56.667 -22 80 -40l-58 -100c-12 30.667 -28.667 54.167 -50 70.5
s-45.666 24.5 -72.999 24.5c-36.667 0 -66 -10.5 -88 -31.5s-33 -56.5 -33 -106.5v-283h-123v254zM129.999 447.999v-71.001c-18 6 -35.667 10 -53 12s-32 3 -44 3c0 10.667 1.16699 20.834 3.5 30.501s5.83301 18.167 10.5 25.5h83zM233.999 162.998
c0 -30 2.66992 -52.8311 8.00293 -68.498s14.166 -26.334 26.499 -32.001s28.166 -9.5 47.499 -11.5c2.66699 -6.66699 4.5 -14.667 5.5 -24s1.5 -19.333 1.5 -30c-16.667 1.33301 -37.334 2.16602 -62.001 2.49902s-49.667 0.5 -75 0.5c-28 0 -55.667 -0.166992 -83 -0.5
s-49.333 -1.16602 -66 -2.49902c0 12 0.5 22.333 1.5 31s2.5 16.334 4.5 23.001c18 1.33301 32 4.66602 42 9.99902s16.833 14.666 20.5 27.999s5.5 32.333 5.5 57v81h123v-64zM472.002 448v-71c-18 6 -36.5 10.167 -55.5 12.5s-39.833 3.5 -62.5 3.5v55h118zM682.002 448
c0 -10 -0.666992 -20.1689 -2 -30.502s-4 -19.166 -8 -26.499c-19.333 0 -37.333 -1.16699 -54 -3.5s-33 -6.16602 -49 -11.499v72h113zM453.002 483.998c0 40 7.16797 74.5 21.501 103.5s34 53 59 72s53.333 33.167 85 42.5s64.5 14 98.5 14c24 0 47.5 -2.83301 70.5 -8.5
s40.833 -12.167 53.5 -19.5l3 -129h-40c0 22 -4.83301 40 -14.5 54s-22.834 24.5 -39.501 31.5s-35.667 10.5 -57 10.5c-37.333 0 -66.333 -10.333 -87 -31s-31 -56.667 -31 -108v-297h-122v265zM575.003 162.998c0 -28.667 1.99707 -50.832 5.99707 -66.499
s11.333 -26.667 22 -33s25.667 -10.5 45 -12.5c2.66699 -6.66699 4.33398 -14.667 5.00098 -24s1 -19.333 1 -30c-16.667 1.33301 -36.667 2.16602 -60 2.49902s-47.666 0.5 -72.999 0.5c-28 0 -54.5 -0.166992 -79.5 -0.5s-45.833 -1.16602 -62.5 -2.49902
c0 12 0.333008 22.333 1 31s2.33398 16.334 5.00098 23.001c18 1.33301 31.833 4.66602 41.5 9.99902s16.5 14.666 20.5 27.999s6 32.333 6 57v81h122v-64zM804 186l122.001 0.000976562v-48c0 -33.333 4.5 -56 13.5 -68s25.167 -18.333 48.5 -19
c2 -7.33301 3.33301 -16 4 -26s1 -19.333 1 -28c-10 0.666992 -22.167 1.16699 -36.5 1.5s-29.5 0.666016 -45.5 0.999023s-32.333 0.5 -49 0.5c-15.333 -0 -31.333 -0.166992 -48 -0.5s-32.334 -0.666016 -47.001 -0.999023s-27 -0.833008 -37 -1.5c0 10 0.5 19.667 1.5 29
s2.5 17.666 4.5 24.999c26.667 0.666992 44.667 7 54 19s14 34.667 14 68v48zM828.001 541.001l-35 146.999c18 0.666992 36.667 3.33398 56 8.00098s36.333 11.667 51 21c8 -2.66699 14.333 -7.66699 19 -15s7 -18.333 7 -33v-132zM804.001 572h122v-400h-122v400z" />
    <glyph glyph-name="f_f_j.liga" unicode="ffj" horiz-adv-x="987" 
d="M737 -249c-7.33301 4 -13.832 9.6709 -19.499 17.0039s-9.5 16 -11.5 26c25.333 28 44.833 53.5 58.5 76.5s23.167 47.167 28.5 72.5s8 54.333 8 87v279c0 18 -2.16699 33 -6.5 45s-13.166 20.833 -26.499 26.5s-34 8.83398 -62 9.50098c-14.667 0 -30.667 -0.5 -48 -1.5
s-33.333 -2.5 -48 -4.5s-25 -4 -31 -6v-228c0 -24.667 2.16699 -43.834 6.5 -57.501s11.833 -23.5 22.5 -29.5s25 -10 43 -12c2.66699 -7.33301 4.33398 -15.333 5.00098 -24s1 -18.667 1 -30c-16 1.33301 -35.833 2.16602 -59.5 2.49902s-47.834 0.5 -72.501 0.5
s-50.834 -0.166992 -78.501 -0.5s-49.167 -1.16602 -64.5 -2.49902c0 11.333 0.5 21.333 1.5 30s2.5 16.667 4.5 24c18 1.33301 32 4.66602 42 9.99902s16.833 14.5 20.5 27.5s5.5 31.833 5.5 56.5v340c0 44.667 10.833 84.334 32.5 119.001s53.334 62 95.001 82
s92.5 30 152.5 30c38 0 70.333 -3.33301 97 -10s49.667 -14.334 69 -23.001c-2.66699 -20.667 -4.33398 -39.5 -5.00098 -56.5s-1 -33.5 -1 -49.5c-13.333 -7.33301 -30.166 -12.833 -50.499 -16.5s-40.833 -4.5 -61.5 -2.5c-1.33301 33.333 -9.33301 58 -24 74
s-38 24 -70 24c-38 0 -66 -11.667 -84 -35s-27 -58.333 -27 -105v-68h163c24.667 0.666992 51.167 2.5 79.5 5.5s53.5 7.5 75.5 13.5c8 -3.33301 14.333 -8.5 19 -15.5s7 -17.5 7 -31.5v-378c0 -37.333 -5.83301 -71.333 -17.5 -102s-26.834 -58.334 -45.501 -83.001
s-38.834 -45.834 -60.501 -63.501s-42.5 -31.834 -62.5 -42.501zM130.001 377.004c-18 6 -35.667 9.99902 -53 11.999s-32 3 -44 3c0 10.667 1.16699 20.834 3.5 30.501s5.83301 18.167 10.5 25.5h83v-71zM37.001 -2.99707c0 12 0.50293 22.334 1.50293 31.001
s2.5 16.334 4.5 23.001c18 1.33301 32 4.66602 42 9.99902s16.833 14.666 20.5 27.999s5.5 32.333 5.5 57v327c0 46.667 11.167 86.834 33.5 120.501s52.666 59.5 90.999 77.5s81.166 27 128.499 27c33.333 0 64.333 -4.5 93 -13.5s54 -23.167 76 -42.5l-55 -97
c-12 30.667 -28.667 54 -50 70s-47 24 -77 24c-33.333 0 -61.166 -11 -83.499 -33s-33.5 -57.667 -33.5 -107v-336c0 -30 2.66699 -52.833 8 -68.5s14.166 -26.334 26.499 -32.001s28.166 -9.5 47.499 -11.5c2.66699 -6.66699 4.5 -14.667 5.5 -24s1.5 -19.333 1.5 -30
c-16.667 1.33301 -37.334 2.16602 -62.001 2.49902s-50 0.5 -76 0.5c-27.333 0 -54.666 -0.166992 -81.999 -0.5s-49.333 -1.16602 -66 -2.49902zM227.004 377.004l0.00195312 71h246v-71c-18 6 -36.5 10.167 -55.5 12.5s-40.167 3.5 -63.5 3.5
c-30.667 0 -55.334 -1.5 -74.001 -4.5s-36.334 -6.83301 -53.001 -11.5z" />
    <glyph glyph-name="f_f_t.liga" unicode="fft" horiz-adv-x="1080" 
d="M354 448v-53c-31.333 0 -56.333 -1.5 -75 -4.5s-36 -7.16699 -52 -12.5v70h127zM111 463c0 46.667 11.1689 86.833 33.502 120.5s52.833 59.5 91.5 77.5s82 27 130 27c30 0 60 -4.33301 90 -13s57.333 -22.667 82 -42l-60 -98c-12 30.667 -28.833 54 -50.5 70
s-46.5 24 -74.5 24c-24.667 0 -45.834 -4.16699 -63.501 -12.5s-31.334 -22.5 -41.001 -42.5s-14.5 -47.333 -14.5 -82v-273h-123v244zM130.002 447.999v-71.001c-18 6 -35.667 10 -53 12s-32 3 -44 3c0 10.667 1.16699 20.834 3.5 30.501s5.83301 18.167 10.5 25.5h83z
M234.002 162.998c0 -30 2.66992 -52.8311 8.00293 -68.498s14.166 -26.334 26.499 -32.001s28.166 -9.5 47.499 -11.5c2.66699 -6.66699 4.5 -14.667 5.5 -24s1.5 -19.333 1.5 -30c-16.667 1.33301 -37.334 2.16602 -62.001 2.49902s-49.667 0.5 -75 0.5
c-28 0 -55.667 -0.166992 -83 -0.5s-49.333 -1.16602 -66 -2.49902c0 12 0.5 22.333 1.5 31s2.5 16.334 4.5 23.001c18 1.33301 32 4.66602 42 9.99902s16.833 14.666 20.5 27.999s5.5 32.333 5.5 57v81h123v-64zM682.005 448c0 -10 -0.666992 -20.1689 -2 -30.502
s-4 -19.166 -8 -26.499c-19.333 0 -37.333 -1.16699 -54 -3.5s-33 -6.16602 -49 -11.499v72h113zM472.005 447.998v-69c-18 5.33301 -36.5 9.33301 -55.5 12s-39.833 4 -62.5 4v53h118zM575.005 162.998c0 -28.667 3.16602 -50.832 9.49902 -66.499s16.5 -26.667 30.5 -33
s32.667 -10.5 56 -12.5c2.66699 -6.66699 4.33398 -14.667 5.00098 -24s1 -19.333 1 -30c-10.667 0.666992 -24 1.16699 -40 1.5s-32.833 0.666016 -50.5 0.999023s-35.167 0.5 -52.5 0.5c-27.333 0 -55.833 -0.166992 -85.5 -0.5s-52.834 -1.16602 -69.501 -2.49902
c0 12 0.333008 22.333 1 31s2.33398 16.334 5.00098 23.001c18 1.33301 31.833 4.66602 41.5 9.99902s16.5 14.666 20.5 27.999s6 32.333 6 57v81h122v-64zM682.004 448c0 -10 -0.666992 -20.1689 -2 -30.502s-4 -19.166 -8 -26.499c-19.333 0 -37.333 -1.16699 -54 -3.5
s-33 -6.16602 -49 -11.499v72h113zM453.004 463.998c0 40 7.16797 74.5 21.501 103.5s34 53 59 72s53.167 33.167 84.5 42.5s64 14 98 14c24 0 47.833 -3 71.5 -9s43.5 -14 59.5 -24l-5 -124h-40c0 22 -4.66699 40 -14 54s-22.333 24.5 -39 31.5s-35.334 10.5 -56.001 10.5
c-38 0 -67.167 -10.333 -87.5 -31s-30.5 -56.667 -30.5 -108v-291h-122v259zM826.005 510.998l-35.001 147.002c10.667 0.666992 22.667 2.16699 36 4.5s26.333 5.66602 39 9.99902s23.334 9.16602 32.001 14.499c8 -2.66699 14.5 -7.66699 19.5 -15s7.5 -18.333 7.5 -33
v-132zM802.004 448v127.001l123 -13v-114h125c0 -10 -0.666992 -19.667 -2 -29s-3.66602 -18.333 -6.99902 -27c-46 -1.33301 -84.667 -6 -116 -14v-223c0 -24.667 2 -44.334 6 -59.001s10 -25 18 -31s18 -9 30 -9s23.167 1.66699 33.5 5s20.166 8 29.499 14
c8.66699 -11.333 13.667 -25.666 15 -42.999c-12 -11.333 -29.833 -21 -53.5 -29s-47.167 -12 -70.5 -12c-44 0 -76.833 11.333 -98.5 34s-32.5 60 -32.5 112v243c-10 4 -20.667 7 -32 9s-25 3.33301 -41 4c0 10.667 0.833008 20.167 2.5 28.5s4.5 17.166 8.5 26.499h62z
M575.004 163.001c0 -28.667 3.16602 -50.832 9.49902 -66.499s16.5 -26.667 30.5 -33s32.667 -10.5 56 -12.5c2.66699 -6.66699 4.33398 -14.667 5.00098 -24s1 -19.333 1 -30c-10.667 0.666992 -24 1.16699 -40 1.5s-32.833 0.666016 -50.5 0.999023s-35.167 0.5 -52.5 0.5
c-27.333 0 -55.833 -0.166992 -85.5 -0.5s-52.834 -1.16602 -69.501 -2.49902c0 12 0.333008 22.333 1 31s2.33398 16.334 5.00098 23.001c18 1.33301 31.833 4.66602 41.5 9.99902s16.5 14.666 20.5 27.999s6 32.333 6 57v81h122v-64z" />
    <glyph glyph-name="f_i.liga" unicode="fi" horiz-adv-x="682" 
d="M37 -3c0 11.333 0.500977 21.335 1.50098 30.002s2.5 16.667 4.5 24c18 1.33301 32 4.66602 42 9.99902s16.833 14.5 20.5 27.5s5.5 31.833 5.5 56.5v234c-8.66699 3.33301 -20.834 6.5 -36.501 9.5s-29.5 4.5 -41.5 4.5c0 9.33301 1.16699 18.833 3.5 28.5
s5.83301 18.5 10.5 26.5h64v37c0 44.667 10.833 84.334 32.5 119.001s52.834 62 93.501 82s89.667 30 147 30c42.667 0 77.834 -3.33301 105.501 -10s51.167 -14.334 70.5 -23.001c-2.66699 -20.667 -4.33398 -39.5 -5.00098 -56.5s-1 -33.5 -1 -49.5
c-12.667 -7.33301 -29.334 -12.833 -50.001 -16.5s-41.334 -4.5 -62.001 -2.5c-0.666992 22 -4 40.333 -10 55s-15.333 25.5 -28 32.5s-29.334 10.5 -50.001 10.5c-44 0 -75 -11.667 -93 -35s-27 -58.333 -27 -105v-68h167c24.667 0.666992 51 2.5 79 5.5s53 7.5 75 13.5
c8 -3.33301 14.333 -8.5 19 -15.5s7 -17.5 7 -31.5v-282c0 -34 4.66699 -56.667 14 -68s25 -17.666 47 -18.999c2.66699 -7.33301 4.33398 -15.666 5.00098 -24.999s1 -19 1 -29c-9.33301 0.666992 -21.333 1.16699 -36 1.5s-30.334 0.666016 -47.001 0.999023
s-32.667 0.5 -48 0.5s-31.166 -0.166992 -47.499 -0.5s-31.833 -0.666016 -46.5 -0.999023s-27.334 -0.833008 -38.001 -1.5c0 11.333 0.5 21.333 1.5 30s2.5 16.667 4.5 24c26.667 1.33301 44.667 7.66602 54 18.999s14 33.666 14 66.999v172c0 18.667 -2.33301 34 -7 46
s-14.167 20.833 -28.5 26.5s-35.833 8.5 -64.5 8.5c-13.333 0 -28.666 -0.5 -45.999 -1.5s-33.166 -2.5 -47.499 -4.5s-24.833 -4 -31.5 -6v-228c0 -24.667 2 -43.834 6 -57.501s11.167 -23.5 21.5 -29.5s24.166 -10 41.499 -12
c2.66699 -7.33301 4.33398 -15.333 5.00098 -24s1 -18.667 1 -30c-15.333 1.33301 -34.666 2.16602 -57.999 2.49902s-47 0.5 -71 0.5c-24.667 0 -50.834 -0.166992 -78.501 -0.5s-49.167 -1.16602 -64.5 -2.49902z" />
    <glyph glyph-name="f_j.liga" unicode="fj" horiz-adv-x="645" 
d="M111 379c-8.66699 3.33301 -20.8311 6.50195 -36.498 9.50195s-29.5 4.5 -41.5 4.5c0 9.33301 1.16699 18.833 3.5 28.5s5.83301 18.5 10.5 26.5h64v37c0 44.667 10.833 84.334 32.5 119.001s52.834 62 93.501 82s89.667 30 147 30c42.667 0 77.834 -3.33301 105.501 -10
s51.167 -14.334 70.5 -23.001c-2.66699 -20.667 -4.33398 -39.5 -5.00098 -56.5s-1 -33.5 -1 -49.5c-12.667 -7.33301 -29.334 -12.833 -50.001 -16.5s-41.334 -4.5 -62.001 -2.5c-0.666992 22 -4 40.333 -10 55s-15.333 25.5 -28 32.5s-29.334 10.5 -50.001 10.5
c-44 0 -75 -11.667 -93 -35s-27 -58.333 -27 -105v-68h167l-40 -58c-14 0 -29.833 -0.5 -47.5 -1.5s-33.667 -2.5 -48 -4.5s-24.833 -4 -31.5 -6v-228c0 -24.667 2 -43.834 6 -57.501s11.167 -23.5 21.5 -29.5s24.166 -10 41.499 -12
c2.66699 -7.33301 4.33398 -15.333 5.00098 -24s1 -18.667 1 -30c-15.333 1.33301 -34.666 2.16602 -57.999 2.49902s-47 0.5 -71 0.5c-24.667 -0 -50.834 -0.166992 -78.501 -0.5s-49.167 -1.16602 -64.5 -2.49902c0 11.333 0.5 21.333 1.5 30s2.5 16.667 4.5 24
c18 1.33301 32 4.66602 42 9.99902s16.833 14.5 20.5 27.5s5.5 31.833 5.5 56.5v234zM459.003 309.002c0 18 -2.16699 32.833 -6.5 44.5s-13.5 20.5 -27.5 26.5s-35.333 9.33301 -64 10l40 58c24.667 0.666992 51 2.5 79 5.5s53 7.5 75 13.5
c8 -3.33301 14.333 -8.5 19 -15.5s7 -17.5 7 -31.5v-179h-122v68zM459.003 277.002l122.003 0.00292969v-235c0 -37.333 -5.83301 -71.333 -17.5 -102s-26.667 -58.334 -45 -83.001s-38.333 -45.834 -60 -63.501s-42.834 -31.834 -63.501 -42.501
c-7.33301 4 -13.833 9.66699 -19.5 17s-9.16699 16 -10.5 26c25.333 28 44.666 53.5 57.999 76.5s22.666 47.167 27.999 72.5s8 54.333 8 87v247z" />
    <glyph glyph-name="f_l.liga" unicode="fl" horiz-adv-x="682" 
d="M341 448c0 -10 -0.666992 -20.1689 -2 -30.502s-4 -19.166 -8 -26.499c-19.333 0 -37.5 -1.16699 -54.5 -3.5s-33.5 -6.16602 -49.5 -11.499v72h114zM111 483.998c0 40 7.33301 74.5 22 103.5s34.334 53 59.001 72s52.834 33.167 84.501 42.5s64.5 14 98.5 14
c24 0 47.5 -2.83301 70.5 -8.5s40.833 -12.167 53.5 -19.5l4 -129h-41c0 22 -4.83301 40 -14.5 54s-22.834 24.5 -39.501 31.5s-35.334 10.5 -56.001 10.5c-38 0 -67.167 -10.333 -87.5 -31s-30.5 -56.667 -30.5 -108v-297h-123v265zM130 447.998v-71.001
c-18 6 -35.667 10 -53 12s-32 3 -44 3c0 10.667 1.16699 20.834 3.5 30.501s5.83301 18.167 10.5 25.5h83zM234 162.997c0 -28.667 1.99902 -50.832 5.99902 -66.499s11.167 -26.667 21.5 -33s25.166 -10.5 44.499 -12.5c2.66699 -6.66699 4.33398 -14.667 5.00098 -24
s1 -19.333 1 -30c-16 1.33301 -35.667 2.16602 -59 2.49902s-48 0.5 -74 0.5c-27.333 0 -53.666 -0.166992 -78.999 -0.5s-46.333 -1.16602 -63 -2.49902c0 12 0.5 22.333 1.5 31s2.5 16.334 4.5 23.001c18 1.33301 32 4.66602 42 9.99902s16.833 14.666 20.5 27.999
s5.5 32.333 5.5 57v81h123v-64zM461.999 185.999l123 0.000976562v-48c0 -33.333 4.33301 -56 13 -68s24.667 -18.333 48 -19c2 -7.33301 3.5 -16 4.5 -26s1.5 -19.333 1.5 -28c-10.667 0.666992 -23.167 1.16699 -37.5 1.5s-29.5 0.666016 -45.5 0.999023s-32 0.5 -48 0.5
s-32.333 -0.166992 -49 -0.5s-32.167 -0.666016 -46.5 -0.999023s-26.833 -0.833008 -37.5 -1.5c0 10 0.5 19.667 1.5 29s2.83301 17.666 5.5 24.999c26.667 0.666992 44.5 7 53.5 19s13.5 34.667 13.5 68v48zM485.999 541l-34.001 147.002
c10.667 0.666992 22.5 2.16699 35.5 4.5s25.833 5.66602 38.5 9.99902s23.334 9.16602 32.001 14.499c8 -2.66699 14.5 -7.66699 19.5 -15s7.5 -18.333 7.5 -33v-132zM461.998 572.002h123v-400h-123v400z" />
    <glyph glyph-name="f_t.liga" unicode="ft" horiz-adv-x="738" 
d="M37 -3c0 12 0.499023 22.335 1.49902 31.002s2.5 16.334 4.5 23.001c18 1.33301 32 4.66602 42 9.99902s16.833 14.666 20.5 27.999s5.5 32.333 5.5 57v318c0 40 7.33301 74.5 22 103.5s34.334 53 59.001 72s52.667 33.167 84 42.5s64 14 98 14c24.667 0 48.667 -3 72 -9
s43.333 -14 60 -24l-5 -124h-41c0 22 -4.66699 40 -14 54s-22.166 24.5 -38.499 31.5s-35.166 10.5 -56.499 10.5c-38 0 -67 -10.333 -87 -31s-30 -56.667 -30 -108v-333c0 -28.667 3 -50.834 9 -66.501s16.167 -26.667 30.5 -33s32.833 -10.5 55.5 -12.5
c2.66699 -6.66699 4.33398 -14.667 5.00098 -24s1 -19.333 1 -30c-10.667 0.666992 -23.834 1.16699 -39.501 1.5s-32.334 0.666016 -50.001 0.999023s-35.5 0.5 -53.5 0.5c-27.333 0 -55.833 -0.166992 -85.5 -0.5s-52.834 -1.16602 -69.501 -2.49902zM129.999 377.002
c-18 6 -35.667 9.99902 -53 11.999s-32 3 -44 3c0 10.667 1.16699 20.834 3.5 30.501s5.83301 18.167 10.5 25.5h83v-71zM226.999 376.001v71.998h114c0 -10 -0.666992 -20.167 -2 -30.5s-4 -19.166 -8 -26.499c-19.333 0 -37.5 -1.16699 -54.5 -3.5
s-33.5 -6.16602 -49.5 -11.499zM589.999 -9.00098c-43.333 0 -75.832 11.3359 -97.499 34.0029s-32.5 60 -32.5 112v243c-10 4 -20.5 7 -31.5 9s-24.833 3.33301 -41.5 4c0 10.667 0.833008 20.167 2.5 28.5s4.5 17.166 8.5 26.499h62v127l-10 83
c10.667 0.666992 22.5 2.16699 35.5 4.5s25.667 5.66602 38 9.99902s23.166 9.16602 32.499 14.499c7.33301 -2.66699 13.666 -7.66699 18.999 -15s8 -18.333 8 -33v-191h125c0 -10 -0.833008 -19.667 -2.5 -29s-4.16699 -18.333 -7.5 -27
c-45.333 -1.33301 -83.666 -6 -114.999 -14v-223c0 -24.667 1.83301 -44.334 5.5 -59.001s9.66699 -25 18 -31s18.166 -9 29.499 -9c12 0 23.333 1.66699 34 5s20.334 8 29.001 14c9.33301 -11.333 14.333 -25.666 15 -42.999c-12 -11.333 -29.667 -21 -53 -29
s-47 -12 -71 -12z" />
    <glyph glyph-name="longs_t.liga" unicode="&#x17f;t" horiz-adv-x="720" 
d="M130 448v-71.001c-18 6 -35.667 10 -53 12s-32 3 -44 3c0 10.667 1.16699 20.834 3.5 30.501s5.83301 18.167 10.5 25.5h83zM234 162.999c0 -28.667 3.00195 -50.832 9.00195 -66.499s16.167 -26.667 30.5 -33s32.833 -10.5 55.5 -12.5
c2.66699 -6.66699 4.33398 -14.667 5.00098 -24s1 -19.333 1 -30c-10.667 0.666992 -23.834 1.16699 -39.501 1.5s-32.334 0.666016 -50.001 0.999023s-35.5 0.5 -53.5 0.5c-27.333 0 -55.833 -0.166992 -85.5 -0.5s-52.834 -1.16602 -69.501 -2.49902
c0 12 0.5 22.333 1.5 31s2.5 16.334 4.5 23.001c18 1.33301 32 4.66602 42 9.99902s16.833 14.666 20.5 27.999s5.5 32.333 5.5 57v81h123v-64zM442.002 448.001l-0.000976562 127.002c18.667 3.33301 37.167 9.16602 55.5 17.499s33.5 17.5 45.5 27.5
c8.66699 -3.33301 14.5 -8.33301 17.5 -15s4.5 -21 4.5 -43v-114h125c0 -10 -0.833008 -19.667 -2.5 -29s-4.16699 -18.333 -7.5 -27c-45.333 -1.33301 -83.666 -6 -114.999 -14v-223c0 -24.667 1.83301 -44.334 5.5 -59.001s9.66699 -25 18 -31s18.166 -9 29.499 -9
c12 0 23.333 1.66699 34 5s20.334 8 29.001 14c9.33301 -11.333 14.333 -25.666 15 -42.999c-11.333 -11.333 -28.833 -21 -52.5 -29s-47.5 -12 -71.5 -12c-43.333 0 -75.833 11.333 -97.5 34s-32.5 60 -32.5 112v243c-10.667 4 -21.5 7 -32.5 9s-24.5 3.33301 -40.5 4
c0 10.667 0.666992 20.167 2 28.5s4 17.166 8 26.499h63zM111.001 464.003c0 49.333 10.666 91.168 31.999 125.501s50.333 60.666 87 78.999s78.334 27.5 125.001 27.5c28 0 52.833 -3 74.5 -9s40.834 -14 57.501 -24l-5 -124h-40c0 32 -9 56 -27 72s-42.333 24 -73 24
c-34.667 0 -61.334 -11 -80.001 -33s-28 -57.333 -28 -106v-291h-123v259zM465 511.005l-33.999 147.002c10.667 0.666992 22.5 2.16699 35.5 4.5s25.833 5.66602 38.5 9.99902s23.667 9.16602 33 14.499c7.33301 -2.66699 13.666 -7.66699 18.999 -15s8 -18.333 8 -33v-132
z" />
    <glyph glyph-name="longs_h.liga" unicode="&#x17f;h" horiz-adv-x="958" 
d="M111 484c0 40 6.8291 74.5 20.4961 103.5s31.834 53 54.501 72s48.334 33.167 77.001 42.5s58 14 88 14c24.667 0 47.334 -2.83301 68.001 -8.5s37.334 -12.167 50.001 -19.5l3 -129h-40c0 32 -9.16699 56 -27.5 72s-42.5 24 -72.5 24c-33.333 0 -58 -10.333 -74 -31
s-24 -56.667 -24 -108v-297h-123v265zM129.996 448v-71.001c-18 6 -35.667 10 -53 12s-32 3 -44 3c0 10.667 1.16699 20.834 3.5 30.501s5.83301 18.167 10.5 25.5h83zM233.996 162.999c0 -28.667 1.83105 -50.832 5.49805 -66.499s10.5 -26.667 20.5 -33
s24.333 -10.5 43 -12.5c2.66699 -6.66699 4.33398 -14.667 5.00098 -24s1 -19.333 1 -30c-16.667 1.33301 -36 2.16602 -58 2.49902s-46 0.5 -72 0.5c-27.333 0 -53.666 -0.166992 -78.999 -0.5s-46.333 -1.16602 -63 -2.49902c0 12 0.5 22.333 1.5 31
s2.5 16.334 4.5 23.001c18 1.33301 32 4.66602 42 9.99902s16.833 14.666 20.5 27.999s5.5 32.333 5.5 57v81h123v-64zM455.994 541.001l-35.001 147.002c10.667 0.666992 22.667 2.16699 36 4.5s26.333 5.66602 39 9.99902s23.334 9.16602 32.001 14.499
c8 -2.66699 14.333 -7.66699 19 -15s7 -18.333 7 -33v-132zM862.993 138.003c0 -34 4.33594 -57.002 13.0029 -69.002s22.334 -18 41.001 -18c2.66699 -7.33301 4.5 -15.166 5.5 -23.499s1.5 -18.5 1.5 -30.5c-14.667 1.33301 -32.834 2.16602 -54.501 2.49902
s-43.167 0.5 -64.5 0.5c-14 0 -29.5 -0.166992 -46.5 -0.5s-33 -0.666016 -48 -0.999023s-27.833 -0.833008 -38.5 -1.5c0 10.667 0.333008 20.5 1 29.5s2.66699 17.167 6 24.5c20.667 0 36.167 6.5 46.5 19.5s15.5 36.833 15.5 71.5v125c0 44.667 -7.5 75.167 -22.5 91.5
s-35.167 24.5 -60.5 24.5c-17.333 0 -33.833 -5.83301 -49.5 -17.5s-28.667 -29.5 -39 -53.5s-15.5 -54.667 -15.5 -92v-82c0 -33.333 4.83301 -56.166 14.5 -68.499s25.5 -18.5 47.5 -18.5c3.33301 -8 5.33301 -16.167 6 -24.5s1 -18.166 1 -29.499
c-9.33301 0.666992 -21.5 1.16699 -36.5 1.5l-47 1c-16.333 0.333008 -31.833 0.5 -46.5 0.5c-14 0 -29.667 -0.166992 -47 -0.5s-33.833 -0.666016 -49.5 -0.999023s-28.5 -0.833008 -38.5 -1.5c0 11.333 0.5 21.666 1.5 30.999s2.83301 17 5.5 23
c26 0 43.667 6.16699 53 18.5s14 35.166 14 68.499v169l122 110c0 -8 -0.5 -17.167 -1.5 -27.5s-3.16699 -21.166 -6.5 -32.499c2.66699 6.66699 5.66699 13.334 9 20.001s7.66602 13 12.999 19c13.333 15.333 32.166 30.166 56.499 44.499s52.833 21.5 85.5 21.5
c26.667 0 51.667 -5.33301 75 -16s42.166 -27.834 56.499 -51.501s21.5 -55.5 21.5 -95.5v-161zM431.996 572.001h122v-155l-122 -132v287z" />
    <glyph glyph-name="longs_i.liga" unicode="&#x17f;i" horiz-adv-x="675" 
d="M574 138c0 -33.333 4.49707 -55.9961 13.4971 -67.9961s24.833 -18.333 47.5 -19c2.66699 -7.33301 4.33398 -16 5.00098 -26s1 -19.333 1 -28c-10 0.666992 -22.167 1.16699 -36.5 1.5s-29.666 0.666016 -45.999 0.999023s-32.5 0.5 -48.5 0.5
s-32.333 -0.166992 -49 -0.5s-32.167 -0.666016 -46.5 -0.999023s-26.5 -0.833008 -36.5 -1.5c0 10 0.333008 19.667 1 29s2.33398 17.666 5.00098 24.999c26.667 0.666992 44.667 7 54 19s14 34.667 14 68v175c0 16 -1.66699 29 -5 39s-10.333 17.667 -21 23
s-27 8.33301 -49 9c0 9.33301 0.666992 18.166 2 26.499s4 15.833 8 22.5c18 0 37.667 1.66699 59 5s41.333 7.66602 60 12.999s32.667 10.666 42 15.999c7.33301 -2.66699 13.5 -7.66699 18.5 -15s7.5 -18.333 7.5 -33v-281zM110.997 379.004
c-8.66699 3.33301 -20.8311 6.50195 -36.498 9.50195s-29.5 4.5 -41.5 4.5c0 9.33301 1.16699 18.833 3.5 28.5s5.83301 18.5 10.5 26.5h64v37c0 44.667 10.833 84.334 32.5 119.001s52.834 62 93.501 82s89.667 30 147 30c42.667 0 77.834 -3.33301 105.501 -10
s51.167 -14.334 70.5 -23.001c-2.66699 -20.667 -4.33398 -39.5 -5.00098 -56.5s-1 -33.5 -1 -49.5c-12.667 -7.33301 -29.334 -12.833 -50.001 -16.5s-41.334 -4.5 -62.001 -2.5c-0.666992 22 -4 40.333 -10 55s-15.333 25.5 -28 32.5s-29.334 10.5 -50.001 10.5
c-44 0 -75 -11.667 -93 -35s-27 -58.333 -27 -105v-366c0 -24.667 2 -43.834 6 -57.501s11.167 -23.5 21.5 -29.5s24.166 -10 41.499 -12c2.66699 -7.33301 4.33398 -15.333 5.00098 -24s1 -18.667 1 -30c-15.333 1.33301 -34.666 2.16602 -57.999 2.49902s-47 0.5 -71 0.5
c-24.667 0 -50.834 -0.166992 -78.501 -0.5s-49.167 -1.16602 -64.5 -2.49902c0 11.333 0.5 21.333 1.5 30s2.5 16.667 4.5 24c18 1.33301 32 4.66602 42 9.99902s16.833 14.5 20.5 27.5s5.5 31.833 5.5 56.5v234z" />
    <glyph glyph-name="longs_longs.liga" unicode="&#x17f;&#x17f;" horiz-adv-x="664" 
d="M351 698c29.333 0 56.666 -3.66797 81.999 -11.001s47 -18.333 65 -33l-52 -79c-9.33301 18 -23.166 33.167 -41.499 45.5s-41.166 18.5 -68.499 18.5c-20 0 -37.833 -4.16699 -53.5 -12.5s-27.667 -22.5 -36 -42.5s-12.5 -47.333 -12.5 -82v-283h-123v254
c0 46.667 10.5 86.834 31.5 120.501s49.667 59.5 86 77.5s77.166 27 122.499 27zM234 226.999v-63.998c0 -30 2.5 -52.833 7.5 -68.5s13.667 -26.334 26 -32.001s28.166 -9.5 47.499 -11.5c2.66699 -6.66699 4.33398 -14.667 5.00098 -24s1 -19.333 1 -30
c-16.667 1.33301 -37 2.16602 -61 2.49902s-48.667 0.5 -74 0.5c-28 0 -55.667 -0.166992 -83 -0.5s-49.333 -1.16602 -66 -2.49902c0 12 0.5 22.333 1.5 31s2.5 16.334 4.5 23.001c18 1.33301 32 4.66602 42 9.99902s16.833 14.666 20.5 27.999s5.5 32.333 5.5 57v81h123z
M130 448.001v-71.001c-18 6 -35.667 10 -53 12s-32 3 -44 3c0 10.667 1.16699 20.834 3.5 30.501s5.83301 18.167 10.5 25.5h83zM545 227l-0.000976562 -63.998c0 -28.667 3 -50.834 9 -66.501s16 -26.667 30 -33s32.667 -10.5 56 -12.5
c2.66699 -6.66699 4.33398 -14.667 5.00098 -24s1 -19.333 1 -30c-10.667 0.666992 -23.834 1.16699 -39.501 1.5s-32.5 0.666016 -50.5 0.999023s-35.667 0.5 -53 0.5c-18 -0 -37 -0.166992 -57 -0.5s-38.333 -0.666016 -55 -0.999023s-30.334 -0.833008 -41.001 -1.5
c0 12 0.333008 22.333 1 31s2.33398 16.334 5.00098 23.001c17.333 1.33301 30.833 4.66602 40.5 9.99902s16.334 14.666 20.001 27.999s5.5 32.333 5.5 57v81h123zM440.999 448.002v-71.001c-18 6 -35.667 10 -53 12s-32 3 -44 3c0 10.667 1.16699 20.834 3.5 30.501
s5.83301 18.167 10.5 25.5h83zM644.999 715.001c26.667 0 49.166 -2.66406 67.499 -7.99707s33.5 -12 45.5 -20c-2 -20 -3.33301 -41 -4 -63s-0.666992 -42 0 -60c-10 -4 -22.333 -6.66699 -37 -8s-28 -2 -40 -2c0 29.333 -5.5 53.166 -16.5 71.499s-28.5 27.5 -52.5 27.5
c-15.333 0 -27.666 -4.83301 -36.999 -14.5s-16 -24.334 -20 -44.001s-6 -45.834 -6 -78.501v-391h-123v359c0 52 10.5 95 31.5 129s48.333 59.5 82 76.5s70.167 25.5 109.5 25.5z" />
    <glyph glyph-name="Yi_Yicy.rlig" unicode="&#x407;&#x407;" horiz-adv-x="743" 
d="M93 728c-20.667 0 -37.333 5.66797 -50 17.001s-19 24.666 -19 39.999c0 16.667 5.16699 31.5 15.5 44.5s27.5 19.5 51.5 19.5s41.5 -5.83301 52.5 -17.5s16.5 -26.5 16.5 -44.5c0 -16.667 -6.5 -30.667 -19.5 -42s-28.833 -17 -47.5 -17zM271.001 729.001
c-24 0 -42 6.00098 -54 18.001s-18 27 -18 45s6.33301 32 19 42s29 15 49 15s36.5 -5.33301 49.5 -16s19.5 -24.334 19.5 -41.001c0 -16 -4.83301 -30.5 -14.5 -43.5s-26.5 -19.5 -50.5 -19.5zM475.001 728.002c-20.667 0 -37.333 5.66797 -50 17.001s-19 24.666 -19 39.999
c0 16.667 5.16699 31.5 15.5 44.5s27.5 19.5 51.5 19.5s41.5 -5.83301 52.5 -17.5s16.5 -26.5 16.5 -44.5c0 -16.667 -6.33301 -30.667 -19 -42s-28.667 -17 -48 -17zM653.002 729.003c-23.333 0 -41.167 6.00098 -53.5 18.001s-18.5 27 -18.5 45s6.33301 32 19 42
s29.334 15 50.001 15c20 0 36.5 -5.33301 49.5 -16s19.5 -24.334 19.5 -41.001c0 -16 -4.83301 -30.5 -14.5 -43.5s-26.834 -19.5 -51.501 -19.5zM121.001 530.004c0 25.333 -1.82812 44.3301 -5.49512 56.9971s-10.334 21.834 -20.001 27.501s-23.834 9.16699 -42.501 10.5
c-2 6.66699 -3.5 14.834 -4.5 24.501s-1.5 19.5 -1.5 29.5c12 -0.666992 26 -1.16699 42 -1.5l50 -1c17.333 -0.333008 33.333 -0.5 48 -0.5s30 0.166992 46 0.5l47 1c15.333 0.333008 29.666 0.833008 42.999 1.5c0 -10 -0.333008 -19.5 -1 -28.5
s-2.33398 -17.5 -5.00098 -25.5c-18 -1.33301 -32 -4.66602 -42 -9.99902s-16.833 -14.5 -20.5 -27.5s-5.5 -32.167 -5.5 -57.5v-384c0 -24.667 1.83301 -43.667 5.5 -57s10.667 -22.666 21 -27.999s24.166 -8.66602 41.499 -9.99902c2 -6 3.5 -13.833 4.5 -23.5
s1.5 -19.834 1.5 -30.501c-18 1.33301 -38.667 2.16602 -62 2.49902s-47 0.5 -71 0.5c-24.667 0 -49.834 -0.166992 -75.501 -0.5s-48.167 -1.16602 -67.5 -2.49902c0 10 0.5 19.833 1.5 29.5s2.83301 17.834 5.5 24.501c18 1.33301 31.833 4.66602 41.5 9.99902
s16.334 14.666 20.001 27.999s5.5 32.333 5.5 57v384zM492.006 530.001c0 25.333 -1.83203 44.3291 -5.49902 56.9961s-10.334 21.834 -20.001 27.501s-23.5 9.16699 -41.5 10.5c-2.66699 6.66699 -4.5 14.834 -5.5 24.501s-1.5 19.5 -1.5 29.5
c12.667 -0.666992 26.834 -1.16699 42.501 -1.5s32.167 -0.666016 49.5 -0.999023s33.333 -0.5 48 -0.5c15.333 0 30.833 0.166992 46.5 0.5l46.5 1c15.333 0.333008 29.666 0.833008 42.999 1.5c0 -10 -0.333008 -19.5 -1 -28.5s-2.33398 -17.5 -5.00098 -25.5
c-17.333 -1.33301 -31 -4.66602 -41 -9.99902s-17 -14.5 -21 -27.5s-6 -32.167 -6 -57.5v-384c0 -24.667 2 -43.667 6 -57s11 -22.666 21 -27.999s24 -8.66602 42 -9.99902c2 -6 3.33301 -13.833 4 -23.5s1 -19.834 1 -30.501c-18 1.33301 -38.5 2.16602 -61.5 2.49902
s-46.833 0.5 -71.5 0.5c-24 0 -49 -0.166992 -75 -0.5s-48.667 -1.16602 -68 -2.49902c0 10 0.666992 19.833 2 29.5s3 17.834 5 24.501c18 1.33301 31.833 4.66602 41.5 9.99902s16.334 14.666 20.001 27.999s5.5 32.333 5.5 57v384z" />
    <glyph glyph-name="yi_yicy.rlig" unicode="&#x457;&#x457;" horiz-adv-x="659" 
d="M599 524c-24 0 -42.168 6.16699 -54.501 18.5s-18.5 28.5 -18.5 48.5c0 19.333 6.33301 34.333 19 45s29.334 16 50.001 16s37.5 -5.66699 50.5 -17s19.5 -26 19.5 -44c0 -16.667 -5 -32 -15 -46s-27 -21 -51 -21zM419.999 524c-20.667 0 -37.5 5.66895 -50.5 17.002
s-19.5 25.666 -19.5 42.999s5.33301 33 16 47s28 21 52 21s41.667 -6.33301 53 -19s17 -28.334 17 -47.001c0 -18 -6.5 -32.833 -19.5 -44.5s-29.167 -17.5 -48.5 -17.5zM237.999 524.002c-23.333 0 -41.168 6.16699 -53.501 18.5s-18.5 28.5 -18.5 48.5
c0 19.333 6.33301 34.333 19 45s29.334 16 50.001 16c20 0 36.667 -5.66699 50 -17s20 -26 20 -44c0 -16.667 -5 -32 -15 -46s-27.333 -21 -52 -21zM59.9971 524.002c-20.667 0 -37.5 5.66895 -50.5 17.002s-19.5 25.666 -19.5 42.999s5.33301 33 16 47s27.667 21 51 21
c24.667 0 42.5 -6.33301 53.5 -19s16.5 -28.334 16.5 -47.001c0 -18 -6.5 -32.833 -19.5 -44.5s-28.833 -17.5 -47.5 -17.5zM34.9971 -2.99609c0 10 0.49707 19.6709 1.49707 29.0039s2.83301 17.666 5.5 24.999c26.667 0.666992 44.5 7 53.5 19s13.5 34.667 13.5 68v175
c0 16 -1.66699 29 -5 39s-10.333 17.667 -21 23s-26.667 8.33301 -48 9c0 9.33301 0.666992 18.166 2 26.499s4 15.833 8 22.5c17.333 0 36.833 1.66699 58.5 5s41.834 7.66602 60.501 12.999s32.334 10.666 41.001 15.999c8 -2.66699 14.5 -7.66699 19.5 -15
s7.5 -18.333 7.5 -33v-281c0 -33.333 4.33301 -56 13 -68s24.667 -18.333 48 -19c2.66699 -7.33301 4.33398 -16 5.00098 -26s1 -19.333 1 -28c-10.667 0.666992 -23.167 1.16699 -37.5 1.5s-29.5 0.666016 -45.5 0.999023s-32 0.5 -48 0.5s-32.333 -0.166992 -49 -0.5
s-32.167 -0.666016 -46.5 -0.999023s-26.833 -0.833008 -37.5 -1.5zM364.994 -2.99219c0 10 0.499023 19.6709 1.49902 29.0039s2.5 17.666 4.5 24.999c26.667 0.666992 44.667 7 54 19s14 34.667 14 68v175c0 16 -1.66699 29 -5 39s-10.333 17.667 -21 23
s-27 8.33301 -49 9c0 9.33301 0.833008 18.166 2.5 26.499s4.5 15.833 8.5 22.5c17.333 0 36.833 1.66699 58.5 5s41.834 7.66602 60.501 12.999s32.334 10.666 41.001 15.999c8 -2.66699 14.333 -7.66699 19 -15s7 -18.333 7 -33v-281c0 -33.333 4.5 -56 13.5 -68
s25.167 -18.333 48.5 -19c2 -7.33301 3.5 -16 4.5 -26s1.5 -19.333 1.5 -28c-10.667 0.666992 -23.167 1.16699 -37.5 1.5s-29.5 0.666016 -45.5 0.999023s-32.333 0.5 -49 0.5c-15.333 0 -31.333 -0.166992 -48 -0.5s-32.334 -0.666016 -47.001 -0.999023
s-27 -0.833008 -37 -1.5z" />
    <glyph glyph-name=".notdef" horiz-adv-x="454" 
d="M51 0v677h352v-677h-352zM112 99c3.33301 0 5 1.66699 5 5s-1.66699 5 -5 5s-5 -1.66699 -5 -5s1.66699 -5 5 -5zM117 163c3.33301 0 5.66602 0.666992 6.99902 2l-1 3c-1.33301 -0.666992 -2.66602 -1 -3.99902 -1c-2 0 -3 2 -3 6v16h7v3h-7v7c0 2 -0.666992 3 -2 3
l-5 -3v-7h-5v-3h5v-18c0 -5.33301 2.66699 -8 8 -8zM133 148c2 0 3.83301 0.833008 5.5 2.5s3.5 5.16699 5.5 10.5l9 22c2 4 3.66699 6 5 6v3h-12v-3c4 0 5 -2.33301 3 -7l-4 -11l-5 12c-2 4 -1 6 3 6v3h-17v-3c2.66699 0 4.66699 -2 6 -6l9 -21
c-0.666992 -2 -1.5 -3.83301 -2.5 -5.5s-2.83301 -2.5 -5.5 -2.5c-1.33301 0 -3 0.333008 -5 1v-5c1.33301 -1.33301 3 -2 5 -2zM161 148h18.001v3c-4 0 -6 2 -6 6v6h5c10.667 0 16 5.33301 16 16c0 9.33301 -3.66699 14 -11 14c-4.66699 0 -8 -2 -10 -6v3
c0 1.33301 -0.333008 2.33301 -1 3c-2.66699 -1.33301 -6.33398 -2 -11.001 -2v-3c3.33301 0 5 -1.66699 5 -5v-26c0 -4 -1.66699 -6 -5 -6v-3zM178.001 167h-5v9c0 8 2.33301 12 7 12c4 0 6 -3.33301 6 -10c0 -4.66699 -1 -7.66699 -3 -9s-3.66699 -2 -5 -2zM118.001 227h4
l9 21c2 4 3.66699 6 5 6v3h-12v-3c4 0 5 -2 3 -6l-5 -13l-4 10c-2 6 -1.33301 9 2 9v3h-16v-3c2 0 3.66699 -2 5 -6zM213.001 163c4.66699 0 8.33301 1.33301 11 4l-2 3c-2 -2 -4.66699 -3 -8 -3c-5.33301 0 -8 3.33301 -8 10h17l1 3c0 8.66699 -4 13 -12 13
c-9.33301 0 -14 -5 -14 -15s5 -15 15 -15zM153 227c10 0 15 5 15 15s-5 15 -15 15s-15 -5 -15 -15s5 -15 15 -15zM153 231c-4.66699 0 -7 3.66699 -7 11s2.33301 11 7 11s7 -3.66699 7 -11s-2.33301 -11 -7 -11zM206 181c0 5.33301 1.66699 8 5 8c4 0 6 -2.66699 6 -8h-11z
M229 163h17v3c-4 0 -6 2 -6 6v17h7v3h-7c0 7.33301 1.33301 11 4 11c3.33301 0 5 -2 5 -6h4v8c-1.33301 1.33301 -3.33301 2 -6 2c-9.33301 0 -14 -4.66699 -14 -14v-1h-5v-3h5v-17c0 -4 -1.33301 -6 -4 -6v-3zM171 227h16v3c-2.66699 0 -4 2 -4 6v32c0 2 -0.666992 3 -2 3
c-2.66699 -1.33301 -6 -2 -10 -2v-3c3.33301 0 5 -1.33301 5 -4v-26c0 -4 -1.66699 -6 -5 -6v-3zM262 167c-2 0 -3 1.33301 -3 4s3 4.66699 9 6c0 -6.66699 -2 -10 -6 -10zM259 163c5.33301 0 8.66699 1.66699 10 5c0 -3.33301 0.666992 -5 2 -5l7 2v3c-2 0 -3 1.66699 -3 5
v7c0 5.33301 -1 8.83301 -3 10.5s-4.66699 2.5 -8 2.5c-4 0 -7.66699 -1 -11 -3l1 -7h4c0 4 1.66699 6 5 6s5 -3 5 -9c-2.66699 -0.666992 -6.16699 -1.66699 -10.5 -3s-6.5 -4 -6.5 -8s2.66699 -6 8 -6zM191.001 227h15v3c-2.66699 0 -4 2 -4 6v32c0 2 -0.666992 3 -2 3
c-2.66699 -1.33301 -6 -2 -10 -2v-3c3.33301 0 5 -1.33301 5 -4v-26c0 -4 -1.33301 -6 -4 -6v-3zM296.001 163c4 0 7.33301 1.33301 10 4l-2 3c-2 -2 -4.33301 -3 -7 -3c-5.33301 0 -8 3.66699 -8 11s2 11 6 11c3.33301 0 5.33301 -2.33301 6 -7h4v8c-2 2 -5 3 -9 3
c-9.33301 0 -14 -5 -14 -15s4.66699 -15 14 -15zM211.001 227h15v3c-2.66699 0 -4 2 -4 6v5l11 -14h9v3c-2 0 -6.66699 4.66699 -14 14c4 4 6.83301 6.5 8.5 7.5s3.16699 1.5 4.5 1.5v3h-14v-3c2 0 3 -0.333008 3 -1c0 -1.33301 -2.66699 -4.33301 -8 -9v25
c0 2 -0.666992 3 -2 3c-2.66699 -1.33301 -6 -2 -10 -2v-3c3.33301 0 5 -1.33301 5 -4v-26c0 -4 -1.33301 -6 -4 -6v-3zM102.001 329v70h70v-70h-70zM112.001 339h50v50h-50v-50zM122.001 349v30h30v-30h-30zM102.001 409v10h30v-10h-30zM102.001 429v10h10v10h10v-20h-20z
M182.001 329v30h10v-20h10v20h10v10h10v-20h-10v-10h10v10h10v-20h-50zM306.001 227h14.999v3c-2.66699 0 -4 2 -4 6v6c0 7.33301 2.33301 11 7 11c3.33301 0 5 -2.66699 5 -8v-9c0 -4 -1.33301 -6 -4 -6v-3h15v3c-2.66699 0 -4 2 -4 6v10c0 7.33301 -3 11 -9 11
c-5.33301 0 -8.66602 -2.33301 -9.99902 -7v3c0 2 -0.666992 3.33301 -2 4c-2.66699 -1.33301 -5.66699 -2 -9 -2v-3c2.66699 0 4 -1.66699 4 -5v-11c0 -4 -1.33301 -6 -4 -6v-3zM182 379v10h10v-10h-10zM142 409v20h20v-10h20v-10h-40zM182 399v10h10v-10h-10zM242 339v20
h10v-20h-10zM345 240h18v6h-18v-6zM132 459v10h10v-10h-10zM132 429v20h20v10h30v-20h-10v10h-10v-10h-20v-10h-10zM162 429v10h10v-10h-10zM262 329v20h10v-20h-10zM102 459v40h30v-10h20v10h20v-10h-10v-10h20v-10h-30v10h-40v-10h10v-10h-20zM312 329v10h10v-10h-10z
M92 319h270v270h-270v-270zM102 509v70h70v-70h-70zM112 519h50v50h-50v-50zM122 529v30h30v-30h-30zM272 379h30v30h-30v-30zM282 389v10h10v-10h-10zM342 329v10h10v-10h-10zM232 469v10h10v-10h-10zM332 379v10h10v-10h-10zM282 339v10h20v10h-10v10h-10v-20h-10v10h-20
v20h-10v10h-10v-20h-10v10h-10v-10h-20v10h10v10h-10v10h10v20h-20v20h10v30h10v-40h10v20h10v10h-10v20h-20v10h-10v50h20v20h-20v20h10v-10h10v10h30v-20h-10v10h-10v-20h10v-10h-10v-10h-20v-30h10v20h10v-30h10v50h10v20h10v-10h10v-10h-10v-10h-10v-50h-10v-10h10v-30
h-10v-20h10v-20h20v-10h10v10h-10v50h10v10h-20v10h10v20h10v-10h10v-50h-10v-10h30v20h-10v20h10v10h20v20h10v-10h10v-10h-10v-10h-20v-40h10v-20h10v-10h-10v-10h10v-10h20v-10h10v-10h-20v10h-20v-20h-30zM322 399v10h10v-10h-10zM342 389v20h10v-20h-10zM332 409v10h10
v-10h-10zM312 429v10h20v-10h-20zM242 509v10h10v-10h-10zM342 429v10h-10v10h10v10h10v-30h-10zM282 479v10h-20v40h10v-30h40v-10h-10v-10h-20zM252 549v10h10v-10h-10zM262 539v10h10v-10h-10zM342 469v10h-10v20h20v-30h-10zM282 509v70h70v-70h-70zM292 519h50v50h-50
v-50zM302 529v30h30v-30h-30zM278 227h18v3c-4 0 -6 2 -6 6v5c0 6.66699 1.66699 10 5 10c2 0 3 -1.33301 3 -4h4v9c-0.666992 0.666992 -2 1 -4 1c-3.33301 0 -6 -2.33301 -8 -7v3c0 2 -0.666992 3.33301 -2 4c-2.66699 -1.33301 -6 -2 -10 -2v-3
c3.33301 0 5 -1.66699 5 -5v-11c0 -4 -1.66699 -6 -5 -6v-3zM259 227c10 0 15 5 15 15s-5 15 -15 15s-15 -5 -15 -15s5 -15 15 -15zM259 231c-4.66699 0 -7 3.66699 -7 11s2.33301 11 7 11s7 -3.66699 7 -11s-2.33301 -11 -7 -11zM325 163c4.66699 0 8.33301 1.33301 11 4
l-2 3c-2 -2 -4.66699 -3 -8 -3c-5.33301 0 -8 3.33301 -8 10h17l1 3c0 8.66699 -4 13 -12 13c-9.33301 0 -14 -5 -14 -15s5 -15 15 -15zM317.999 181c0 5.33301 1.66699 8 5 8c4 0 6 -2.66699 6 -8h-11zM137.999 99c4 0 7.33301 1.33301 10 4l-2 3c-2 -2 -4.33301 -3 -7 -3
c-5.33301 0 -8 3.66699 -8 11s2 11 6 11c3.33301 0 5.33301 -2.33301 6 -7h4v8c-2 2 -5 3 -9 3c-9.33301 0 -14 -5 -14 -15s4.66699 -15 14 -15zM166.999 99c10 0 15 5 15 15s-5 15 -15 15s-15 -5 -15 -15s5 -15 15 -15zM166.999 103c-4.66699 0 -7 3.66699 -7 11
s2.33301 11 7 11s7 -3.66699 7 -11s-2.33301 -11 -7 -11zM214.999 114c0 7.33301 2.33105 11 6.99805 11c3.33301 0 5 -2.66699 5 -8v-9c0 -4 -1.33301 -6 -4 -6v-3h15v3c-2.66699 0 -4 2 -4 6v10c0 7.33301 -3 11 -9 11c-5.33301 0 -8.66602 -2 -9.99902 -6
c-1.33301 4 -4.33301 6 -9 6c-5.33301 0 -8.66602 -2.33301 -9.99902 -7v3c0 2 -0.666992 3.33301 -2 4c-2.66699 -1.33301 -5.66699 -2 -9 -2v-3c2.66699 0 4 -1.66699 4 -5v-11c0 -4 -1.33301 -6 -4 -6v-3h15v3c-2.66699 0 -4 2 -4 6v6c0 7.33301 2.33301 11 7 11
c3.33301 0 5 -2.66699 5 -8v-9c0 -4 -1.33301 -6 -4 -6v-3h15v3c-2.66699 0 -4 2 -4 6v6z" />
    <glyph glyph-name="CR" unicode="&#xd;" horiz-adv-x="200" 
 />
    <glyph glyph-name="space" unicode=" " horiz-adv-x="200" 
 />
    <glyph glyph-name="exclam" unicode="!" horiz-adv-x="411" 
d="M275 668c-4 -37.333 -8.33301 -80.165 -13 -128.498s-9 -98.5 -13 -150.5s-7.33301 -101.667 -10 -149c-9.33301 -4 -19.333 -6.5 -30 -7.5s-21.667 -1.5 -33 -1.5c-4 59.333 -8.16699 114.166 -12.5 164.499s-9.16602 98.666 -14.499 144.999s-11.333 92.5 -18 138.5
c12 2 25.667 4.83301 41 8.5s30.333 8 45 13s27 9.83301 37 14.5c9.33301 -2.66699 15.666 -7.5 18.999 -14.5s4 -17.833 2 -32.5zM280 65.001c0 -22.667 -6.99805 -40.5 -20.998 -53.5s-31.333 -19.5 -52 -19.5c-22.667 0 -40.334 6.33301 -53.001 19s-19 29 -19 49
c0 20.667 7.16699 37.667 21.5 51s32.5 20 54.5 20c21.333 0 38.166 -7 50.499 -21s18.5 -29 18.5 -45z" />
    <glyph glyph-name="quotedbl" unicode="&#x22;" horiz-adv-x="365" 
d="M131 715c8 -1.33301 14.166 -5.5 18.499 -12.5s5.83301 -14.833 4.5 -23.5c0 -2.66699 -0.166992 -5.5 -0.5 -8.5s-0.833008 -5.83301 -1.5 -8.5c-3.33301 -28 -6.5 -58.833 -9.5 -92.5l-10.5 -112.5c-8 0 -17.333 1 -28 3s-18 4.66699 -22 8
c-1.33301 38 -3.66602 75.833 -6.99902 113.5s-8.33301 74.167 -15 109.5c12.667 2 25.167 5 37.5 9s23.5 9 33.5 15zM281.999 715c7.33301 -1.33301 13 -4.99805 17 -10.998s6 -13.333 6 -22v-3.5v-7.5c-4 -30 -7.33301 -61.5 -10 -94.5l-10 -120.5
c-10 0 -19.833 0.833008 -29.5 2.5s-17.167 4.16699 -22.5 7.5c-2 38 -4.5 76.167 -7.5 114.5s-7.5 75.166 -13.5 110.499c12 2 24.333 5.16699 37 9.5s23.667 9.16602 33 14.499z" />
    <glyph glyph-name="numbersign" unicode="#" horiz-adv-x="602" 
d="M370 -8c-14 1.33301 -25.5 3.83301 -34.5 7.5s-16.5 8.5 -22.5 14.5l143 701c12 -1.33301 23.167 -3.83301 33.5 -7.5s17.833 -8.16699 22.5 -13.5zM27 202c0 10.667 0.833008 21.498 2.5 32.498s5.16699 21.5 10.5 31.5h496c0 -11.333 -0.833008 -21.666 -2.5 -30.999
s-5.16699 -19.666 -10.5 -30.999h-96h-196.5c-53 0 -95.667 -0.333008 -128 -1s-57.5 -1 -75.5 -1zM156 -8.00195c-12 0.666992 -23 3.33398 -33 8.00098s-17.667 10.667 -23 18l141 697c12 -0.666992 23 -2.83398 33 -6.50098s17.667 -9.16699 23 -16.5zM77 436.998
c0 10.667 1 21.333 3 32s5.33301 21.667 10 33h486c0 -12.667 -0.833008 -23.667 -2.5 -33s-5.16699 -19.333 -10.5 -30h-72h-173c-50 0 -94.333 -0.166992 -133 -0.5s-74.667 -0.833008 -108 -1.5z" />
    <glyph glyph-name="dollar" unicode="$" horiz-adv-x="556" 
d="M272 -9c-42.667 0 -81.0029 5.50391 -115.003 16.5039s-68 26.167 -102 45.5c4.66699 26 7.66699 52.167 9 78.5s2 50.166 2 71.499c11.333 3.33301 23.666 5.66602 36.999 6.99902s26.333 2 39 2c2.66699 -36.667 8.5 -67 17.5 -91s23.333 -41.833 43 -53.5
s45.5 -17.5 77.5 -17.5c42 0 72.167 9.16699 90.5 27.5s27.5 39.833 27.5 64.5c0 25.333 -8 46.5 -24 63.5s-36.5 31.833 -61.5 44.5s-51.5 25.334 -79.5 38.001s-54.5 27.667 -79.5 45s-45.5 39 -61.5 65s-24 58.667 -24 98c0 42 9.16699 77 27.5 105s43.666 49 75.999 63
s69.5 21 111.5 21c24 0 47.333 -2 70 -6s43.667 -9.33301 63 -16s34.666 -14 45.999 -22c0 -22.667 0.5 -47 1.5 -73s2.83301 -47.667 5.5 -65c-9.33301 -4.66699 -21.166 -8.16699 -35.499 -10.5s-27.5 -3.5 -39.5 -3.5c-6.66699 38 -15.167 67 -25.5 87
s-23.166 33.833 -38.499 41.5s-32.666 11.5 -51.999 11.5c-30.667 0 -55.167 -7.33301 -73.5 -22s-27.5 -35.667 -27.5 -63c0 -26.667 8 -48.834 24 -66.501s36.833 -33 62.5 -46l81.5 -39.5c28.667 -13.333 55.834 -28.5 81.501 -45.5s46.5 -38.167 62.5 -63.5
s24 -57 24 -95c0 -36.667 -8.66699 -69.834 -26 -99.501s-43.666 -53.334 -78.999 -71.001s-80.666 -26.5 -135.999 -26.5zM306.997 -87.9961c-8.66699 0 -19.167 1.16797 -31.5 3.50098s-21.5 5.16602 -27.5 8.49902v407l57 -16v-133
c0 -40.667 0.166992 -82.167 0.5 -124.5s0.833008 -90.833 1.5 -145.5zM308.997 354.005l-57.001 13v380c11.333 0 21.833 -0.833008 31.5 -2.5s18.834 -5.16699 27.501 -10.5c-0.666992 -31.333 -1.16699 -62 -1.5 -92s-0.5 -60.167 -0.5 -90.5v-94v-103.5z" />
    <glyph glyph-name="percent" unicode="%" horiz-adv-x="863" 
d="M183 -7c-12 3.33301 -22.333 8.5 -31 15.5s-14.667 14.167 -18 21.5l550 656c10.667 -1.33301 20.667 -4.5 30 -9.5s17.333 -11.5 24 -19.5zM246 359c-35.333 0 -64.502 7.5 -87.502 22.5s-40.5 34.167 -52.5 57.5s-18 47.666 -18 72.999c0 28.667 6.33301 55.5 19 80.5
s31.334 45.333 56.001 61s55.667 23.5 93 23.5c33.333 0 61 -7.5 83 -22.5s38.5 -34.167 49.5 -57.5s16.5 -47 16.5 -71c0 -30 -6.16699 -57.667 -18.5 -83s-30.166 -45.666 -53.499 -60.999s-52.333 -23 -87 -23zM252.998 412c14.667 0 28.832 8.5 42.499 25.5
s20.5 42.167 20.5 75.5c0 32.667 -6.83301 59.5 -20.5 80.5s-31.167 31.5 -52.5 31.5c-17.333 0 -32.5 -9.5 -45.5 -28.5s-19.5 -42.833 -19.5 -71.5c0 -33.333 6.83301 -60.5 20.5 -81.5s31.834 -31.5 54.501 -31.5zM615.996 -8c-35.333 0 -64.501 7.5 -87.501 22.5
s-40.5 34.167 -52.5 57.5s-18 47.666 -18 72.999c0 28.667 6.33301 55.5 19 80.5s31.5 45.333 56.5 61s55.833 23.5 92.5 23.5c33.333 0 60.833 -7.5 82.5 -22.5s38.167 -34.167 49.5 -57.5s17 -47 17 -71c0 -30 -6.16699 -57.667 -18.5 -83
s-30.166 -45.666 -53.499 -60.999s-52.333 -23 -87 -23zM622.995 45c14.667 0 28.832 8.5 42.499 25.5s20.5 42.167 20.5 75.5c0 32.667 -6.83301 59.5 -20.5 80.5s-31.167 31.5 -52.5 31.5c-17.333 0 -32.5 -9.5 -45.5 -28.5s-19.5 -42.833 -19.5 -71.5
c0 -33.333 6.83301 -60.5 20.5 -81.5s31.834 -31.5 54.501 -31.5z" />
    <glyph glyph-name="ampersand" unicode="&#x26;" horiz-adv-x="762" 
d="M489 185c19.333 30.667 34.1699 57.335 44.5029 80.002s18.166 44.334 23.499 65.001c6 25.333 4.16699 43.666 -5.5 54.999s-30.5 20 -62.5 26c-2.66699 8.66699 -4.66699 17 -6 25s-2 16.333 -2 25c14.667 -0.666992 32.167 -1.33398 52.5 -2.00098s38.833 -1 55.5 -1
s34.5 0.333008 53.5 1s35.167 1.33398 48.5 2.00098c0 -8 -0.5 -16.167 -1.5 -24.5s-2.5 -16.5 -4.5 -24.5c-14.667 -4.66699 -26.334 -10.334 -35.001 -17.001s-15.5 -14.834 -20.5 -24.501s-10.167 -22.5 -15.5 -38.5c-6 -20 -12.667 -39.167 -20 -57.5
s-15.833 -37.333 -25.5 -57s-21.834 -42.5 -36.501 -68.5zM593.004 120.001c12.667 -12.667 24.002 -22.3311 34.002 -28.998s21.333 -11.5 34 -14.5s28 -5.16699 46 -6.5c0 -8.66699 -0.5 -18.5 -1.5 -29.5s-3.16699 -21.167 -6.5 -30.5c-14.667 0 -32 -0.833008 -52 -2.5
s-39.833 -4 -59.5 -7s-36.5 -6.16699 -50.5 -9.5c-44.667 59.333 -89.334 114.166 -134.001 164.499l-131 151.5c-27.333 34.667 -50.166 66 -68.499 94s-32 55.167 -41 81.5s-13.5 53.833 -13.5 82.5c0 27.333 6.66699 52.5 20 75.5s34.166 41.5 62.499 55.5
s64.5 21 108.5 21c31.333 0 59 -2.83301 83 -8.5s48 -14.5 72 -26.5c-3.33301 -18 -5.33301 -38.333 -6 -61s-0.333984 -45.334 0.999023 -68.001c-11.333 -4 -23.333 -6.66699 -36 -8s-25 -2 -37 -2c-2.66699 42 -10.5 72.333 -23.5 91s-32.833 28 -59.5 28
c-20.667 0 -37.5 -6.5 -50.5 -19.5s-19.5 -32.5 -19.5 -58.5c0 -18 2.5 -35.667 7.5 -53s14.333 -37 28 -59s33.167 -49 58.5 -81l36 -45.5l49.5 -60l65.5 -74.5zM306.006 68.0039c27.333 0 51.999 5.66797 73.999 17.001s44.333 30 67 56l40 -43
c-30 -37.333 -61.333 -64.666 -94 -81.999s-71 -26 -115 -26c-40.667 0 -75.167 5.83301 -103.5 17.5s-51.5 27.667 -69.5 48s-31 43.166 -39 68.499s-12 51.666 -12 78.999c0 52 14.333 96.333 43 133s65.334 67 110.001 91l28 -45
c-17.333 -16 -32.166 -35.5 -44.499 -58.5s-18.5 -52.167 -18.5 -87.5c0 -38 6.16699 -69.333 18.5 -94s28.666 -43.167 48.999 -55.5s42.5 -18.5 66.5 -18.5z" />
    <glyph glyph-name="quotesingle" unicode="'" horiz-adv-x="216" 
d="M131 715c15.333 -3.33301 23.668 -14.001 25.001 -32.001c0 -1.33301 -0.166992 -3.16602 -0.5 -5.49902s-0.5 -4.5 -0.5 -6.5c-4.66699 -29.333 -8.33398 -61.333 -11.001 -96l-9 -119c-8.66699 0 -18 1 -28 3s-18 4.66699 -24 8c-1.33301 38.667 -4 77 -8 115
s-9 74.333 -15 109c13.333 1.33301 26.5 4.33301 39.5 9s23.5 9.66699 31.5 15z" />
    <glyph glyph-name="parenleft" unicode="(" horiz-adv-x="311" 
d="M221 741c10 0.666992 18.3281 -0.335938 24.9951 -3.00293s13.334 -6.66699 20.001 -12c-29.333 -45.333 -53.166 -91.666 -71.499 -138.999s-31.833 -98.5 -40.5 -153.5s-13 -116.833 -13 -185.5c0 -70.667 4.83301 -136.167 14.5 -196.5
s24.334 -116.166 44.001 -167.499s43.834 -100.333 72.501 -147c-6 -3.33301 -13 -5.66602 -21 -6.99902s-16.333 -1.66602 -25 -0.999023c-37.333 47.333 -70.333 97.666 -99 150.999s-51.167 110 -67.5 170s-24.5 123.333 -24.5 190c0 62.667 6.83301 121.5 20.5 176.5
s34.334 108.833 62.001 161.5s62.167 107 103.5 163z" />
    <glyph glyph-name="parenright" unicode=")" horiz-adv-x="311" 
d="M90 741c41.333 -56 75.832 -110.165 103.499 -162.498s48.334 -105.333 62.001 -159s20.5 -110.167 20.5 -169.5c0 -70 -8.16699 -135.833 -24.5 -197.5s-38.833 -119.167 -67.5 -172.5s-61.667 -103.666 -99 -150.999c-8 -0.666992 -16.167 -0.333984 -24.5 0.999023
s-15.5 3.66602 -21.5 6.99902c31.333 50 56.5 100 75.5 150s33 103.833 42 161.5s13.5 121.834 13.5 192.501c0 68.667 -4.33301 131.167 -13 187.5s-22.167 108.666 -40.5 156.999s-42.166 95.166 -71.499 140.499c6 4.66699 12.667 8.5 20 11.5s15.666 4.16699 24.999 3.5
z" />
    <glyph glyph-name="asterisk" unicode="*" horiz-adv-x="464" 
d="M309 743c-10.667 -20.667 -20.832 -42.1689 -30.499 -64.502s-19.167 -45.5 -28.5 -69.5c16.667 4 32.5 8 47.5 12l45 12.5c15 4.33301 31.167 9.5 48.5 15.5c6 -14 9.83301 -29 11.5 -45s1.16699 -32 -1.5 -48c-24.667 4 -49 7 -73 9l-75 6l40 -60
c12.667 -18.667 27.334 -38.667 44.001 -60c-11.333 -10 -24.333 -18.5 -39 -25.5s-30.334 -11.167 -47.001 -12.5c-4 22.667 -8.66699 46 -14 70s-11.333 48.333 -18 73l-45 -54.5l-45 -59.5c-12.667 8 -24.334 17.667 -35.001 29s-18.667 24.333 -24 39
c20 10.667 40.5 22.334 61.5 35.001l63.5 40c-22 10 -43.5 18.833 -64.5 26.5s-44.5 15.5 -70.5 23.5c3.33301 12.667 8.83301 26.334 16.5 41.001s17.167 26.667 28.5 36c16 -16 33 -31.667 51 -47l58 -49c2 24.667 3.5 48.5 4.5 71.5s1.16699 47.5 0.5 73.5
c14 0.666992 29.5 -0.5 46.5 -3.5s31.5 -7.83301 43.5 -14.5z" />
    <glyph glyph-name="plus" unicode="+" 
d="M242 2c0.666992 26 1.00195 53.501 1.00195 82.501s0.166992 58.667 0.5 89s0.5 60.166 0.5 89.499v72v69.5c0 24.333 -0.333008 53.5 -1 87.5c9.33301 5.33301 18.666 8.5 27.999 9.5s20.666 1.5 33.999 1.5v-490c-6 -3.33301 -15.5 -6 -28.5 -8s-24.5 -3 -34.5 -3z
M45.002 225.001c0 10.667 0.666992 21.833 2 33.5s4 21.5 8 29.5h450c0 -12 -0.5 -23 -1.5 -33s-4.16699 -19.667 -9.5 -29c-32.667 0.666992 -60.5 1 -83.5 1h-66h-68.5c-27.333 0 -53.833 -0.166992 -79.5 -0.5s-51.167 -0.5 -76.5 -0.5s-50.333 -0.333008 -75 -1z" />
    <glyph glyph-name="comma" unicode="," horiz-adv-x="277" 
d="M177 117c14 -4.66699 24.168 -13.3281 30.501 -25.9951s9.5 -31.334 9.5 -56.001c0 -40.667 -10.333 -80.334 -31 -119.001s-46.334 -72.667 -77.001 -102c-9.33301 0.666992 -18.333 2.66699 -27 6s-15.667 7.66602 -21 12.999c43.333 49.333 65 91.666 65 126.999
c0 13.333 -4.5 24.333 -13.5 33s-22.5 14 -40.5 16c0 12 0.666992 24.667 2 38s4 26.666 8 39.999c19.333 2.66699 37 6.5 53 11.5s30 11.167 42 18.5z" />
    <glyph glyph-name="hyphen" unicode="-" horiz-adv-x="419" 
d="M359 298c0 -11.333 -0.998047 -23.833 -2.99805 -37.5s-5.33301 -26.167 -10 -37.5c-18.667 0 -40.334 -0.166992 -65.001 -0.5l-76.5 -1c-26.333 -0.333008 -51.833 -0.833008 -76.5 -1.5s-47.334 -1.66699 -68.001 -3c0 12.667 1.5 26.5 4.5 41.5
s6.83301 28.167 11.5 39.5h283z" />
    <glyph glyph-name="period" unicode="." horiz-adv-x="265" 
d="M142.401 -9.59961c-27.2002 0 -48.3994 7.59863 -63.5996 22.7988s-22.7998 34.8008 -22.7998 58.8018c0 24.7998 8.59961 45.2002 25.7998 61.2002s39 24 65.3994 24c26.4004 0 46.8008 -8.40039 61.2012 -25.2002s21.6006 -34.7998 21.6006 -54
c0 -27.2002 -8.2002 -48.6006 -24.6006 -64.2012c-16.4004 -15.5996 -37.4004 -23.3994 -63.001 -23.3994z" />
    <glyph glyph-name="slash" unicode="/" horiz-adv-x="377" 
d="M89 -9c-26 4.66699 -45 12.333 -57 23l260 700c10 -1.33301 20.167 -4.33301 30.5 -9s18.833 -9.66699 25.5 -15z" />
    <glyph glyph-name="zero" unicode="0" horiz-adv-x="610" 
d="M283 447c-26.667 0 -49.168 -7.83301 -67.501 -23.5s-32.333 -36.5 -42 -62.5s-14.5 -55 -14.5 -87c0 -24 3.83301 -48.833 11.5 -74.5s19 -49.334 34 -71.001s33 -39.167 54 -52.5s44.833 -20 71.5 -20c28 0 50.667 8 68 24s30 37.333 38 64s12 55.334 12 86.001
c0 22.667 -3.5 46.5 -10.5 71.5s-17.667 48.667 -32 71s-31.666 40.333 -51.999 54s-43.833 20.5 -70.5 20.5zM308.999 506c47.333 0 91.166 -9.66699 131.499 -29s72.5 -47.666 96.5 -84.999s36 -83 36 -137s-12 -100.833 -36 -140.5s-56 -70.167 -96 -91.5
s-84 -32 -132 -32c-49.333 0 -94.666 10.667 -135.999 32s-74.333 51.833 -99 91.5s-37 86.5 -37 140.5c0 40.667 7.5 76.667 22.5 108s35.5 57.666 61.5 78.999s55.167 37.333 87.5 48s65.833 16 100.5 16z" />
    <glyph glyph-name="one" unicode="1" horiz-adv-x="396" 
d="M259 147c0 -25.333 1.99707 -44.832 5.99707 -58.499s11 -23.167 21 -28.5s24 -8.33301 42 -9c2.66699 -8 4.33398 -16.667 5.00098 -26s1 -18.666 1 -27.999c-10 0.666992 -21.333 1.16699 -34 1.5l-39 1c-13.333 0.333008 -25.666 0.5 -36.999 0.5h-26h-31
c-12 0 -24.333 -0.166992 -37 -0.5l-36.5 -1c-11.667 -0.333008 -22.167 -0.833008 -31.5 -1.5c0 10 0.5 19.667 1.5 29s2.5 17.666 4.5 24.999c18 2 32 5.66699 42 11s17 14.5 21 27.5s6 31.833 6 56.5v209c0 24.667 -2 43.5 -6 56.5s-10.833 22.333 -20.5 28
s-23.834 8.83398 -42.501 9.50098c-2 8 -3.5 16.5 -4.5 25.5s-1.5 18.5 -1.5 28.5c8 -0.666992 18 -1.16699 30 -1.5s24.667 -0.666016 38 -0.999023s26 -0.5 38 -0.5h30c14 0 29.667 0.166992 47 0.5s33.833 0.666016 49.5 0.999023s28.834 0.833008 39.501 1.5
c0 -10.667 -0.5 -20.334 -1.5 -29.001s-2.5 -17 -4.5 -25c-17.333 -0.666992 -31.166 -3.83398 -41.499 -9.50098s-17.5 -15 -21.5 -28s-6 -31.833 -6 -56.5v-208z" />
    <glyph glyph-name="two" unicode="2" horiz-adv-x="526" 
d="M267 506c34.667 0 65.1709 -4.33691 91.5039 -13.0039s46.666 -22.334 60.999 -41.001s21.5 -43 21.5 -73c0 -21.333 -4 -40.5 -12 -57.5s-20.833 -34.167 -38.5 -51.5s-41.5 -38.333 -71.5 -63c-20 -15.333 -39.833 -31.666 -59.5 -48.999l-67.5 -61l-20 16h155
c20.667 0 36.167 1.16699 46.5 3.5s17.5 7.5 21.5 15.5s6.66699 20.667 8 38c11.333 0 22.333 -0.5 33 -1.5s19.667 -2.83301 27 -5.5c0 -27.333 0.833008 -52.166 2.5 -74.499s4.5 -42.833 8.5 -61.5c-3.33301 -8 -8.5 -14.833 -15.5 -20.5s-15.5 -8.5 -25.5 -8.5
c-28.667 0.666992 -60 1.16699 -94 1.5s-66.333 0.5 -97 0.5c-31.333 0 -62.833 -0.166992 -94.5 -0.5s-57.167 -0.833008 -76.5 -1.5c-6.66699 8.66699 -11.167 17.834 -13.5 27.501s-3.5 20.5 -3.5 32.5l78 71l82 72c27.333 24 48.166 44.667 62.499 62
s24.166 33.833 29.499 49.5s8 31.834 8 48.501c0 28 -6.66699 49.833 -20 65.5s-33 23.5 -59 23.5c-24 0 -42.667 -9.16699 -56 -27.5s-23.333 -53.833 -30 -106.5c-12.667 0 -25 0.833008 -37 2.5s-22.333 4.16699 -31 7.5c1.33301 12 2.33301 26 3 42s0.666992 32 0 48
s-2.33398 30 -5.00098 42c22 14.667 48.333 26.334 79 35.001s67 13 109 13z" />
    <glyph glyph-name="three" unicode="3" horiz-adv-x="511" 
d="M196 -171c-34 0 -64.168 4.16504 -90.501 12.498s-47.5 19.5 -63.5 33.5c0.666992 8 2.66699 15.833 6 23.5s8.33301 14.834 15 21.501c10.667 -8 25.667 -15.167 45 -21.5s44 -9.5 74 -9.5c26 0 50.833 5.5 74.5 16.5s43.167 27 58.5 48s23 46.833 23 77.5
c0 34.667 -10.167 63.167 -30.5 85.5s-51.5 33.5 -93.5 33.5c-4.66699 0 -9.83398 -0.5 -15.501 -1.5s-10.834 -2.5 -15.501 -4.5c-6.66699 6.66699 -11.834 14.334 -15.501 23.001s-5.16699 16.667 -4.5 24l90.5 116.5l65.5 86.5h-107c-18.667 0 -33.667 -1.66699 -45 -5
s-20.666 -10 -27.999 -20s-14.333 -25.667 -21 -47c-10 0 -20 1.16699 -30 3.5s-18.667 6.16602 -26 11.499c6 28.667 9.5 56 10.5 82s1.5 54 1.5 84c12 -0.666992 27.333 -1.16699 46 -1.5s39.834 -0.666016 63.501 -0.999023s48.5 -0.5 74.5 -0.5
c26.667 0 50.667 0.166992 72 0.5s40.5 0.666016 57.5 0.999023s31.5 0.833008 43.5 1.5c6 -6.66699 10.333 -14.667 13 -24s3.33398 -19.333 2.00098 -30l-77.5 -98l-89.5 -116c34.667 0.666992 66.334 -6 95.001 -20s51.5 -34.833 68.5 -62.5s25.5 -62.5 25.5 -104.5
c0 -40.667 -10.667 -77.667 -32 -111s-52.333 -59.666 -93 -78.999s-89.667 -29 -147 -29z" />
    <glyph glyph-name="four" unicode="4" horiz-adv-x="603" 
d="M311 0c-46 0 -88.999 -0.500977 -128.999 -1.50098s-81.333 -2.83301 -124 -5.5c-6 10 -11.333 21 -16 33s-7 24.333 -7 37l339 443c13.333 0.666992 26.666 0.166992 39.999 -1.5s25.333 -4.16699 36 -7.5v-646c-12.667 0 -26.334 -1.16699 -41.001 -3.5
s-28 -5.16602 -40 -8.49902s-21.667 -6.66602 -29 -9.99902c-5.33301 4.66699 -9.16602 10.5 -11.499 17.5s-3.5 15.5 -3.5 25.5v148v18v349h23l-211 -306l-5 24l278 1h21h94c9.33301 0 17 -1.33301 23 -4s11.333 -7 16 -13c-4.66699 -9.33301 -8.5 -19 -11.5 -29
s-5.16699 -19.833 -6.5 -29.5s-2 -19.834 -2 -30.501h-233z" />
    <glyph glyph-name="five" unicode="5" horiz-adv-x="481" 
d="M123 503c23.333 -0.666992 44.3359 -1.33594 63.0029 -2.00293s37.5 -1 56.5 -1h64.5c18 0 31 4.83301 39 14.5s12 21.5 12 35.5c8 2.66699 17.333 4.33398 28 5.00098s20.667 1 30 1c-2.66699 -21.333 -4.33398 -44.5 -5.00098 -69.5s-1 -50.5 -1 -76.5
c-3.33301 -6.66699 -8.66602 -12 -15.999 -16s-17.666 -6 -30.999 -6h-54c-20 0 -40.167 -0.166992 -60.5 -0.5s-38.833 -0.666016 -55.5 -0.999023s-29.334 -0.833008 -38.001 -1.5l-20 -85c66 -12 121 -28 165 -48s77 -45.5 99 -76.5s33 -69.5 33 -115.5
c0 -38.667 -7.83301 -72.334 -23.5 -101.001s-36.334 -52.667 -62.001 -72s-53.667 -33.833 -84 -43.5s-60.5 -14.5 -90.5 -14.5c-28 0 -52.333 2.83301 -73 8.5s-37 12.5 -49 20.5c0 8 1.16699 15.833 3.5 23.5s6.5 14.834 12.5 21.501
c7.33301 -3.33301 19.333 -6.5 36 -9.5s35.667 -4.5 57 -4.5c26 0 50 5.66699 72 17s39.5 27.833 52.5 49.5s19.5 46.834 19.5 75.501c0 24 -5.66699 45.333 -17 64s-27 34.5 -47 47.5s-43.333 24 -70 33s-55 15.5 -85 19.5c-6.66699 5.33301 -11.834 11.833 -15.501 19.5
s-5.83398 15.5 -6.50098 23.5z" />
    <glyph glyph-name="six" unicode="6" horiz-adv-x="532" 
d="M423 638c4 -4.66699 7 -10.668 9 -18.001s2.66699 -16.333 2 -27c-62.667 -12.667 -114.167 -32.667 -154.5 -60s-70.166 -64.5 -89.499 -111.5s-29 -106.5 -29 -178.5c0 -36 3.83301 -66.333 11.5 -91s17.334 -44.5 29.001 -59.5s24.167 -25.667 37.5 -32
s25.666 -9.5 36.999 -9.5c23.333 0 42 6 56 18s24.5 27.833 31.5 47.5s10.5 40.167 10.5 61.5c0 37.333 -6.66699 67 -20 89s-29.666 37.833 -48.999 47.5s-38.333 14.5 -57 14.5c-16 0 -33 -2.83301 -51 -8.5s-36.667 -15.5 -56 -29.5l-3 43
c31.333 21.333 59.833 36.833 85.5 46.5s52.167 14.5 79.5 14.5c59.333 0 106.333 -16 141 -48s52 -77 52 -135c0 -36.667 -6.5 -68.667 -19.5 -96s-30.333 -50.333 -52 -69s-45.834 -32.667 -72.501 -42s-54.334 -14 -83.001 -14c-49.333 0 -91.5 9 -126.5 27
s-61.667 45.333 -80 82s-27.5 83.334 -27.5 140.001c0 59.333 8.33301 111 25 155s38.834 81.167 66.501 111.5s58.5 55 92.5 74s68.667 33 104 42s68.666 14.167 99.999 15.5z" />
    <glyph glyph-name="seven" unicode="7" horiz-adv-x="481" 
d="M146 -176c-8.66699 2.66699 -15.832 8.16797 -21.499 16.501s-8.5 21.166 -8.5 38.499c0 45.333 9.33301 93.833 28 145.5s44.667 107.667 78 168s71 125.166 113 194.499h-130c-20.667 0 -37.167 -1.83301 -49.5 -5.5s-22.333 -10.5 -30 -20.5
s-14.167 -25.333 -19.5 -46c-14 -0.666992 -26.5 0.166016 -37.5 2.49902s-20.833 5.83301 -29.5 10.5c4 17.333 7.33301 35.333 10 54s4.66699 38.167 6 58.5s2 41.166 2 62.499c25.333 -1.33301 51.666 -2.16602 78.999 -2.49902s61.666 -0.5 102.999 -0.5h65
c20 0 40 0.333008 60 1s41.333 1.33398 64 2.00098c5.33301 -6.66699 9.5 -14.667 12.5 -24s4.5 -18.666 4.5 -27.999l-49.5 -77c-16.333 -26.667 -31.666 -53 -45.999 -79s-26.5 -49.333 -36.5 -70c-12.667 -26.667 -23.167 -52 -31.5 -76s-14.833 -48.5 -19.5 -73.5
s-8 -53 -10 -84s-3 -66.833 -3 -107.5c-20.667 -7.33301 -40 -16.333 -58 -27s-33 -21.667 -45 -33z" />
    <glyph glyph-name="eight" unicode="8" horiz-adv-x="531" 
d="M239 306c-18 -13.333 -32.1641 -26.6699 -42.4971 -40.0029s-17.833 -28.166 -22.5 -44.499s-7 -35.833 -7 -58.5c0 -36.667 9.83301 -65.5 29.5 -86.5s45.5 -31.5 77.5 -31.5c26.667 0 47.667 8.16699 63 24.5s23 37.833 23 64.5c0 25.333 -6.16699 47.833 -18.5 67.5
s-29.833 38.334 -52.5 56.001s-49 35.5 -79 53.5c-26.667 16.667 -50.5 33.334 -71.5 50.001s-37.333 34.834 -49 54.501s-17.5 42.5 -17.5 68.5c0 46.667 17 83.834 51 111.501s81.333 41.5 142 41.5c58.667 0 105.667 -11.833 141 -35.5s53 -56.834 53 -99.501
c0 -25.333 -5.66699 -47.333 -17 -66s-26.5 -34.834 -45.5 -48.501s-39.167 -25.5 -60.5 -35.5l-52 28c21.333 14 36.666 29.667 45.999 47s14 38.333 14 63c0 29.333 -7.16699 52.666 -21.5 69.999s-33.5 26 -57.5 26c-22 0 -39.5 -6.66699 -52.5 -20s-19.5 -31 -19.5 -53
c-0.666992 -26 6.5 -47.5 21.5 -64.5s39.5 -35.167 73.5 -54.5c40 -23.333 74.667 -46 104 -68s51.666 -46 66.999 -72s23 -56.667 23 -92c0 -54 -19.167 -96 -57.5 -126s-92.5 -45 -162.5 -45c-66.667 0 -119 13.833 -157 41.5s-57 65.834 -57 114.501
c0 44 12.667 81.167 38 111.5s62.666 57.833 111.999 82.5z" />
    <glyph glyph-name="nine" unicode="9" horiz-adv-x="540" 
d="M404 155c-26.667 -22 -53 -37.835 -79 -47.502s-53.667 -14.5 -83 -14.5c-39.333 0 -74.5 8 -105.5 24s-55.333 38.333 -73 67s-26.5 61.667 -26.5 99c0 38.667 6.5 72 19.5 100s30.667 51.167 53 69.5s47.5 31.833 75.5 40.5s57 13 87 13c52 0 95.333 -9.33301 130 -28
s60.667 -47.167 78 -85.5s26 -86.833 26 -145.5c0 -55.333 -9 -104.666 -27 -147.999s-42.167 -81.166 -72.5 -113.499s-63.666 -59.333 -99.999 -81s-73 -38.667 -110 -51s-70.833 -20.166 -101.5 -23.499c-5.33301 6.66699 -8.83301 14 -10.5 22s-2.16699 16.667 -1.5 26
c68.667 22.667 125.167 50.667 169.5 84s77.166 72.833 98.499 118.5s32 97.5 32 155.5c0 75.333 -11.167 129.666 -33.5 162.999s-51.833 50 -88.5 50c-20 0 -37.333 -5.83301 -52 -17.5s-26.334 -27.5 -35.001 -47.5s-13 -42.667 -13 -68c0 -30 4.33301 -55 13 -75
s19.834 -35.833 33.501 -47.5s28.5 -20 44.5 -25s31.667 -7.5 47 -7.5c18.667 0 37.5 3.83301 56.5 11.5s35.167 18.167 48.5 31.5v-49z" />
    <glyph glyph-name="colon" unicode=":" horiz-adv-x="265" 
d="M132 14c-22.667 0 -40.333 6.33301 -53 19s-19 29 -19 49c0 20.667 7.16699 37.667 21.5 51s32.5 20 54.5 20s39 -7 51 -21s18 -29 18 -45c0 -22.667 -6.83301 -40.5 -20.5 -53.5s-31.167 -19.5 -52.5 -19.5zM132.001 297c-22.667 0 -40.333 6.33301 -53 19
s-19 29 -19 49c0 20.667 7.16699 37.667 21.5 51s32.5 20 54.5 20s39 -7 51 -21s18 -29 18 -45c0 -22.667 -6.83301 -40.5 -20.5 -53.5s-31.167 -19.5 -52.5 -19.5z" />
    <glyph glyph-name="semicolon" unicode=";" horiz-adv-x="281" 
d="M147 297c-22.667 0 -40.333 6.33301 -53 19s-19 29 -19 49c0 20.667 7.16699 37.667 21.5 51s32.5 20 54.5 20s39 -7 51 -21s18 -29 18 -45c0 -22.667 -6.83301 -40.5 -20.5 -53.5s-31.167 -19.5 -52.5 -19.5zM179.001 117c14 -4.66699 24.168 -13.3281 30.501 -25.9951
s9.5 -31.334 9.5 -56.001c0 -40.667 -10.333 -80.334 -31 -119.001s-46.334 -72.667 -77.001 -102c-9.33301 0.666992 -18.333 2.66699 -27 6s-15.667 7.66602 -21 12.999c43.333 49.333 65 91.666 65 126.999c0 13.333 -4.5 24.333 -13.5 33s-22.5 14 -40.5 16
c0 12 0.666992 24.667 2 38s4 26.666 8 39.999c19.333 2.66699 37 6.5 53 11.5s30 11.167 42 18.5z" />
    <glyph glyph-name="less" unicode="&#x3c;" 
d="M454 10l-202 116.499c-66 37 -129.333 70.5 -190 100.5c-4.66699 25.333 -1 47.333 11 66l354 211c20.667 -5.33301 38.334 -18.666 53.001 -39.999l-349 -204l334 -177c2.66699 -12 3.16699 -25.333 1.5 -40s-5.83398 -25.667 -12.501 -33z" />
    <glyph glyph-name="equal" unicode="=" 
d="M53 137c0 10 1.00098 21.168 3.00098 33.501s4.66699 22.166 8 29.499h434c0 -12 -0.833008 -23 -2.5 -33s-4.83398 -19.667 -9.50098 -29c-26 0.666992 -49 1 -69 1h-61h-74h-78c-23.333 0 -46.833 -0.166992 -70.5 -0.5s-50.5 -0.833008 -80.5 -1.5zM53.001 310.001
c0 10.667 1.16602 21.832 3.49902 33.499s5.16602 21.167 8.49902 28.5h432c0 -12.667 -0.666992 -23.667 -2 -33s-4.66602 -18.666 -9.99902 -27.999c-26 0.666992 -48.833 1 -68.5 1h-60.5h-74h-78c-23.333 0 -46.666 -0.166992 -69.999 -0.5s-50.333 -0.833008 -81 -1.5z
" />
    <glyph glyph-name="greater" unicode="&#x3e;" 
d="M106 10c-7.33301 7.33301 -12.667 16.8301 -16 28.4971s-4.33301 23.834 -3 36.501l354 197l-1 -26l-365 218c6 10.667 13.333 19.834 22 27.501s18.667 13.167 30 16.5l358 -226c5.33301 -21.333 2 -41.666 -10 -60.999c-46 -23.333 -88.167 -45.833 -126.5 -67.5
l-115 -67z" />
    <glyph glyph-name="question" unicode="?" horiz-adv-x="537" 
d="M287 715c52.667 0 94.167 -11 124.5 -33s45.5 -53 45.5 -93c0 -26.667 -5.16699 -50.167 -15.5 -70.5s-22.833 -38.833 -37.5 -55.5l-45 -50c-15.333 -16.667 -28 -35.167 -38 -55.5s-15 -43.833 -15 -70.5c0 -10 1.16699 -21.833 3.5 -35.5
s5.16602 -26.167 8.49902 -37.5c-7.33301 -4 -15.666 -6.83301 -24.999 -8.5s-18.666 -2.5 -27.999 -2.5c-12.667 8 -24.334 23.667 -35.001 47s-16 49 -16 77c0 26 4.16699 48.167 12.5 66.5s18.5 34.666 30.5 48.999l35.5 41c11.667 13 21.667 26.667 30 41
s12.5 31.5 12.5 51.5c0 27.333 -7 48.5 -21 63.5s-30 22.5 -48 22.5c-14 0 -26.167 -4 -36.5 -12s-18.833 -21.5 -25.5 -40.5s-12 -44.833 -16 -77.5c-13.333 0 -26.333 1.16699 -39 3.5s-23.667 5.83301 -33 10.5c2 23.333 3.16699 44.833 3.5 64.5
s-0.833984 39.834 -3.50098 60.501c18.667 11.333 41.834 21.5 69.501 30.5s61.5 13.5 101.5 13.5zM282 -9c-24.667 0 -44 6.99805 -58 20.998s-21 32.333 -21 55s8 41.334 24 56.001s36 22 60 22s42.833 -7.83301 56.5 -23.5s20.5 -32.167 20.5 -49.5
c0 -25.333 -7.83301 -45.166 -23.5 -59.499s-35.167 -21.5 -58.5 -21.5z" />
    <glyph glyph-name="at" unicode="@" horiz-adv-x="998" 
d="M667 467c6.66699 -2.66699 11.8262 -7 15.4932 -13s6 -15.333 7 -28s1.5 -31 1.5 -55v-176c0 -33.333 0.833008 -58.333 2.5 -75s5 -27.5 10 -32.5s12.167 -7.5 21.5 -7.5c12 0 26 9.33301 42 28s30 47.167 42 85.5s18 86.166 18 143.499
c0 48.667 -10.833 93.667 -32.5 135s-54.667 74.333 -99 99s-101.166 37 -170.499 37c-76 0 -139.333 -16.167 -190 -48.5s-88.667 -76.666 -114 -132.999s-38 -119.833 -38 -190.5c0 -50.667 7 -99 21 -145s35.667 -86.667 65 -122s66 -63.333 110 -84s96.667 -31 158 -31
c55.333 0 107.5 8.83301 156.5 26.5s90.833 45.5 125.5 83.5c9.33301 -2 17 -5.66699 23 -11s10.667 -12.333 14 -21c-20.667 -28 -48 -52 -82 -72s-72.5 -35.333 -115.5 -46s-87.833 -16 -134.5 -16c-94 0 -171.667 18.5 -233 55.5s-106.666 88 -135.999 153
s-44 138.833 -44 221.5c0 60 9.33301 116 28 168s46.334 97.833 83.001 137.5s81.334 70.667 134.001 93s113 33.5 181 33.5c79.333 0 144.833 -13.833 196.5 -41.5s90.334 -64.667 116.001 -111s38.5 -97.833 38.5 -154.5c0 -54 -6.66699 -103 -20 -147
s-31.166 -82.167 -53.499 -114.5s-47.666 -57.166 -75.999 -74.499s-57.5 -26 -87.5 -26c-26 0 -45.333 8.66699 -58 26s-19 41.333 -19 72c0 17.333 0.166992 41.5 0.5 72.5s0.833008 64.667 1.5 101s1.5 71.666 2.5 105.999l2.5 88.5c16.667 0 32.5 0.666992 47.5 2
s27.833 4 38.5 8zM487.992 467c20 0 38.498 -0.832031 55.498 -2.49902s36.167 -5.16699 57.5 -10.5l-13 -76c-14 12 -28.833 20.667 -44.5 26s-30.5 8 -44.5 8c-19.333 0 -35.166 -5.66699 -47.499 -17s-21.333 -30 -27 -56s-8.5 -61.333 -8.5 -106
c0 -56 5.33301 -95.333 16 -118s23.667 -34 39 -34c12.667 0 26.334 9.5 41.001 28.5s28.167 47.5 40.5 85.5s21.166 84.667 26.499 140l35 22c-2 -51.333 -7.66699 -99 -17 -143s-22 -82.833 -38 -116.5s-35 -59.834 -57 -78.501s-47.333 -28 -76 -28
c-41.333 0 -73.666 16.5 -96.999 49.5s-35 86.167 -35 159.5c0 52.667 8.5 99 25.5 139s40.333 71.333 70 94s62.5 34 98.5 34z" />
    <glyph glyph-name="A" unicode="A" horiz-adv-x="708" 
d="M368 682l233.001 -527.003c12.667 -28 23 -49.167 31 -63.5s15.833 -24.166 23.5 -29.499s16.167 -9 25.5 -11c2.66699 -8.66699 4.5 -17.167 5.5 -25.5s1.5 -17.833 1.5 -28.5c-8.66699 0.666992 -21.167 1.16699 -37.5 1.5l-49.5 1
c-16.667 0.333008 -30.334 0.5 -41.001 0.5c-8 0 -18.167 -0.166992 -30.5 -0.5l-38.5 -1c-13.333 -0.333008 -25.666 -0.666016 -36.999 -0.999023s-20.333 -0.5 -27 -0.5c0 11.333 0.5 21.333 1.5 30s2.83301 16.667 5.5 24c26 4 41.333 10.833 46 20.5
s1 28.834 -11 57.501l-118 273c-12 26.667 -22 51.167 -30 73.5s-16 46.833 -24 73.5h16c-8 -27.333 -16 -52.666 -24 -75.999s-16.667 -46.666 -26 -69.999l-98 -254c-11.333 -31.333 -14.333 -54.833 -9 -70.5s20.666 -24.834 45.999 -27.501
c2.66699 -7.33301 4.5 -15.5 5.5 -24.5s1.5 -18.833 1.5 -29.5c-7.33301 0.666992 -16.833 1.16699 -28.5 1.5s-24 0.666016 -37 0.999023s-25.167 0.5 -36.5 0.5c-16.667 0 -33 -0.333008 -49 -1s-28.667 -1.33398 -38 -2.00098c0 9.33301 0.5 18.5 1.5 27.5
s3.16699 17.833 6.5 26.5c11.333 2 21 6.33301 29 13s16 17.334 24 32.001s17 34.667 27 60l209 521c8.66699 2 16.667 3.33301 24 4s16.333 1 27 1zM435.001 253.997l13.001 -51c-44.667 0 -91.834 -0.5 -141.501 -1.5s-96.5 -2.83301 -140.5 -5.5l16 58h253z" />
    <glyph glyph-name="B" unicode="B" horiz-adv-x="652" 
d="M48 679c13.333 -0.666992 29.833 -1.33203 49.5 -1.99902s38.5 -1 56.5 -1c16.667 0 34.834 0.166992 54.501 0.5l60 1c20.333 0.333008 38.833 0.5 55.5 0.5c49.333 0 91.5 -4.66699 126.5 -14s61.833 -24.666 80.5 -45.999s28 -51 28 -89
c0 -41.333 -13.167 -76.833 -39.5 -106.5s-63.166 -47.834 -110.499 -54.501c39.333 -2 73.666 -9.16699 102.999 -21.5s52.166 -30.833 68.499 -55.5s24.5 -56.334 24.5 -95.001c0 -36.667 -8.83301 -69.834 -26.5 -99.501s-45.834 -53.167 -84.501 -70.5
s-89.667 -26 -153 -26h-74c-26.667 0 -53.667 -0.166992 -81 -0.5s-53 -0.666016 -77 -0.999023s-44.333 -0.833008 -61 -1.5c0 11.333 0.333008 21.5 1 30.5s2.33398 16.833 5.00098 23.5c18 1.33301 31.833 4.83301 41.5 10.5s16.5 15.667 20.5 30s6 35.166 6 62.499v376
c0 25.333 -1.83301 44.333 -5.5 57s-10.5 21.834 -20.5 27.501s-24 9.16699 -42 10.5c-2 6.66699 -3.5 15.167 -4.5 25.5s-1.5 19.833 -1.5 28.5zM250 640.002l-0.000976562 -489.003c0 -28 2.83301 -49 8.5 -63s14.834 -23.333 27.501 -28s29.334 -7 50.001 -7
c41.333 0 72.666 11.5 93.999 34.5s32 54.833 32 95.5c0 28.667 -5.33301 52.334 -16 71.001s-24.834 33 -42.501 43s-37.667 17.167 -60 21.5s-45.5 6.5 -69.5 6.5h-45v53h54c36.667 0 65.167 5.33301 85.5 16s34.833 25.334 43.5 44.001s13 39.334 13 62.001
c0 30.667 -6.66699 55 -20 73s-30 30.833 -50 38.5s-40.667 11.5 -62 11.5c-10 0 -19.167 -0.666992 -27.5 -2s-18.166 -4 -29.499 -8z" />
    <glyph glyph-name="C" unicode="C" horiz-adv-x="647" 
d="M361 -9c-64 0 -120.503 14.833 -169.503 44.5s-87.333 71 -115 124s-41.5 113.833 -41.5 182.5c0 57.333 9.33301 107.333 28 150s44 78.334 76 107.001s68 50.167 108 64.5s81.667 21.5 125 21.5c40 0 78 -4.33301 114 -13s72 -21.667 108 -39
c-4.66699 -23.333 -7.66699 -48.166 -9 -74.499s-2 -53.166 -2 -80.499c-8.66699 -4 -19.167 -6.83301 -31.5 -8.5s-24.5 -2.5 -36.5 -2.5c-1.33301 43.333 -7.66602 77 -18.999 101s-27 40.667 -47 50s-43.333 14 -70 14c-37.333 0 -69.166 -7.33301 -95.499 -22
s-47.666 -34.334 -63.999 -59.001s-28.333 -52.667 -36 -84s-11.5 -64 -11.5 -98c0 -57.333 9.16699 -109.333 27.5 -156s45 -83.334 80 -110.001s78.167 -40 129.5 -40c28.667 0 58.334 4.66699 89.001 14s59.667 22.333 87 39c5.33301 -4 10 -9.83301 14 -17.5
s6.66699 -14.834 8 -21.501c-34.667 -27.333 -71.334 -48.5 -110.001 -63.5s-84 -22.5 -136 -22.5z" />
    <glyph glyph-name="D" unicode="D" horiz-adv-x="733" 
d="M48 -3c0 11.333 0.330078 21.499 0.99707 30.499s2.33398 16.833 5.00098 23.5c18 1.33301 31.833 4.83301 41.5 10.5s16.5 15.667 20.5 30s6 35.166 6 62.499v376c0 25.333 -1.83301 44.333 -5.5 57s-10.5 21.834 -20.5 27.501s-24 9.16699 -42 10.5
c-2 6.66699 -3.5 15.167 -4.5 25.5s-1.5 19.833 -1.5 28.5c12.667 -0.666992 28.334 -1.16699 47.001 -1.5l58.5 -1c20.333 -0.333008 39.5 -0.5 57.5 -0.5c17.333 0 35.5 0.333008 54.5 1s38.5 1 58.5 1c36.667 0 73 -2.5 109 -7.5s69.833 -14 101.5 -27
s59.834 -31.667 84.501 -56s44 -55.333 58 -93s21 -84.167 21 -139.5c0 -54 -6.66699 -100.333 -20 -139s-31 -71 -53 -97s-46.667 -47 -74 -63s-55 -28 -83 -36s-54.667 -13.333 -80 -16s-47 -4 -65 -4h-67c-26 0 -52.667 -0.166992 -80 -0.5
s-52.5 -0.666016 -75.5 -0.999023s-40.5 -0.833008 -52.5 -1.5zM336.997 54.999c29.333 0 57.5 4 84.5 12s51.167 22.333 72.5 43s38.166 49.5 50.499 86.5s18.5 84.5 18.5 142.5c0 54 -7 99.5 -21 136.5s-32.667 66.667 -56 89s-50 38.5 -80 48.5s-61 15 -93 15
c-13.333 0 -27.5 -1.33301 -42.5 -4s-25.167 -6 -30.5 -10l10 32v-491c0 -26.667 2.33301 -47.167 7 -61.5s13.334 -24.333 26.001 -30s30.667 -8.5 54 -8.5z" />
    <glyph glyph-name="E" unicode="E" horiz-adv-x="615" 
d="M48 679c12 -0.666992 26.8311 -1.16895 44.498 -1.50195s36.334 -0.666016 56.001 -0.999023s38.5 -0.5 56.5 -0.5h45v-521c0 -26.667 2.33301 -47.167 7 -61.5s13.334 -24.333 26.001 -30s30.667 -8.5 54 -8.5l-14 -55h-67c-26 0 -52.667 -0.166992 -80 -0.5
s-52.5 -0.666016 -75.5 -0.999023s-40.5 -0.833008 -52.5 -1.5c0 11.333 0.333008 21.5 1 30.5s2.33398 16.833 5.00098 23.5c18 1.33301 31.833 4.83301 41.5 10.5s16.5 15.667 20.5 30s6 35.166 6 62.499v376c0 25.333 -2 44.333 -6 57s-10.833 21.834 -20.5 27.501
s-23.834 9.16699 -42.501 10.5c-2 6.66699 -3.33301 15.167 -4 25.5s-1 19.833 -1 28.5zM519.998 183.998c14 -2.66699 26.333 -6.16602 37 -10.499s19.334 -9.83301 26.001 -16.5c-7.33301 -22.667 -13.5 -48.167 -18.5 -76.5s-9.16699 -55.833 -12.5 -82.5
c-14.667 0.666992 -34.334 1 -59.001 1s-51.667 0.166992 -81 0.5s-59 0.5 -89 0.5l14 55h9c40 0 70.833 4.66699 92.5 14s38.5 23.666 50.5 42.999s22.333 43.333 31 72zM454.998 451.999c-0.666992 -16 -1.33398 -33.501 -2.00098 -52.501s-1 -38.5 -1 -58.5
c0 -20.667 0.333008 -41.334 1 -62.001s1.33398 -39 2.00098 -55c-12 0 -22.667 0.333008 -32 1s-18.333 2.33398 -27 5.00098c-2.66699 32.667 -11.167 54.667 -25.5 66s-40.166 17 -77.499 17h-67v53h67c38.667 0 65 5.33301 79 16s21.333 31.334 22 62.001
c9.33301 3.33301 19.166 5.5 29.499 6.5s20.833 1.5 31.5 1.5zM525.998 678.998c1.33301 -15.333 2.99805 -33.168 4.99805 -53.501s4.33301 -40.166 7 -59.499s5.66699 -36.333 9 -51c-7.33301 -4.66699 -16.166 -8.16699 -26.499 -10.5s-22.5 -3.5 -36.5 -3.5
c-2 21.333 -7.66699 41.5 -17 60.5s-24.666 34.333 -45.999 46s-52 17.5 -92 17.5h-108l26 51c51.333 0 95.333 0.166992 132 0.5s67 0.833008 91 1.5s42.667 1 56 1z" />
    <glyph glyph-name="F" unicode="F" horiz-adv-x="579" 
d="M48 -3c0 12 0.330078 22.333 0.99707 31s2 16.334 4 23.001c18 1.33301 32 4.66602 42 9.99902s17 14.666 21 27.999s6 32.333 6 57v384c0 25.333 -1.83301 44.333 -5.5 57s-10.5 21.834 -20.5 27.501s-24 9.16699 -42 10.5c-2 6.66699 -3.5 14.5 -4.5 23.5
s-1.5 19.167 -1.5 30.5c12.667 -0.666992 27.5 -1.16699 44.5 -1.5s35.167 -0.666016 54.5 -0.999023s37.833 -0.5 55.5 -0.5h47.5v-513c0 -28.667 3 -50.834 9 -66.501s16.167 -26.667 30.5 -33s32.833 -10.5 55.5 -12.5c2.66699 -6.66699 4.5 -14.667 5.5 -24
s1.5 -19.333 1.5 -30c-11.333 0.666992 -25.166 1.16699 -41.499 1.5s-33.666 0.666016 -51.999 0.999023s-36.166 0.5 -53.499 0.5c-27.333 0 -56.333 -0.166992 -87 -0.5s-54 -1.16602 -70 -2.49902zM468.997 199c-12 0 -22.667 0.499023 -32 1.49902s-18.333 2.5 -27 4.5
c-2.66699 32.667 -11.167 54.667 -25.5 66s-40.166 17 -77.499 17h-68v53h68c38 0 64.167 5.33301 78.5 16s21.833 31.334 22.5 62.001c9.33301 3.33301 19.166 5.5 29.499 6.5s20.833 1.5 31.5 1.5c-0.666992 -16 -1.33398 -33.5 -2.00098 -52.5s-1 -38.5 -1 -58.5
c0 -20.667 0.333008 -41.167 1 -61.5s1.33398 -38.833 2.00098 -55.5zM484.997 500.999c-2.66699 21.333 -8.50098 41.498 -17.501 60.498s-24.333 34.333 -46 46s-52.5 17.5 -92.5 17.5h-110l26 51c52.667 0 97.5 0.166992 134.5 0.5s67.5 0.833008 91.5 1.5s42.667 1 56 1
c0.666992 -15.333 2 -33.166 4 -53.499s4.33301 -40.166 7 -59.499s6 -36.333 10 -51c-8 -4.66699 -17.167 -8.16699 -27.5 -10.5s-22.166 -3.5 -35.499 -3.5z" />
    <glyph glyph-name="G" unicode="G" horiz-adv-x="721" 
d="M372 -9c-68 0 -127.326 14.333 -177.993 43s-89.834 69.5 -117.501 122.5s-41.5 116.167 -41.5 189.5c0 55.333 9.16699 104.166 27.5 146.499s43.666 77.666 75.999 105.999s69.666 49.833 111.999 64.5s87.5 22 135.5 22c46.667 0 90.667 -4.66699 132 -14
s76.666 -21 105.999 -35c-4.66699 -22.667 -7.66699 -47 -9 -73s-2 -53.333 -2 -82c-10 -4 -20.833 -6.66699 -32.5 -8s-23.5 -2 -35.5 -2c-1.33301 42.667 -9 75.667 -23 99s-32.333 39.5 -55 48.5s-48.667 13.5 -78 13.5c-50 0 -91 -12.5 -123 -37.5
s-55.5 -57.5 -70.5 -97.5s-22.5 -83 -22.5 -129c0 -59.333 8.16699 -113 24.5 -161s40.666 -86.167 72.999 -114.5s72.166 -42.5 119.499 -42.5c16.667 0 31 0.833008 43 2.5s24.333 4.83398 37 9.50098c10.667 4.66699 18.834 11.834 24.501 21.501s8.5 27.167 8.5 52.5v45
c0 27.333 -1.83301 47.333 -5.5 60s-11.334 21 -23.001 25s-29.167 6.33301 -52.5 7c-2.66699 7.33301 -4.5 15.833 -5.5 25.5s-1.5 19.834 -1.5 30.501c15.333 -0.666992 35.166 -1.33398 59.499 -2.00098s47.166 -1 68.499 -1c20.667 0 43.334 0.166992 68.001 0.5
s44 0.833008 58 1.5c0 -8 -0.333008 -17 -1 -27s-2.33398 -19.333 -5.00098 -28c-12.667 -0.666992 -22.167 -3 -28.5 -7s-10.666 -12 -12.999 -24s-3.5 -30.667 -3.5 -56v-38c0 -18 1 -33 3 -45s6 -24 12 -36c-29.333 -21.333 -66.5 -39.333 -111.5 -54
s-94.833 -22 -149.5 -22z" />
    <glyph glyph-name="H" unicode="H" horiz-adv-x="769" 
d="M445 -3c0 10 0.501953 19.8301 1.50195 29.4971s2.83301 17.834 5.5 24.501c18 1.33301 31.833 4.66602 41.5 9.99902s16.334 14.666 20.001 27.999s5.5 32.333 5.5 57v384c0 25.333 -1.83301 44.333 -5.5 57s-10.334 21.834 -20.001 27.501
s-23.834 9.16699 -42.501 10.5c-2 6.66699 -3.5 14.834 -4.5 24.501s-1.5 19.5 -1.5 29.5c12 -0.666992 26 -1.16699 42 -1.5l50 -1c17.333 -0.333008 33.333 -0.5 48 -0.5s30 0.166992 46 0.5l47 1c15.333 0.333008 29.666 0.833008 42.999 1.5
c0 -10 -0.333008 -19.5 -1 -28.5s-2.33398 -17.5 -5.00098 -25.5c-17.333 -1.33301 -31 -4.66602 -41 -9.99902s-17 -14.5 -21 -27.5s-6 -32.167 -6 -57.5v-384c0 -24.667 2 -43.667 6 -57s11 -22.666 21 -27.999s23.667 -8.66602 41 -9.99902
c2.66699 -6 4.33398 -13.833 5.00098 -23.5s1 -19.834 1 -30.501c-18 1.33301 -38.667 2.16602 -62 2.49902s-47 0.5 -71 0.5s-49 -0.166992 -75 -0.5s-48.667 -1.16602 -68 -2.49902zM48.002 -3.00293c0 10 0.501953 19.8301 1.50195 29.4971s2.5 17.834 4.5 24.501
c18 1.33301 32 4.66602 42 9.99902s16.833 14.666 20.5 27.999s5.5 32.333 5.5 57v384c0 25.333 -1.83301 44.333 -5.5 57s-10.5 21.834 -20.5 27.501s-24 9.16699 -42 10.5c-2 6.66699 -3.5 14.834 -4.5 24.501s-1.5 19.5 -1.5 29.5c12 -0.666992 26 -1.16699 42 -1.5
l49.5 -1c17 -0.333008 32.833 -0.5 47.5 -0.5c15.333 0 31 0.166992 47 0.5l47 1c15.333 0.333008 29.666 0.833008 42.999 1.5c0 -10 -0.333008 -19.5 -1 -28.5s-2.66699 -17.5 -6 -25.5c-17.333 -1.33301 -31 -4.66602 -41 -9.99902s-16.833 -14.5 -20.5 -27.5
s-5.5 -32.167 -5.5 -57.5v-384c0 -24.667 1.83301 -43.667 5.5 -57s10.5 -22.666 20.5 -27.999s24 -8.66602 42 -9.99902c2 -6 3.5 -13.833 4.5 -23.5s1.5 -19.834 1.5 -30.501c-18.667 1.33301 -39.5 2.16602 -62.5 2.49902s-46.5 0.5 -70.5 0.5
c-24.667 0 -49.834 -0.166992 -75.501 -0.5s-48.167 -1.16602 -67.5 -2.49902zM245.004 312.994v61.998h279v-55h-64c-24.667 0 -50.167 -0.166992 -76.5 -0.5s-51.5 -1.16602 -75.5 -2.49902s-45 -2.66602 -63 -3.99902z" />
    <glyph glyph-name="I" unicode="I" horiz-adv-x="371" 
d="M122 530c0 25.333 -1.83105 44.3301 -5.49805 56.9971s-10.5 21.834 -20.5 27.501s-24 9.16699 -42 10.5c-2 6.66699 -3.5 14.834 -4.5 24.501s-1.5 19.5 -1.5 29.5c12 -0.666992 26 -1.16699 42 -1.5l49.5 -1c17 -0.333008 32.833 -0.5 47.5 -0.5
c15.333 0 31 0.166992 47 0.5l47 1c15.333 0.333008 29.666 0.833008 42.999 1.5c0 -10 -0.333008 -19.5 -1 -28.5s-2.66699 -17.5 -6 -25.5c-17.333 -1.33301 -31 -4.66602 -41 -9.99902s-16.833 -14.5 -20.5 -27.5s-5.5 -32.167 -5.5 -57.5v-384
c0 -24.667 1.83301 -43.667 5.5 -57s10.5 -22.666 20.5 -27.999s24 -8.66602 42 -9.99902c2 -6 3.5 -13.833 4.5 -23.5s1.5 -19.834 1.5 -30.501c-18.667 1.33301 -39.5 2.16602 -62.5 2.49902s-46.5 0.5 -70.5 0.5c-24.667 -0 -49.834 -0.166992 -75.501 -0.5
s-48.167 -1.16602 -67.5 -2.49902c0 10 0.5 19.833 1.5 29.5s2.5 17.834 4.5 24.501c18 1.33301 32 4.66602 42 9.99902s16.833 14.666 20.5 27.999s5.5 32.333 5.5 57v384z" />
    <glyph glyph-name="J" unicode="J" horiz-adv-x="350" 
d="M238 128c0 -46 -2.49414 -87.5 -7.49414 -124.5s-15.167 -70.333 -30.5 -100s-37.333 -56.834 -66 -81.501s-66.334 -48.334 -113.001 -71.001c-7.33301 4.66699 -12.833 10.667 -16.5 18s-6.16699 15 -7.5 23c25.333 20 46.333 41 63 63s29.167 48 37.5 78
s12.5 66.667 12.5 110v486c0 26 -1.83301 45.5 -5.5 58.5s-10.334 22.167 -20.001 27.5s-23.834 8.66602 -42.501 9.99902c-2 6.66699 -3.5 14.834 -4.5 24.501s-1.5 19.5 -1.5 29.5c11.333 -0.666992 24.666 -1.16699 39.999 -1.5s31.5 -0.666016 48.5 -0.999023
s33.5 -0.5 49.5 -0.5c24 0 49.167 0.333008 75.5 1s47.166 1.33398 62.499 2.00098c0 -10.667 -0.333008 -20.5 -1 -29.5s-2.33398 -17.167 -5.00098 -24.5c-18 -1.33301 -32 -5 -42 -11s-16.833 -15.5 -20.5 -28.5s-5.5 -31.833 -5.5 -56.5v-401z" />
    <glyph glyph-name="K" unicode="K" horiz-adv-x="707" 
d="M492 -7c-12.667 23.333 -28.834 50.0029 -48.501 80.0029s-41.5 61.333 -65.5 94s-49 63.834 -75 93.501s-51 55.834 -75 78.501l193 200c27.333 27.333 41.166 48.166 41.499 62.499s-10.167 22.166 -31.5 23.499c-2.66699 8 -4.33398 16.833 -5.00098 26.5
s-1 18.834 -1 27.501c11.333 -0.666992 26.833 -1.33398 46.5 -2.00098s39.5 -1 59.5 -1c13.333 0 27.5 0.166992 42.5 0.5l43 1c13.667 0.333008 24.834 0.833008 33.501 1.5c0 -8 -0.5 -17.333 -1.5 -28s-3.16699 -19.334 -6.5 -26.001
c-15.333 -0.666992 -30.166 -3.66699 -44.499 -9s-29.166 -13.833 -44.499 -25.5s-32.666 -27.834 -51.999 -48.501l-169 -179l11 38c31.333 -30.667 63.666 -67.334 96.999 -110.001l104 -138c16 -22 30.5 -40 43.5 -54s27.333 -24.667 43 -32s35.167 -12 58.5 -14
c0 -8 -0.5 -16.833 -1.5 -26.5s-3.16699 -18.5 -6.5 -26.5h-43.5c-16.333 0 -33.5 -0.333008 -51.5 -1s-35.167 -1.5 -51.5 -2.5s-30.5 -2.16699 -42.5 -3.5zM48 -2.99707c0 10 0.501953 19.8301 1.50195 29.4971s2.5 17.834 4.5 24.501c18 1.33301 32 4.66602 42 9.99902
s16.833 14.666 20.5 27.999s5.5 32.333 5.5 57v384c0 25.333 -1.83301 44.333 -5.5 57s-10.5 21.834 -20.5 27.501s-24 9.16699 -42 10.5c-2 6.66699 -3.5 14.834 -4.5 24.501s-1.5 19.5 -1.5 29.5c12 -0.666992 26 -1.16699 42 -1.5l49.5 -1
c17 -0.333008 32.833 -0.5 47.5 -0.5c15.333 0 31 0.166992 47 0.5l47 1c15.333 0.333008 29.666 0.833008 42.999 1.5c0 -10 -0.333008 -19.5 -1 -28.5s-2.66699 -17.5 -6 -25.5c-17.333 -1.33301 -31 -4.66602 -41 -9.99902s-16.833 -14.5 -20.5 -27.5
s-5.5 -32.167 -5.5 -57.5v-384c0 -24.667 1.83301 -43.667 5.5 -57s10.5 -22.666 20.5 -27.999s24 -8.66602 42 -9.99902c2 -6 3.5 -13.833 4.5 -23.5s1.5 -19.834 1.5 -30.501c-18.667 1.33301 -39.5 2.16602 -62.5 2.49902s-46.5 0.5 -70.5 0.5
c-24.667 0 -49.834 -0.166992 -75.501 -0.5s-48.167 -1.16602 -67.5 -2.49902z" />
    <glyph glyph-name="L" unicode="L" horiz-adv-x="586" 
d="M346 55c32.667 0 58.8301 4.16504 78.4971 12.498s35.834 22 48.501 41s24 44.167 34 75.5c13.333 -2.66699 25.333 -6.16699 36 -10.5s19.334 -9.83301 26.001 -16.5c-7.33301 -22.667 -13.5 -48.167 -18.5 -76.5s-9.16699 -55.833 -12.5 -82.5
c-14.667 0.666992 -34 1 -58 1s-49.833 0.166992 -77.5 0.5s-54.167 0.5 -79.5 0.5h-67c-26 0 -52.667 -0.166992 -80 -0.5s-52.5 -0.666016 -75.5 -0.999023s-40.5 -0.833008 -52.5 -1.5c0 11.333 0.333008 21.5 1 30.5s2.33398 16.833 5.00098 23.5
c18 1.33301 31.833 4.83301 41.5 10.5s16.5 15.667 20.5 30s6 35.166 6 62.499v376c0 25.333 -1.83301 44.333 -5.5 57s-10.5 21.834 -20.5 27.501s-24 9.16699 -42 10.5c-2 6.66699 -3.5 15.167 -4.5 25.5s-1.5 19.833 -1.5 28.5c16 -0.666992 31.833 -1.16699 47.5 -1.5
l46.5 -1c15.333 -0.333008 30 -0.5 44 -0.5c15.333 0 31 0.166992 47 0.5l47.5 1c15.667 0.333008 30.167 0.833008 43.5 1.5c0 -10 -0.333008 -19.833 -1 -29.5s-2.33398 -17.834 -5.00098 -24.501c-17.333 -1.33301 -31 -4.66602 -41 -9.99902s-17 -14.666 -21 -27.999
s-6 -33 -6 -59v-373c0 -26.667 2.33301 -47.167 7 -61.5s13.334 -24.333 26.001 -30s30.667 -8.5 54 -8.5h9z" />
    <glyph glyph-name="M" unicode="M" horiz-adv-x="953" 
d="M430 -9l-239 526.002h16l-33 -318c-3.33301 -39.333 -3.66602 -69.333 -0.999023 -90s9.33398 -35 20.001 -43s25.334 -13 44.001 -15c2.66699 -8 4.33398 -17 5.00098 -27s1 -19 1 -27c-14 1.33301 -31.167 2.16602 -51.5 2.49902s-39.166 0.5 -56.499 0.5
c-10.667 0 -22.834 -0.166992 -36.501 -0.5l-39.5 -1c-12.667 -0.333008 -23.334 -0.833008 -32.001 -1.5c0 8 0.5 17 1.5 27s2.5 19 4.5 27c18 2 32.167 7 42.5 15s18.666 22.5 24.999 43.5s11.5 52.167 15.5 93.5l28 320c2.66699 26.667 2.33398 47.334 -0.999023 62.001
s-10.166 25 -20.499 31s-24.833 9 -43.5 9c-2.66699 8 -4.33398 16.667 -5.00098 26s-1 18.666 -1 27.999c8 -0.666992 17.833 -1.16699 29.5 -1.5l35.5 -1c12 -0.333008 22.667 -0.5 32 -0.5s19.833 0.166992 31.5 0.5l34.5 1c11.333 0.333008 21 0.833008 29 1.5l242 -547
h-27l211 547c9.33301 -0.666992 19.833 -1.16699 31.5 -1.5l35.5 -1c12 -0.333008 22.667 -0.5 32 -0.5s19.666 0.166992 30.999 0.5l33.5 1c11 0.333008 21.167 0.833008 30.5 1.5c0 -9.33301 -0.333008 -18.666 -1 -27.999s-2.33398 -18 -5.00098 -26
c-26 0 -44.667 -7.33301 -56 -22s-15 -42.667 -11 -84l34 -337c3.33301 -34.667 7.66602 -61.167 12.999 -79.5s12.833 -30.833 22.5 -37.5s22.5 -11 38.5 -13c2 -8 3.5 -16.833 4.5 -26.5s1.5 -19.167 1.5 -28.5c-8 0.666992 -18 1.16699 -30 1.5
s-25 0.666016 -39 0.999023s-27.5 0.5 -40.5 0.5h-35.5c-12.667 0 -27.5 -0.166992 -44.5 -0.5s-33.167 -0.666016 -48.5 -0.999023s-28.333 -0.833008 -39 -1.5c0 9.33301 0.666992 18.666 2 27.999s3 18 5 26c21.333 2.66699 36.666 7.16699 45.999 13.5
s14.833 17.666 16.5 33.999s0.833984 39.833 -2.49902 70.5l-37 350h15l-212 -521c-7.33301 -2.66699 -15.5 -4.5 -24.5 -5.5s-18.167 -1.5 -27.5 -1.5z" />
    <glyph glyph-name="N" unicode="N" horiz-adv-x="732" 
d="M570 -7l-455.999 601.998c-8 10.667 -16.333 17.834 -25 21.501s-22 6.5 -40 8.5c-2.66699 8.66699 -4.33398 17.667 -5.00098 27s-1 18.333 -1 27c7.33301 -0.666992 16.5 -1.16699 27.5 -1.5l34.5 -1c12 -0.333008 22.333 -0.5 31 -0.5c14 0 28.5 0.333008 43.5 1
s27.833 1.33398 38.5 2.00098l364 -488zM43.001 -3.00195c0 11.333 0.332031 21.333 0.999023 30s2.33398 16.667 5.00098 24c18.667 1.33301 33.334 6.16602 44.001 14.499s18.167 23 22.5 44s6.5 50.167 6.5 87.5v415l58 -3v-412c0 -37.333 2 -66.5 6 -87.5
s11.333 -35.667 22 -44s25.667 -13.166 45 -14.499c2 -7.33301 3.33301 -15.5 4 -24.5s1 -18.833 1 -29.5c-9.33301 0.666992 -20.333 1.16699 -33 1.5l-38 1c-12.667 0.333008 -24.334 0.5 -35.001 0.5c-10 0 -22 -0.166992 -36 -0.5l-41 -1
c-13.333 -0.333008 -24 -0.833008 -32 -1.5zM570 -7.00195l0.00195312 129.001v360c0 37.333 -2 66 -6 86s-11.333 34.167 -22 42.5s-26 13.166 -46 14.499c-2.66699 11.333 -4.33398 21.166 -5.00098 29.499s-1 16.5 -1 24.5c10 -0.666992 21.167 -1.16699 33.5 -1.5l38 -1
c13 -0.333008 24.5 -0.5 34.5 -0.5c15.333 0 32.333 0.333008 51 1s34.667 1.33398 48 2.00098c0 -8.66699 -0.333008 -17.5 -1 -26.5s-2.33398 -18.167 -5.00098 -27.5c-15.333 -0.666992 -27.5 -5.16699 -36.5 -13.5s-15.167 -22.5 -18.5 -42.5s-5 -49 -5 -87v-482
c-8 -2.66699 -17 -4.5 -27 -5.5s-20.667 -1.5 -32 -1.5z" />
    <glyph glyph-name="O" unicode="O" horiz-adv-x="741" 
d="M370 -9c-68 0 -127 15.1719 -177 45.5049s-88.833 71.666 -116.5 123.999s-41.5 112.166 -41.5 179.499c0 52 8.5 99.167 25.5 141.5s40.667 78.666 71 108.999s65.833 53.666 106.5 69.999s84.667 24.5 132 24.5c66 0 124.167 -14.167 174.5 -42.5
s89.833 -68 118.5 -119s43 -110.5 43 -178.5c0 -51.333 -8 -98.5 -24 -141.5s-39 -80.333 -69 -112s-65.5 -56.334 -106.5 -74.001s-86.5 -26.5 -136.5 -26.5zM387 49.0049c38.667 0 71.5 11.833 98.5 35.5s47.833 56 62.5 97s22 87.167 22 138.5
c0 57.333 -9.33301 109.333 -28 156s-44.334 83.667 -77.001 111s-70.667 41 -114 41c-34.667 0 -65.667 -10.5 -93 -31.5s-48.666 -51.167 -63.999 -90.5s-23 -86 -23 -140c0 -41.333 4.5 -81 13.5 -119s22.667 -71.833 41 -101.5s41 -53.167 68 -70.5s58.167 -26 93.5 -26
z" />
    <glyph glyph-name="P" unicode="P" horiz-adv-x="617" 
d="M48 -3c0 12 0.330078 22.334 0.99707 31.001s2 16.334 4 23.001c18 1.33301 32 4.66602 42 9.99902s17 14.666 21 27.999s6 32.333 6 57v384c0 25.333 -1.83301 44.333 -5.5 57s-10.5 21.834 -20.5 27.501s-24 9.16699 -42 10.5c-2 6.66699 -3.5 14.5 -4.5 23.5
s-1.5 19.167 -1.5 30.5c27.333 -1.33301 53.666 -2.16602 78.999 -2.49902s47 -0.5 65 -0.5c13.333 0 30 0.166992 50 0.5l58.5 1c19 0.333008 32.833 0.5 41.5 0.5c60 0 107.5 -9 142.5 -27s60 -42 75 -72s22.5 -63.333 22.5 -100c0 -42 -8.83301 -81.167 -26.5 -117.5
s-44 -65.5 -79 -87.5s-78.167 -33 -129.5 -33c-28 0 -51.333 3.33301 -70 10c-1.33301 10 -1.66602 19.167 -0.999023 27.5s2.33398 16.166 5.00098 23.499c7.33301 -1.33301 14.5 -2.33301 21.5 -3s14.167 -1 21.5 -1c21.333 0 41.333 4.33301 60 13s33.834 24 45.501 46
s17.5 53 17.5 93c0 51.333 -11.833 93 -35.5 125s-61.834 48 -114.501 48c-7.33301 0 -15.666 -0.666992 -24.999 -2s-21 -4 -35 -8l13 16v-466c0 -28.667 3 -50.834 9 -66.501s16.167 -26.667 30.5 -33s32.833 -10.5 55.5 -12.5c2.66699 -6.66699 4.5 -14.667 5.5 -24
s1.5 -19.333 1.5 -30c-11.333 0.666992 -25.166 1.16699 -41.499 1.5s-33.666 0.666016 -51.999 0.999023s-36.5 0.5 -54.5 0.5s-37 -0.166992 -57 -0.5s-38.833 -0.666016 -56.5 -0.999023s-31.834 -0.833008 -42.501 -1.5z" />
    <glyph glyph-name="Q" unicode="Q" horiz-adv-x="741" 
d="M370 -9c-68 0 -127 15.1719 -177 45.5049s-88.833 71.666 -116.5 123.999s-41.5 112.166 -41.5 179.499c0 52 8.5 99.167 25.5 141.5s40.667 78.666 71 108.999s65.833 53.666 106.5 69.999s84.667 24.5 132 24.5c66 0 124.167 -14.167 174.5 -42.5
s89.833 -68 118.5 -119s43 -110.5 43 -178.5c0 -51.333 -8 -98.5 -24 -141.5s-39 -80.333 -69 -112s-65.5 -56.334 -106.5 -74.001s-86.5 -26.5 -136.5 -26.5zM387 49.0049c38.667 0 71.5 11.833 98.5 35.5s47.833 56 62.5 97s22 87.167 22 138.5
c0 57.333 -9.33301 109.333 -28 156s-44.334 83.667 -77.001 111s-70.667 41 -114 41c-34.667 0 -65.667 -10.5 -93 -31.5s-48.666 -51.167 -63.999 -90.5s-23 -86 -23 -140c0 -41.333 4.5 -81 13.5 -119s22.667 -71.833 41 -101.5s41 -53.167 68 -70.5s58.167 -26 93.5 -26
zM621 -194.995c-24 7.33301 -43.8369 17.833 -59.5039 31.5s-29.5 28.667 -41.5 45l-36.5 47.5c-12.333 15.333 -27.333 28.666 -45 39.999s-40.5 18.666 -68.5 21.999l98 31c27.333 -6 51 -14.167 71 -24.5s38.333 -21.166 55 -32.499s33.334 -21.833 50.001 -31.5
s35.334 -17.167 56.001 -22.5s44.667 -7 72 -5c0.666992 -8.66699 0.333984 -17.834 -0.999023 -27.501s-3.33301 -18.5 -6 -26.5c-23.333 -5.33301 -46.666 -11.666 -69.999 -18.999s-48 -16.666 -74 -27.999z" />
    <glyph glyph-name="R" unicode="R" horiz-adv-x="695" 
d="M489 -9c-11.333 20 -21.0029 37.8369 -29.0029 53.5039s-15.333 30.667 -22 45l-22 45.5c-11.333 24.667 -22.333 46 -33 64s-22.667 35.333 -36 52s-30.333 34.334 -51 53.001l35 -11c-18 -0.666992 -34 -1 -48 -1s-28.667 0.333008 -44 1l3 58
c10 -2 18.5 -3.33301 25.5 -4s14.167 -1 21.5 -1c31.333 0 59.666 5.16699 84.999 15.5s45.666 26.166 60.999 47.499s23 48.333 23 81c0 40.667 -11.333 73.334 -34 98.001s-59.667 37 -111 37c-12.667 0 -24.334 -0.833008 -35.001 -2.5s-22 -4.16699 -34 -7.5l6 21v-486
c0 -26.667 1.83301 -47 5.5 -61s10 -23.5 19 -28.5s20.833 -8.16699 35.5 -9.5c2.66699 -6 4.33398 -14 5.00098 -24s1 -20 1 -30c-13.333 1.33301 -28.666 2.16602 -45.999 2.49902s-34.166 0.5 -50.499 0.5h-40.5c-20.667 0 -43.334 -0.166992 -68.001 -0.5
s-45.667 -1.16602 -63 -2.49902c0 10.667 0.333008 20.5 1 29.5s2.33398 17.167 5.00098 24.5c18 1.33301 31.833 4.66602 41.5 9.99902s16.5 14.666 20.5 27.999s6 32.333 6 57v385c0 25.333 -2 44.5 -6 57.5s-10.833 22.167 -20.5 27.5s-23.834 8.33301 -42.501 9
c-2 8 -3.33301 17 -4 27s-1 19 -1 27c12.667 -0.666992 31.834 -1.33398 57.501 -2.00098s51.834 -1 78.501 -1c25.333 0 53.5 0.5 84.5 1.5s62.833 1.5 95.5 1.5c53.333 0 96.666 -7.66699 129.999 -23s58 -36.333 74 -63s24 -56 24 -88c0 -35.333 -7.5 -66.5 -22.5 -93.5
s-36 -49 -63 -66s-58.833 -28.833 -95.5 -35.5l11 12c19.333 -14.667 35.333 -29.334 48 -44.001s25.667 -32.5 39 -53.5s29.333 -48.833 48 -83.5c12.667 -20.667 23.834 -37.167 33.501 -49.5s20.834 -21.333 33.501 -27s29.334 -9.16699 50.001 -10.5
c0 -10 -0.5 -19.333 -1.5 -28s-2.5 -17.334 -4.5 -26.001c-34 0 -66.5 -0.5 -97.5 -1.5s-58.167 -3.5 -81.5 -7.5z" />
    <glyph glyph-name="S" unicode="S" horiz-adv-x="556" 
d="M272 -9c-42.667 0 -81.0029 5.50391 -115.003 16.5039s-68 26.167 -102 45.5c4.66699 26 7.66699 52.167 9 78.5s2 50.166 2 71.499c11.333 3.33301 23.666 5.66602 36.999 6.99902s26.333 2 39 2c2.66699 -36.667 8.5 -67 17.5 -91s23.333 -41.833 43 -53.5
s45.5 -17.5 77.5 -17.5c42 0 72.167 9.16699 90.5 27.5s27.5 39.833 27.5 64.5c0 25.333 -8 46.5 -24 63.5s-36.5 31.833 -61.5 44.5s-51.5 25.334 -79.5 38.001s-54.5 27.667 -79.5 45s-45.5 39 -61.5 65s-24 58.667 -24 98c0 42 9.16699 77 27.5 105s43.666 49 75.999 63
s69.5 21 111.5 21c24 0 47.333 -2 70 -6s43.667 -9.33301 63 -16s34.666 -14 45.999 -22c0 -22.667 0.5 -47 1.5 -73s2.83301 -47.667 5.5 -65c-9.33301 -4.66699 -21.166 -8.16699 -35.499 -10.5s-27.5 -3.5 -39.5 -3.5c-6.66699 38 -15.167 67 -25.5 87
s-23.166 33.833 -38.499 41.5s-32.666 11.5 -51.999 11.5c-30.667 0 -55.167 -7.33301 -73.5 -22s-27.5 -35.667 -27.5 -63c0 -26.667 8 -48.834 24 -66.501s36.833 -33 62.5 -46l81.5 -39.5c28.667 -13.333 55.834 -28.5 81.501 -45.5s46.5 -38.167 62.5 -63.5
s24 -57 24 -95c0 -36.667 -8.66699 -69.834 -26 -99.501s-43.666 -53.334 -78.999 -71.001s-80.666 -26.5 -135.999 -26.5z" />
    <glyph glyph-name="T" unicode="T" horiz-adv-x="628" 
d="M216 622c-29.333 0 -52.168 -5.00195 -68.501 -15.002s-28.5 -24.167 -36.5 -42.5s-14.667 -40.5 -20 -66.5c-11.333 0 -23 0.666992 -35 2s-22.333 4.33301 -31 9c6 28 10.667 57.167 14 87.5s5 57.833 5 82.5c21.333 -0.666992 45.666 -1.33398 72.999 -2.00098
s57.5 -1 90.5 -1h110.5h107.5c33.667 0 64.334 0.333008 92.001 1s52.167 1.33398 73.5 2.00098c-0.666992 -25.333 0 -52.166 2 -80.499s5 -58.166 9 -89.499c-8.66699 -4 -18.667 -7 -30 -9s-23.666 -2.66699 -36.999 -2c-3.33301 41.333 -13.5 72.333 -30.5 93
s-44.5 31 -82.5 31h-206zM251.998 645.998h128v-500c0 -24.667 2.16699 -43.667 6.5 -57s12.5 -22.666 24.5 -27.999s29.667 -8.66602 53 -9.99902c2.66699 -6 4.5 -13.833 5.5 -23.5s1.5 -19.834 1.5 -30.501c-20.667 1.33301 -44.167 2.16602 -70.5 2.49902
s-53.5 0.5 -81.5 0.5c-18.667 0 -38.167 -0.166992 -58.5 -0.5s-39.5 -0.666016 -57.5 -0.999023s-33.667 -0.833008 -47 -1.5c0 10 0.666992 19.833 2 29.5s3 17.834 5 24.501c23.333 1.33301 41.5 4.66602 54.5 9.99902s22 14.666 27 27.999s7.5 32.333 7.5 57v500z" />
    <glyph glyph-name="U" unicode="U" horiz-adv-x="682" 
d="M578 272c0 -57.333 -3.83887 -103.331 -11.5059 -137.998s-23.167 -63.667 -46.5 -87c-19.333 -18.667 -43 -32.667 -71 -42s-59.667 -14 -95 -14c-64 0 -114.333 9 -151 27s-62.667 45 -78 81s-23 81 -23 135v295c0 26 -1.66699 45.5 -5 58.5
s-9.16602 21.833 -17.499 26.5s-21.166 8.33398 -38.499 11.001c-2 8 -3.5 16.667 -4.5 26s-1.5 18.666 -1.5 27.999c13.333 -0.666992 31.333 -1.33398 54 -2.00098s45.334 -1 68.001 -1h37.5c13.667 0 27.334 0.166992 41.001 0.5s26.5 0.666016 38.5 0.999023
s21.667 0.833008 29 1.5c0 -10 -0.333008 -19.333 -1 -28s-2 -17.334 -4 -26.001c-19.333 -2 -33.833 -5.5 -43.5 -10.5s-16.167 -13.833 -19.5 -26.5s-5 -32.334 -5 -59.001v-280c0 -38.667 4.83301 -72.834 14.5 -102.501s25.5 -52.667 47.5 -69s52 -24.5 90 -24.5
c16 0 33.333 3 52 9s34.334 16.333 47.001 31c9.33301 10 16.666 21.833 21.999 35.5s9.33301 31.834 12 54.501s4 51.334 4 86.001v226c0 32.667 -1.83301 58 -5.5 76s-10.167 31 -19.5 39s-23.666 13 -42.999 15c-2 10.667 -3.33301 20.167 -4 28.5s-1 16.833 -1 25.5
c8.66699 -0.666992 18.834 -1.16699 30.501 -1.5l36 -1c12.333 -0.333008 23.5 -0.5 33.5 -0.5c16.667 0 34.167 0.333008 52.5 1s33.833 1.33398 46.5 2.00098c0 -8 -0.5 -16.167 -1.5 -24.5s-2.5 -18.166 -4.5 -29.499c-16 -2 -28.5 -6.83301 -37.5 -14.5
s-15.167 -20.334 -18.5 -38.001s-5 -42.5 -5 -74.5v-226z" />
    <glyph glyph-name="V" unicode="V" horiz-adv-x="693" 
d="M317 -7l-70.499 183.999l-69.5 175.5l-65 155.5c-14.667 32.667 -26.167 57 -34.5 73s-16.166 26.833 -23.499 32.5s-16.666 9.5 -27.999 11.5c-2 8 -3.5 16.833 -4.5 26.5s-1.5 18.834 -1.5 27.501c7.33301 -0.666992 16.5 -1.16699 27.5 -1.5
s23 -0.666016 36 -0.999023s25.667 -0.5 38 -0.5h33.5c19.333 0 41.166 0.333008 65.499 1l70.5 2c0 -10 -0.5 -19.667 -1.5 -29s-2.16699 -17.666 -3.5 -24.999c-20.667 -2 -35.667 -6 -45 -12s-13 -16.167 -11 -30.5s9 -35.833 21 -64.5l49 -120.5
c16 -40.333 31.5 -81.5 46.5 -123.5l45.5 -133h-20l54 125.5l49 122.5l48 129c10.667 31.333 13.5 56.166 8.5 74.499s-21.167 29.166 -48.5 32.499c-2 7.33301 -3.5 15.833 -4.5 25.5s-1.5 19.167 -1.5 28.5c9.33301 -0.666992 19.333 -1.16699 30 -1.5l32.5 -1
c11 -0.333008 21.833 -0.5 32.5 -0.5c15.333 0 32.666 0.333008 51.999 1s35.666 1.33398 48.999 2.00098c0 -10 -0.666992 -19.5 -2 -28.5s-3 -17.5 -5 -25.5c-19.333 -4.66699 -35 -16 -47 -34s-24.667 -44.333 -38 -79l-101 -254.5l-107 -258.5
c-8 -2.66699 -16.667 -4.33398 -26 -5.00098s-19.333 -1 -30 -1z" />
    <glyph glyph-name="W" unicode="W" horiz-adv-x="997" 
d="M20 679c8 -0.666992 17.834 -1.16895 29.501 -1.50195l36.5 -1c12.667 -0.333008 24.667 -0.5 36 -0.5h29c10.667 0 24.167 0.166992 40.5 0.5l51 1c17.667 0.333008 32.834 0.833008 45.501 1.5c0 -8 -0.333008 -16.667 -1 -26s-2.33398 -18.666 -5.00098 -27.999
c-22 -2 -38 -5.66699 -48 -11s-14.333 -15.333 -13 -30s7 -37 17 -67l37.5 -114.5l38.5 -126l37 -124.5h-30l181 526c7.33301 2.66699 15.833 4.33398 25.5 5.00098s19.834 1 30.501 1l67.5 -175.5l66 -179l62.5 -175.5h-26l102 328c15.333 50 19.166 85.167 11.499 105.5
s-27.834 32.833 -60.501 37.5c-3.33301 8 -5.5 17 -6.5 27s-1.5 19 -1.5 27c14 -0.666992 30.5 -1.33398 49.5 -2.00098s37.5 -1 55.5 -1c15.333 0 32.333 0.333008 51 1s34.667 1.33398 48 2.00098c0 -8.66699 -0.5 -17.667 -1.5 -27s-3.16699 -18.333 -6.5 -27
c-11.333 -3.33301 -21.166 -9.5 -29.499 -18.5s-16.5 -23.333 -24.5 -43s-17.667 -47.5 -29 -83.5l-150 -482c-6.66699 -2 -16 -3.66699 -28 -5s-23 -2 -33 -2l-62 171.5l-64.5 173.5l-66.5 171h20l-173 -510c-5.33301 -1.33301 -11.833 -2.5 -19.5 -3.5
s-15.167 -1.66699 -22.5 -2s-14.333 -0.5 -21 -0.5l-80.5 263.5l-80.5 249.5c-12.667 36.667 -22.667 63.167 -30 79.5s-14.5 26.833 -21.5 31.5s-16.167 7.66699 -27.5 9c-2.66699 8 -4.33398 16.833 -5.00098 26.5s-1 19.167 -1 28.5z" />
    <glyph glyph-name="X" unicode="X" horiz-adv-x="687" 
d="M654 -3c-9.33301 0.666992 -22.335 1.16504 -39.002 1.49805l-52.5 1c-18.333 0.333008 -35.5 0.5 -51.5 0.5s-32.833 -0.166992 -50.5 -0.5s-34.334 -0.5 -50.001 -0.5s-28.5 -0.333008 -38.5 -1c0 8.66699 0.333008 17.5 1 26.5s2 17.833 4 26.5
c16.667 2 28.5 5.66699 35.5 11s8.16699 16 3.5 32s-17 40.667 -37 74l-64.5 106.5l-73 116l-76.5 117.5l-41.5 61c-10.333 14.667 -19 25.667 -26 33s-13.667 12.333 -20 15s-13.833 5 -22.5 7c-3.33301 9.33301 -5.33301 18.5 -6 27.5s-1 18.167 -1 27.5
c12 -0.666992 26.833 -1.16699 44.5 -1.5l54.5 -1c18.667 -0.333008 35.334 -0.5 50.001 -0.5c23.333 0 47 0.166992 71 0.5s43.667 0.833008 59 1.5c0 -8 -0.5 -16.5 -1.5 -25.5s-2.16699 -18.167 -3.5 -27.5c-17.333 -3.33301 -29.666 -8.16602 -36.999 -14.499
s-9 -16.333 -5 -30s14.333 -33.167 31 -58.5l76 -118l72.5 -115l62.5 -105c16.667 -27.333 30.834 -49.5 42.501 -66.5s21.834 -30 30.501 -39s17.167 -15.333 25.5 -19s17.166 -6.5 26.499 -8.5c2.66699 -7.33301 4.5 -15.666 5.5 -24.999s1.5 -19 1.5 -29z
M33.998 -3.00195c0 8.66699 0.333984 18.334 1.00098 29.001s2.66699 19.667 6 27c20 5.33301 40.333 15.833 61 31.5s43.667 41.5 69 77.5l121 172l40 -39l-86 -126c-18 -27.333 -30 -48.833 -36 -64.5s-5.33301 -27.5 2 -35.5s21.333 -14 42 -18
c2 -8.66699 3.33301 -17.5 4 -26.5s1 -18.167 1 -27.5c-16.667 1.33301 -35.334 2.16602 -56.001 2.49902s-40.334 0.5 -59.001 0.5c-12.667 0 -25.667 -0.166992 -39 -0.5l-38.5 -1c-12.333 -0.333008 -23.166 -0.833008 -32.499 -1.5zM393.999 327.998l-41 40.999l90 140
c26 42 37.833 70.833 35.5 86.5s-17.5 25.5 -45.5 29.5c-2 8.66699 -3.33301 17.834 -4 27.501s-1 18.5 -1 26.5c11.333 -0.666992 23.333 -1.16699 36 -1.5l38.5 -1c13 -0.333008 24.5 -0.5 34.5 -0.5s21.5 0.166992 34.5 0.5l38 1c12.333 0.333008 22.5 0.833008 30.5 1.5
c0 -9.33301 -0.166992 -18.5 -0.5 -27.5s-1.83301 -17.833 -4.5 -26.5c-13.333 -4 -25.5 -9.16699 -36.5 -15.5s-22.833 -16.833 -35.5 -31.5s-28.667 -36.667 -48 -66z" />
    <glyph glyph-name="Y" unicode="Y" horiz-adv-x="631" 
d="M384 263l-0.00195312 -88.999c0 -34 1.83301 -59.333 5.5 -76s11.5 -27.834 23.5 -33.501s30.333 -10.167 55 -13.5c2.66699 -8.66699 4.5 -17.167 5.5 -25.5s1.5 -17.833 1.5 -28.5c-24 0.666992 -49.667 1.33398 -77 2.00098s-53.333 1 -78 1
c-18 0 -37 -0.166992 -57 -0.5s-39 -0.5 -57 -0.5s-33.667 -0.333008 -47 -1c0.666992 9.33301 1.5 18.666 2.5 27.999s2.83301 17.666 5.5 24.999c26.667 2.66699 46.334 6.5 59.001 11.5s20.834 15.333 24.501 31s5.5 39.834 5.5 72.501v97h128zM359.998 204.001h-78.998
l-183 362c-10.667 21.333 -21.167 36.333 -31.5 45s-23.5 13.334 -39.5 14.001c-2.66699 8.66699 -4.5 17.167 -5.5 25.5s-1.5 17.5 -1.5 27.5c11.333 0 24.333 -0.166992 39 -0.5l44.5 -1c15 -0.333008 28.833 -0.5 41.5 -0.5h46.5c18.333 0 36.5 0.166992 54.5 0.5
s32.667 0.833008 44 1.5c0 -10.667 -0.5 -19.667 -1.5 -27s-2.5 -15.333 -4.5 -24c-24 -2.66699 -37.333 -10.334 -40 -23.001s2.33301 -32.667 15 -60c15.333 -30 32.166 -65.167 50.499 -105.5l54.5 -125.5h-7l54.5 123c17 37.333 32.833 70.666 47.5 99.999
c14.667 31.333 19.667 53.333 15 66s-19 20.334 -43 23.001c-2 8.66699 -3.83301 17 -5.5 25s-2.5 17.333 -2.5 28c14 -0.666992 30 -1.16699 48 -1.5s35.333 -0.5 52 -0.5c15.333 0 30.666 0.166992 45.999 0.5s29.333 0.833008 42 1.5c0 -10 -0.5 -19 -1.5 -27
s-2.16699 -16 -3.5 -24c-16.667 -4 -32 -13.333 -46 -28s-29.333 -39 -46 -73z" />
    <glyph glyph-name="Z" unicode="Z" horiz-adv-x="617" 
d="M91 678c10.667 0 26.0059 -0.169922 46.0059 -0.50293s42 -0.666016 66 -0.999023s47.333 -0.5 70 -0.5h59h66.5c22.333 0 44.833 0.166992 67.5 0.5s45 0.833008 67 1.5c4.66699 -5.33301 8.16699 -11.833 10.5 -19.5s3.83301 -16.167 4.5 -25.5l-114.5 -207l-115 -197
l-121.5 -199l-20 23h149c38 0 67.667 3.16699 89 9.5s37.833 18.833 49.5 37.5s21.5 46.334 29.5 83.001c28.667 -2.66699 52 -9.66699 70 -21c-3.33301 -14.667 -6.5 -31.5 -9.5 -50.5s-5.5 -38.5 -7.5 -58.5s-3.33301 -38.667 -4 -56
c-30.667 1.33301 -60.334 2.16602 -89.001 2.49902s-57.167 0.5 -85.5 0.5h-85.5c-44 0 -86 -0.166992 -126 -0.5s-72 -1.16602 -96 -2.49902c-4 6.66699 -7 13.5 -9 20.5s-3 15.167 -3 24.5l91.5 151.5l87.5 148l85.5 147.5l84.5 152l28 -16h-149
c-26.667 0 -48.334 -3.5 -65.001 -10.5s-30.334 -19.833 -41.001 -38.5s-20 -47 -28 -85c-12.667 0 -25.834 0.833008 -39.501 2.5s-24.834 4.83398 -33.501 9.50098c7.33301 24.667 12.666 53 15.999 85s5 62 5 90z" />
    <glyph glyph-name="bracketleft" unicode="[" horiz-adv-x="285" 
d="M35 742c17.333 -0.666992 34.1689 -1.16699 50.502 -1.5s31.166 -0.5 44.499 -0.5c18.667 0 35.667 0.166992 51 0.5s33 0.833008 53 1.5c5.33301 -6.66699 8.66602 -14.667 9.99902 -24s2 -18.666 2 -27.999c-33.333 -2.66699 -59 -6.33398 -77 -11.001
s-30.167 -13 -36.5 -25s-9.5 -30.333 -9.5 -55v-736c0 -22 3.83301 -38.333 11.5 -49s19.667 -17.834 36 -21.501s37.833 -6.16699 64.5 -7.5c4.66699 -8 7.66699 -16.167 9 -24.5s2 -18.166 2 -29.499c-16.667 1.33301 -34.167 2 -52.5 2h-47.5h-54
c-18.667 0 -37.667 -0.666992 -57 -2v1011z" />
    <glyph glyph-name="backslash" unicode="\" horiz-adv-x="388" 
d="M29 709c5.33301 2 11.5 3.33398 18.5 4.00098s14.833 1 23.5 1c4 0 8 -0.166992 12 -0.5s7 -0.833008 9 -1.5l264 -712c-6.66699 -2.66699 -17 -4.33398 -31 -5.00098s-24.333 -0.666992 -31 0z" />
    <glyph glyph-name="bracketright" unicode="]" horiz-adv-x="285" 
d="M250 -269c-19.333 1.33301 -38.333 2 -57 2h-54h-48c-18 0 -35.333 -0.666992 -52 -2c0 11.333 0.666992 21.166 2 29.499s4.33301 16.5 9 24.5c26.667 1.33301 48.167 3.83301 64.5 7.5s28.166 10.834 35.499 21.501s11 27 11 49v736c0 24.667 -3.16699 43 -9.5 55
s-18.166 20.333 -35.499 25s-43 8.33398 -77 11.001c0 9.33301 0.666992 18.666 2 27.999s4.33301 17.333 9 24c20.667 -0.666992 38.667 -1.16699 54 -1.5s32 -0.5 50 -0.5c14 0 29 0.166992 45 0.5s33 0.833008 51 1.5v-1011z" />
    <glyph glyph-name="asciicircum" unicode="^" 
d="M276 632l-106.5 -129.499l-95.5 -124.5c-8.66699 7.33301 -16 15.5 -22 24.5s-10 19.167 -12 30.5l205 256c7.33301 4.66699 16.333 7.66699 27 9s21.667 1.66602 33 0.999023l64 -95l73 -106l68 -94c-8 -6 -18 -10.167 -30 -12.5s-23.333 -2.5 -34 -0.5z" />
    <glyph glyph-name="underscore" unicode="_" 
d="M27 -146c0 12 0.832031 23 2.49902 33s4.83398 19 9.50098 27h484c0 -8 -1 -18 -3 -30s-5 -21.667 -9 -29c-38 0.666992 -70 1 -96 1h-74h-78c-25.333 0 -49.5 -0.166992 -72.5 -0.5s-47.5 -0.5 -73.5 -0.5s-56 -0.333008 -90 -1z" />
    <glyph glyph-name="grave" unicode="`" horiz-adv-x="300" 
d="M183 534c-21.333 33.333 -42.002 63.001 -62.002 89.001s-42 51 -66 75c16.667 7.33301 35.334 12.166 56.001 14.499s41.334 2.83301 62.001 1.5c8 -27.333 18 -55.833 30 -85.5s25.333 -58.5 40 -86.5c-8 -4 -17 -6.33301 -27 -7s-21 -1 -33 -1z" />
    <glyph glyph-name="a" unicode="a" horiz-adv-x="527" 
d="M356 -9c-10 4 -17.3281 10.5059 -21.9951 19.5059s-7 21.833 -7 38.5c0 7.33301 0.666992 16 2 26s3.33301 19.333 6 28l3 2c-4 -14.667 -10 -28.834 -18 -42.501s-17.667 -25.167 -29 -34.5c-12.667 -10.667 -28.334 -19.167 -47.001 -25.5s-40.334 -9.5 -65.001 -9.5
c-44 0 -77.833 9.66699 -101.5 29s-35.5 46.333 -35.5 81c0 25.333 6 47.166 18 65.499s28 33.833 48 46.5s41.833 22.834 65.5 30.501s47.667 13.667 72 18s46.833 8.16602 67.5 11.499c0 22.667 -0.5 40.834 -1.5 54.501s-3 25 -6 34s-7.83301 16.833 -14.5 23.5
c-7.33301 9.33301 -16 16.166 -26 20.499s-20.667 6.5 -32 6.5c-20 0 -35.833 -6 -47.5 -18s-20.167 -26.833 -25.5 -44.5s-8.66602 -34.5 -9.99902 -50.5c-12.667 0 -25.334 0.5 -38.001 1.5s-23.334 3.16699 -32.001 6.5c1.33301 18 1.66602 37.333 0.999023 58
s-3 40 -7 58c28 13.333 59 23.666 93 30.999s65.667 11 95 11c33.333 0 60.5 -4 81.5 -12s37.167 -18 48.5 -30c15.333 -15.333 26.333 -35.833 33 -61.5s10 -61.5 10 -107.5v-96c0 -20 1.5 -35.833 4.5 -47.5s8.66699 -19.834 17 -24.501s21.166 -7.33398 38.499 -8.00098
c1.33301 -9.33301 1.5 -19 0.5 -29s-3.5 -19.333 -7.5 -28c-21.333 -0.666992 -43.833 -3.83398 -67.5 -9.50098s-45.167 -13.167 -64.5 -22.5zM220.005 65.0059c14 0 28.1689 4.66699 42.502 14s26.333 23.5 36 42.5s14.5 43.5 14.5 73.5v31
c-18.667 -2.66699 -36.834 -6.16699 -54.501 -10.5s-33.334 -10 -47.001 -17s-24.5 -16.167 -32.5 -27.5s-12 -26 -12 -44c0 -21.333 5.33301 -37 16 -47s23 -15 37 -15z" />
    <glyph glyph-name="b" unicode="b" horiz-adv-x="580" 
d="M190 93c12 -14.667 25.166 -26.333 39.499 -35s31.833 -13 52.5 -13c13.333 0 27.5 2.66699 42.5 8s29.333 14.666 43 27.999s24.834 32.333 33.501 57s13 56.334 13 95.001c0 36 -5 65.667 -15 89s-22.667 41 -38 53s-31.333 18 -48 18
c-18 0 -35.5 -5.83301 -52.5 -17.5s-31 -30.5 -42 -56.5s-16.5 -61 -16.5 -105v-152zM279.999 -8.99902c-32.667 0 -63.502 3.00391 -92.502 9.00391s-54.5 14.333 -76.5 25s-40 22.667 -54 36c8 9.33301 13.833 22.666 17.5 39.999s5.5 43 5.5 77v385
c0 16 -1.66699 29 -5 39s-10.333 17.667 -21 23s-27 8.33301 -49 9c0 9.33301 0.666992 18.166 2 26.499s4 15.833 8 22.5c18 0 37.833 1.66699 59.5 5s41.834 7.66602 60.501 12.999s32.334 10.666 41.001 15.999c7.33301 -2.66699 13.5 -7.66699 18.5 -15
s7.5 -18.333 7.5 -33v-232c0 -16 -0.666992 -28.833 -2 -38.5s-3 -19.5 -5 -29.5l-7 -80l-21 30c10 24 19 42.5 27 55.5s15.333 22.833 22 29.5c6.66699 9.33301 16.5 18.833 29.5 28.5s28.5 17.834 46.5 24.501s37.333 10 58 10c39.333 0 73.333 -7.5 102 -22.5
s51 -38.333 67 -70s24 -72.834 24 -123.501c0 -49.333 -11 -93.5 -33 -132.5s-52.667 -70 -92 -93s-85.333 -34.5 -138 -34.5z" />
    <glyph glyph-name="c" unicode="c" horiz-adv-x="459" 
d="M430 66c-17.333 -24 -40 -42.5 -68 -55.5s-61 -19.5 -99 -19.5c-40.667 0 -78.167 8.66699 -112.5 26s-61.833 43.5 -82.5 78.5s-31 78.833 -31 131.5c0 40 8.33301 78.333 25 115s41.5 66.667 74.5 90s73.833 35 122.5 35c34 0 64.333 -3.5 91 -10.5
s50 -17.833 70 -32.5c-3.33301 -19.333 -5.66602 -38.5 -6.99902 -57.5s-2 -39.833 -2 -62.5c-8.66699 -4 -19 -6.83301 -31 -8.5s-23.333 -2.5 -34 -2.5c-2.66699 38.667 -12 68.167 -28 88.5s-37 30.5 -63 30.5c-29.333 0 -52.5 -15.167 -69.5 -45.5
s-25.5 -71.833 -25.5 -124.5c0 -30.667 5 -60 15 -88s25.333 -50.833 46 -68.5s46.667 -26.5 78 -26.5c21.333 0 41 4.16699 59 12.5s34 19.833 48 34.5c6 -4 11.167 -9.5 15.5 -16.5s7.16602 -14.833 8.49902 -23.5z" />
    <glyph glyph-name="d" unicode="d" horiz-adv-x="592" 
d="M301 467c16.667 0 31.667 -1.33301 45 -4s28 -6.33398 44 -11.001v-87c-12.667 14.667 -26 26.334 -40 35.001s-31.333 13 -52 13c-13.333 0 -27.5 -2.66699 -42.5 -8s-29.333 -14.666 -43 -27.999s-25 -32.333 -34 -57s-13.5 -56.334 -13.5 -95.001
c0 -36 5 -65.667 15 -89s22.833 -41 38.5 -53s31.5 -18 47.5 -18c18.667 0 36.334 5.83301 53.001 17.5s30.5 30.5 41.5 56.5s16.5 60.667 16.5 104l36 -104c-10 -24 -19.167 -42.5 -27.5 -55.5s-15.5 -22.833 -21.5 -29.5c-6.66699 -8.66699 -16.5 -17.834 -29.5 -27.501
s-28.333 -18 -46 -25s-37.167 -10.5 -58.5 -10.5c-38.667 0 -72.5 7.5 -101.5 22.5s-51.5 38.333 -67.5 70s-24 72.834 -24 123.501c0 49.333 11 93.5 33 132.5s52.667 70 92 93s85.666 34.5 138.999 34.5zM500 155c0 -18.667 1.33203 -33.499 3.99902 -44.499
s8.33398 -18.833 17.001 -23.5s21.667 -7 39 -7c0.666992 -9.33301 0.5 -19 -0.5 -29s-3.5 -19.333 -7.5 -28c-21.333 -0.666992 -44.333 -3.83398 -69 -9.50098s-46.667 -13.167 -66 -22.5c-9.33301 4 -16.5 9.66699 -21.5 17s-7.5 21 -7.5 41c0 13.333 1.33301 26 4 38
l11 48zM499.999 572.001v-443h-123v443h123zM473.999 717.001c7.33301 -2.66699 13.499 -7.66406 18.499 -14.9971s7.5 -18.333 7.5 -33v-132h-123v26c0 16 -1.5 29 -4.5 39s-9.83301 17.667 -20.5 23s-27 8.33301 -49 9c0 9.33301 0.666992 18.166 2 26.499
s4 15.833 8 22.5c17.333 0 36.833 1.66699 58.5 5s41.834 7.66602 60.501 12.999s32.667 10.666 42 15.999z" />
    <glyph glyph-name="e" unicode="e" horiz-adv-x="497" 
d="M266 -9c-52.667 0 -95.833 10.4971 -129.5 31.4971s-58.667 49.5 -75 85.5s-24.5 75.667 -24.5 119c0 46 9 87 27 123s43.667 64.5 77 85.5s72.666 31.5 117.999 31.5c46 0 83.333 -9.16699 112 -27.5s50.167 -43.5 64.5 -75.5s22.5 -68 24.5 -108
c-4 -16.667 -11 -30.667 -21 -42h-57.5c-23.667 0 -49.5 -0.166992 -77.5 -0.5s-56.5 -1.16602 -85.5 -2.49902s-56.5 -2.66602 -82.5 -3.99902v60h200c0 44.667 -7 79.834 -21 105.501s-34.333 38.5 -61 38.5c-16 0 -30.833 -5.16699 -44.5 -15.5s-24.667 -27 -33 -50
s-12.5 -54.167 -12.5 -93.5c0 -34 4.16699 -65.667 12.5 -95s22.833 -53 43.5 -71s49.334 -27 86.001 -27c22.667 0 45 4.5 67 13.5s41 21.5 57 37.5c6 -3.33301 11.667 -9.33301 17 -18s8 -17 8 -25c-24 -26.667 -51.5 -46 -82.5 -58s-66.5 -18 -106.5 -18z" />
    <glyph glyph-name="f" unicode="f" horiz-adv-x="374" 
d="M341 448c0 -10 -0.666992 -20.1689 -2 -30.502s-4 -19.166 -8 -26.499c-19.333 0 -37.5 -1.16699 -54.5 -3.5s-33.5 -6.16602 -49.5 -11.499v72h114zM111 483.998c0 52 10.501 95.0029 31.501 129.003s48.333 59.5 82 76.5s70.167 25.5 109.5 25.5
c26.667 0 49.167 -2.66699 67.5 -8s33.5 -12 45.5 -20c-2 -20 -3.33301 -41 -4 -63s-0.666992 -42 0 -60c-10 -4 -22.333 -6.66699 -37 -8s-28 -2 -40 -2c0 29.333 -5.5 53.166 -16.5 71.499s-28.5 27.5 -52.5 27.5c-14.667 0 -26.834 -4.83301 -36.501 -14.5
s-16.5 -24.334 -20.5 -44.001s-6 -45.834 -6 -78.501v-323h-123v291zM130.001 448.001v-71.001c-18 6 -35.667 10 -53 12s-32 3 -44 3c0 10.667 1.16699 20.834 3.5 30.501s5.83301 18.167 10.5 25.5h83zM234.001 163c0 -28.667 3.00195 -50.832 9.00195 -66.499
s16.167 -26.667 30.5 -33s32.833 -10.5 55.5 -12.5c2.66699 -6.66699 4.33398 -14.667 5.00098 -24s1 -19.333 1 -30c-10.667 0.666992 -23.834 1.16699 -39.501 1.5s-32.334 0.666016 -50.001 0.999023s-35.5 0.5 -53.5 0.5c-27.333 -0 -55.833 -0.166992 -85.5 -0.5
s-52.834 -1.16602 -69.501 -2.49902c0 12 0.5 22.333 1.5 31s2.5 16.334 4.5 23.001c18 1.33301 32 4.66602 42 9.99902s16.833 14.666 20.5 27.999s5.5 32.333 5.5 57v81h123v-64z" />
    <glyph glyph-name="g" unicode="g" horiz-adv-x="535" 
d="M219 -249c-45.333 0 -81.4961 5.16602 -108.496 15.499s-46.5 25.166 -58.5 44.499s-18 42 -18 68c0 25.333 7.16699 47.333 21.5 66s35.166 32.667 62.499 42l60 -8c-15.333 -12.667 -25.666 -24.5 -30.999 -35.5s-8 -24.167 -8 -39.5
c0 -30.667 8.16699 -53.667 24.5 -69s44.166 -23 83.499 -23c43.333 0 77.166 9.33301 101.499 28s36.5 40.667 36.5 66c0 14 -3.66699 25 -11 33s-21 13.833 -41 17.5s-49.333 5.5 -88 5.5c-29.333 0.666992 -55.333 2.33398 -78 5.00098s-41.834 7.66699 -57.501 15
s-27.5 17.333 -35.5 30s-12 29.334 -12 50.001c0 25.333 7 48.166 21 68.499s30.667 38.166 50 53.499l56 -25c-11.333 -8 -19.833 -16.167 -25.5 -24.5s-8.5 -16.166 -8.5 -23.499c0 -12 4.66699 -20.667 14 -26s25.166 -8.66602 47.499 -9.99902s52.5 -2 90.5 -2
c41.333 0 75.833 -3.5 103.5 -10.5s48.334 -18.833 62.001 -35.5s20.5 -40.334 20.5 -71.001c0 -26 -6.66699 -51.167 -20 -75.5s-32 -46.166 -56 -65.499s-52.833 -34.833 -86.5 -46.5s-70.834 -17.5 -111.501 -17.5zM249.004 139.999
c-38.667 0 -72.999 5.99805 -102.999 17.998s-53.667 30 -71 54s-26 54 -26 90c0 32.667 7.33301 61.334 22 86.001s36.667 44 66 58s64.666 21 105.999 21c37.333 0 69.166 -5.33301 95.499 -16s47.833 -24.5 64.5 -41.5s28.834 -35.167 36.501 -54.5s11.5 -37 11.5 -53
c0 -30.667 -7.5 -58.167 -22.5 -82.5s-37.5 -43.666 -67.5 -57.999s-67.333 -21.5 -112 -21.5zM261.005 192.997c20.667 0 37.166 8.66797 49.499 26.001s18.5 42.666 18.5 75.999c0 35.333 -7.66699 64.5 -23 87.5s-36.666 34.5 -63.999 34.5c-24 0 -41.667 -10 -53 -30
s-17 -44 -17 -72c0 -39.333 7.83301 -69.5 23.5 -90.5s37.5 -31.5 65.5 -31.5zM503.004 386.998c-11.333 3.33301 -23.832 6.33105 -37.499 8.99805s-27.167 5 -40.5 7s-25.333 3.33301 -36 4l-85 51h190c3.33301 -9.33301 5.66602 -20.166 6.99902 -32.499
s2 -25.166 2 -38.499z" />
    <glyph glyph-name="h" unicode="h" horiz-adv-x="631" 
d="M536 138c0 -34 4.16797 -57.001 12.501 -69.001s22.166 -18 41.499 -18c2.66699 -7.33301 4.5 -15.166 5.5 -23.499s1.5 -18.5 1.5 -30.5c-14.667 1.33301 -32.834 2.16602 -54.501 2.49902s-43.167 0.5 -64.5 0.5c-14 0 -29.5 -0.166992 -46.5 -0.5
s-33 -0.666016 -48 -0.999023s-27.833 -0.833008 -38.5 -1.5c0 10.667 0.333008 20.5 1 29.5s2.33398 17.167 5.00098 24.5c21.333 0 37.166 6.5 47.499 19.5s15.5 36.833 15.5 71.5v125c0 44.667 -7.5 75.167 -22.5 91.5s-35.167 24.5 -60.5 24.5
c-17.333 0 -33.833 -5.83301 -49.5 -17.5s-28.667 -29.5 -39 -53.5s-15.5 -54.667 -15.5 -92v-82c0 -33.333 4.66699 -56.166 14 -68.499s25.333 -18.5 48 -18.5c3.33301 -8 5.33301 -16.167 6 -24.5s1 -18.166 1 -29.499c-9.33301 0.666992 -21.5 1.16699 -36.5 1.5l-47 1
c-16.333 0.333008 -31.833 0.5 -46.5 0.5c-14 0 -29.667 -0.166992 -47 -0.5s-33.833 -0.666016 -49.5 -0.999023s-28.5 -0.833008 -38.5 -1.5c0 11.333 0.5 21.666 1.5 30.999s2.5 17 4.5 23c26 0 43.833 6.16699 53.5 18.5s14.5 35.166 14.5 68.499v169l122 110
c0 -8 -0.666992 -17.167 -2 -27.5s-3.66602 -21.166 -6.99902 -32.499l10 20c3.33301 6.66699 7.66602 13 12.999 19c12.667 15.333 31.334 30.166 56.001 44.499s53.334 21.5 86.001 21.5c26.667 0 51.667 -5.33301 75 -16s42.166 -27.834 56.499 -51.501
s21.5 -55.5 21.5 -95.5v-161zM105.001 562.999c0 16 -1.66895 29.0029 -5.00195 39.0029s-10.333 17.667 -21 23s-27 8.33301 -49 9c0 9.33301 0.666992 18.166 2 26.499s4 15.833 8 22.5c18 0 37.833 1.66699 59.5 5s41.834 7.66602 60.501 12.999
s32.334 10.666 41.001 15.999c7.33301 -2.66699 13.5 -7.66699 18.5 -15s7.5 -18.333 7.5 -33v-132h-122v26zM104.999 572.002h122v-155l-122 -132v287z" />
    <glyph glyph-name="i" unicode="i" horiz-adv-x="333" 
d="M35 -3c0 10 0.49707 19.6709 1.49707 29.0039s2.83301 17.666 5.5 24.999c26.667 0.666992 44.5 7 53.5 19s13.5 34.667 13.5 68v175c0 16 -1.66699 29 -5 39s-10.333 17.667 -21 23s-26.667 8.33301 -48 9c0 9.33301 0.666992 18.166 2 26.499s4 15.833 8 22.5
c17.333 0 36.833 1.66699 58.5 5s41.834 7.66602 60.501 12.999s32.334 10.666 41.001 15.999c8 -2.66699 14.5 -7.66699 19.5 -15s7.5 -18.333 7.5 -33v-281c0 -33.333 4.33301 -56 13 -68s24.667 -18.333 48 -19c2.66699 -7.33301 4.33398 -16 5.00098 -26
s1 -19.333 1 -28c-10.667 0.666992 -23.167 1.16699 -37.5 1.5s-29.5 0.666016 -45.5 0.999023s-32 0.5 -48 0.5s-32.333 -0.166992 -49 -0.5s-32.167 -0.666016 -46.5 -0.999023s-26.833 -0.833008 -37.5 -1.5zM159.997 559.004c-21.333 0 -38.833 6.16602 -52.5 18.499
s-20.5 27.833 -20.5 46.5c0 22 7.33301 39.167 22 51.5s32.334 18.5 53.001 18.5c23.333 0 41.833 -6.16699 55.5 -18.5s20.5 -29.166 20.5 -50.499c0 -18 -7.33301 -33.5 -22 -46.5s-33.334 -19.5 -56.001 -19.5z" />
    <glyph glyph-name="j" unicode="j" horiz-adv-x="300" 
d="M44 -249c-7.33301 4 -13.8359 9.66895 -19.5029 17.002s-9.16699 16 -10.5 26c24.667 26.667 43.667 51.334 57 74.001s22.833 46.334 28.5 71.001s8.5 53.334 8.5 86.001v288c0 16 -1.66699 29 -5 39s-10.333 17.667 -21 23s-27 8.33301 -49 9
c0 9.33301 0.666992 18.166 2 26.499s4 15.833 8 22.5c18 0 37.833 1.66699 59.5 5s41.834 7.66602 60.501 12.999s32.334 10.666 41.001 15.999c7.33301 -2.66699 13.5 -7.66699 18.5 -15s7.5 -18.333 7.5 -33v-370c0 -38.667 -5.66699 -73.834 -17 -105.501
s-26.166 -59.834 -44.499 -84.501s-38.5 -46 -60.5 -64s-43.333 -32.667 -64 -44zM157.997 559.002c-21.333 0 -38.833 6.16602 -52.5 18.499s-20.5 27.833 -20.5 46.5c0 22 7.33301 39.167 22 51.5s32.334 18.5 53.001 18.5c23.333 0 41.833 -6.16699 55.5 -18.5
s20.5 -29.166 20.5 -50.499c0 -18 -7.33301 -33.5 -22 -46.5s-33.334 -19.5 -56.001 -19.5z" />
    <glyph glyph-name="k" unicode="k" horiz-adv-x="583" 
d="M31 -3c0 10 0.328125 19.6709 0.995117 29.0039s2.33398 17.666 5.00098 24.999c26.667 0.666992 44.667 7 54 19s14 34.667 14 68v425c0 16 -1.66699 29 -5 39s-10.333 17.667 -21 23s-27 8.33301 -49 9c0 9.33301 0.666992 18.166 2 26.499s4 15.833 8 22.5
c18 0 37.833 1.66699 59.5 5s41.834 7.66602 60.501 12.999s32.334 10.666 41.001 15.999c7.33301 -2.66699 13.5 -7.66699 18.5 -15s7.5 -18.333 7.5 -33v-531c0 -32.667 4 -55.167 12 -67.5s22.333 -18.833 43 -19.5c2 -7.33301 3.5 -16 4.5 -26s1.5 -19.333 1.5 -28
c-16 1.33301 -35.333 2.16602 -58 2.49902s-45.667 0.5 -69 0.5c-15.333 0 -31.166 -0.166992 -47.499 -0.5s-31.666 -0.666016 -45.999 -0.999023s-26.5 -0.833008 -36.5 -1.5zM408.995 -8.99609c-14.667 22 -34.002 48.5 -58.002 79.5l-76.5 95
c-27 32.333 -53.167 60.833 -78.5 85.5l-4 -23l106 95c21.333 18 35.833 32.333 43.5 43s11.5 19 11.5 25c0 5.33301 -2.16699 9.33301 -6.5 12s-11.5 4 -21.5 4c-2.66699 9.33301 -4.66699 18.166 -6 26.499s-2 17.166 -2 26.499
c12.667 -0.666992 26.167 -1.16699 40.5 -1.5s28.833 -0.5 43.5 -0.5h41c14 0 29.167 0.166992 45.5 0.5s32.5 0.833008 48.5 1.5c0 -9.33301 -0.5 -18.5 -1.5 -27.5s-3.16699 -17.5 -6.5 -25.5c-14.667 -0.666992 -28.5 -3 -41.5 -7s-26 -10.167 -39 -18.5
s-27.833 -20.166 -44.5 -35.499l-95 -87l-7 42c28 -26 55.5 -53.833 82.5 -83.5s56.5 -65.167 88.5 -106.5c11.333 -14.667 21.333 -26 30 -34s17.834 -13.667 27.501 -17s21.167 -5.66602 34.5 -6.99902c0 -10 -0.5 -19.5 -1.5 -28.5s-3.16699 -17.167 -6.5 -24.5
c-16 0 -32.667 -0.333008 -50 -1s-34.166 -1.5 -50.499 -2.5s-31.833 -2.83301 -46.5 -5.5z" />
    <glyph glyph-name="l" unicode="l" horiz-adv-x="324" 
d="M31 -3c0 10 0.329102 19.6699 0.996094 29.0029s2.33398 17.666 5.00098 24.999c26.667 0.666992 44.667 7 54 19s14 34.667 14 68v429c0 14.667 -1.83301 26.834 -5.5 36.501s-10.834 17 -21.501 22s-26.667 7.83301 -48 8.5c0 9.33301 0.666992 18.166 2 26.499
s4 15.833 8 22.5c18 0 37.833 1.66699 59.5 5s41.834 7.66602 60.501 12.999s32.334 10.666 41.001 15.999c7.33301 -2.66699 13.5 -7.66699 18.5 -15s7.5 -18.333 7.5 -33v-531c0 -33.333 4.5 -56 13.5 -68s24.833 -18.333 47.5 -19
c2.66699 -7.33301 4.33398 -16 5.00098 -26s1 -19.333 1 -28c-10 0.666992 -22.167 1.16699 -36.5 1.5s-29.666 0.666016 -45.999 0.999023s-32.5 0.5 -48.5 0.5s-32.333 -0.166992 -49 -0.5s-32.167 -0.666016 -46.5 -0.999023s-26.5 -0.833008 -36.5 -1.5z" />
    <glyph glyph-name="m" unicode="m" horiz-adv-x="936" 
d="M35 -3c0 10.667 0.501953 20.5107 1.50195 29.5107s2.83301 17.167 5.5 24.5c26.667 1.33301 44.5 7.83301 53.5 19.5s13.5 34.167 13.5 67.5v164c0 20 -1.5 35.667 -4.5 47s-9.66699 19.666 -20 24.999s-26.833 8.66602 -49.5 9.99902
c0 8.66699 0.833008 17.167 2.5 25.5s4.5 16.166 8.5 23.499c16.667 0.666992 35.167 2.66699 55.5 6s39.666 7.5 57.999 12.5s32.5 10.167 42.5 15.5c7.33301 -2 13.5 -6.83301 18.5 -14.5s7.5 -18.834 7.5 -33.501c0 -11.333 -1 -23.833 -3 -37.5
s-5.66699 -34.834 -11 -63.501l-8 -1c10.667 28.667 18.834 48.5 24.501 59.5s10.5 18.833 14.5 23.5c12.667 15.333 31.167 30.166 55.5 44.499s52.5 21.5 84.5 21.5c30 0 57 -6.5 81 -19.5s42 -33.5 54 -61.5c5.33301 -11.333 8 -24.333 8 -39h-4
c8.66699 22.667 18.334 39.667 29.001 51c12.667 15.333 30.667 29.833 54 43.5s50.666 20.5 81.999 20.5c29.333 0 55.333 -5.5 78 -16.5s40.5 -28.667 53.5 -53s19.5 -56.833 19.5 -97.5v-140c0 -28.667 1.66699 -50.167 5 -64.5s9.16602 -24 17.499 -29
s19.166 -8.16699 32.499 -9.5c2.66699 -7.33301 4.5 -15.5 5.5 -24.5s1.5 -18.833 1.5 -29.5c-16 1.33301 -34.5 2.16602 -55.5 2.49902s-42.167 0.5 -63.5 0.5c-14.667 0 -30.167 -0.166992 -46.5 -0.5l-47 -1c-15 -0.333008 -28.167 -0.833008 -39.5 -1.5
c0 12 0.5 22.167 1.5 30.5s2.5 16.166 4.5 23.499c16 1.33301 28.5 4.66602 37.5 9.99902s15.5 15.166 19.5 29.499s6 34.5 6 60.5v117c0 44.667 -7.33301 75 -22 91s-34 24 -58 24c-17.333 0 -34 -5.83301 -50 -17.5s-29 -29.5 -39 -53.5s-15 -54.667 -15 -92v-80
c0 -34 4.66699 -57 14 -69s26 -18.667 50 -20c2.66699 -6.66699 4.5 -14.667 5.5 -24s1.5 -19.333 1.5 -30c-16.667 1.33301 -36.834 2.16602 -60.501 2.49902s-46.834 0.5 -69.501 0.5c-22 -0 -44.833 -0.166992 -68.5 -0.5s-44.5 -1.16602 -62.5 -2.49902
c0 10.667 0.5 20.667 1.5 30s2.5 17.333 4.5 24c16.667 1.33301 29.667 4.66602 39 9.99902s15.833 15.166 19.5 29.499s5.5 35.5 5.5 63.5v121c0 42.667 -7.33301 71.834 -22 87.501s-34.667 23.5 -60 23.5c-16.667 0 -32.834 -6 -48.501 -18s-28.5 -30 -38.5 -54
s-15 -54.333 -15 -91v-83c0 -34 4.33301 -57 13 -69s25.334 -18.667 50.001 -20c2.66699 -7.33301 4.33398 -15.5 5.00098 -24.5s1 -18.833 1 -29.5c-10.667 0.666992 -24 1.16699 -40 1.5l-48.5 1c-16.333 0.333008 -31.166 0.5 -44.499 0.5s-28.333 -0.166992 -45 -0.5
l-48 -1c-15.333 -0.333008 -28.333 -0.833008 -39 -1.5z" />
    <glyph glyph-name="n" unicode="n" horiz-adv-x="635" 
d="M109 211v96.0029c0 18 -1.5 32.333 -4.5 43s-9.66699 18.667 -20 24s-26.5 8.66602 -48.5 9.99902c0 9.33301 0.666992 18.166 2 26.499s4 15.833 8 22.5c30 1.33301 60.167 5.33301 90.5 12s53.5 14 69.5 22c7.33301 -2.66699 13.5 -7.83398 18.5 -15.501
s7.5 -19.167 7.5 -34.5zM540 138.003c0 -34 4.3291 -57.001 12.9961 -69.001s22.334 -18 41.001 -18c3.33301 -7.33301 5.33301 -15.166 6 -23.499s1 -18.5 1 -30.5c-14.667 1.33301 -32.667 2.16602 -54 2.49902s-42.666 0.5 -63.999 0.5c-14 0 -29.5 -0.166992 -46.5 -0.5
s-33.167 -0.666016 -48.5 -0.999023s-28.333 -0.833008 -39 -1.5c0 10.667 0.5 20.5 1.5 29.5s2.83301 17.167 5.5 24.5c20.667 0 36.167 6.5 46.5 19.5s15.5 36.833 15.5 71.5v125c0 44.667 -7.5 75.167 -22.5 91.5s-35.167 24.5 -60.5 24.5
c-16.667 0 -33 -5.83301 -49 -17.5s-29 -29.5 -39 -53.5s-15 -54.667 -15 -92v-82c0 -33.333 4.66699 -56.166 14 -68.499s25.333 -18.5 48 -18.5c2.66699 -8 4.33398 -16.167 5.00098 -24.5s1 -18.166 1 -29.499c-9.33301 0.666992 -21.333 1.16699 -36 1.5
s-30.167 0.666016 -46.5 0.999023s-32.166 0.5 -47.499 0.5c-14 0 -29.667 -0.166992 -47 -0.5s-33.833 -0.666016 -49.5 -0.999023s-28.5 -0.833008 -38.5 -1.5c0 11.333 0.5 21.666 1.5 30.999s2.83301 17 5.5 23c26 0 43.667 6.16699 53 18.5s14 35.166 14 68.499v169
l123 110c0 -8 -0.666992 -17.167 -2 -27.5s-3.66602 -21.166 -6.99902 -32.499c3.33301 6.66699 6.5 13.334 9.5 20.001s7.5 13 13.5 19c12.667 15.333 31.167 30.166 55.5 44.499s53.166 21.5 86.499 21.5c26.667 0 51.667 -5.33301 75 -16s42 -27.834 56 -51.501
s21 -55.5 21 -95.5v-161z" />
    <glyph glyph-name="o" unicode="o" horiz-adv-x="556" 
d="M276 -9c-49.333 0 -92.0029 9.66895 -128.003 29.002s-63.5 46.666 -82.5 81.999s-28.5 76.666 -28.5 123.999c0 49.333 10.5 92 31.5 128s49.833 63.833 86.5 83.5s78 29.5 124 29.5c52 0 95.833 -10 131.5 -30s62.834 -47.667 81.501 -83s28 -76 28 -122
c0 -48 -10.167 -90 -30.5 -126s-48.666 -64.167 -84.999 -84.5s-79.166 -30.5 -128.499 -30.5zM287.997 48.002c34 0 59.668 15.5 77.001 46.5s26 70.5 26 118.5c0 42 -5.66699 77.833 -17 107.5s-26.333 52.167 -45 67.5s-39 23 -61 23c-34.667 0 -60.334 -15 -77.001 -45
s-25 -67.667 -25 -113c0 -41.333 5 -77.5 15 -108.5s24 -54.833 42 -71.5s39.667 -25 65 -25z" />
    <glyph glyph-name="p" unicode="p" horiz-adv-x="609" 
d="M35 -245c0 12 0.501953 22.3379 1.50195 31.0049s2.5 16.334 4.5 23.001c18 1.33301 32 4.66602 42 9.99902s16.833 14.666 20.5 27.999s5.5 32.333 5.5 57v403c0 18 -1.5 32.333 -4.5 43s-9.66699 18.667 -20 24s-26.5 8.66602 -48.5 9.99902
c0 9.33301 0.666992 18.166 2 26.499s4 15.833 8 22.5c30 1.33301 60.167 5.33301 90.5 12s53.5 14 69.5 22c7.33301 -2.66699 13.5 -7.83398 18.5 -15.501s7.5 -19.167 7.5 -34.5c0 -12 -2 -24.333 -6 -37s-9.33301 -28.667 -16 -48l22 -20v-391
c0 -28.667 3 -50.834 9 -66.501s16.167 -26.667 30.5 -33s32.833 -10.5 55.5 -12.5c2.66699 -6.66699 4.33398 -14.667 5.00098 -24s1 -19.333 1 -30c-10.667 0.666992 -23.834 1.16699 -39.501 1.5s-32.334 0.666016 -50.001 0.999023s-35.5 0.5 -53.5 0.5
c-27.333 0 -55.833 -0.166992 -85.5 -0.5s-52.834 -1.16602 -69.501 -2.49902zM308.002 -8.99512c-16 0 -30.6689 1.33105 -44.002 3.99805s-28 6.33398 -44 11.001v87c12 -14.667 25 -26.334 39 -35.001s31.667 -13 53 -13c12.667 0 26.5 2.66699 41.5 8
s29.5 14.666 43.5 27.999s25.333 32.333 34 57s13 56.334 13 95.001c0 31.333 -4 58.833 -12 82.5s-19.5 42.5 -34.5 56.5s-33.167 21 -54.5 21c-18 0 -35.5 -5.83301 -52.5 -17.5s-31 -30.5 -42 -56.5s-16.5 -60.667 -16.5 -104l-36 104c10 24 19.167 42.5 27.5 55.5
s15.5 22.833 21.5 29.5c7.33301 9.33301 17.5 18.833 30.5 28.5s28.333 17.834 46 24.501s37.167 10 58.5 10c38.667 0 72.334 -7.5 101.001 -22.5s51 -37.833 67 -68.5s24 -70 24 -118c0 -51.333 -11 -97.166 -33 -137.499s-52.667 -72 -92 -95
s-85.666 -34.5 -138.999 -34.5z" />
    <glyph glyph-name="q" unicode="q" horiz-adv-x="579" 
d="M297 467c50 0 93.8359 -6.16992 131.503 -18.5029s68.167 -29.166 91.5 -50.499l-143 -20c-6.66699 8.66699 -17.167 16.667 -31.5 24s-29.5 11 -45.5 11c-38.667 0 -70.834 -15.667 -96.501 -47s-38.5 -78.666 -38.5 -141.999c0 -38.667 5.16699 -69.5 15.5 -92.5
s23.833 -39.333 40.5 -49s34 -14.5 52 -14.5c15.333 0 31 5.16699 47 15.5s29.5 27.833 40.5 52.5s16.5 57.334 16.5 98.001l20 -109c-4.66699 -12.667 -10.5 -25.667 -17.5 -39s-14.167 -23.666 -21.5 -30.999c-13.333 -16 -32.166 -29.333 -56.499 -40
s-49.833 -16 -76.5 -16c-34.667 0 -66.334 8 -95.001 24s-51.334 39.667 -68.001 71s-25 69.666 -25 114.999c0 48.667 10.833 92.5 32.5 131.5s52.167 69.833 91.5 92.5s84.666 34 135.999 34zM287.003 -191.003c24.667 1.33301 43.4941 4.99707 56.4941 10.9971
s21.833 16 26.5 30s7 33.667 7 59v98c0 19.333 1.33301 37.833 4 55.5s7.33398 38.167 14.001 61.5l-18 7v267h143c-4.66699 -9.33301 -8.5 -19.5 -11.5 -30.5s-5.33301 -24.167 -7 -39.5s-2.5 -34.666 -2.5 -57.999v-359c0 -26.667 1.83301 -47.167 5.5 -61.5
s10.334 -24.166 20.001 -29.499s23.5 -9 41.5 -11c2 -8 3.5 -16.167 4.5 -24.5s1.5 -18.166 1.5 -29.499c-15.333 1.33301 -37 2.16602 -65 2.49902s-54.333 0.5 -79 0.5c-17.333 0 -35.166 -0.166992 -53.499 -0.5s-35.666 -0.666016 -51.999 -0.999023
s-30.166 -0.833008 -41.499 -1.5c0 11.333 0.333008 21.333 1 30s2.33398 16.667 5.00098 24z" />
    <glyph glyph-name="r" unicode="r" horiz-adv-x="453" 
d="M232 163c0 -28.667 3.00195 -50.832 9.00195 -66.499s16.167 -26.667 30.5 -33s32.833 -10.5 55.5 -12.5c2.66699 -6.66699 4.33398 -14.667 5.00098 -24s1 -19.333 1 -30c-10.667 0.666992 -23.834 1.16699 -39.501 1.5s-32.334 0.666016 -50.001 0.999023
s-35.5 0.5 -53.5 0.5c-27.333 -0 -55.833 -0.166992 -85.5 -0.5s-52.834 -1.16602 -69.501 -2.49902c0 12 0.5 22.333 1.5 31s2.5 16.334 4.5 23.001c18 1.33301 32 4.66602 42 9.99902s16.833 14.666 20.5 27.999s5.5 32.333 5.5 57v81h123v-64zM232.002 294.002v-83.002
h-123v110l123 96c0 -19.333 -2 -37.666 -6 -54.999s-8 -36.666 -12 -57.999zM210.002 299l16.499 46.001c5 14 9.83301 25 14.5 33c14.667 23.333 32.334 42.666 53.001 57.999s44 23 70 23s49.667 -8 71 -24c-2 -12 -3.66699 -26 -5 -42s-2.33301 -32 -3 -48
s-0.666992 -30.667 0 -44c-8 -3.33301 -19 -6 -33 -8s-27.333 -3 -40 -3c-0.666992 28.667 -5 48 -13 58s-18.667 15 -32 15c-10.667 0 -22 -6 -34 -18s-22.167 -27.833 -30.5 -47.5s-12.5 -41.5 -12.5 -65.5zM109.001 211.001v96.0029c0 18 -1.5 32.333 -4.5 43
s-9.66699 18.667 -20 24s-26.5 8.66602 -48.5 9.99902c0 9.33301 0.666992 18.166 2 26.499s4 15.833 8 22.5c30 1.33301 60.167 5.33301 90.5 12s53.5 14 69.5 22c7.33301 -2.66699 13.5 -7.83398 18.5 -15.501s7.5 -19.167 7.5 -34.5z" />
    <glyph glyph-name="s" unicode="s" horiz-adv-x="449" 
d="M376 434c-0.666992 -16.667 -0.995117 -33.998 -0.995117 -51.998s1.33301 -35.667 4 -53c-8 -5.33301 -17.833 -9.33301 -29.5 -12s-23.834 -4 -36.501 -4c-1.33301 18 -6.16602 34.667 -14.499 50s-19.833 27.666 -34.5 36.999s-32.334 14 -53.001 14
c-17.333 0 -31.166 -4.33301 -41.499 -13s-15.5 -20 -15.5 -34c0 -10 2.33301 -19.167 7 -27.5s15 -17.166 31 -26.499s41 -20.666 75 -33.999c36.667 -14 65.667 -27.833 87 -41.5s36.333 -28.834 45 -45.501s13 -36.334 13 -59.001
c0 -29.333 -8.33301 -54.666 -25 -75.999s-40 -37.666 -70 -48.999s-64.667 -17 -104 -17c-40.667 0 -73.834 3 -99.501 9s-50.5 15 -74.5 27c1.33301 11.333 2.16602 24.666 2.49902 39.999s0.5 30.5 0.5 45.5s-0.666992 27.833 -2 38.5
c7.33301 4.66699 17.5 8.16699 30.5 10.5s25.5 3.5 37.5 3.5c4.66699 -38.667 16.334 -67.667 35.001 -87s43 -29 73 -29c23.333 0 41.5 5 54.5 15s19.5 23.333 19.5 40c0 10.667 -2.66699 20.167 -8 28.5s-15.166 16.666 -29.499 24.999s-35.5 17.833 -63.5 28.5
c-32.667 13.333 -59.834 26.333 -81.501 39s-37.834 28 -48.501 46s-16 40.667 -16 68c0 22 5.16699 41 15.5 57s24.166 29.333 41.499 40s36.666 18.5 57.999 23.5s42.666 7.5 63.999 7.5c33.333 0 62 -2.83301 86 -8.5s46.667 -13.834 68 -24.501z" />
    <glyph glyph-name="t" unicode="t" horiz-adv-x="366" 
d="M219 -9c-44 0 -76.834 11.335 -98.501 34.002s-32.5 60 -32.5 112v243c-10 4 -20.5 7 -31.5 9s-24.833 3.33301 -41.5 4c0 10.667 0.833008 20.167 2.5 28.5s4.5 17.166 8.5 26.499h62v127c18.667 3.33301 37.167 9.16602 55.5 17.499s33.5 17.5 45.5 27.5
c8.66699 -3.33301 14.334 -8.33301 17.001 -15s4 -21 4 -43v-114h126c0 -10 -0.666992 -19.667 -2 -29s-3.66602 -18.333 -6.99902 -27c-23.333 0 -44.5 -1.33301 -63.5 -4s-36.833 -6 -53.5 -10v-223c0 -24.667 2.16699 -44.334 6.5 -59.001s10.5 -25 18.5 -31s18 -9 30 -9
s23.167 1.66699 33.5 5s20.166 8 29.499 14c9.33301 -11.333 14.333 -25.666 15 -42.999c-12 -11.333 -29.833 -21 -53.5 -29s-47.167 -12 -70.5 -12z" />
    <glyph glyph-name="u" unicode="u" horiz-adv-x="593" 
d="M228 -5c-46.667 0 -82.999 13.334 -108.999 40.001s-39 73.667 -39 141v131c0 26.667 -3.33301 45.834 -10 57.501s-24.667 18.167 -54 19.5c0 9.33301 0.5 18 1.5 26s3.5 15.667 7.5 23c29.333 1.33301 58 5.33301 86 12s50 14 66 22
c7.33301 -2.66699 13.5 -7.83398 18.5 -15.501s7.5 -19.167 7.5 -34.5v-217c0 -44.667 5.33301 -77.5 16 -98.5s28.667 -31.5 54 -31.5c29.333 0 54.166 13.333 74.499 40s30.5 68 30.5 124v78c0 26.667 -4.16699 45.834 -12.5 57.501s-28.5 18.167 -60.5 19.5
c0 9.33301 0.5 18 1.5 26s3.5 15.667 7.5 23c33.333 1.33301 64.666 4.66602 93.999 9.99902s51.666 11.666 66.999 18.999c7.33301 -2.66699 13.5 -7.83398 18.5 -15.501s7.5 -19.167 7.5 -34.5v-284l-107 -36c-3.33301 -10.667 -8.16602 -20.5 -14.499 -29.5
s-13.166 -17.167 -20.499 -24.5c-16 -15.333 -34.5 -27.166 -55.5 -35.499s-46.167 -12.5 -75.5 -12.5zM418.001 -8.99902c-9.33301 4 -16.501 9.66699 -21.501 17s-7.5 21 -7.5 41c0 9.33301 0.833008 20.833 2.5 34.5s4.5 29.834 8.5 48.501l101 23
c0 -18.667 1.33301 -33.5 4 -44.5s8.33398 -18.833 17.001 -23.5s21.667 -7 39 -7c0.666992 -9.33301 0.5 -19 -0.5 -29s-3.5 -19.333 -7.5 -28c-21.333 -0.666992 -44.333 -3.83398 -69 -9.50098s-46.667 -13.167 -66 -22.5z" />
    <glyph glyph-name="v" unicode="v" horiz-adv-x="546" 
d="M242 -9c-6.66699 16.667 -15.502 37.5029 -26.502 62.5029l-36 81l-38.5 85.5l-34.5 75l-23.5 50c-8.66699 16.667 -16 29.167 -22 37.5s-11.833 14.166 -17.5 17.499s-13.167 5.66602 -22.5 6.99902c-2.66699 8.66699 -4.66699 17.167 -6 25.5s-2 17.833 -2 28.5
c14.667 -0.666992 32.667 -1.33398 54 -2.00098s44 -1 68 -1c16 0 32.5 0.166992 49.5 0.5s33.167 0.666016 48.5 0.999023s28.333 0.833008 39 1.5c0 -9.33301 -0.833008 -18.666 -2.5 -27.999s-3.5 -17.666 -5.5 -24.999c-29.333 -2.66699 -46.666 -8.16699 -51.999 -16.5
s-2 -25.5 10 -51.5c6 -12 12.833 -27.333 20.5 -46l25.5 -62l27.5 -68.5c9 -23 17.167 -45.167 24.5 -66.5h-21l45 113l39 96c15.333 36.667 19.833 62.167 13.5 76.5s-21.5 22.5 -45.5 24.5c-3.33301 8 -6 16.833 -8 26.5s-3 18.834 -3 27.501
c13.333 -0.666992 28.333 -1.33398 45 -2.00098s33.334 -1 50.001 -1c17.333 0 34.666 0.333008 51.999 1s32.333 1.33398 45 2.00098c0 -10 -0.666992 -19.833 -2 -29.5s-4 -17.834 -8 -24.501c-10.667 -2.66699 -20 -7.16699 -28 -13.5s-15.667 -15.833 -23 -28.5
s-15.666 -30.334 -24.999 -53.001l-136 -310c-8.66699 -4 -19.167 -7 -31.5 -9s-24.5 -2.66699 -36.5 -2z" />
    <glyph glyph-name="w" unicode="w" horiz-adv-x="781" 
d="M208 -9l-32.5088 95.0029l-34 95l-33.5 89.5l-29 76.5c-7.33301 19.333 -15.166 33.166 -23.499 41.499s-19.833 14.166 -34.5 17.499c-2.66699 7.33301 -4.66699 16 -6 26s-2 19.333 -2 28c17.333 -0.666992 35 -1.16699 53 -1.5s38.333 -0.5 61 -0.5
c23.333 0 45.833 0.333008 67.5 1s42.167 1.33398 61.5 2.00098c0 -9.33301 -0.666992 -19.166 -2 -29.499s-3 -18.833 -5 -25.5c-16.667 -1.33301 -28.5 -4.16602 -35.5 -8.49902s-10.167 -10.833 -9.5 -19.5s3.33398 -20.334 8.00098 -35.001
c13.333 -34.667 26.5 -72.834 39.5 -114.501s24.833 -82.834 35.5 -123.501h-25l139 352c7.33301 2 15.833 3.5 25.5 4.5s18.834 1.5 27.501 1.5l72.5 -174l71.5 -186l-26 -1l61 194c8.66699 27.333 12.334 48.5 11.001 63.5s-6.16602 26 -14.499 33
s-19.833 11.5 -34.5 13.5c-3.33301 9.33301 -5.83301 18.5 -7.5 27.5s-2.5 18.167 -2.5 27.5c12.667 -0.666992 26.834 -1.33398 42.501 -2.00098s31.834 -1 48.501 -1c18.667 0 35.5 0.333008 50.5 1s28.833 1.33398 41.5 2.00098c0 -9.33301 -0.666992 -18.833 -2 -28.5
s-3.66602 -18.5 -6.99902 -26.5c-10.667 -2 -19.5 -6.16699 -26.5 -12.5s-13.667 -16.833 -20 -31.5s-13.833 -35.334 -22.5 -62.001l-102 -300c-4.66699 -2 -11 -3.66699 -19 -5s-16.167 -2.33301 -24.5 -3s-16.166 -1 -23.499 -1l-48.5 117.5l-46 112.5l-41.5 107l37 24
l-148 -352c-4 -2 -9.83301 -3.66699 -17.5 -5s-15.667 -2.33301 -24 -3s-16.5 -1 -24.5 -1z" />
    <glyph glyph-name="x" unicode="x" horiz-adv-x="549" 
d="M264 211l-49.999 -75c-20.667 -30.667 -30.167 -52.167 -28.5 -64.5s10.5 -19.166 26.5 -20.499c2.66699 -6.66699 4.5 -14.5 5.5 -23.5s1.5 -18.833 1.5 -29.5c-17.333 1.33301 -36 2 -56 2h-48h-38c-14.667 0 -31 -0.666992 -49 -2c0 10 0.666992 19.667 2 29
s3.33301 17.333 6 24c11.333 0.666992 21.833 3.5 31.5 8.5s20.667 14.167 33 27.5s27.166 32.666 44.499 57.999l72 102zM288.001 117l-23.9971 38.4971c-8 12.333 -17.667 25.833 -29 40.5l-20 17c-14 22.667 -28.667 44.834 -44 66.501l-42 57.5
c-14.667 19.333 -26.5 34 -35.5 44s-17.167 16.833 -24.5 20.5s-16.333 5.83398 -27 6.50098c-2.66699 7.33301 -4.66699 15.5 -6 24.5s-2 18.167 -2 27.5c16.667 -0.666992 35.5 -1.16699 56.5 -1.5s42.833 -0.5 65.5 -0.5c22 0 44.833 0.166992 68.5 0.5
s44.5 0.833008 62.5 1.5c0 -8.66699 -0.5 -18 -1.5 -28s-2.5 -18 -4.5 -24c-20 -0.666992 -31.333 -5.66699 -34 -15s5.33301 -27.666 24 -54.999l22 -30c8 -10.667 16.667 -23 26 -37l21 -15l45 -62c15.333 -20.667 28.666 -40 39.999 -58
c14.667 -21.333 26.667 -38 36 -50s18 -20.5 26 -25.5s17 -7.83301 27 -8.5c3.33301 -8 5.33301 -16.167 6 -24.5s1 -17.833 1 -28.5c-18.667 1.33301 -35.834 1.83301 -51.501 1.5s-33.834 -0.5 -54.501 -0.5h-35.5h-39.5c-13.333 -0 -26.333 -0.166992 -39 -0.5
s-24 -0.833008 -34 -1.5c0 11.333 0.333008 21.333 1 30s2 16.334 4 23.001c20 1.33301 31.667 6.66602 35 15.999s-3 26 -19 50zM291.004 256.997l53 82c16.667 24.667 24.667 42 24 52s-10.667 15.667 -30 17c-2.66699 7.33301 -4.5 15.5 -5.5 24.5s-1.5 18.167 -1.5 27.5
c14 -0.666992 28 -1.16699 42 -1.5s31 -0.5 51 -0.5s36.167 0.166992 48.5 0.5s24.5 0.833008 36.5 1.5c0 -9.33301 -0.666992 -18.5 -2 -27.5s-3 -17.167 -5 -24.5c-10 -0.666992 -18.833 -2.66699 -26.5 -6s-15.5 -9.5 -23.5 -18.5s-18.667 -22.5 -32 -40.5l-86 -124z" />
    <glyph glyph-name="y" unicode="y" horiz-adv-x="553" 
d="M387 298c16 39.333 20.334 66.0068 13.001 80.0068s-24 23.333 -50 28c-2.66699 8 -4.66699 16.667 -6 26s-2 18.666 -2 27.999c15.333 -0.666992 31.333 -1.16699 48 -1.5s33.667 -0.5 51 -0.5c18 0 35.333 0.166992 52 0.5s32.334 1.16602 47.001 2.49902
c0 -8.66699 -0.5 -17.834 -1.5 -27.501s-3.16699 -18.834 -6.5 -27.501c-11.333 -2.66699 -21 -7 -29 -13s-15.5 -15.333 -22.5 -28s-15.5 -30 -25.5 -52l-147 -350c-18.667 -45.333 -35.667 -82 -51 -110s-29.833 -49.333 -43.5 -64s-27.334 -24.667 -41.001 -30
s-28.5 -8 -44.5 -8c-20.667 0 -38.5 3.5 -53.5 10.5s-26.5 14.5 -34.5 22.5c-2.66699 11.333 -3.33398 25.333 -2.00098 42s3.66602 30.667 6.99902 42c11.333 -2.66699 24 -5 38 -7s28.333 -3 43 -3c20.667 0 39 4.16699 55 12.5s30 22.166 42 41.499
c7.33301 11.333 19.833 36.166 37.5 74.499s36.834 84.166 57.501 137.499zM261.001 -32.9932l-52.0029 116.001l-53.5 119c-17 38.667 -32.5 72 -46.5 100c-13.333 28 -24.666 49 -33.999 63s-18.166 23.833 -26.499 29.5s-17.5 9.5 -27.5 11.5
c-2.66699 7.33301 -4.66699 15.833 -6 25.5s-2 19.167 -2 28.5c19.333 -0.666992 40 -1.16699 62 -1.5s43.333 -0.5 64 -0.5c21.333 0 45.833 0.166992 73.5 0.5s51.834 0.833008 72.501 1.5c0 -10 -0.833008 -19.833 -2.5 -29.5s-3.83398 -17.834 -6.50098 -24.501
c-32.667 -5.33301 -51.167 -14.666 -55.5 -27.999s1.83398 -37 18.501 -71c10 -19.333 20.5 -41.5 31.5 -66.5l32 -76c10.333 -25.667 19.5 -49.834 27.5 -72.501z" />
    <glyph glyph-name="z" unicode="z" horiz-adv-x="506" 
d="M65 -2c-5.33301 6 -9.66797 13.6689 -13.001 23.002s-5 18.666 -5 27.999l51.5 70l59.5 83l60.5 85l53.5 77.5c16 23.667 28.667 43.5 38 59.5l27 -20h-114c-21.333 0 -38.166 -2.66699 -50.499 -8s-22 -15.5 -29 -30.5s-13.5 -36.5 -19.5 -64.5
c-11.333 0 -23.5 0.833008 -36.5 2.5s-23.833 4.16699 -32.5 7.5c2.66699 22.667 4.66699 47 6 73s2 51.667 2 77c14 -0.666992 31.333 -1.16699 52 -1.5s43.167 -0.666016 67.5 -0.999023s48.833 -0.5 73.5 -0.5s48.334 0.166992 71.001 0.5s43.667 0.666016 63 0.999023
s35.666 0.833008 48.999 1.5c4.66699 -6 8.16699 -13.5 10.5 -22.5s3.5 -17.833 3.5 -26.5l-60 -88.5l-70.5 -101l-71.5 -100l-63 -85.5l-17 18h131c23.333 0 41.166 3 53.499 9s21.333 17 27 33s9.5 39.333 11.5 70c11.333 0.666992 22.5 0.5 33.5 -0.5
s22.5 -3.16699 34.5 -6.5c0 -12.667 0.333008 -27.834 1 -45.501s1.5 -35 2.5 -52s2.5 -31.5 4.5 -43.5c-6.66699 -14 -19 -21 -37 -21c-16 0.666992 -33.5 1 -52.5 1s-39.667 0.166992 -62 0.5s-46.166 0.5 -71.499 0.5c-44 -0 -80.833 -0.166992 -110.5 -0.5
s-53.5 -0.833008 -71.5 -1.5z" />
    <glyph glyph-name="braceleft" unicode="{" horiz-adv-x="358" 
d="M309 -275c-38 10 -69.001 22.3301 -93.001 36.9971s-42.333 31.167 -55 49.5s-21.5 38 -26.5 59s-7.83301 42.5 -8.5 64.5c0 24.667 1.33301 49.334 4 74.001s4 48.334 4 71.001c0 32.667 -6.33301 61.5 -19 86.5s-39.334 43.833 -80.001 56.5c0 6 0.166992 13 0.5 21
s1.83301 15 4.5 21c38.667 13.333 64.334 31.5 77.001 54.5s19 49.167 19 78.5c0 23.333 -1.83301 48.166 -5.5 74.499s-5.5 52.5 -5.5 78.5c0.666992 20 3.33398 39.5 8.00098 58.5s12.834 36.833 24.501 53.5s29 32 52 46s52.833 26 89.5 36
c4.66699 -5.33301 8 -11.666 10 -18.999s3 -14.333 3 -21c-34 -11.333 -56.833 -27.833 -68.5 -49.5s-17.5 -46.167 -17.5 -73.5c0.666992 -29.333 4.66699 -60.666 12 -93.999s11 -65.333 11 -96c0.666992 -22 -2.5 -42.833 -9.5 -62.5s-19.833 -36.667 -38.5 -51
s-46 -25.166 -82 -32.499c35.333 -7.33301 62.333 -18.666 81 -33.999s31.667 -33.166 39 -53.499s11 -42.166 11 -65.499c0.666992 -31.333 -2.33301 -64 -9 -98s-10.334 -66.333 -11.001 -97c0 -28.667 6 -54.334 18 -77.001s35.333 -39.334 70 -50.001
c1.33301 -8.66699 1.5 -16.834 0.5 -24.501s-4.16699 -14.834 -9.5 -21.501z" />
    <glyph glyph-name="bar" unicode="|" horiz-adv-x="183" 
d="M60 -244l0.00195312 945.002c7.33301 4.66699 16.666 7.83398 27.999 9.50098s23 2.5 35 2.5c0 -38 -0.166992 -82.833 -0.5 -134.5s-0.666016 -106.834 -0.999023 -165.501s-0.5 -118.334 -0.5 -179.001c0 -58.667 0.166992 -116.334 0.5 -173.001
s0.666016 -110 0.999023 -160s0.5 -94.667 0.5 -134c-6.66699 -2.66699 -16.334 -5.16699 -29.001 -7.5s-24 -3.5 -34 -3.5z" />
    <glyph glyph-name="braceright" unicode="}" horiz-adv-x="358" 
d="M49 -275c-4.66699 6.66699 -7.66797 13.8369 -9.00098 21.5039s-1.33301 15.834 0 24.501c35.333 10.667 58.833 27.334 70.5 50.001s17.5 48.334 17.5 77.001c-0.666992 30.667 -4.33398 63 -11.001 97s-9.66699 66.667 -9 98c0 23.333 3.5 45.166 10.5 65.499
s20.167 38.166 39.5 53.499s46.333 26.666 81 33.999c-35.333 7.33301 -62.5 18.166 -81.5 32.499s-31.833 31.333 -38.5 51s-10 40.5 -10 62.5c0 30.667 3.66699 62.667 11 96s11.333 64.666 12 93.999c0 27.333 -5.83301 51.833 -17.5 73.5s-34.5 38.167 -68.5 49.5
c0 6.66699 1 13.667 3 21s5.33301 13.666 10 18.999c36.667 -10 66.5 -22 89.5 -36s40.333 -29.333 52 -46s19.834 -34.5 24.501 -53.5s7.33398 -38.5 8.00098 -58.5c0 -26 -1.83301 -52.167 -5.5 -78.5s-5.5 -51.166 -5.5 -74.499
c0.666992 -29.333 7.16699 -55.5 19.5 -78.5s37.833 -41.167 76.5 -54.5c2.66699 -6 4.16699 -13 4.5 -21s0.5 -15 0.5 -21c-40.667 -12.667 -67.167 -31.5 -79.5 -56.5s-18.833 -53.833 -19.5 -86.5c0 -22.667 1.33301 -46.334 4 -71.001s4 -49.334 4 -74.001
c-0.666992 -22 -3.5 -43.5 -8.5 -64.5s-13.833 -40.667 -26.5 -59s-31 -34.833 -55 -49.5s-55 -27 -93 -37z" />
    <glyph glyph-name="asciitilde" unicode="~" 
d="M75 185c-8 4 -14.6709 8.33008 -20.0039 12.9971s-9.33301 11.334 -12 20.001c26.667 42 51.834 70.667 75.501 86s46.5 23 68.5 23c17.333 0 34 -3 50 -9s31.833 -13.167 47.5 -21.5s31.334 -15.666 47.001 -21.999s31.834 -9.5 48.501 -9.5
c14.667 0 29 3.83301 43 11.5s29.333 20.834 46 39.501c7.33301 -1.33301 14.333 -4 21 -8s12.334 -9 17.001 -15c-17.333 -28 -34.166 -49.5 -50.499 -64.5s-31.5 -25.5 -45.5 -31.5s-27.333 -9 -40 -9c-17.333 0 -33.833 3.33301 -49.5 10s-31 14.5 -46 23.5
s-30.167 16.833 -45.5 23.5s-31.333 10 -48 10s-33.834 -5 -51.501 -15s-36.167 -28.333 -55.5 -55z" />
    <glyph glyph-name="uni00A0" unicode="&#xa0;" horiz-adv-x="200" 
 />
    <glyph glyph-name="exclamdown" unicode="&#xa1;" horiz-adv-x="411" 
d="M136 -209c4 37.333 8.33301 80.165 13 128.498s9 98.5 13 150.5s7.33301 101.667 10 149c9.33301 4 19.333 6.5 30 7.5s21.667 1.5 33 1.5c4 -59.333 8.16699 -114.166 12.5 -164.499s9.16602 -98.666 14.499 -144.999s11.333 -92.5 18 -138.5
c-12 -2 -25.667 -4.83301 -41 -8.5s-30.333 -8 -45 -13s-27 -9.83301 -37 -14.5c-9.33301 2.66699 -15.666 7.5 -18.999 14.5s-4 17.833 -2 32.5zM131 393.999c0 22.667 6.99805 40.5 20.998 53.5s31.333 19.5 52 19.5c22.667 0 40.334 -6.33301 53.001 -19s19 -29 19 -49
c0 -20.667 -7.16699 -37.667 -21.5 -51s-32.5 -20 -54.5 -20c-21.333 0 -38.166 7 -50.499 21s-18.5 29 -18.5 45z" />
    <glyph glyph-name="cent" unicode="&#xa2;" horiz-adv-x="459" 
d="M430 66c-17.333 -24 -40 -42.5 -68 -55.5s-61 -19.5 -99 -19.5c-40.667 0 -78.167 8.66699 -112.5 26s-61.833 43.5 -82.5 78.5s-31 78.833 -31 131.5c0 40 8.33301 78.333 25 115s41.5 66.667 74.5 90s73.833 35 122.5 35c34 0 64.333 -3.5 91 -10.5
s50 -17.833 70 -32.5c-3.33301 -19.333 -5.66602 -38.5 -6.99902 -57.5s-2 -39.833 -2 -62.5c-8.66699 -4 -19 -6.83301 -31 -8.5s-23.333 -2.5 -34 -2.5c-2.66699 38.667 -12 68.167 -28 88.5s-37 30.5 -63 30.5c-29.333 0 -52.5 -15.167 -69.5 -45.5
s-25.5 -71.833 -25.5 -124.5c0 -30.667 5 -60 15 -88s25.333 -50.833 46 -68.5s46.667 -26.5 78 -26.5c21.333 0 41 4.16699 59 12.5s34 19.833 48 34.5c6 -4 11.167 -9.5 15.5 -16.5s7.16602 -14.833 8.49902 -23.5zM295 -140c-9.33301 0 -20.5 1.00098 -33.5 3.00098
s-22.5 4.66699 -28.5 8v739c12 0 23.667 -0.833008 35 -2.5s20.333 -4.83398 27 -9.50098l-2 -169v-406z" />
    <glyph glyph-name="sterling" unicode="&#xa3;" horiz-adv-x="570" 
d="M485 142c10.667 -1.33301 20.498 -4.66699 29.498 -10s16.833 -11.333 23.5 -18c-19.333 -19.333 -37 -40 -53 -62s-28.333 -42.333 -37 -61c-15.333 0 -29.166 1.16699 -41.499 3.5s-24.5 5.83301 -36.5 10.5c-16.667 7.33301 -31.667 14.5 -45 21.5s-27.333 13 -42 18
s-33.334 7.5 -56.001 7.5c-26 0 -50.5 -4.66699 -73.5 -14s-45.833 -24.666 -68.5 -45.999c-8 4.66699 -15.333 10.5 -22 17.5s-11.667 14.833 -15 23.5c38 32.667 66.5 64.667 85.5 96s28.5 67.666 28.5 108.999c0 26 -3.33301 48.667 -10 68s-14.5 37.833 -23.5 55.5
s-16.833 37.334 -23.5 59.001s-10 47.5 -10 77.5c0 34 8.16699 65.167 24.5 93.5s40.5 51 72.5 68s71.333 25.5 118 25.5c22 0 43 -1.16699 63 -3.5s38.667 -6 56 -11s33.333 -11.5 48 -19.5c-2 -20.667 -3 -42.334 -3 -65.001s0.666992 -46.667 2 -72
c-12 -5.33301 -24.667 -8.66602 -38 -9.99902s-26.333 -2 -39 -2c-3.33301 45.333 -13.166 77.666 -29.499 96.999s-40.5 29 -72.5 29c-22.667 0 -41.5 -8.66699 -56.5 -26s-22.5 -40.333 -22.5 -69c0 -22.667 3.5 -42.334 10.5 -59.001s15.167 -32.5 24.5 -47.5
s17.5 -31.167 24.5 -48.5s10.5 -38 10.5 -62c0 -19.333 -3.16699 -39.166 -9.5 -59.499s-15.666 -41 -27.999 -62s-26.833 -41.667 -43.5 -62s-35 -40.166 -55 -59.499l-6 4c23.333 18.667 45 34.167 65 46.5s39 21.5 57 27.5s35.333 9 52 9
c20.667 0 38.5 -3.33301 53.5 -10s28.167 -13.334 39.5 -20.001s22.333 -10 33 -10c6.66699 0 13.167 1.66699 19.5 5s12.833 9 19.5 17zM240.998 290.999c-27.333 0 -52.5 -0.333008 -75.5 -1s-43.667 -1 -62 -1s-34.166 -0.333008 -47.499 -1c0 12 1 22.5 3 31.5
s5.33301 18.167 10 27.5h332c0 -12 -0.833008 -22.333 -2.5 -31s-4.83398 -17.667 -9.50098 -27c-22 0.666992 -45.167 1.16699 -69.5 1.5s-50.5 0.5 -78.5 0.5z" />
    <glyph glyph-name="currency" unicode="&#xa4;" horiz-adv-x="544" 
d="M484 77c-4.66699 -6 -10.833 -11.168 -18.5 -15.501s-17.5 -7.16602 -29.5 -8.49902l-79 78l37 33zM272.001 76.999c-36 0 -67.833 8.5 -95.5 25.5s-49.167 39.5 -64.5 67.5s-23 57.667 -23 89c0 35.333 8.66699 66 26 92s39.833 46.167 67.5 60.5s57.5 21.5 89.5 21.5
c32.667 0 62.334 -7.5 89.001 -22.5s48.167 -35.5 64.5 -61.5s24.5 -56 24.5 -90c0 -31.333 -5.66699 -58.5 -17 -81.5s-26 -41.833 -44 -56.5s-37.333 -25.667 -58 -33s-40.334 -11 -59.001 -11zM367.001 383.999l62 63c10 -2 18.333 -4.83301 25 -8.5
s13 -9.16699 19 -16.5l-72 -72zM60.001 419.999c6 6 12.667 11.167 20 15.5s16 6.83301 26 7.5l64 -62l-35 -36zM264.001 385.999c-32.667 0 -59.332 -11.167 -79.999 -33.5s-31 -51.5 -31 -87.5c0 -22 5.5 -43.667 16.5 -65s26 -38.833 45 -52.5s40.167 -20.5 63.5 -20.5
c32.667 0 59 11.333 79 34s30 52.667 30 90c0 22 -5.33301 43.333 -16 64s-25.334 37.667 -44.001 51s-39.667 20 -63 20zM186.003 124.999l-71 -72c-11.333 0.666992 -20.5 2.66699 -27.5 6s-13.833 8.33301 -20.5 15l79 83z" />
    <glyph glyph-name="yen" unicode="&#xa5;" horiz-adv-x="631" 
d="M384 263l-0.00195312 -88.999c0 -34 1.83301 -59.333 5.5 -76s11.5 -27.834 23.5 -33.501s30.333 -10.167 55 -13.5c2.66699 -8.66699 4.5 -17.167 5.5 -25.5s1.5 -17.833 1.5 -28.5c-24 0.666992 -49.667 1.33398 -77 2.00098s-53.333 1 -78 1
c-18 0 -37 -0.166992 -57 -0.5s-39 -0.5 -57 -0.5s-33.667 -0.333008 -47 -1c0.666992 9.33301 1.5 18.666 2.5 27.999s2.83301 17.666 5.5 24.999c26.667 2.66699 46.334 6.5 59.001 11.5s20.834 15.333 24.501 31s5.5 39.834 5.5 72.501v97h128zM359.998 204.001h-78.998
l-183 362c-10.667 21.333 -21.167 36.333 -31.5 45s-23.5 13.334 -39.5 14.001c-2.66699 8.66699 -4.5 17.167 -5.5 25.5s-1.5 17.5 -1.5 27.5c11.333 0 24.333 -0.166992 39 -0.5l44.5 -1c15 -0.333008 28.833 -0.5 41.5 -0.5h46.5c18.333 0 36.5 0.166992 54.5 0.5
s32.667 0.833008 44 1.5c0 -10.667 -0.5 -19.667 -1.5 -27s-2.5 -15.333 -4.5 -24c-24 -2.66699 -37.333 -10.334 -40 -23.001s2.33301 -32.667 15 -60c15.333 -30 32.166 -65.167 50.499 -105.5l54.5 -125.5h-7l54.5 123c17 37.333 32.833 70.666 47.5 99.999
c14.667 31.333 19.667 53.333 15 66s-19 20.334 -43 23.001c-2 8.66699 -3.83301 17 -5.5 25s-2.5 17.333 -2.5 28c14 -0.666992 30 -1.16699 48 -1.5s35.333 -0.5 52 -0.5c15.333 0 30.666 0.166992 45.999 0.5s29.333 0.833008 42 1.5c0 -10 -0.5 -19 -1.5 -27
s-2.16699 -16 -3.5 -24c-16.667 -4 -32 -13.333 -46 -28s-29.333 -39 -46 -73zM268 325.001h-164c0 10.667 1 20.667 3 30s4.66699 18 8 26h131zM268 196.001l-169 -0.000976562c0 10 1 19.833 3 29.5s5 18.834 9 27.501h157v-57zM370 253h170c0 -10.667 -1 -20.667 -3 -30
s-5 -18.333 -9 -27h-158v57zM403 381l139 0.000976562c0 -11.333 -0.833008 -21.333 -2.5 -30s-4.5 -17.334 -8.5 -26.001h-149z" />
    <glyph glyph-name="brokenbar" unicode="&#xa6;" horiz-adv-x="182" 
d="M60 -244l-0.000976562 408c9.33301 5.33301 18.833 8.66602 28.5 9.99902s20.834 2 33.501 2c-0.666992 -33.333 -1.16699 -67 -1.5 -101s-0.5 -68 -0.5 -102c0 -33.333 0.166992 -67.166 0.5 -101.499s0.833008 -68.5 1.5 -102.5c-6 -3.33301 -15.5 -6.33301 -28.5 -9
s-24.167 -4 -33.5 -4zM59.999 321v380c9.33301 5.33301 19.166 8.83301 29.499 10.5s21.166 2.5 32.499 2.5c-0.666992 -32 -1.16699 -63.833 -1.5 -95.5s-0.5 -63.5 -0.5 -95.5c0 -31.333 0.166992 -62.833 0.5 -94.5s0.833008 -63.167 1.5 -94.5
c-7.33301 -4 -17.166 -7.16699 -29.499 -9.5s-23.166 -3.5 -32.499 -3.5z" />
    <glyph glyph-name="section" unicode="&#xa7;" horiz-adv-x="554" 
d="M279 127c-28.667 14.667 -51.666 27.9971 -68.999 39.9971s-30.5 23.667 -39.5 35s-15.167 22.5 -18.5 33.5s-5 22.833 -5 35.5c0 16 3.5 30.833 10.5 44.5s18.833 25.334 35.5 35.001s39 16.167 67 19.5l-60 42c-20.667 -6 -40 -14 -58 -24s-33.833 -22.5 -47.5 -37.5
s-24.334 -32.167 -32.001 -51.5s-11.5 -41 -11.5 -65c0 -32 5.16699 -60.5 15.5 -85.5s27.166 -48 50.499 -69s54.666 -41.5 93.999 -61.5c42 -20.667 72.833 -38 92.5 -52s32.5 -27.333 38.5 -40s9 -27 9 -43c0 -21.333 -7 -38.166 -21 -50.499s-33.667 -18.5 -59 -18.5
c-15.333 0 -29.666 3.5 -42.999 10.5s-24.833 19.833 -34.5 38.5s-16.5 45.334 -20.5 80.001c-10 0 -20.5 -0.666992 -31.5 -2s-20.5 -3.33301 -28.5 -6c2 -20.667 3 -42.667 3 -66s-1 -46 -3 -68c16 -11.333 35.5 -21.333 58.5 -30s54.5 -13 94.5 -13
c39.333 0 71.833 7.16699 97.5 21.5s45 33.5 58 57.5s19.5 50.333 19.5 79c0 30 -4.66699 56.667 -14 80s-25.666 45.5 -48.999 66.5s-56.333 42.5 -99 64.5zM328.001 61.9971c24 6 46.002 14.3281 66.002 24.9951s37.667 23.834 53 39.501s27.166 33.667 35.499 54
s12.5 42.833 12.5 67.5c0 34 -5.66699 63.333 -17 88s-30 47 -56 67s-61 40 -105 60c-38.667 18 -67.167 33.667 -85.5 47s-30.333 26 -36 38s-8.5 25.333 -8.5 40c0 18.667 7.16699 35 21.5 49s34.166 21 59.499 21c19.333 0 36.333 -7.5 51 -22.5s26 -44.833 34 -89.5
c11.333 0 22 0.833008 32 2.5s19.667 3.83398 29 6.50098c-2 19.333 -3 40.333 -3 63s0.666992 42.334 2 59.001c-15.333 10.667 -34.333 19.5 -57 26.5s-51.334 10.5 -86.001 10.5s-65 -7.16699 -91 -21.5s-46 -33.166 -60 -56.499s-21 -49 -21 -77
c0 -26 3.83301 -51 11.5 -75s22.5 -46.667 44.5 -68s53.667 -42.333 95 -63c32.667 -16 58.834 -30.333 78.501 -43s34.5 -24.667 44.5 -36s16.833 -22.333 20.5 -33s5.5 -22 5.5 -34c0 -14 -3.66699 -28.167 -11 -42.5s-20.333 -26.666 -39 -36.999
s-45.667 -16.833 -81 -19.5z" />
    <glyph glyph-name="dieresis" unicode="&#xa8;" horiz-adv-x="300" 
d="M260 524c-24 0 -42.168 6.16699 -54.501 18.5s-18.5 28.5 -18.5 48.5c0 19.333 6.33301 34.333 19 45s29.334 16 50.001 16c20 0 36.667 -5.66699 50 -17s20 -26 20 -44c0 -16.667 -5 -32 -15 -46s-27 -21 -51 -21zM43.999 524c-20.667 0 -37.5 5.66895 -50.5 17.002
s-19.5 25.666 -19.5 42.999s5.33301 33 16 47s28 21 52 21s41.5 -6.33301 52.5 -19s16.5 -28.334 16.5 -47.001c0 -18 -6.33301 -32.833 -19 -44.5s-28.667 -17.5 -48 -17.5z" />
    <glyph glyph-name="copyright" unicode="&#xa9;" horiz-adv-x="806" 
d="M403 573c47.333 0 91.832 -8.66699 133.499 -26s78.167 -41.666 109.5 -72.999s55.833 -67.833 73.5 -109.5s26.5 -86.5 26.5 -134.5s-8.83301 -92.667 -26.5 -134s-42.167 -77.666 -73.5 -108.999s-67.833 -55.833 -109.5 -73.5s-86.167 -26.5 -133.5 -26.5
c-48.667 0 -93.667 8.66699 -135 26s-77.666 41.666 -108.999 72.999s-55.666 67.833 -72.999 109.5s-26 86.5 -26 134.5s8.66699 92.833 26 134.5s41.666 78.167 72.999 109.5s67.833 55.666 109.5 72.999s86.5 26 134.5 26zM413.999 453c30 0 55.498 -3.33301 76.498 -10
s42.833 -17 65.5 -31c-2.66699 -18 -4.5 -36.5 -5.5 -55.5s-1.5 -37.5 -1.5 -55.5c-6.66699 -3.33301 -14.834 -5.83301 -24.501 -7.5s-18.5 -2.5 -26.5 -2.5c-2 19.333 -6.16699 37.333 -12.5 54s-16.333 30 -30 40s-32.5 15 -56.5 15c-21.333 0 -38.5 -6.66699 -51.5 -20
s-22.333 -31.833 -28 -55.5s-8.5 -50.834 -8.5 -81.501s3.83301 -59.5 11.5 -86.5s20.167 -48.833 37.5 -65.5s40 -25 68 -25c18 0 36.5 3.33301 55.5 10s36.833 18.667 53.5 36c5.33301 -3.33301 9.83301 -8 13.5 -14s6.16699 -12.667 7.5 -20
c-17.333 -22.667 -39.166 -40.5 -65.499 -53.5s-58.833 -19.5 -97.5 -19.5c-32.667 0 -64 8.33301 -94 25s-54.5 41.667 -73.5 75s-28.5 74.333 -28.5 123c0 45.333 8.83301 84.833 26.5 118.5s42.834 59.834 75.501 78.501s70.334 28 113.001 28zM402.997 522
c-41.333 0 -79.668 -7.33398 -115.001 -22.001s-66.166 -35.334 -92.499 -62.001s-47 -57.667 -62 -93s-22.5 -73.666 -22.5 -114.999c0 -54.667 12.833 -104 38.5 -148s60.5 -78.833 104.5 -104.5s93.667 -38.5 149 -38.5c41.333 0 79.666 7.33301 114.999 22
s66.333 35.334 93 62.001s47.334 57.5 62.001 92.5s22 73.167 22 114.5s-7.33301 79.666 -22 114.999s-35.334 66.333 -62.001 93s-57.667 47.334 -93 62.001s-73.666 22 -114.999 22z" />
    <glyph glyph-name="ordfeminine" unicode="&#xaa;" horiz-adv-x="437" 
d="M277 359c-8 2.66699 -14.3301 6.83203 -18.9971 12.499s-7 13.834 -7 24.501c0 7.33301 0.5 14 1.5 20s2.16699 11.667 3.5 17c-2.66699 -8 -6.5 -16.167 -11.5 -24.5s-11.167 -15.833 -18.5 -22.5c-8.66699 -7.33301 -19.5 -13.5 -32.5 -18.5s-28.167 -7.5 -45.5 -7.5
c-69.333 0 -104 28.667 -104 86c0 28.667 9 51.5 27 68.5s42.333 30.5 73 40.5s64.334 17.667 101.001 23c0 24.667 -1 41.834 -3 51.501s-6 17.834 -12 24.501c-10 13.333 -24 20 -42 20c-11.333 0 -20.5 -3.83301 -27.5 -11.5s-12.333 -18 -16 -31
s-6.5 -27.167 -8.5 -42.5c-10.667 0 -21.834 0.5 -33.501 1.5s-21.5 3.16699 -29.5 6.5c1.33301 14 1.66602 28.333 0.999023 43s-2.33398 27.667 -5.00098 39c19.333 11.333 41 20.5 65 27.5s49.333 10.5 76 10.5c28.667 0 51.167 -2.83301 67.5 -8.5
s29.833 -14.5 40.5 -26.5c12 -12 20.333 -26.5 25 -43.5s7 -42.833 7 -77.5v-72c0 -22.667 2.5 -37.834 7.5 -45.501s17.167 -11.834 36.5 -12.501c1.33301 -8 1.66602 -16 0.999023 -24s-3 -15.333 -7 -22c-17.333 -0.666992 -35.833 -3.16699 -55.5 -7.5
s-38.167 -10.5 -55.5 -18.5zM182.003 421.998c14 0 28 7.66699 42 23s21 39.333 21 72v20c-17.333 -2.66699 -33.333 -6.33398 -48 -11.001s-26.334 -11.667 -35.001 -21s-13 -22.666 -13 -39.999c0 -15.333 3.33301 -26.333 10 -33s14.334 -10 23.001 -10z" />
    <glyph glyph-name="guillemotleft" unicode="&#xab;" horiz-adv-x="508" 
d="M213 417c10.667 -0.666992 20 -2.66699 28 -6s15 -7.66602 21 -12.999l-36 -45l-35.5 -46.5l-29.5 -41.5c14.667 -27.333 30 -53.5 46 -78.5s32 -48.5 48 -70.5c-2.66699 -8 -7.16699 -15.833 -13.5 -23.5s-13.833 -13.834 -22.5 -18.501l-81.5 83.5
c-25 25 -50.833 49.5 -77.5 73.5c0 9.33301 0.833008 18 2.5 26s4.16699 16 7.5 24l74 67c23.333 22 46.333 45 69 69zM380 411c9.33301 -1.33301 18.334 -3.50098 27.001 -6.50098s16 -7.16699 22 -12.5l-43 -66c-14 -21.333 -27.333 -42.666 -40 -63.999l40 -73
c14 -24.667 27.667 -47.334 41 -68.001c-2.66699 -7.33301 -7.66699 -14.666 -15 -21.999s-16 -13.666 -26 -18.999l-67.5 79c-19.667 22 -41.834 45.333 -66.501 70c0 10.667 0.833008 20.167 2.5 28.5s3.5 15.833 5.5 22.5l63 65.5c18.667 20.333 37.667 42.166 57 65.499
z" />
    <glyph glyph-name="logicalnot" unicode="&#xac;" 
d="M499 354l-11 -61c-74 0 -145.833 0.166992 -215.5 0.5s-143.5 -0.5 -221.5 -2.5c0 9.33301 1 20.333 3 33s4.66699 22.667 8 30h437zM440 341l59 13v-232c-9.33301 -5.33301 -18.5 -9.33301 -27.5 -12s-19.5 -4 -31.5 -4v235z" />
    <glyph glyph-name="uni00AD" unicode="&#xad;" horiz-adv-x="419" 
d="M359 298c0 -11.333 -0.998047 -23.833 -2.99805 -37.5s-5.33301 -26.167 -10 -37.5c-18.667 0 -40.334 -0.166992 -65.001 -0.5l-76.5 -1c-26.333 -0.333008 -51.833 -0.833008 -76.5 -1.5s-47.334 -1.66699 -68.001 -3c0 12.667 1.5 26.5 4.5 41.5
s6.83301 28.167 11.5 39.5h283z" />
    <glyph glyph-name="registered" unicode="&#xae;" horiz-adv-x="519" 
d="M261 385c-37.333 0 -71.166 8.83301 -101.499 26.5s-54.5 41.5 -72.5 71.5s-27 64 -27 102c0 37.333 8.83301 71.166 26.5 101.499s41.667 54.333 72 72s64.166 26.5 101.499 26.5c38 0 72 -8.83301 102 -26.5s53.667 -41.667 71 -72s26 -64.166 26 -101.499
c0 -38 -8.66699 -72 -26 -102s-41 -53.833 -71 -71.5s-63.667 -26.5 -101 -26.5zM260 429c30.667 0 57.668 6.83301 81.001 20.5s41.666 32.334 54.999 56.001s20 50.167 20 79.5s-6.83301 56 -20.5 80s-32.167 42.833 -55.5 56.5s-50 20.5 -80 20.5
c-29.333 0 -56 -6.83301 -80 -20.5s-42.833 -32.5 -56.5 -56.5s-20.5 -50.667 -20.5 -80s6.83301 -55.833 20.5 -79.5s32.5 -42.334 56.5 -56.001s50.667 -20.5 80 -20.5zM302.001 484c-4.66699 12.667 -10.3359 25 -17.0029 37s-14.667 23 -24 33l-23 1v-70
c-15.333 -3.33301 -30 -3.33301 -44 0v197c12.667 3.33301 25.334 5.66602 38.001 6.99902s23.334 2 32.001 2c26.667 0 46 -5 58 -15s18 -25.333 18 -46c0 -18 -5.16699 -34.167 -15.5 -48.5s-28.5 -21.833 -54.5 -22.5l22 8c12 -10 22.833 -21.667 32.5 -35
s17.834 -27.666 24.501 -42.999c-13.333 -5.33301 -29 -7 -47 -5zM257.999 582c12 0 21.1689 3 27.502 9s9.5 16 9.5 30c0 15.333 -3.33301 26 -10 32s-14.667 9 -24 9c-4 0 -7.83301 -0.333008 -11.5 -1s-7.5 -1.66699 -11.5 -3v-74
c3.33301 -0.666992 6.66602 -1.16699 9.99902 -1.5s6.66602 -0.5 9.99902 -0.5z" />
    <glyph glyph-name="macron" unicode="&#xaf;" horiz-adv-x="300" 
d="M-35 578c0 6 0.832031 14.501 2.49902 25.501s3.83398 20.167 6.50098 27.5h361c0 -6.66699 -0.666992 -14.334 -2 -23.001s-3.66602 -17 -6.99902 -25h-82c-36.667 0 -78.834 -0.333008 -126.501 -1s-98.5 -2 -152.5 -4z" />
    <glyph glyph-name="degree" unicode="&#xb0;" horiz-adv-x="401" 
d="M198 700c46 0 81.332 -12.165 105.999 -36.498s37 -54.5 37 -90.5c0 -36.667 -13 -67.834 -39 -93.501s-60.667 -38.5 -104 -38.5s-77.166 12.333 -101.499 37s-36.5 55.667 -36.5 93c0 24.667 5.83301 46.667 17.5 66s28 34.666 49 45.999s44.833 17 71.5 17z
M192.999 655.002c-14.667 0 -26.667 -6.50098 -36 -19.501s-14 -28.167 -14 -45.5c0 -30 7 -54.5 21 -73.5s30 -28.5 48 -28.5c12.667 0 23.5 6.16699 32.5 18.5s13.5 30.833 13.5 55.5c0 28.667 -5.83301 51.334 -17.5 68.001s-27.5 25 -47.5 25z" />
    <glyph glyph-name="plusminus" unicode="&#xb1;" 
d="M54 40c0 9.33301 0.999023 20.166 2.99902 32.499s4.33301 21.5 7 27.5h432c0 -12 -0.5 -22.5 -1.5 -31.5s-3.83301 -17.833 -8.5 -26.5c-18 0 -34.667 0.166992 -50 0.5s-30.833 0.5 -46.5 0.5h-48.5h-56c-42 0 -80.167 -0.166992 -114.5 -0.5
s-73.166 -1.16602 -116.499 -2.49902zM88.999 278c0 9.33301 0.998047 20.332 2.99805 32.999s4.33301 21.667 7 27h362c0 -12 -0.5 -22.667 -1.5 -32s-3.83301 -18 -8.5 -26c-21.333 0.666992 -39.666 0.833984 -54.999 0.500977s-31.666 -0.5 -48.999 -0.5h-69h-77
c-30.667 0 -68 -0.666992 -112 -2zM243.997 132.999c0 20 0.166016 37.168 0.499023 51.501l1 41c0.333008 13 0.5 26.5 0.5 40.5v50v47v50c0 18.667 -0.333008 42 -1 70c8.66699 4.66699 18 7.5 28 8.5s21 1.5 33 1.5v-350c-3.33301 -2 -8.66602 -3.83301 -15.999 -5.5
s-15.333 -2.83398 -24 -3.50098s-16 -1 -22 -1z" />
    <glyph glyph-name="uni00B2" unicode="&#xb2;" horiz-adv-x="375" 
d="M49 408c-4 6.66699 -6.83008 13.1641 -8.49707 19.4971s-2.5 12.833 -2.5 19.5c18 18 35.667 34.667 53 50l44 39c26 24 44.833 44.833 56.5 62.5s17.5 38.167 17.5 61.5c0 16.667 -4.33301 30.334 -13 41.001s-19.334 16 -32.001 16
c-14.667 0 -25.334 -6.83301 -32.001 -20.5s-12.334 -38.5 -17.001 -74.5c-9.33301 0 -19.5 0.5 -30.5 1.5s-20.167 2.83301 -27.5 5.5c1.33301 16.667 2 35 2 55s-1 38 -3 54c20.667 10.667 41.334 18.167 62.001 22.5s43.667 6.5 69 6.5c20.667 0 40.5 -2.83301 59.5 -8.5
s34.5 -15.167 46.5 -28.5s18 -31.666 18 -54.999c0 -24.667 -5.33301 -45.5 -16 -62.5s-25.667 -33.5 -45 -49.5l-42 -34.5l-44 -37.5h64c18 0 31.333 3.66699 40 11s13.334 20.333 14.001 39c9.33301 0 18.166 -0.333008 26.499 -1s15.833 -2 22.5 -4
c0 -17.333 0.333008 -35.166 1 -53.499s2.66699 -36.5 6 -54.5c-2.66699 -6 -6.66699 -10.833 -12 -14.5s-13.333 -5.5 -24 -5.5c-12.667 0 -30.834 0.333008 -54.501 1s-49.167 1 -76.5 1c-24.667 0 -47.667 -0.333008 -69 -1s-39 -1 -53 -1z" />
    <glyph glyph-name="uni00B3" unicode="&#xb3;" horiz-adv-x="381" 
d="M139 288c-28 0 -50.666 3.66699 -67.999 11s-29.666 13.666 -36.999 18.999c2.66699 8 6.16699 15.333 10.5 22s9.16602 12.334 14.499 17.001c6 -4 15.667 -8 29 -12s29.333 -6 48 -6c16 0 31.667 3.66699 47 11s28 18.5 38 33.5s15 33.167 15 54.5
c0 22.667 -6.5 42 -19.5 58s-32.167 24 -57.5 24c-4.66699 0 -8.66699 -0.166992 -12 -0.5s-6.66602 -1.16602 -9.99902 -2.49902c-4.66699 4 -9 8.83301 -13 14.5s-6.66699 12.5 -8 20.5l59 74c16 20 30 38.667 42 56h-55c-19.333 0 -33 -3.5 -41 -10.5
s-16.333 -21.167 -25 -42.5c-8 0 -16.167 0.833008 -24.5 2.5s-14.833 3.83398 -19.5 6.50098c3.33301 21.333 5.66602 42.666 6.99902 63.999s2 40.333 2 57c11.333 -0.666992 28.166 -1 50.499 -1h78.5h73.5c19.667 0 33.834 0.333008 42.501 1
c3.33301 -6 5.66602 -12 6.99902 -18s2 -13 2 -21l-53.5 -65c-19.667 -24.667 -39.834 -51.334 -60.501 -80.001c24 1.33301 46.333 -2.66699 67 -12s37.334 -23.833 50.001 -43.5s19 -44.167 19 -73.5c0 -28 -7.66699 -54 -23 -78s-37.833 -43.333 -67.5 -58
s-65.5 -22 -107.5 -22z" />
    <glyph glyph-name="acute" unicode="&#xb4;" horiz-adv-x="300" 
d="M112 531c-10 -0.666992 -20.167 -0.000976562 -30.5 1.99902s-18.833 4.66699 -25.5 8c16 32 29 61.333 39 88s18.333 53 25 79c14 5.33301 28.167 8.83301 42.5 10.5s27.833 2.16699 40.5 1.5c7.33301 0 14.5 -0.666992 21.5 -2s13.167 -2.66602 18.5 -3.99902
c-23.333 -26.667 -46.5 -56.167 -69.5 -88.5s-43.5 -63.833 -61.5 -94.5z" />
    <glyph glyph-name="uni00B5" unicode="&#xb5;" horiz-adv-x="618" 
d="M200 107v-147c0 -29.333 1.16699 -55.166 3.5 -77.499s5.83301 -41.5 10.5 -57.5c-20 -10 -37 -19.833 -51 -29.5s-29.667 -23.167 -47 -40.5c-6.66699 3.33301 -12.167 7.66602 -16.5 12.999s-7.5 11 -9.5 17c2 10 3.66699 20.333 5 31s2.33301 24.5 3 41.5
s1 39.5 1 67.5v261zM438 -9c-8 4.66699 -14.835 11.334 -20.502 20.001s-8.5 21 -8.5 37c0 8.66699 0.666992 17.334 2 26.001s3.33301 19.5 6 32.5s6.66699 29.167 12 48.5h91c0 -18.667 1.33301 -33.5 4 -44.5s8.83398 -19.167 18.501 -24.5s24.167 -8.33301 43.5 -9
c0 -8.66699 -0.5 -17.667 -1.5 -27s-3.16699 -18.333 -6.5 -27c-15.333 0 -31.666 -1.33301 -48.999 -4s-34 -6.33398 -50 -11.001s-29.667 -10.334 -41 -17.001zM396.998 312c0 26.667 -4.16602 45.834 -12.499 57.501s-28.5 18.167 -60.5 19.5c0 9.33301 0.5 18 1.5 26
s3.5 15.667 7.5 23c33.333 1.33301 64.666 4.66602 93.999 9.99902s51.666 11.666 66.999 18.999c7.33301 -2.66699 13.5 -7.83398 18.5 -15.501s7.5 -19.167 7.5 -34.5v-284l-105 -36c-8 -20 -20.333 -38 -37 -54c-17.333 -15.333 -36.333 -27.166 -57 -35.499
s-43.667 -12.5 -69 -12.5c-49.333 0 -87.166 13 -113.499 39s-39.5 73.333 -39.5 142v131c0 26.667 -3.33301 45.834 -10 57.501s-24.667 18.167 -54 19.5c0 9.33301 0.5 18 1.5 26s3.5 15.667 7.5 23c29.333 1.33301 58 5.33301 86 12s50 14 66 22
c7.33301 -2.66699 13.5 -7.83398 18.5 -15.501s7.5 -19.167 7.5 -34.5v-218c0 -33.333 2.5 -59.833 7.5 -79.5s13 -33.5 24 -41.5s25.833 -12 44.5 -12c16 0 31.667 6 47 18s27.833 30.333 37.5 55s14.5 56.334 14.5 95.001v78z" />
    <glyph glyph-name="paragraph" unicode="&#xb6;" horiz-adv-x="569" 
d="M414 -249v895.001l16 -25c-19.333 4 -37.333 6.5 -54 7.5s-34.667 1.5 -54 1.5c-39.333 0 -70.666 -4.16699 -93.999 -12.5s-40.333 -22.333 -51 -42s-16 -46.834 -16 -81.501c0 -32 6.33301 -58 19 -78s28.667 -34.833 48 -44.5s40 -14.5 62 -14.5h27l2 -45
c-10 -2 -18.667 -3.33301 -26 -4s-15.666 -1 -24.999 -1c-48.667 0 -90.334 5.66699 -125.001 17s-61.167 30.166 -79.5 56.499s-27.5 62.5 -27.5 108.5c0 36.667 9 69.334 27 98.001s46.667 51.167 86 67.5s91 24.5 155 24.5c30 0 57 -0.5 81 -1.5s47.333 -1.5 70 -1.5
c13.333 0 28.5 0.166992 45.5 0.5s32.5 1.16602 46.5 2.49902c0 -9.33301 -0.333008 -18.5 -1 -27.5s-2.33398 -17.833 -5.00098 -26.5c-19.333 -0.666992 -33.833 -4.16699 -43.5 -10.5s-16 -16.166 -19 -29.499s-4.5 -31.333 -4.5 -54v-767
c-9.33301 -5.33301 -19 -8.83301 -29 -10.5s-20.333 -2.5 -31 -2.5zM300 -248.999v900l59 5l1 -892c-10 -5.33301 -20 -8.83301 -30 -10.5s-20 -2.5 -30 -2.5z" />
    <glyph glyph-name="periodcentered" unicode="&#xb7;" horiz-adv-x="265" 
d="M132 190c-22.667 0 -40.333 6.33301 -53 19s-19 29 -19 49c0 20.667 7.16699 37.667 21.5 51s32.5 20 54.5 20s39 -7 51 -21s18 -29 18 -45c0 -22.667 -6.83301 -40.5 -20.5 -53.5s-31.167 -19.5 -52.5 -19.5z" />
    <glyph glyph-name="cedilla" unicode="&#xb8;" horiz-adv-x="300" 
d="M83 -242c-2.66699 5.33301 -4.50098 11.668 -5.50098 19.001s-1.5 13.666 -1.5 18.999c20 0 38 4.5 54 13.5s24 21.833 24 38.5c0 14.667 -5.83301 26.334 -17.5 35.001s-26.5 13 -44.5 13c-5.33301 4.66699 -9.66602 10.5 -12.999 17.5s-5 14.833 -5 23.5l54 79h58
l-47 -64c27.333 -4.66699 48.833 -15.334 64.5 -32.001s23.5 -36.667 23.5 -60c0 -22 -7 -40.667 -21 -56s-32 -26.833 -54 -34.5s-45 -11.5 -69 -11.5z" />
    <glyph glyph-name="uni00B9" unicode="&#xb9;" horiz-adv-x="322" 
d="M53 407c0 10 0.332031 19.166 0.999023 27.499s2 16.5 4 24.5c20 0.666992 33.833 5.66699 41.5 15s11.5 25.333 11.5 48v121c0 22 -4 38.167 -12 48.5s-22 15.833 -42 16.5c-1.33301 8.66699 -2.33301 17.334 -3 26.001s-1 17.667 -1 27
c7.33301 -0.666992 17.833 -1.16699 31.5 -1.5l43 -1c15 -0.333008 26.833 -0.5 35.5 -0.5s19.667 0.166992 33 0.5l40.5 1c13.667 0.333008 24.834 0.833008 33.501 1.5c0 -9.33301 -0.333008 -18.333 -1 -27s-2 -17.334 -4 -26.001
c-20 -0.666992 -33.833 -6.16699 -41.5 -16.5s-11.5 -26.5 -11.5 -48.5v-121c0 -22.667 3.66699 -38.667 11 -48s21.333 -14.333 42 -15c3.33301 -15.333 5 -32.666 5 -51.999c-10 0.666992 -21.5 1.16699 -34.5 1.5l-38.5 1c-12.667 0.333008 -24 0.5 -34 0.5
s-21.667 -0.166992 -35 -0.5l-39.5 -1c-13 -0.333008 -24.833 -0.833008 -35.5 -1.5z" />
    <glyph glyph-name="ordmasculine" unicode="&#xba;" horiz-adv-x="429" 
d="M146 556c0 -30.667 2.83203 -57.168 8.49902 -79.501s14.334 -40 26.001 -53s25.5 -19.5 41.5 -19.5c20 0 35.333 11.167 46 33.5s16 50.5 16 84.5c0 48.667 -7.66699 85.834 -23 111.501s-33.333 38.5 -54 38.5s-36 -11.167 -46 -33.5s-15 -49.833 -15 -82.5z
M36.999 532.999c0 38.667 7.83105 71.667 23.498 99s37.167 48.333 64.5 63s57.333 22 90 22c58.667 0 102.834 -16.5 132.501 -49.5s44.5 -75.5 44.5 -127.5c0 -56 -16.167 -100.5 -48.5 -133.5s-76.166 -49.5 -131.499 -49.5c-56.667 0 -100 16 -130 48
s-45 74.667 -45 128z" />
    <glyph glyph-name="guillemotright" unicode="&#xbb;" horiz-adv-x="514" 
d="M131 82c-9.33301 4.66699 -17.667 10.6709 -25 18.0039s-13 14.666 -17 21.999c14 20 27 40 39 60l36 63c-10.667 21.333 -23.667 45.166 -39 71.499l-46 75.5c6 5.33301 14 9.66602 24 12.999s20 5.66602 30 6.99902l39 -43l38.5 -39.5l42.5 -41.5
c4 -8 6.33301 -16 7 -24s1 -16.667 1 -26l-66.5 -78zM297.999 76.0039c-8 4.66699 -15.168 10.334 -21.501 17.001s-11.166 14 -14.499 22l47.5 63.5c15 21 29.5 42.833 43.5 65.5l-30.5 49l-35 53.5l-36.5 52.5c6 5.33301 13.667 9.5 23 12.5s18.333 4.5 27 4.5l47.5 -43.5
l46 -41l50.5 -43.5c4 -7.33301 6.5 -14.833 7.5 -22.5s1.5 -15.834 1.5 -24.501c-27.333 -26.667 -54 -54 -80 -82z" />
    <glyph glyph-name="onequarter" unicode="&#xbc;" horiz-adv-x="842" 
d="M224 730c9.33301 -2.66699 15.834 -7 19.501 -13s5.5 -16 5.5 -30v-281c0 -22.667 1.83301 -39.5 5.5 -50.5s11 -18.167 22 -21.5s26.5 -6 46.5 -8c2 -6.66699 3.5 -14 4.5 -22s1.5 -16.333 1.5 -25c-14 0.666992 -29.167 1 -45.5 1s-32.833 0.166992 -49.5 0.5
s-32 0.5 -46 0.5c-20.667 0 -43.834 -0.166992 -69.501 -0.5s-48.167 -0.833008 -67.5 -1.5c0 8 0.333008 16.167 1 24.5s2 15.833 4 22.5c21.333 2 38 4.66699 50 8s20.667 10.333 26 21s8 27.667 8 51v174c0 19.333 -2 33.5 -6 42.5s-13 15 -27 18s-36 4.5 -66 4.5
c0 8.66699 0.333008 17.167 1 25.5s2 16.5 4 24.5c37.333 2 70 5.83301 98 11.5s54.667 13.5 80 23.5zM225.001 -8c-11.333 2 -22.333 5.33203 -33 9.99902s-18 10 -22 16l513 697c10 -1.33301 20 -4.66602 30 -9.99902s18 -11 24 -17zM564.001 -3.00098
c0 9.33301 0.333008 19.168 1 29.501s2 18.166 4 23.499c24 0.666992 41.167 4.5 51.5 11.5s15.5 22.5 15.5 46.5v267l32 3l-154 -211l-8 29h269c9.33301 0 16.666 -1 21.999 -3s10 -5.66699 14 -11c-4.66699 -8 -8.5 -17.833 -11.5 -29.5s-5.16699 -23.834 -6.5 -36.501
c-55.333 0 -103.166 -0.333008 -143.499 -1s-74.666 -1.33398 -102.999 -2.00098s-53.166 -2 -74.499 -4c-14 17.333 -21 38.333 -21 63l72.5 89.5l72 92c23.667 31 46.834 63.167 69.501 96.5c6.66699 0.666992 14.167 0.833984 22.5 0.500977
s16.666 -1.16602 24.999 -2.49902s15.833 -3 22.5 -5v-335c0 -17.333 1.66699 -30 5 -38s8.66602 -13.167 15.999 -15.5s17 -3.83301 29 -4.5c2 -6.66699 3.5 -15 4.5 -25s1.5 -19.333 1.5 -28c-9.33301 0.666992 -21 1.16699 -35 1.5l-42 1
c-14 0.333008 -26.333 0.5 -37 0.5s-23.167 -0.166992 -37.5 -0.5l-42 -1c-13.667 -0.333008 -24.834 -0.833008 -33.501 -1.5z" />
    <glyph glyph-name="onehalf" unicode="&#xbd;" horiz-adv-x="965" 
d="M224 730c9.33301 -2.66699 15.834 -7 19.501 -13s5.5 -16 5.5 -30v-281c0 -22.667 1.83301 -39.5 5.5 -50.5s11 -18.167 22 -21.5s26.5 -6 46.5 -8c2 -6.66699 3.5 -14 4.5 -22s1.5 -16.333 1.5 -25c-14 0.666992 -29.167 1 -45.5 1s-32.833 0.166992 -49.5 0.5
s-32 0.5 -46 0.5c-20.667 0 -43.834 -0.166992 -69.501 -0.5s-48.167 -0.833008 -67.5 -1.5c0 8 0.333008 16.167 1 24.5s2 15.833 4 22.5c21.333 2 38 4.66699 50 8s20.667 10.333 26 21s8 27.667 8 51v174c0 19.333 -2 33.5 -6 42.5s-13 15 -27 18s-36 4.5 -66 4.5
c0 8.66699 0.333008 17.167 1 25.5s2 16.5 4 24.5c37.333 2 70 5.83301 98 11.5s54.667 13.5 80 23.5zM225.001 -8c-11.333 2 -22.333 5.33203 -33 9.99902s-18 10 -22 16l513 697c10 -1.33301 20 -4.66602 30 -9.99902s18 -11 24 -17zM609.001 -2.00098
c-11.333 14 -17.0029 33.666 -17.0029 58.999l53.5 61l41.5 46l41 44c20.667 20.667 35.834 39.834 45.501 57.501s14.5 37.5 14.5 59.5c0 21.333 -4.5 37.666 -13.5 48.999s-22.833 17 -41.5 17c-12 0 -22 -3.33301 -30 -10s-14.5 -17.5 -19.5 -32.5
s-9.16699 -36.167 -12.5 -63.5c-12.667 0 -24.667 0.666992 -36 2s-22.666 4 -33.999 8c3.33301 18.667 5.16602 38.834 5.49902 60.501s-0.5 43.167 -2.5 64.5c22 10 45.833 17.333 71.5 22s52.834 7 81.501 7c33.333 0 61.333 -3.5 84 -10.5s40 -18 52 -33
s18 -35.167 18 -60.5c0 -28 -8 -53.167 -24 -75.5s-39.667 -46.833 -71 -73.5l-45.5 -39.5c-12.333 -11 -24 -22 -35 -33s-23.5 -24.5 -37.5 -40.5v23h95c18.667 0 33 1.33301 43 4s17.333 8.16699 22 16.5s8 20.833 10 37.5c10 0.666992 20.833 0.5 32.5 -0.5
s21.5 -3.16699 29.5 -6.5c-2 -28 -2.33301 -53 -1 -75s4 -41 8 -57c-4 -9.33301 -10 -16.166 -18 -20.499s-17.667 -6.5 -29 -6.5c-4 0 -12 0.166992 -24 0.5s-26.667 0.666016 -44 0.999023s-36.333 0.5 -57 0.5c-22 0 -44.667 -0.166992 -68 -0.5
s-52.666 -0.833008 -87.999 -1.5z" />
    <glyph glyph-name="threequarters" unicode="&#xbe;" horiz-adv-x="838" 
d="M149 274c-32 0 -57.6689 3.33008 -77.002 9.99707s-34 14.334 -44 23.001c0.666992 7.33301 2.5 14.833 5.5 22.5s7.16699 14.167 12.5 19.5c8.66699 -6 20 -11.167 34 -15.5s30 -6.5 48 -6.5c31.333 0 56.5 6.83301 75.5 20.5s28.5 32.5 28.5 56.5
c0 20 -7.16699 36 -21.5 48s-32.5 18 -54.5 18c-9.33301 0 -17.666 -1.33301 -24.999 -4c-5.33301 5.33301 -9.66602 12.333 -12.999 21s-5 16.334 -5 23.001l65.5 72c21 23.333 39.167 45.666 54.5 66.999l27 -20h-105c-20 0 -34.5 -3 -43.5 -9s-17.5 -20 -25.5 -42
c-8.66699 0 -17.667 0.833008 -27 2.5s-17 4.83398 -23 9.50098c4 20.667 6.66699 42.834 8 66.501s1.66602 47.167 0.999023 70.5c14.667 -0.666992 35 -1.33398 61 -2.00098s52 -1 78 -1c32.667 0 60.5 0.333008 83.5 1s40.5 1.33398 52.5 2.00098
c4 -6 7.33301 -13.167 10 -21.5s3.66699 -16.833 3 -25.5l-68 -80l-68 -82l-20 20c31.333 2.66699 59.833 0.5 85.5 -6.5s46.167 -19.333 61.5 -37s23 -41.5 23 -71.5c0 -45.333 -17.667 -81.5 -53 -108.5s-83.666 -40.5 -144.999 -40.5zM219.998 -8.00293
c-11.333 2 -22.333 5.33203 -33 9.99902s-18 10 -22 16l513 697c10 -1.33301 20 -4.66602 30 -9.99902s18 -11 24 -17zM559.998 -3.00391c0 9.33301 0.333008 19.168 1 29.501s2 18.166 4 23.499c24 0.666992 41.167 4.5 51.5 11.5s15.5 22.5 15.5 46.5v267l32 3l-154 -211
l-8 29h269c9.33301 0 16.666 -1 21.999 -3s10 -5.66699 14 -11c-4.66699 -8 -8.5 -17.833 -11.5 -29.5s-5.16699 -23.834 -6.5 -36.501c-55.333 0 -103.166 -0.333008 -143.499 -1s-74.666 -1.33398 -102.999 -2.00098s-53.166 -2 -74.499 -4c-14 17.333 -21 38.333 -21 63
l72.5 89.5l72 92c23.667 31 46.834 63.167 69.501 96.5c6.66699 0.666992 14.167 0.833984 22.5 0.500977s16.666 -1.16602 24.999 -2.49902s15.833 -3 22.5 -5v-335c0 -17.333 1.66699 -30 5 -38s8.66602 -13.167 15.999 -15.5s17 -3.83301 29 -4.5
c2 -6.66699 3.5 -15 4.5 -25s1.5 -19.333 1.5 -28c-9.33301 0.666992 -21 1.16699 -35 1.5l-42 1c-14 0.333008 -26.333 0.5 -37 0.5s-23.167 -0.166992 -37.5 -0.5l-42 -1c-13.667 -0.333008 -24.834 -0.833008 -33.501 -1.5z" />
    <glyph glyph-name="questiondown" unicode="&#xbf;" horiz-adv-x="537" 
d="M250 -257c-52.667 0 -94.167 11 -124.5 33s-45.5 53 -45.5 93c0 26.667 5.16699 50.167 15.5 70.5s22.833 38.833 37.5 55.5l45 50c15.333 16.667 28 35.167 38 55.5s15 43.833 15 70.5c0 10 -1.16699 21.833 -3.5 35.5s-5.16602 26.167 -8.49902 37.5
c7.33301 4 15.666 6.83301 24.999 8.5s18.666 2.5 27.999 2.5c12.667 -8 24.334 -23.667 35.001 -47s16 -49 16 -77c0 -26 -4.16699 -48.167 -12.5 -66.5s-18.5 -34.666 -30.5 -48.999l-35.5 -41c-11.667 -13 -21.667 -26.667 -30 -41s-12.5 -31.5 -12.5 -51.5
c0 -27.333 7 -48.5 21 -63.5s30 -22.5 48 -22.5c14 0 26.167 4 36.5 12s18.833 21.5 25.5 40.5s12 44.833 16 77.5c13.333 0 26.333 -1.16699 39 -3.5s23.667 -5.83301 33 -10.5c-2 -23.333 -3.16699 -44.833 -3.5 -64.5s0.833984 -39.834 3.50098 -60.501
c-18.667 -11.333 -41.834 -21.5 -69.501 -30.5s-61.5 -13.5 -101.5 -13.5zM255 467c24.667 0 44 -6.99805 58 -20.998s21 -32.333 21 -55s-8 -41.334 -24 -56.001s-36 -22 -60 -22s-42.833 7.83301 -56.5 23.5s-20.5 32.167 -20.5 49.5c0 25.333 7.83301 45.166 23.5 59.499
s35.167 21.5 58.5 21.5z" />
    <glyph glyph-name="Agrave" unicode="&#xc0;" horiz-adv-x="708" 
d="M368 682l233.001 -527.003c12.667 -28 23 -49.167 31 -63.5s15.833 -24.166 23.5 -29.499s16.167 -9 25.5 -11c2.66699 -8.66699 4.5 -17.167 5.5 -25.5s1.5 -17.833 1.5 -28.5c-8.66699 0.666992 -21.167 1.16699 -37.5 1.5l-49.5 1
c-16.667 0.333008 -30.334 0.5 -41.001 0.5c-8 0 -18.167 -0.166992 -30.5 -0.5l-38.5 -1c-13.333 -0.333008 -25.666 -0.666016 -36.999 -0.999023s-20.333 -0.5 -27 -0.5c0 11.333 0.5 21.333 1.5 30s2.83301 16.667 5.5 24c26 4 41.333 10.833 46 20.5
s1 28.834 -11 57.501l-118 273c-12 26.667 -22 51.167 -30 73.5s-16 46.833 -24 73.5h16c-8 -27.333 -16 -52.666 -24 -75.999s-16.667 -46.666 -26 -69.999l-98 -254c-11.333 -31.333 -14.333 -54.833 -9 -70.5s20.666 -24.834 45.999 -27.501
c2.66699 -7.33301 4.5 -15.5 5.5 -24.5s1.5 -18.833 1.5 -29.5c-7.33301 0.666992 -16.833 1.16699 -28.5 1.5s-24 0.666016 -37 0.999023s-25.167 0.5 -36.5 0.5c-16.667 0 -33 -0.333008 -49 -1s-28.667 -1.33398 -38 -2.00098c0 9.33301 0.5 18.5 1.5 27.5
s3.16699 17.833 6.5 26.5c11.333 2 21 6.33301 29 13s16 17.334 24 32.001s17 34.667 27 60l209 521c8.66699 2 16.667 3.33301 24 4s16.333 1 27 1zM435.001 253.997l13.001 -51c-44.667 0 -91.834 -0.5 -141.501 -1.5s-96.5 -2.83301 -140.5 -5.5l16 58h253z
M325.002 732.997c-18 24 -35.6689 46.165 -53.002 66.498s-35.666 40.166 -54.999 59.499c14 6.66699 30.833 11.334 50.5 14.001s38.5 3.33398 56.5 2.00098l29 -65c10.667 -23.333 22.334 -46 35.001 -68c-8.66699 -3.33301 -18.167 -5.66602 -28.5 -6.99902
s-21.833 -2 -34.5 -2z" />
    <glyph glyph-name="Aacute" unicode="&#xc1;" horiz-adv-x="708" 
d="M368 682l233.001 -527.003c12.667 -28 23 -49.167 31 -63.5s15.833 -24.166 23.5 -29.499s16.167 -9 25.5 -11c2.66699 -8.66699 4.5 -17.167 5.5 -25.5s1.5 -17.833 1.5 -28.5c-8.66699 0.666992 -21.167 1.16699 -37.5 1.5l-49.5 1
c-16.667 0.333008 -30.334 0.5 -41.001 0.5c-8 0 -18.167 -0.166992 -30.5 -0.5l-38.5 -1c-13.333 -0.333008 -25.666 -0.666016 -36.999 -0.999023s-20.333 -0.5 -27 -0.5c0 11.333 0.5 21.333 1.5 30s2.83301 16.667 5.5 24c26 4 41.333 10.833 46 20.5
s1 28.834 -11 57.501l-118 273c-12 26.667 -22 51.167 -30 73.5s-16 46.833 -24 73.5h16c-8 -27.333 -16 -52.666 -24 -75.999s-16.667 -46.666 -26 -69.999l-98 -254c-11.333 -31.333 -14.333 -54.833 -9 -70.5s20.666 -24.834 45.999 -27.501
c2.66699 -7.33301 4.5 -15.5 5.5 -24.5s1.5 -18.833 1.5 -29.5c-7.33301 0.666992 -16.833 1.16699 -28.5 1.5s-24 0.666016 -37 0.999023s-25.167 0.5 -36.5 0.5c-16.667 0 -33 -0.333008 -49 -1s-28.667 -1.33398 -38 -2.00098c0 9.33301 0.5 18.5 1.5 27.5
s3.16699 17.833 6.5 26.5c11.333 2 21 6.33301 29 13s16 17.334 24 32.001s17 34.667 27 60l209 521c8.66699 2 16.667 3.33301 24 4s16.333 1 27 1zM435.001 253.997l13.001 -51c-44.667 0 -91.834 -0.5 -141.501 -1.5s-96.5 -2.83301 -140.5 -5.5l16 58h253z
M357.002 732.997c-12.667 0 -23.499 0.667969 -32.499 2.00098s-18.167 3.66602 -27.5 6.99902c11.333 21.333 22.166 43.333 32.499 66s18.833 43.667 25.5 63c10 2.66699 20.333 4.66699 31 6s21 2 31 2c20.667 0 38.667 -2.33301 54 -7l-57 -67.5z" />
    <glyph glyph-name="Acircumflex" unicode="&#xc2;" horiz-adv-x="708" 
d="M368 682l233.001 -527.003c12.667 -28 23 -49.167 31 -63.5s15.833 -24.166 23.5 -29.499s16.167 -9 25.5 -11c2.66699 -8.66699 4.5 -17.167 5.5 -25.5s1.5 -17.833 1.5 -28.5c-8.66699 0.666992 -21.167 1.16699 -37.5 1.5l-49.5 1
c-16.667 0.333008 -30.334 0.5 -41.001 0.5c-8 0 -18.167 -0.166992 -30.5 -0.5l-38.5 -1c-13.333 -0.333008 -25.666 -0.666016 -36.999 -0.999023s-20.333 -0.5 -27 -0.5c0 11.333 0.5 21.333 1.5 30s2.83301 16.667 5.5 24c26 4 41.333 10.833 46 20.5
s1 28.834 -11 57.501l-118 273c-12 26.667 -22 51.167 -30 73.5s-16 46.833 -24 73.5h16c-8 -27.333 -16 -52.666 -24 -75.999s-16.667 -46.666 -26 -69.999l-98 -254c-11.333 -31.333 -14.333 -54.833 -9 -70.5s20.666 -24.834 45.999 -27.501
c2.66699 -7.33301 4.5 -15.5 5.5 -24.5s1.5 -18.833 1.5 -29.5c-7.33301 0.666992 -16.833 1.16699 -28.5 1.5s-24 0.666016 -37 0.999023s-25.167 0.5 -36.5 0.5c-16.667 0 -33 -0.333008 -49 -1s-28.667 -1.33398 -38 -2.00098c0 9.33301 0.5 18.5 1.5 27.5
s3.16699 17.833 6.5 26.5c11.333 2 21 6.33301 29 13s16 17.334 24 32.001s17 34.667 27 60l209 521c8.66699 2 16.667 3.33301 24 4s16.333 1 27 1zM435.001 253.997l13.001 -51c-44.667 0 -91.834 -0.5 -141.501 -1.5s-96.5 -2.83301 -140.5 -5.5l16 58h253z
M209.002 727.997c-8.66699 2.66699 -15.665 8.3291 -20.998 16.9961s-9 16.334 -11 23.001c24 14.667 49 31.834 75 51.501s49 38.834 69 57.501c8 2.66699 16.667 4.33398 26 5.00098s18 1 26 1c17.333 -18.667 37.166 -38.167 59.499 -58.5s47.5 -40.833 75.5 -61.5
c-6 -8 -13.333 -15 -22 -21s-19.334 -10.333 -32.001 -13l-58 34c-21.333 12 -42 22.333 -62 31c-9.33301 -4 -22 -10.167 -38 -18.5l-48 -25c-16 -8.33301 -29 -15.833 -39 -22.5z" />
    <glyph glyph-name="Atilde" unicode="&#xc3;" horiz-adv-x="708" 
d="M368 682l233.001 -527.003c12.667 -28 23 -49.167 31 -63.5s15.833 -24.166 23.5 -29.499s16.167 -9 25.5 -11c2.66699 -8.66699 4.5 -17.167 5.5 -25.5s1.5 -17.833 1.5 -28.5c-8.66699 0.666992 -21.167 1.16699 -37.5 1.5l-49.5 1
c-16.667 0.333008 -30.334 0.5 -41.001 0.5c-8 0 -18.167 -0.166992 -30.5 -0.5l-38.5 -1c-13.333 -0.333008 -25.666 -0.666016 -36.999 -0.999023s-20.333 -0.5 -27 -0.5c0 11.333 0.5 21.333 1.5 30s2.83301 16.667 5.5 24c26 4 41.333 10.833 46 20.5
s1 28.834 -11 57.501l-118 273c-12 26.667 -22 51.167 -30 73.5s-16 46.833 -24 73.5h16c-8 -27.333 -16 -52.666 -24 -75.999s-16.667 -46.666 -26 -69.999l-98 -254c-11.333 -31.333 -14.333 -54.833 -9 -70.5s20.666 -24.834 45.999 -27.501
c2.66699 -7.33301 4.5 -15.5 5.5 -24.5s1.5 -18.833 1.5 -29.5c-7.33301 0.666992 -16.833 1.16699 -28.5 1.5s-24 0.666016 -37 0.999023s-25.167 0.5 -36.5 0.5c-16.667 0 -33 -0.333008 -49 -1s-28.667 -1.33398 -38 -2.00098c0 9.33301 0.5 18.5 1.5 27.5
s3.16699 17.833 6.5 26.5c11.333 2 21 6.33301 29 13s16 17.334 24 32.001s17 34.667 27 60l209 521c8.66699 2 16.667 3.33301 24 4s16.333 1 27 1zM435.001 253.997l13.001 -51c-44.667 0 -91.834 -0.5 -141.501 -1.5s-96.5 -2.83301 -140.5 -5.5l16 58h253z
M397.002 743.997c-14 0 -26.835 1.99902 -38.502 5.99902s-22.667 8.5 -33 13.5s-20.666 9.5 -30.999 13.5s-21.833 6 -34.5 6c-14 0 -26.833 -3.16699 -38.5 -9.5s-23.167 -15.5 -34.5 -27.5c-7.33301 6 -12.5 12.667 -15.5 20s-4.83301 16 -5.5 26
c19.333 26 39.833 43.833 61.5 53.5s41.834 14.5 60.501 14.5c19.333 0 36.333 -3.16699 51 -9.5l42.5 -19c13.667 -6.33301 27.5 -9.5 41.5 -9.5c11.333 0 21.833 2.83301 31.5 8.5s18.5 13.167 26.5 22.5c6.66699 -1.33301 13.667 -3.66602 21 -6.99902s13.333 -8 18 -14
c-16 -29.333 -34.5 -51.333 -55.5 -66s-43.5 -22 -67.5 -22z" />
    <glyph glyph-name="Adieresis" unicode="&#xc4;" horiz-adv-x="708" 
d="M368 682l233.001 -527.003c12.667 -28 23 -49.167 31 -63.5s15.833 -24.166 23.5 -29.499s16.167 -9 25.5 -11c2.66699 -8.66699 4.5 -17.167 5.5 -25.5s1.5 -17.833 1.5 -28.5c-8.66699 0.666992 -21.167 1.16699 -37.5 1.5l-49.5 1
c-16.667 0.333008 -30.334 0.5 -41.001 0.5c-8 0 -18.167 -0.166992 -30.5 -0.5l-38.5 -1c-13.333 -0.333008 -25.666 -0.666016 -36.999 -0.999023s-20.333 -0.5 -27 -0.5c0 11.333 0.5 21.333 1.5 30s2.83301 16.667 5.5 24c26 4 41.333 10.833 46 20.5
s1 28.834 -11 57.501l-118 273c-12 26.667 -22 51.167 -30 73.5s-16 46.833 -24 73.5h16c-8 -27.333 -16 -52.666 -24 -75.999s-16.667 -46.666 -26 -69.999l-98 -254c-11.333 -31.333 -14.333 -54.833 -9 -70.5s20.666 -24.834 45.999 -27.501
c2.66699 -7.33301 4.5 -15.5 5.5 -24.5s1.5 -18.833 1.5 -29.5c-7.33301 0.666992 -16.833 1.16699 -28.5 1.5s-24 0.666016 -37 0.999023s-25.167 0.5 -36.5 0.5c-16.667 0 -33 -0.333008 -49 -1s-28.667 -1.33398 -38 -2.00098c0 9.33301 0.5 18.5 1.5 27.5
s3.16699 17.833 6.5 26.5c11.333 2 21 6.33301 29 13s16 17.334 24 32.001s17 34.667 27 60l209 521c8.66699 2 16.667 3.33301 24 4s16.333 1 27 1zM435.001 253.997l13.001 -51c-44.667 0 -91.834 -0.5 -141.501 -1.5s-96.5 -2.83301 -140.5 -5.5l16 58h253z
M452.002 727.997c-24 0 -42.168 6.16699 -54.501 18.5s-18.5 28.5 -18.5 48.5c0 19.333 6.33301 34.333 19 45s29.334 16 50.001 16c20 0 36.667 -5.66699 50 -17s20 -26 20 -44c0 -16.667 -5 -32 -15 -46s-27 -21 -51 -21zM236.001 727.997
c-20.667 0 -37.5 5.66895 -50.5 17.002s-19.5 25.666 -19.5 42.999s5.33301 33 16 47s28 21 52 21s41.5 -6.33301 52.5 -19s16.5 -28.334 16.5 -47.001c0 -18 -6.33301 -32.833 -19 -44.5s-28.667 -17.5 -48 -17.5z" />
    <glyph glyph-name="Aring" unicode="&#xc5;" horiz-adv-x="708" 
d="M368 682l233.001 -527.003c12.667 -28 23 -49.167 31 -63.5s15.833 -24.166 23.5 -29.499s16.167 -9 25.5 -11c2.66699 -8.66699 4.5 -17.167 5.5 -25.5s1.5 -17.833 1.5 -28.5c-8.66699 0.666992 -21.167 1.16699 -37.5 1.5l-49.5 1
c-16.667 0.333008 -30.334 0.5 -41.001 0.5c-8 0 -18.167 -0.166992 -30.5 -0.5l-38.5 -1c-13.333 -0.333008 -25.666 -0.666016 -36.999 -0.999023s-20.333 -0.5 -27 -0.5c0 11.333 0.5 21.333 1.5 30s2.83301 16.667 5.5 24c26 4 41.333 10.833 46 20.5
s1 28.834 -11 57.501l-118 273c-12 26.667 -22 51.167 -30 73.5s-16 46.833 -24 73.5h16c-8 -27.333 -16 -52.666 -24 -75.999s-16.667 -46.666 -26 -69.999l-98 -254c-11.333 -31.333 -14.333 -54.833 -9 -70.5s20.666 -24.834 45.999 -27.501
c2.66699 -7.33301 4.5 -15.5 5.5 -24.5s1.5 -18.833 1.5 -29.5c-7.33301 0.666992 -16.833 1.16699 -28.5 1.5s-24 0.666016 -37 0.999023s-25.167 0.5 -36.5 0.5c-16.667 0 -33 -0.333008 -49 -1s-28.667 -1.33398 -38 -2.00098c0 9.33301 0.5 18.5 1.5 27.5
s3.16699 17.833 6.5 26.5c11.333 2 21 6.33301 29 13s16 17.334 24 32.001s17 34.667 27 60l209 521c8.66699 2 16.667 3.33301 24 4s16.333 1 27 1zM435.001 253.997l13.001 -51c-44.667 0 -91.834 -0.5 -141.501 -1.5s-96.5 -2.83301 -140.5 -5.5l16 58h253z
M338.002 719.997c-28 0 -52 7 -72 21s-30 33.333 -30 58c0 25.333 10.5 45.666 31.5 60.999s47.167 23 78.5 23c27.333 0 51.333 -6.16699 72 -18.5s31 -32.166 31 -59.499c0 -24.667 -10.5 -45 -31.5 -61s-47.5 -24 -79.5 -24zM347.002 755.997
c9.33301 0 17.832 3.66699 25.499 11s11.5 17.333 11.5 30c0 11.333 -3.5 23.166 -10.5 35.499s-18.5 18.5 -34.5 18.5c-10.667 0 -19.5 -4.16699 -26.5 -12.5s-10.5 -20.166 -10.5 -35.499c0 -13.333 3.83301 -24.5 11.5 -33.5s18.834 -13.5 33.501 -13.5z" />
    <glyph glyph-name="AE" unicode="&#xc6;" horiz-adv-x="940" 
d="M287 345l340.001 0.00195312c24 0 42.667 2.66699 56 8s22.5 13.666 27.5 24.999s7.5 26.333 7.5 45c10.667 3.33301 21 5.66602 31 6.99902s20.333 2 31 2c-0.666992 -8 -1.16699 -18 -1.5 -30s-0.666016 -25.167 -0.999023 -39.5s-0.5 -28.833 -0.5 -43.5
c0 -13.333 0.166992 -27.5 0.5 -42.5s0.666016 -29 0.999023 -42s0.833008 -23.5 1.5 -31.5c-10.667 0 -21.167 0.166992 -31.5 0.5s-19.5 2.16602 -27.5 5.49902c-1.33301 18.667 -4.5 34.334 -9.5 47.001s-14.333 22.167 -28 28.5s-34.5 9.5 -62.5 9.5
c-60.667 0 -113.834 -0.333008 -159.501 -1s-84.667 -1.66699 -117 -3s-59.833 -3.33301 -82.5 -6zM460.001 540.002c0 15.333 0.499023 29.834 1.49902 43.501s2.33301 28 4 43s4.16699 31.5 7.5 49.5h116v-521c0 -28.667 2.66699 -50.334 8 -65.001
s13.5 -24.167 24.5 -28.5s24.167 -6.5 39.5 -6.5l-3 -55h-74c-25.333 0 -50.166 -0.166992 -74.499 -0.5s-47 -0.666016 -68 -0.999023s-38.833 -0.5 -53.5 -0.5c0 10 0.666992 19.667 2 29s3.33301 17.333 6 24c17.333 2.66699 30.5 6.5 39.5 11.5s15.333 14.667 19 29
s5.5 35.166 5.5 62.499v386zM554 676.003c68 0 126.667 0.166016 176 0.499023s89.666 0.833008 120.999 1.5c1.33301 -26 4 -54.333 8 -85s8.33301 -56.667 13 -78c-4 -3.33301 -9.66699 -6.16602 -17 -8.49902s-15.166 -3.83301 -23.499 -4.5s-15.833 -1 -22.5 -1
c-2.66699 21.333 -8.5 41.5 -17.5 60.5s-24.333 34.333 -46 46s-52.5 17.5 -92.5 17.5h-108zM488 676.002l-18.5 -46.5c-5 -12.333 -10.667 -24.5 -17 -36.5l-25.5 -47l-60.5 -104.5l-64 -111.5l-57 -100l-39.5 -70c-13.333 -26 -21.166 -46.5 -23.499 -61.5
s0.5 -26.167 8.5 -33.5s20 -12.333 36 -15c3.33301 -7.33301 5.5 -15.333 6.5 -24s1.5 -18.334 1.5 -29.001c-15.333 1.33301 -33.166 2.16602 -53.499 2.49902s-38.833 0.5 -55.5 0.5c-10.667 -0 -23 -0.166992 -37 -0.5s-27.333 -0.666016 -40 -0.999023
s-22.334 -0.833008 -29.001 -1.5c0 8.66699 0.666992 18 2 28s3.33301 18.667 6 26c12.667 1.33301 23.834 4.66602 33.501 9.99902s20 15 31 29s24.5 34.667 40.5 62l227 392c15.333 26.667 20.166 45.834 14.499 57.501s-23.5 19.167 -53.5 22.5
c-2.66699 6 -4.66699 14.333 -6 25s-2 20.334 -2 29.001c17.333 0 36.666 -0.166992 57.999 -0.5l63 -1c20.667 -0.333008 38.667 -0.5 54 -0.5zM574 55.002l110.001 0.00195312c36 0 63.5 4.5 82.5 13.5s34.167 23 45.5 42s22.333 43.5 33 73.5
c12.667 -2.66699 24.5 -6.16699 35.5 -10.5s19.833 -9.83301 26.5 -16.5c-7.33301 -22.667 -13.5 -48.334 -18.5 -77.001s-9.16699 -56 -12.5 -82c-18.667 0 -40.834 0.166992 -66.501 0.5s-52.667 0.666016 -81 0.999023s-56 0.5 -83 0.5h-71.5v55z" />
    <glyph glyph-name="Ccedilla" unicode="&#xc7;" horiz-adv-x="647" 
d="M361 -9c-64 0 -120.503 14.833 -169.503 44.5s-87.333 71 -115 124s-41.5 113.833 -41.5 182.5c0 57.333 9.33301 107.333 28 150s44 78.334 76 107.001s68 50.167 108 64.5s81.667 21.5 125 21.5c40 0 78 -4.33301 114 -13s72 -21.667 108 -39
c-4.66699 -23.333 -7.66699 -48.166 -9 -74.499s-2 -53.166 -2 -80.499c-8.66699 -4 -19.167 -6.83301 -31.5 -8.5s-24.5 -2.5 -36.5 -2.5c-1.33301 43.333 -7.66602 77 -18.999 101s-27 40.667 -47 50s-43.333 14 -70 14c-37.333 0 -69.166 -7.33301 -95.499 -22
s-47.666 -34.334 -63.999 -59.001s-28.333 -52.667 -36 -84s-11.5 -64 -11.5 -98c0 -57.333 9.16699 -109.333 27.5 -156s45 -83.334 80 -110.001s78.167 -40 129.5 -40c28.667 0 58.334 4.66699 89.001 14s59.667 22.333 87 39c5.33301 -4 10 -9.83301 14 -17.5
s6.66699 -14.834 8 -21.501c-34.667 -27.333 -71.334 -48.5 -110.001 -63.5s-84 -22.5 -136 -22.5zM297.997 -242c-2.66699 5.33301 -4.50098 11.668 -5.50098 19.001s-1.5 13.666 -1.5 18.999c20 0 38 4.5 54 13.5s24 21.833 24 38.5
c0 14.667 -5.83301 26.334 -17.5 35.001s-26.5 13 -44.5 13c-5.33301 4.66699 -9.66602 10.5 -12.999 17.5s-5 14.833 -5 23.5l54 79h58l-47 -64c27.333 -4.66699 48.833 -15.334 64.5 -32.001s23.5 -36.667 23.5 -60c0 -22 -7 -40.667 -21 -56s-32 -26.833 -54 -34.5
s-45 -11.5 -69 -11.5z" />
    <glyph glyph-name="Egrave" unicode="&#xc8;" horiz-adv-x="615" 
d="M48 679c12 -0.666992 26.8311 -1.16895 44.498 -1.50195s36.334 -0.666016 56.001 -0.999023s38.5 -0.5 56.5 -0.5h45v-521c0 -26.667 2.33301 -47.167 7 -61.5s13.334 -24.333 26.001 -30s30.667 -8.5 54 -8.5l-14 -55h-67c-26 0 -52.667 -0.166992 -80 -0.5
s-52.5 -0.666016 -75.5 -0.999023s-40.5 -0.833008 -52.5 -1.5c0 11.333 0.333008 21.5 1 30.5s2.33398 16.833 5.00098 23.5c18 1.33301 31.833 4.83301 41.5 10.5s16.5 15.667 20.5 30s6 35.166 6 62.499v376c0 25.333 -2 44.333 -6 57s-10.833 21.834 -20.5 27.501
s-23.834 9.16699 -42.501 10.5c-2 6.66699 -3.33301 15.167 -4 25.5s-1 19.833 -1 28.5zM519.998 183.998c14 -2.66699 26.333 -6.16602 37 -10.499s19.334 -9.83301 26.001 -16.5c-7.33301 -22.667 -13.5 -48.167 -18.5 -76.5s-9.16699 -55.833 -12.5 -82.5
c-14.667 0.666992 -34.334 1 -59.001 1s-51.667 0.166992 -81 0.5s-59 0.5 -89 0.5l14 55h9c40 0 70.833 4.66699 92.5 14s38.5 23.666 50.5 42.999s22.333 43.333 31 72zM454.998 451.999c-0.666992 -16 -1.33398 -33.501 -2.00098 -52.501s-1 -38.5 -1 -58.5
c0 -20.667 0.333008 -41.334 1 -62.001s1.33398 -39 2.00098 -55c-12 0 -22.667 0.333008 -32 1s-18.333 2.33398 -27 5.00098c-2.66699 32.667 -11.167 54.667 -25.5 66s-40.166 17 -77.499 17h-67v53h67c38.667 0 65 5.33301 79 16s21.333 31.334 22 62.001
c9.33301 3.33301 19.166 5.5 29.499 6.5s20.833 1.5 31.5 1.5zM525.998 678.998c1.33301 -15.333 2.99805 -33.168 4.99805 -53.501s4.33301 -40.166 7 -59.499s5.66699 -36.333 9 -51c-7.33301 -4.66699 -16.166 -8.16699 -26.499 -10.5s-22.5 -3.5 -36.5 -3.5
c-2 21.333 -7.66699 41.5 -17 60.5s-24.666 34.333 -45.999 46s-52 17.5 -92 17.5h-108l26 51c51.333 0 95.333 0.166992 132 0.5s67 0.833008 91 1.5s42.667 1 56 1zM278.996 732.996c-18 24 -35.6689 46.165 -53.002 66.498s-35.666 40.166 -54.999 59.499
c14 6.66699 30.833 11.334 50.5 14.001s38.5 3.33398 56.5 2.00098l29 -65c10.667 -23.333 22.334 -46 35.001 -68c-8.66699 -3.33301 -18.167 -5.66602 -28.5 -6.99902s-21.833 -2 -34.5 -2z" />
    <glyph glyph-name="Eacute" unicode="&#xc9;" horiz-adv-x="615" 
d="M48 679c12 -0.666992 26.8311 -1.16895 44.498 -1.50195s36.334 -0.666016 56.001 -0.999023s38.5 -0.5 56.5 -0.5h45v-521c0 -26.667 2.33301 -47.167 7 -61.5s13.334 -24.333 26.001 -30s30.667 -8.5 54 -8.5l-14 -55h-67c-26 0 -52.667 -0.166992 -80 -0.5
s-52.5 -0.666016 -75.5 -0.999023s-40.5 -0.833008 -52.5 -1.5c0 11.333 0.333008 21.5 1 30.5s2.33398 16.833 5.00098 23.5c18 1.33301 31.833 4.83301 41.5 10.5s16.5 15.667 20.5 30s6 35.166 6 62.499v376c0 25.333 -2 44.333 -6 57s-10.833 21.834 -20.5 27.501
s-23.834 9.16699 -42.501 10.5c-2 6.66699 -3.33301 15.167 -4 25.5s-1 19.833 -1 28.5zM519.998 183.998c14 -2.66699 26.333 -6.16602 37 -10.499s19.334 -9.83301 26.001 -16.5c-7.33301 -22.667 -13.5 -48.167 -18.5 -76.5s-9.16699 -55.833 -12.5 -82.5
c-14.667 0.666992 -34.334 1 -59.001 1s-51.667 0.166992 -81 0.5s-59 0.5 -89 0.5l14 55h9c40 0 70.833 4.66699 92.5 14s38.5 23.666 50.5 42.999s22.333 43.333 31 72zM454.998 451.999c-0.666992 -16 -1.33398 -33.501 -2.00098 -52.501s-1 -38.5 -1 -58.5
c0 -20.667 0.333008 -41.334 1 -62.001s1.33398 -39 2.00098 -55c-12 0 -22.667 0.333008 -32 1s-18.333 2.33398 -27 5.00098c-2.66699 32.667 -11.167 54.667 -25.5 66s-40.166 17 -77.499 17h-67v53h67c38.667 0 65 5.33301 79 16s21.333 31.334 22 62.001
c9.33301 3.33301 19.166 5.5 29.499 6.5s20.833 1.5 31.5 1.5zM525.998 678.998c1.33301 -15.333 2.99805 -33.168 4.99805 -53.501s4.33301 -40.166 7 -59.499s5.66699 -36.333 9 -51c-7.33301 -4.66699 -16.166 -8.16699 -26.499 -10.5s-22.5 -3.5 -36.5 -3.5
c-2 21.333 -7.66699 41.5 -17 60.5s-24.666 34.333 -45.999 46s-52 17.5 -92 17.5h-108l26 51c51.333 0 95.333 0.166992 132 0.5s67 0.833008 91 1.5s42.667 1 56 1zM309.996 732.996c-12.667 0 -23.499 0.667969 -32.499 2.00098s-18.167 3.66602 -27.5 6.99902
c11.333 21.333 22.166 43.333 32.499 66s18.833 43.667 25.5 63c10 2.66699 20.333 4.66699 31 6s21 2 31 2c20.667 0 38.667 -2.33301 54 -7l-57 -67.5z" />
    <glyph glyph-name="Ecircumflex" unicode="&#xca;" horiz-adv-x="615" 
d="M48 679c12 -0.666992 26.8311 -1.16895 44.498 -1.50195s36.334 -0.666016 56.001 -0.999023s38.5 -0.5 56.5 -0.5h45v-521c0 -26.667 2.33301 -47.167 7 -61.5s13.334 -24.333 26.001 -30s30.667 -8.5 54 -8.5l-14 -55h-67c-26 0 -52.667 -0.166992 -80 -0.5
s-52.5 -0.666016 -75.5 -0.999023s-40.5 -0.833008 -52.5 -1.5c0 11.333 0.333008 21.5 1 30.5s2.33398 16.833 5.00098 23.5c18 1.33301 31.833 4.83301 41.5 10.5s16.5 15.667 20.5 30s6 35.166 6 62.499v376c0 25.333 -2 44.333 -6 57s-10.833 21.834 -20.5 27.501
s-23.834 9.16699 -42.501 10.5c-2 6.66699 -3.33301 15.167 -4 25.5s-1 19.833 -1 28.5zM519.998 183.998c14 -2.66699 26.333 -6.16602 37 -10.499s19.334 -9.83301 26.001 -16.5c-7.33301 -22.667 -13.5 -48.167 -18.5 -76.5s-9.16699 -55.833 -12.5 -82.5
c-14.667 0.666992 -34.334 1 -59.001 1s-51.667 0.166992 -81 0.5s-59 0.5 -89 0.5l14 55h9c40 0 70.833 4.66699 92.5 14s38.5 23.666 50.5 42.999s22.333 43.333 31 72zM454.998 451.999c-0.666992 -16 -1.33398 -33.501 -2.00098 -52.501s-1 -38.5 -1 -58.5
c0 -20.667 0.333008 -41.334 1 -62.001s1.33398 -39 2.00098 -55c-12 0 -22.667 0.333008 -32 1s-18.333 2.33398 -27 5.00098c-2.66699 32.667 -11.167 54.667 -25.5 66s-40.166 17 -77.499 17h-67v53h67c38.667 0 65 5.33301 79 16s21.333 31.334 22 62.001
c9.33301 3.33301 19.166 5.5 29.499 6.5s20.833 1.5 31.5 1.5zM525.998 678.998c1.33301 -15.333 2.99805 -33.168 4.99805 -53.501s4.33301 -40.166 7 -59.499s5.66699 -36.333 9 -51c-7.33301 -4.66699 -16.166 -8.16699 -26.499 -10.5s-22.5 -3.5 -36.5 -3.5
c-2 21.333 -7.66699 41.5 -17 60.5s-24.666 34.333 -45.999 46s-52 17.5 -92 17.5h-108l26 51c51.333 0 95.333 0.166992 132 0.5s67 0.833008 91 1.5s42.667 1 56 1zM161.996 727.996c-8.66699 2.66699 -15.665 8.3291 -20.998 16.9961s-9 16.334 -11 23.001
c24 14.667 49 31.834 75 51.501s49 38.834 69 57.501c8 2.66699 16.667 4.33398 26 5.00098s18 1 26 1c17.333 -18.667 37.166 -38.167 59.499 -58.5s47.5 -40.833 75.5 -61.5c-6 -8 -13.333 -15 -22 -21s-19.334 -10.333 -32.001 -13l-58 34c-21.333 12 -42 22.333 -62 31
c-9.33301 -4 -22 -10.167 -38 -18.5l-48 -25c-16 -8.33301 -29 -15.833 -39 -22.5z" />
    <glyph glyph-name="Edieresis" unicode="&#xcb;" horiz-adv-x="615" 
d="M48 679c12 -0.666992 26.8311 -1.16895 44.498 -1.50195s36.334 -0.666016 56.001 -0.999023s38.5 -0.5 56.5 -0.5h45v-521c0 -26.667 2.33301 -47.167 7 -61.5s13.334 -24.333 26.001 -30s30.667 -8.5 54 -8.5l-14 -55h-67c-26 0 -52.667 -0.166992 -80 -0.5
s-52.5 -0.666016 -75.5 -0.999023s-40.5 -0.833008 -52.5 -1.5c0 11.333 0.333008 21.5 1 30.5s2.33398 16.833 5.00098 23.5c18 1.33301 31.833 4.83301 41.5 10.5s16.5 15.667 20.5 30s6 35.166 6 62.499v376c0 25.333 -2 44.333 -6 57s-10.833 21.834 -20.5 27.501
s-23.834 9.16699 -42.501 10.5c-2 6.66699 -3.33301 15.167 -4 25.5s-1 19.833 -1 28.5zM519.998 183.998c14 -2.66699 26.333 -6.16602 37 -10.499s19.334 -9.83301 26.001 -16.5c-7.33301 -22.667 -13.5 -48.167 -18.5 -76.5s-9.16699 -55.833 -12.5 -82.5
c-14.667 0.666992 -34.334 1 -59.001 1s-51.667 0.166992 -81 0.5s-59 0.5 -89 0.5l14 55h9c40 0 70.833 4.66699 92.5 14s38.5 23.666 50.5 42.999s22.333 43.333 31 72zM454.998 451.999c-0.666992 -16 -1.33398 -33.501 -2.00098 -52.501s-1 -38.5 -1 -58.5
c0 -20.667 0.333008 -41.334 1 -62.001s1.33398 -39 2.00098 -55c-12 0 -22.667 0.333008 -32 1s-18.333 2.33398 -27 5.00098c-2.66699 32.667 -11.167 54.667 -25.5 66s-40.166 17 -77.499 17h-67v53h67c38.667 0 65 5.33301 79 16s21.333 31.334 22 62.001
c9.33301 3.33301 19.166 5.5 29.499 6.5s20.833 1.5 31.5 1.5zM525.998 678.998c1.33301 -15.333 2.99805 -33.168 4.99805 -53.501s4.33301 -40.166 7 -59.499s5.66699 -36.333 9 -51c-7.33301 -4.66699 -16.166 -8.16699 -26.499 -10.5s-22.5 -3.5 -36.5 -3.5
c-2 21.333 -7.66699 41.5 -17 60.5s-24.666 34.333 -45.999 46s-52 17.5 -92 17.5h-108l26 51c51.333 0 95.333 0.166992 132 0.5s67 0.833008 91 1.5s42.667 1 56 1zM405.996 727.996c-24 0 -42.168 6.16699 -54.501 18.5s-18.5 28.5 -18.5 48.5
c0 19.333 6.33301 34.333 19 45s29.334 16 50.001 16c20 0 36.667 -5.66699 50 -17s20 -26 20 -44c0 -16.667 -5 -32 -15 -46s-27 -21 -51 -21zM189.995 727.996c-20.667 0 -37.5 5.66895 -50.5 17.002s-19.5 25.666 -19.5 42.999s5.33301 33 16 47s28 21 52 21
s41.5 -6.33301 52.5 -19s16.5 -28.334 16.5 -47.001c0 -18 -6.33301 -32.833 -19 -44.5s-28.667 -17.5 -48 -17.5z" />
    <glyph glyph-name="Igrave" unicode="&#xcc;" horiz-adv-x="371" 
d="M122 530c0 25.333 -1.83105 44.3301 -5.49805 56.9971s-10.5 21.834 -20.5 27.501s-24 9.16699 -42 10.5c-2 6.66699 -3.5 14.834 -4.5 24.501s-1.5 19.5 -1.5 29.5c12 -0.666992 26 -1.16699 42 -1.5l49.5 -1c17 -0.333008 32.833 -0.5 47.5 -0.5
c15.333 0 31 0.166992 47 0.5l47 1c15.333 0.333008 29.666 0.833008 42.999 1.5c0 -10 -0.333008 -19.5 -1 -28.5s-2.66699 -17.5 -6 -25.5c-17.333 -1.33301 -31 -4.66602 -41 -9.99902s-16.833 -14.5 -20.5 -27.5s-5.5 -32.167 -5.5 -57.5v-384
c0 -24.667 1.83301 -43.667 5.5 -57s10.5 -22.666 20.5 -27.999s24 -8.66602 42 -9.99902c2 -6 3.5 -13.833 4.5 -23.5s1.5 -19.834 1.5 -30.501c-18.667 1.33301 -39.5 2.16602 -62.5 2.49902s-46.5 0.5 -70.5 0.5c-24.667 -0 -49.834 -0.166992 -75.501 -0.5
s-48.167 -1.16602 -67.5 -2.49902c0 10 0.5 19.833 1.5 29.5s2.5 17.834 4.5 24.501c18 1.33301 32 4.66602 42 9.99902s16.833 14.666 20.5 27.999s5.5 32.333 5.5 57v384zM169.002 732.997c-18 24 -35.6689 46.165 -53.002 66.498s-35.666 40.166 -54.999 59.499
c14 6.66699 30.833 11.334 50.5 14.001s38.5 3.33398 56.5 2.00098l29 -65c10.667 -23.333 22.334 -46 35.001 -68c-8.66699 -3.33301 -18.167 -5.66602 -28.5 -6.99902s-21.833 -2 -34.5 -2z" />
    <glyph glyph-name="Iacute" unicode="&#xcd;" horiz-adv-x="371" 
d="M122 530c0 25.333 -1.83105 44.3301 -5.49805 56.9971s-10.5 21.834 -20.5 27.501s-24 9.16699 -42 10.5c-2 6.66699 -3.5 14.834 -4.5 24.501s-1.5 19.5 -1.5 29.5c12 -0.666992 26 -1.16699 42 -1.5l49.5 -1c17 -0.333008 32.833 -0.5 47.5 -0.5
c15.333 0 31 0.166992 47 0.5l47 1c15.333 0.333008 29.666 0.833008 42.999 1.5c0 -10 -0.333008 -19.5 -1 -28.5s-2.66699 -17.5 -6 -25.5c-17.333 -1.33301 -31 -4.66602 -41 -9.99902s-16.833 -14.5 -20.5 -27.5s-5.5 -32.167 -5.5 -57.5v-384
c0 -24.667 1.83301 -43.667 5.5 -57s10.5 -22.666 20.5 -27.999s24 -8.66602 42 -9.99902c2 -6 3.5 -13.833 4.5 -23.5s1.5 -19.834 1.5 -30.501c-18.667 1.33301 -39.5 2.16602 -62.5 2.49902s-46.5 0.5 -70.5 0.5c-24.667 -0 -49.834 -0.166992 -75.501 -0.5
s-48.167 -1.16602 -67.5 -2.49902c0 10 0.5 19.833 1.5 29.5s2.5 17.834 4.5 24.501c18 1.33301 32 4.66602 42 9.99902s16.833 14.666 20.5 27.999s5.5 32.333 5.5 57v384zM200.002 732.997c-12.667 0 -23.499 0.667969 -32.499 2.00098s-18.167 3.66602 -27.5 6.99902
c11.333 21.333 22.166 43.333 32.499 66s18.833 43.667 25.5 63c10 2.66699 20.333 4.66699 31 6s21 2 31 2c20.667 0 38.667 -2.33301 54 -7l-57 -67.5z" />
    <glyph glyph-name="Icircumflex" unicode="&#xce;" horiz-adv-x="371" 
d="M122 530c0 25.333 -1.83105 44.3301 -5.49805 56.9971s-10.5 21.834 -20.5 27.501s-24 9.16699 -42 10.5c-2 6.66699 -3.5 14.834 -4.5 24.501s-1.5 19.5 -1.5 29.5c12 -0.666992 26 -1.16699 42 -1.5l49.5 -1c17 -0.333008 32.833 -0.5 47.5 -0.5
c15.333 0 31 0.166992 47 0.5l47 1c15.333 0.333008 29.666 0.833008 42.999 1.5c0 -10 -0.333008 -19.5 -1 -28.5s-2.66699 -17.5 -6 -25.5c-17.333 -1.33301 -31 -4.66602 -41 -9.99902s-16.833 -14.5 -20.5 -27.5s-5.5 -32.167 -5.5 -57.5v-384
c0 -24.667 1.83301 -43.667 5.5 -57s10.5 -22.666 20.5 -27.999s24 -8.66602 42 -9.99902c2 -6 3.5 -13.833 4.5 -23.5s1.5 -19.834 1.5 -30.501c-18.667 1.33301 -39.5 2.16602 -62.5 2.49902s-46.5 0.5 -70.5 0.5c-24.667 -0 -49.834 -0.166992 -75.501 -0.5
s-48.167 -1.16602 -67.5 -2.49902c0 10 0.5 19.833 1.5 29.5s2.5 17.834 4.5 24.501c18 1.33301 32 4.66602 42 9.99902s16.833 14.666 20.5 27.999s5.5 32.333 5.5 57v384zM81.002 708.997c-9.33301 4 -17.334 9.33203 -24.001 15.999s-12 14.667 -16 24
c20.667 18 41.334 37.5 62.001 58.5l59 60.5c10 2.66699 19.667 4.66699 29 6s17.333 2 24 2l54 -66l61 -70c-6 -7.33301 -14.5 -13.666 -25.5 -18.999s-21.833 -8.66602 -32.5 -9.99902c-15.333 13.333 -31.5 26.166 -48.5 38.499s-34.167 23.833 -51.5 34.5
c-16.667 -11.333 -32.5 -23.333 -47.5 -36s-29.5 -25.667 -43.5 -39z" />
    <glyph glyph-name="Idieresis" unicode="&#xcf;" horiz-adv-x="371" 
d="M122 530c0 25.333 -1.83105 44.3301 -5.49805 56.9971s-10.5 21.834 -20.5 27.501s-24 9.16699 -42 10.5c-2 6.66699 -3.5 14.834 -4.5 24.501s-1.5 19.5 -1.5 29.5c12 -0.666992 26 -1.16699 42 -1.5l49.5 -1c17 -0.333008 32.833 -0.5 47.5 -0.5
c15.333 0 31 0.166992 47 0.5l47 1c15.333 0.333008 29.666 0.833008 42.999 1.5c0 -10 -0.333008 -19.5 -1 -28.5s-2.66699 -17.5 -6 -25.5c-17.333 -1.33301 -31 -4.66602 -41 -9.99902s-16.833 -14.5 -20.5 -27.5s-5.5 -32.167 -5.5 -57.5v-384
c0 -24.667 1.83301 -43.667 5.5 -57s10.5 -22.666 20.5 -27.999s24 -8.66602 42 -9.99902c2 -6 3.5 -13.833 4.5 -23.5s1.5 -19.834 1.5 -30.501c-18.667 1.33301 -39.5 2.16602 -62.5 2.49902s-46.5 0.5 -70.5 0.5c-24.667 -0 -49.834 -0.166992 -75.501 -0.5
s-48.167 -1.16602 -67.5 -2.49902c0 10 0.5 19.833 1.5 29.5s2.5 17.834 4.5 24.501c18 1.33301 32 4.66602 42 9.99902s16.833 14.666 20.5 27.999s5.5 32.333 5.5 57v384zM98.002 727.997c-20.667 0 -37.333 5.66797 -50 17.001s-19 24.666 -19 39.999
c0 16.667 5.33301 31.5 16 44.5s27.667 19.5 51 19.5c24 0 41.5 -6 52.5 -18s16.5 -26.667 16.5 -44c0 -16.667 -6.33301 -30.667 -19 -42s-28.667 -17 -48 -17zM276.003 728.998c-23.333 0 -41.167 6 -53.5 18s-18.5 27 -18.5 45c0 18.667 6.33301 32.834 19 42.501
s29.334 14.5 50.001 14.5c20 0 36.5 -5.33301 49.5 -16s19.5 -24.334 19.5 -41.001c0 -16 -4.83301 -30.5 -14.5 -43.5s-26.834 -19.5 -51.501 -19.5z" />
    <glyph glyph-name="Eth" unicode="&#xd0;" horiz-adv-x="733" 
d="M48 -3c0 11.333 0.330078 21.499 0.99707 30.499s2.33398 16.833 5.00098 23.5c18 1.33301 31.833 4.83301 41.5 10.5s16.5 15.667 20.5 30s6 35.166 6 62.499v376c0 25.333 -1.83301 44.333 -5.5 57s-10.5 21.834 -20.5 27.501s-24 9.16699 -42 10.5
c-2 6.66699 -3.5 15.167 -4.5 25.5s-1.5 19.833 -1.5 28.5c12.667 -0.666992 28.334 -1.16699 47.001 -1.5l58.5 -1c20.333 -0.333008 39.5 -0.5 57.5 -0.5c17.333 0 35.5 0.333008 54.5 1s38.5 1 58.5 1c36.667 0 73 -2.5 109 -7.5s69.833 -14 101.5 -27
s59.834 -31.667 84.501 -56s44 -55.333 58 -93s21 -84.167 21 -139.5c0 -54 -6.66699 -100.333 -20 -139s-31 -71 -53 -97s-46.667 -47 -74 -63s-55 -28 -83 -36s-54.667 -13.333 -80 -16s-47 -4 -65 -4h-67c-26 0 -52.667 -0.166992 -80 -0.5
s-52.5 -0.666016 -75.5 -0.999023s-40.5 -0.833008 -52.5 -1.5zM336.997 54.999c29.333 0 57.5 4 84.5 12s51.167 22.333 72.5 43s38.166 49.5 50.499 86.5s18.5 84.5 18.5 142.5c0 54 -7 99.5 -21 136.5s-32.667 66.667 -56 89s-50 38.5 -80 48.5s-61 15 -93 15
c-13.333 0 -27.5 -1.33301 -42.5 -4s-25.167 -6 -30.5 -10l10 32v-491c0 -26.667 2.33301 -47.167 7 -61.5s13.334 -24.333 26.001 -30s30.667 -8.5 54 -8.5zM33.4961 305.999c0 11.333 0.990234 23.167 2.97363 35.5s4.3916 21.833 7.22461 28.5h124.946h57.7988h135.146
c0 -12.667 -0.708008 -24 -2.125 -34s-4.1084 -19.667 -8.0752 -29c-16.4326 0.666992 -31.0234 1 -43.7725 1h-38.6738h-45.0488h-56.9482h-40.7988c-13.0332 0 -26.7744 -0.166992 -41.2246 -0.5c-14.4492 -0.333008 -31.5898 -0.833008 -51.4229 -1.5z" />
    <glyph glyph-name="Ntilde" unicode="&#xd1;" horiz-adv-x="732" 
d="M570 -7l-455.999 601.998c-8 10.667 -16.333 17.834 -25 21.501s-22 6.5 -40 8.5c-2.66699 8.66699 -4.33398 17.667 -5.00098 27s-1 18.333 -1 27c7.33301 -0.666992 16.5 -1.16699 27.5 -1.5l34.5 -1c12 -0.333008 22.333 -0.5 31 -0.5c14 0 28.5 0.333008 43.5 1
s27.833 1.33398 38.5 2.00098l364 -488zM43.001 -3.00195c0 11.333 0.332031 21.333 0.999023 30s2.33398 16.667 5.00098 24c18.667 1.33301 33.334 6.16602 44.001 14.499s18.167 23 22.5 44s6.5 50.167 6.5 87.5v415l58 -3v-412c0 -37.333 2 -66.5 6 -87.5
s11.333 -35.667 22 -44s25.667 -13.166 45 -14.499c2 -7.33301 3.33301 -15.5 4 -24.5s1 -18.833 1 -29.5c-9.33301 0.666992 -20.333 1.16699 -33 1.5l-38 1c-12.667 0.333008 -24.334 0.5 -35.001 0.5c-10 0 -22 -0.166992 -36 -0.5l-41 -1
c-13.333 -0.333008 -24 -0.833008 -32 -1.5zM570 -7.00195l0.00195312 129.001v360c0 37.333 -2 66 -6 86s-11.333 34.167 -22 42.5s-26 13.166 -46 14.499c-2.66699 11.333 -4.33398 21.166 -5.00098 29.499s-1 16.5 -1 24.5c10 -0.666992 21.167 -1.16699 33.5 -1.5l38 -1
c13 -0.333008 24.5 -0.5 34.5 -0.5c15.333 0 32.333 0.333008 51 1s34.667 1.33398 48 2.00098c0 -8.66699 -0.333008 -17.5 -1 -26.5s-2.33398 -18.167 -5.00098 -27.5c-15.333 -0.666992 -27.5 -5.16699 -36.5 -13.5s-15.167 -22.5 -18.5 -42.5s-5 -49 -5 -87v-482
c-8 -2.66699 -17 -4.5 -27 -5.5s-20.667 -1.5 -32 -1.5zM425.002 743.999c-14 0 -26.835 1.99902 -38.502 5.99902s-22.667 8.5 -33 13.5s-20.666 9.5 -30.999 13.5s-21.833 6 -34.5 6c-14 0 -26.833 -3.16699 -38.5 -9.5s-23.167 -15.5 -34.5 -27.5
c-7.33301 6 -12.5 12.667 -15.5 20s-4.83301 16 -5.5 26c19.333 26 39.833 43.833 61.5 53.5s41.834 14.5 60.501 14.5c19.333 0 36.333 -3.16699 51 -9.5l42.5 -19c13.667 -6.33301 27.5 -9.5 41.5 -9.5c11.333 0 21.833 2.83301 31.5 8.5s18.5 13.167 26.5 22.5
c6.66699 -1.33301 13.667 -3.66602 21 -6.99902s13.333 -8 18 -14c-16 -29.333 -34.5 -51.333 -55.5 -66s-43.5 -22 -67.5 -22z" />
    </font>
</defs>
</svg>
