<svg id="Icons" enable-background="new 0 0 512 512" height="512" viewBox="0 0 512 512" width="512" xmlns="http://www.w3.org/2000/svg"><g><g fill="#22bce0"><path d="m326.911 249.153 3.765-3.725h.001l14.643-14.488-18.409-18.212-18.408 18.212 2.436 2.411z"/><path d="m307.475 238.47-3.089 32.969 18.206-18.012z"/><path d="m292.09 402.704 30.502-30.179-25.328-25.058z"/><path d="m302.875 287.578-4.029 43.001 23.746-23.494z"/><path d="m333.679 304.663-2.449 2.422 21.303 21.077 2.443 2.417-4.028-43.001z"/><path d="m326.911 311.359-28.752 28.447 2.247 2.223 26.505 26.223 2.79-2.76 25.962-25.686z"/><path d="m361.732 402.704-5.174-55.237-21.539 21.311-3.789 3.747 28.002 27.705z"/><path d="m330.283 299.477 19.426-19.221-22.798-22.556-22.798 22.556 1.812 1.793 20.986 20.763z"/><path d="m317.544 130.982-1.849 19.736-.063.676h22.559l-.064-.676-1.849-19.736z"/><path d="m113.244 396.071c-3.568 0-7.642-1.436-11.359-3.757-3.788-2.366-7.206-5.651-9.34-9.287l-12.527-21.345c-.616 1.25-1.603 2.283-2.825 2.946v9.41 34.133h104.992v-12.1z"/><path d="m344.793 221.873-.821-8.759-1.48-15.802-8.594 8.502-2.668 2.64 13.154 13.014z"/><path d="m311.33 197.312-2.301 24.561 13.563-13.419z"/><path d="m349.436 271.439-3.088-32.969-10.798 10.683-4.32 4.274 14.702 14.546z"/><path d="m312.078 189.505 1.583 1.566 13.25 13.109 4.002-3.959 10.831-10.716c0-.006-.002-.012-.002-.018 0-.029.008-.055.008-.084l-2.422-25.859h-24.835l-2.422 25.859c.001.029.008.055.008.084.001.006-.001.012-.001.018z"/><path d="m295.203 408.17h63.416l-31.708-31.371z"/><path d="m70.795 408.17v-43.542c-2.097-1.137-3.521-3.358-3.521-5.911 0-3.712 3.009-6.721 6.721-6.721.118 0 .233.011.35.018l-17.542-29.891c-2.134-3.636-2.571-6.921-1.56-9.287.993-2.322 3.381-3.758 6.949-3.758h41.115 37.854 2.647c3.568 0 7.642 1.436 11.359 3.758 3.788 2.365 7.206 5.651 9.34 9.287l17.934 30.559c.89-.435 1.886-.686 2.943-.686.344 0 .678.034 1.008.083 3.232.487 5.713 3.269 5.713 6.637 0 2.285-1.143 4.301-2.886 5.515l11.03 18.795c2.134 3.636 2.572 6.921 1.56 9.287-.993 2.322-3.381 3.757-6.949 3.757h-6.277v12.1h94.278l16.165-172.56h-14.314v4.487 2.081c0 2.396-1.943 4.339-4.339 4.339-2.397 0-4.339-1.943-4.339-4.339v-6.568h-4.472c-2.397 0-4.339-1.943-4.339-4.339s1.943-4.339 4.339-4.339h4.472v-6.568c0-2.396 1.943-4.339 4.339-4.339 2.397 0 4.339 1.943 4.339 4.339v2.321 4.248h15.127l.05-.537 3.051-32.568h-14.337v4.28 2.289c0 2.396-1.943 4.339-4.339 4.339-2.397 0-4.339-1.943-4.339-4.339v-6.569h-4.472c-2.397 0-4.339-1.943-4.339-4.339s1.943-4.339 4.339-4.339h4.472v-6.568c0-2.396 1.943-4.339 4.339-4.339 2.397 0 4.339 1.943 4.339 4.339v3.207 3.361h15.15l.027-.286 1.997-21.317h-7.865c-3.355 0-6.075-2.72-6.075-6.075s2.72-6.075 6.075-6.075h2.611 6.392l.063-.676 1.849-19.736h-3.84c-3.355 0-6.075-2.72-6.075-6.075s2.72-6.075 6.075-6.075h2.168 39.512 2.168c3.355 0 6.075 2.72 6.075 6.075s-2.72 6.075-6.075 6.075h-3.84l1.849 19.736.063.676h6.392 2.611c3.355 0 6.075 2.719 6.075 6.075s-2.72 6.075-6.075 6.075h-7.865l1.987 21.215.036.388h15.15v-5.749-.819c0-2.396 1.942-4.339 4.339-4.339s4.339 1.943 4.339 4.339v6.568h4.472c2.397 0 4.339 1.943 4.339 4.339s-1.943 4.339-4.339 4.339h-4.472v6.569c0 2.396-1.943 4.339-4.339 4.339s-4.339-1.943-4.339-4.339v-3.083-3.486h-14.337l3.045 32.509.056.597h15.127v-4.447-2.122c0-2.396 1.942-4.339 4.339-4.339s4.339 1.943 4.339 4.339v6.568h4.472c2.397 0 4.339 1.943 4.339 4.339s-1.942 4.339-4.339 4.339h-4.472v6.568c0 2.396-1.942 4.339-4.339 4.339s-4.339-1.943-4.339-4.339v-3.708-2.86h-14.314l16.165 172.56h90.909c26.125-35.285 43.384-77.521 48.514-123.426-36.714-4.822-74.907-15.793-115.599-40.48-1.653-1.002-2.18-3.155-1.177-4.808 1.002-1.651 3.155-2.181 4.808-1.177 39.942 24.231 76.698 34.953 112.641 39.633.613-7.225.944-14.53.944-21.913 0-4.156-.108-8.286-.303-12.393-38.307-4.458-78.184-15.272-120.802-41.127-1.653-1.002-2.18-3.155-1.177-4.808 1.002-1.651 3.155-2.181 4.808-1.177 41.467 25.157 79.496 35.751 116.75 40.142-9.899-132.34-120.406-236.637-255.276-236.637-48.554 0-93.95 13.519-132.632 36.995-.023.154-.033.31-.029.472.004.167.021.342.049.528.229 1.487.945 2.06 3.67 3.678 2.969 1.763 7.454 4.427 8.422 10.717.967 6.29-2.512 10.178-4.814 12.751-2.113 2.362-2.624 3.124-2.396 4.61.417 2.714-1.445 5.252-4.158 5.67-2.714.417-5.252-1.445-5.67-4.159-.967-6.29 2.512-10.178 4.814-12.751 2.113-2.362 2.624-3.123 2.396-4.61-.229-1.487-.945-2.06-3.67-3.678-2.411-1.432-5.823-3.458-7.538-7.54-7.495 4.984-14.719 10.343-21.631 16.068 1.04.69 2.052 1.583 2.993 2.756 3.983 4.964 2.914 10.07 2.207 13.45-.649 3.102-.711 4.017.23 5.19 1.718 2.142 1.375 5.271-.767 6.989s-5.271 1.375-6.989-.767c-3.983-4.963-2.914-10.07-2.207-13.449.649-3.102.711-4.017-.23-5.19-.838-1.044-1.658-1.268-4.06-1.332-7.595 6.895-14.774 14.238-21.495 21.991 1.111.111 2.279.372 3.51.851 5.931 2.308 7.559 7.264 8.636 10.544.989 3.011 1.393 3.834 2.794 4.379 2.559.996 3.826 3.877 2.831 6.436-.996 2.559-3.877 3.827-6.436 2.831-5.931-2.308-7.559-7.264-8.636-10.544-.989-3.011-1.393-3.834-2.794-4.379-1.402-.546-2.257-.211-5.021 1.339-1.629.914-3.712 2.075-6.217 2.588-7.61 10.135-14.485 20.854-20.547 32.076 1.821 1.005 3.27 2.295 4.442 3.343 2.067 1.849 2.908 2.472 4.083 2.445.168-.004.342-.021.528-.049 1.487-.229 2.06-.945 3.678-3.67 1.763-2.969 4.427-7.455 10.717-8.422s10.178 2.512 12.751 4.814c2.362 2.113 3.123 2.624 4.61 2.396 2.714-.417 5.252 1.444 5.67 4.158.417 2.714-1.445 5.252-4.158 5.67-6.29.967-10.178-2.512-12.751-4.813-2.362-2.113-3.123-2.625-4.61-2.396s-2.06.945-3.678 3.67c-1.763 2.969-4.427 7.455-10.717 8.422-.406.062-.801.104-1.187.131-5.599.39-9.157-2.792-11.564-4.945-1.029-.92-1.747-1.522-2.361-1.906-16.685 33.993-26.068 72.219-26.068 112.642 0 56.994 18.634 109.631 50.13 152.17zm44.309-218.363c-2.307 5.931-7.264 7.559-10.544 8.636-3.011.989-3.834 1.393-4.38 2.794-.546 1.402-.211 2.256 1.34 5.021 1.689 3.011 4.242 7.561 1.935 13.492s-7.264 7.559-10.544 8.637c-3.011.989-3.835 1.393-4.38 2.795-.996 2.559-3.877 3.827-6.436 2.831-2.558-.996-3.825-3.876-2.831-6.435v-.001s0-.001.001-.001c2.308-5.93 7.264-7.559 10.544-8.636 3.011-.989 3.835-1.393 4.38-2.795.546-1.402.211-2.256-1.34-5.021-1.689-3.011-4.242-7.561-1.935-13.492s7.264-7.559 10.544-8.636c3.011-.989 3.834-1.393 4.38-2.794.996-2.559 3.877-3.827 6.436-2.831 2.558.995 3.825 3.877 2.83 6.436zm19.609 51.524c-.967-6.29 2.511-10.179 4.813-12.752 1.849-2.067 2.472-2.908 2.445-4.083-.004-.167-.021-.342-.049-.528-.229-1.487-.945-2.06-3.67-3.678-2.969-1.763-7.454-4.427-8.422-10.717-.967-6.29 2.512-10.178 4.814-12.751 2.113-2.362 2.624-3.124 2.396-4.61-.417-2.714 1.445-5.252 4.159-5.67 2.714-.417 5.252 1.445 5.67 4.159.967 6.29-2.512 10.178-4.814 12.751-2.113 2.362-2.624 3.123-2.396 4.61.229 1.487.945 2.06 3.67 3.678 2.969 1.763 7.454 4.427 8.422 10.717.062.406.105.801.132 1.188.39 5.599-2.792 9.157-4.945 11.564-2.113 2.362-2.624 3.124-2.396 4.61v.001c.417 2.714-1.445 5.252-4.158 5.67-2.714.417-5.252-1.444-5.669-4.158-.002 0-.002 0-.002-.001zm42.547-47.097c.942 1.174 1.849 1.311 5.018 1.35 3.452.042 8.669.106 12.652 5.07s2.915 10.071 2.208 13.45c-.649 3.102-.711 4.018.23 5.191 0 0 0 0 .001.001 1.718 2.142 1.375 5.271-.767 6.989-2.141 1.718-5.27 1.375-6.988-.766 0 0-.001 0-.001-.001 0 0 0 0-.001-.001-3.982-4.964-2.914-10.07-2.207-13.449.568-2.715.686-3.755.076-4.759-.087-.143-.189-.286-.307-.433-.942-1.173-1.849-1.311-5.018-1.35-3.452-.042-8.669-.106-12.652-5.07s-2.914-10.07-2.207-13.45c.649-3.102.711-4.017-.23-5.19-1.718-2.142-1.375-5.271.767-6.989s5.271-1.375 6.989.767c3.983 4.963 2.914 10.07 2.207 13.449-.649 3.103-.711 4.018.23 5.191zm32.475-70.255c1.487-.229 2.06-.945 3.678-3.67 1.763-2.969 4.427-7.455 10.717-8.421.786-.121 1.535-.172 2.248-.166 4.994.049 8.252 2.964 10.503 4.979 2.362 2.112 3.124 2.624 4.61 2.396h.001c2.714-.417 5.252 1.445 5.67 4.159.417 2.713-1.444 5.251-4.157 5.669h-.001s0 0-.001 0c-6.29.967-10.178-2.511-12.751-4.813-2.067-1.849-2.908-2.472-4.083-2.445-.168.004-.342.021-.528.049-1.487.229-2.06.945-3.678 3.67-1.763 2.969-4.427 7.455-10.717 8.422s-10.178-2.512-12.751-4.813c-2.362-2.113-3.123-2.625-4.61-2.396-2.714.417-5.252-1.444-5.67-4.158s1.445-5.252 4.158-5.67c6.29-.967 10.178 2.512 12.751 4.813 2.363 2.112 3.125 2.624 4.611 2.395zm-18.255 24.554c5.931 2.308 7.559 7.264 8.636 10.544.989 3.011 1.393 3.834 2.794 4.379 1.402.546 2.257.212 5.021-1.339 3.011-1.689 7.561-4.242 13.492-1.935s7.559 7.264 8.637 10.544c.989 3.01 1.393 3.834 2.794 4.38h.001c2.559.996 3.826 3.877 2.831 6.437-.995 2.559-3.877 3.826-6.435 2.831h-.001s0 0-.001 0c-5.931-2.308-7.559-7.264-8.637-10.544-.864-2.631-1.282-3.592-2.31-4.157-.148-.082-.309-.155-.486-.224-1.402-.545-2.257-.211-5.021 1.34-3.011 1.689-7.561 4.242-13.492 1.935-5.931-2.308-7.559-7.264-8.636-10.544-.989-3.011-1.393-3.834-2.794-4.38-2.559-.996-3.826-3.877-2.831-6.436.997-2.559 3.879-3.826 6.438-2.831zm85.535 106.998c.544-1.854 2.49-2.918 4.344-2.372 1.854.545 2.917 2.49 2.372 4.345-18.014 61.331-62.611 66.467-102.999 66.467-1.933 0-3.5-1.567-3.5-3.5s1.567-3.5 3.5-3.5c39.586 0 79.629-4.744 96.283-61.44zm-74.687-186.823c4.964-3.983 10.071-2.915 13.45-2.208 3.102.649 4.018.711 5.191-.23h.001c2.142-1.718 5.271-1.375 6.989.767 1.718 2.141 1.375 5.27-.765 6.988 0 0-.001 0-.001.001 0 0-.001 0-.001.001-4.964 3.981-10.07 2.914-13.449 2.207-2.715-.568-3.755-.687-4.759-.076-.143.087-.286.189-.433.307-1.174.942-1.311 1.849-1.35 5.018-.042 3.453-.106 8.669-5.07 12.652-4.964 3.982-10.07 2.914-13.449 2.207-3.102-.649-4.017-.711-5.19.23-2.142 1.718-5.271 1.375-6.989-.767s-1.375-5.271.767-6.989c4.964-3.982 10.07-2.914 13.449-2.207 3.102.649 4.017.711 5.19-.23 1.174-.941 1.311-1.848 1.35-5.018.041-3.454.105-8.671 5.069-12.653zm-52.121 3.449c2.307-5.931 7.264-7.559 10.544-8.636 3.011-.989 3.834-1.393 4.38-2.794.546-1.402.211-2.256-1.34-5.021-1.689-3.011-4.242-7.561-1.935-13.492s7.264-7.559 10.544-8.636c3.011-.989 3.835-1.394 4.38-2.795v-.001c.996-2.559 3.877-3.826 6.436-2.831 2.558.995 3.825 3.876 2.831 6.435v.001s0 .001-.001.001c-2.308 5.93-7.264 7.559-10.544 8.636-3.011.989-3.835 1.393-4.38 2.795-.546 1.402-.211 2.256 1.34 5.021 1.689 3.011 4.242 7.561 1.935 13.492s-7.264 7.559-10.544 8.636c-3.011.989-3.834 1.393-4.38 2.794-.996 2.559-3.877 3.827-6.436 2.831s-3.826-3.877-2.83-6.436zm-24.554 13.281c25.153-3.867 48.678 13.388 52.546 38.541s-13.388 48.678-38.541 52.546c-25.153 3.867-48.678-13.388-52.546-38.541s13.388-48.678 38.541-52.546zm-87.534 102.5c4.964-3.982 10.07-2.914 13.45-2.208 2.715.568 3.755.687 4.758.076.143-.087.286-.189.433-.307 1.174-.942 1.311-1.849 1.35-5.018.042-3.453.106-8.669 5.07-12.652 4.964-3.982 10.07-2.914 13.449-2.207 3.102.649 4.017.711 5.19-.23 2.142-1.718 5.271-1.375 6.989.767s1.375 5.271-.767 6.989c-4.964 3.982-10.07 2.914-13.449 2.207-3.102-.649-4.017-.711-5.19.23-1.174.941-1.311 1.849-1.35 5.018-.042 3.452-.106 8.669-5.07 12.652s-10.07 2.915-13.45 2.208c-3.102-.648-4.018-.711-5.191.23 0 0-.001 0-.001.001-2.142 1.718-5.271 1.375-6.989-.767s-1.375-5.27.766-6.989c.001.001.001.001.002 0z"/></g><path d="m309.28 496.11c-1.933 0-3.5-1.567-3.5-3.5s1.567-3.5 3.5-3.5h49.444c.713 0 1.375.216 1.928.582 30.482-13.671 57.806-33.125 80.568-56.976h-26.98c-1.933 0-3.5-1.567-3.5-3.5s1.567-3.5 3.5-3.5h33.396c4.993-5.634 9.747-11.485 14.234-17.546h-90.909l.336 3.591c.223 2.386-1.53 4.501-3.915 4.725-.138.013-.275.02-.41.02-2.214 0-4.104-1.687-4.316-3.935l-.042-.448-3.995-3.953h-63.416l-3.995 3.953-.042.448c-.211 2.249-2.102 3.935-4.316 3.935-.136 0-.272-.006-.41-.02-2.386-.223-4.138-2.339-3.916-4.725l.336-3.591h-94.278v3.25 1.886c0 1.767-1.432 3.199-3.199 3.199s-3.199-1.432-3.199-3.199v-5.136h-104.991v3.25 1.886c0 1.767-1.432 3.199-3.199 3.199s-3.199-1.432-3.199-3.199v-5.136h-20.665c21.546 29.102 49.117 53.466 80.867 71.267h25.186c1.933 0 3.5 1.567 3.5 3.5s-1.567 3.5-3.5 3.5h-11.81c33.738 16.374 71.608 25.563 111.627 25.563 31.281 0 61.248-5.62 88.957-15.89zm98.889-49.897c1.933 0 3.5 1.567 3.5 3.5s-1.567 3.5-3.5 3.5h-49.444c-1.933 0-3.5-1.567-3.5-3.5s1.567-3.5 3.5-3.5zm-90.66-18.505h49.444c1.933 0 3.5 1.567 3.5 3.5s-1.567 3.5-3.5 3.5h-49.444c-1.933 0-3.5-1.567-3.5-3.5s1.567-3.5 3.5-3.5zm-144.832 0h49.444c1.933 0 3.5 1.567 3.5 3.5s-1.567 3.5-3.5 3.5h-49.444c-1.933 0-3.5-1.567-3.5-3.5s1.567-3.5 3.5-3.5zm-47.286 5.009h-49.445c-1.933 0-3.5-1.567-3.5-3.5s1.567-3.5 3.5-3.5h49.444c1.933 0 3.5 1.567 3.5 3.5s-1.566 3.5-3.499 3.5zm6.07 20.496c-1.933 0-3.5-1.567-3.5-3.5s1.567-3.5 3.5-3.5h49.444c1.933 0 3.5 1.567 3.5 3.5s-1.567 3.5-3.5 3.5zm98.889 42.897h-49.444c-1.933 0-3.5-1.567-3.5-3.5s1.567-3.5 3.5-3.5h49.444c1.933 0 3.5 1.567 3.5 3.5s-1.567 3.5-3.5 3.5zm5.65-27.089h-49.444c-1.933 0-3.5-1.567-3.5-3.5s1.567-3.5 3.5-3.5h49.444c1.933 0 3.5 1.567 3.5 3.5s-1.567 3.5-3.5 3.5zm56.037-17.808h-49.444c-1.933 0-3.5-1.567-3.5-3.5s1.567-3.5 3.5-3.5h49.444c1.933 0 3.5 1.567 3.5 3.5s-1.567 3.5-3.5 3.5zm8.093 14.308c0-1.933 1.567-3.5 3.5-3.5h49.444c1.933 0 3.5 1.567 3.5 3.5s-1.567 3.5-3.5 3.5h-49.444c-1.933 0-3.5-1.568-3.5-3.5z" fill="#53b976"/><path d="m236 462.021h-49.444c-1.933 0-3.5 1.567-3.5 3.5s1.567 3.5 3.5 3.5h49.444c1.933 0 3.5-1.567 3.5-3.5s-1.567-3.5-3.5-3.5z" fill="#78c795"/><path d="m184.406 449.713c0-1.933-1.567-3.5-3.5-3.5h-49.444c-1.933 0-3.5 1.567-3.5 3.5s1.567 3.5 3.5 3.5h49.444c1.933 0 3.5-1.567 3.5-3.5z" fill="#78c795"/><path d="m292.037 444.213h-49.444c-1.933 0-3.5 1.567-3.5 3.5s1.567 3.5 3.5 3.5h49.444c1.933 0 3.5-1.567 3.5-3.5s-1.567-3.5-3.5-3.5z" fill="#78c795"/><path d="m172.677 434.708h49.444c1.933 0 3.5-1.567 3.5-3.5s-1.567-3.5-3.5-3.5h-49.444c-1.933 0-3.5 1.567-3.5 3.5s1.567 3.5 3.5 3.5z" fill="#78c795"/><path d="m125.391 425.717h-49.445c-1.933 0-3.5 1.567-3.5 3.5s1.567 3.5 3.5 3.5h49.444c1.933 0 3.5-1.567 3.5-3.5s-1.566-3.5-3.499-3.5z" fill="#78c795"/><path d="m159.684 482.938c0-1.933-1.567-3.5-3.5-3.5h-25.186c4.383 2.457 8.839 4.798 13.376 7h11.81c1.933 0 3.5-1.568 3.5-3.5z" fill="#78c795"/><path d="m230.35 489.11h-49.444c-1.933 0-3.5 1.567-3.5 3.5s1.567 3.5 3.5 3.5h49.444c1.933 0 3.5-1.567 3.5-3.5s-1.567-3.5-3.5-3.5z" fill="#78c795"/><path d="m356.574 465.521c0-1.933-1.567-3.5-3.5-3.5h-49.444c-1.933 0-3.5 1.567-3.5 3.5s1.567 3.5 3.5 3.5h49.444c1.933 0 3.5-1.568 3.5-3.5z" fill="#78c795"/><path d="m355.225 449.713c0 1.933 1.567 3.5 3.5 3.5h49.444c1.933 0 3.5-1.567 3.5-3.5s-1.567-3.5-3.5-3.5h-49.444c-1.933 0-3.5 1.567-3.5 3.5z" fill="#78c795"/><path d="m317.509 434.708h49.444c1.933 0 3.5-1.567 3.5-3.5s-1.567-3.5-3.5-3.5h-49.444c-1.933 0-3.5 1.567-3.5 3.5s1.567 3.5 3.5 3.5z" fill="#78c795"/><path d="m410.74 429.217c0 1.933 1.567 3.5 3.5 3.5h26.981c2.185-2.29 4.316-4.631 6.416-7h-33.397c-1.933 0-3.5 1.567-3.5 3.5z" fill="#78c795"/><path d="m309.28 489.11c-1.933 0-3.5 1.567-3.5 3.5s1.567 3.5 3.5 3.5h35.677c5.317-1.971 10.552-4.111 15.696-6.418-.553-.366-1.215-.582-1.928-.582z" fill="#78c795"/><path d="m184.089 412.102c.419.082.852.127 1.295.127.463 0 .915-.047 1.352-.136v-16.022h-2.646v16.031z" fill="#334353"/><path d="m186.736 396.071v16.022c.656-.134 1.276-.363 1.847-.673v-3.25-12.1h-1.847z" fill="#3e4e60"/><path d="m185.384 412.229c-.443 0-.875-.046-1.295-.127v-16.031h-1.904v12.1 5.136c0 1.767 1.432 3.199 3.199 3.199s3.199-1.432 3.199-3.199v-1.886c-.571.31-1.192.539-1.847.673-.437.089-.889.135-1.352.135z" fill="#2e3140"/><path d="m183.04 353.703c.669-.593 1.445-1.066 2.312-1.356-.01-.003-.019-.009-.029-.012-.001 0-.002 0-.003 0v-.002c.001 0 .002.001.003.001.345-.114.703-.198 1.07-.255-.33-.05-.664-.083-1.008-.083-1.057 0-2.054.251-2.943.686z" fill="#2d2c33"/><path d="m189.938 358.717c0-2.965-1.922-5.478-4.586-6.37-.866.29-1.643.764-2.312 1.356l5.405 9.21c.926-1.151 1.493-2.603 1.493-4.196z" fill="#2e3140"/><path d="m185.319 352.335.003-.001-.003-.001z" fill="#3e4e60"/><path d="m185.352 352.347c2.664.893 4.586 3.405 4.586 6.37 0 1.593-.566 3.045-1.493 4.196l.774 1.318c1.743-1.214 2.886-3.229 2.886-5.515 0-3.368-2.48-6.15-5.713-6.637-.367.057-.725.141-1.07.255.01.004.019.009.03.013z" fill="#3e4e60"/><path d="m145.376 311.735c.861 1.468.37 2.657-1.098 2.657h4.585c.558 0 1.164.15 1.769.394 1.385.557 2.759 1.654 3.509 2.933l2.584 4.403c-2.134-3.636-2.571-6.921-1.56-9.286-3.718-2.322-7.791-3.758-11.359-3.758h-2.647c1.468 0 3.356 1.19 4.217 2.657z" fill="#c1b7d3"/><path d="m64.582 322.123 29.214 49.778c-.75-1.279-.665-2.376.067-2.933.319-.243.749-.393 1.307-.393h8.454 12.357c.558 0 1.164.15 1.769.393 1.385.557 2.759 1.654 3.509 2.933l9.114 15.53c.75 1.278.665 2.376-.067 2.933-.319.243-.749.393-1.307.393h-12.357-8.454c-.558 0-1.164-.15-1.769-.393-1.385-.557-2.759-1.654-3.509-2.933l-6.383-10.875 3.798 6.472c2.134 3.636 2.571 6.921 1.56 9.287 3.718 2.322 7.791 3.757 11.359 3.757h68.94 1.904 2.646 1.847 6.277c3.568 0 5.956-1.436 6.949-3.757-3.788-2.365-7.206-5.65-9.34-9.286l2.584 4.403c.75 1.279.665 2.376-.067 2.933-.319.243-.749.393-1.307.393h-8.454-12.357c-.558 0-1.164-.15-1.769-.393-1.385-.557-2.759-1.654-3.509-2.933l-9.114-15.53c-.75-1.279-.665-2.376.067-2.933.319-.243.749-.393 1.307-.393h12.357 8.454c.558 0 1.164.15 1.769.393 1.385.557 2.758 1.654 3.509 2.932l-6.785-11.561c.75 1.278.664 2.375-.067 2.932-.319.243-.749.394-1.307.394h-8.454-12.354c-.558 0-1.164-.151-1.769-.394-1.385-.557-2.759-1.654-3.509-2.933l-9.114-15.529c-.75-1.279-.665-2.376.067-2.933.319-.243.749-.394 1.307-.394h12.357 8.454c.558 0 1.164.15 1.769.394 1.385.556 2.758 1.653 3.509 2.932l-6.785-11.561c.75 1.278.664 2.375-.067 2.932-.319.243-.749.394-1.307.394h-8.454-12.357c-.558 0-1.164-.15-1.769-.394-1.385-.557-2.759-1.654-3.509-2.933l-9.114-15.529c-.75-1.279-.665-2.376.067-2.933.319-.243.749-.394 1.307-.394h-3.076-5.378-3.076c.558 0 1.164.15 1.769.394 1.385.557 2.759 1.654 3.509 2.933l9.114 15.529c.75 1.279.665 2.376-.067 2.933-.319.243-.749.394-1.307.394h-8.454-3.902-8.454c-.558 0-1.164-.15-1.769-.394-1.385-.557-2.759-1.654-3.509-2.933l-9.114-15.529c-.75-1.279-.665-2.376.067-2.933.319-.243.749-.394 1.307-.394h8.454 2.258c-1.468 0-3.355-1.189-4.217-2.657-.861-1.467-.37-2.657 1.098-2.657h-41.115c-3.568 0-5.956 1.436-6.949 3.758 3.788 2.366 7.206 5.652 9.34 9.288zm36.16 41.543h-8.454c-.558 0-1.164-.151-1.769-.394-1.385-.557-2.759-1.654-3.509-2.933l-9.114-15.529c-.75-1.279-.665-2.376.067-2.933.319-.243.749-.394 1.307-.394h8.454 12.357c.558 0 1.164.15 1.769.394 1.385.557 2.759 1.654 3.509 2.933l9.114 15.529c.75 1.279.665 2.376-.067 2.933-.319.243-.749.394-1.307.394zm61.971 23.765c.75 1.279.665 2.376-.067 2.933-.319.243-.749.393-1.307.393h-8.454-3.902-8.454c-.558 0-1.164-.15-1.769-.393-1.385-.557-2.759-1.654-3.509-2.933l-9.114-15.53c-.75-1.279-.665-2.376.067-2.933.319-.243.749-.393 1.307-.393h8.454 3.902 8.454c.558 0 1.164.15 1.769.393 1.385.557 2.759 1.654 3.509 2.933zm-42.648-45.947h3.902 8.454c.558 0 1.164.15 1.769.394 1.385.557 2.759 1.654 3.509 2.933l9.114 15.529c.75 1.279.665 2.376-.067 2.933-.319.243-.749.394-1.307.394h-8.454-3.902-8.454c-.558 0-1.164-.151-1.769-.394-1.385-.557-2.759-1.654-3.509-2.933l-9.114-15.529c-.75-1.279-.665-2.376.067-2.933.319-.243.749-.394 1.307-.394zm-56.694-27.091h8.454 12.357c.558 0 1.164.15 1.769.394 1.385.557 2.759 1.654 3.509 2.933l9.114 15.529c.75 1.279.665 2.376-.067 2.933-.319.243-.749.394-1.307.394h-12.357-8.454c-.558 0-1.164-.15-1.769-.394-1.385-.557-2.759-1.654-3.509-2.933l-9.114-15.529c-.75-1.279-.665-2.376.067-2.933.32-.244.749-.394 1.307-.394z" fill="#c1b7d3"/><path d="m80.715 358.717c0 1.065-.255 2.07-.696 2.965l12.527 21.345c2.134 3.636 5.552 6.921 9.34 9.287 1.011-2.366.574-5.651-1.56-9.287l-3.798-6.472-2.731-4.654-29.214-49.778c-2.134-3.636-5.552-6.921-9.34-9.287-1.011 2.365-.574 5.651 1.56 9.287l17.542 29.891c.222.011.442.033.658.066 3.231.487 5.712 3.269 5.712 6.637z" fill="#a583bb"/><path d="m156.726 322.122 6.53 11.126v.001l6.785 11.561 9.114 15.529 6.785 11.561 6.53 11.126c2.134 3.636 5.552 6.921 9.34 9.286 1.011-2.366.574-5.651-1.56-9.287l-11.03-18.795-.774-1.318-5.405-9.21-.599-1.021-17.934-30.559c-2.134-3.636-5.552-6.921-9.34-9.287-1.013 2.366-.576 5.651 1.558 9.287z" fill="#ebd9ea"/><path d="m102.208 311.735c.861 1.468 2.749 2.657 4.217 2.657h1.644 8.454 3.076 5.378 3.076 12.357 3.869c1.468 0 1.959-1.189 1.098-2.657-.861-1.467-2.749-2.657-4.217-2.657h-37.854c-1.468 0-1.96 1.19-1.098 2.657z" fill="#fff"/><path d="m65.573 317.719 9.114 15.529c.75 1.279.665 2.376-.067 2.933.604.243 1.211.394 1.769.394h8.454 12.357c.558 0 .988-.15 1.307-.394-1.385-.557-2.759-1.654-3.509-2.933l-9.114-15.529c-.75-1.279-.665-2.376.067-2.933-.604-.243-1.211-.394-1.769-.394h-12.356-8.454c-.558 0-.988.15-1.307.394 1.384.557 2.758 1.654 3.508 2.933z" fill="#2e3140"/><path d="m74.687 333.248-9.114-15.529c-.75-1.279-2.124-2.376-3.509-2.933-.732.557-.817 1.654-.067 2.933l9.114 15.529c.75 1.279 2.124 2.376 3.509 2.933.732-.557.818-1.654.067-2.933z" fill="#3e4e60"/><path d="m85.884 317.719 9.114 15.529c.75 1.279 2.124 2.376 3.509 2.933.732-.557.817-1.654.067-2.933l-9.114-15.529c-.75-1.279-2.124-2.376-3.509-2.933-.732.557-.818 1.654-.067 2.933z" fill="#151516"/><path d="m106.424 314.393h-2.258-8.454c-.558 0-.988.15-1.307.394 1.385.557 2.759 1.654 3.509 2.933l9.114 15.529c.75 1.279.665 2.376-.067 2.933.604.243 1.211.394 1.769.394h8.454 3.902 8.454c.558 0 .988-.15 1.307-.394-1.385-.557-2.759-1.654-3.509-2.933l-9.114-15.529c-.75-1.279-.665-2.376.067-2.933-.604-.243-1.211-.394-1.769-.394h-8.454z" fill="#2e3140"/><path d="m107.028 333.248-9.114-15.529c-.75-1.279-2.124-2.376-3.509-2.933-.732.557-.817 1.654-.067 2.933l9.114 15.529c.75 1.279 2.124 2.376 3.509 2.933.732-.557.818-1.654.067-2.933z" fill="#3e4e60"/><path d="m118.225 317.719 9.114 15.529c.75 1.279 2.124 2.376 3.509 2.933.732-.557.818-1.654.067-2.933l-9.114-15.529c-.75-1.279-2.124-2.376-3.509-2.933-.732.557-.818 1.654-.067 2.933z" fill="#151516"/><path d="m159.679 333.248-9.114-15.529c-.75-1.279-.665-2.376.067-2.933-.604-.243-1.211-.394-1.769-.394h-4.585-3.869-12.357c-.558 0-.988.15-1.307.394 1.385.557 2.759 1.654 3.509 2.933l9.114 15.529c.75 1.279.665 2.376-.067 2.933.604.243 1.211.394 1.769.394h12.357 8.454c.558 0 .988-.15 1.307-.394-1.384-.557-2.758-1.654-3.509-2.933z" fill="#2e3140"/><path d="m139.369 333.248-9.114-15.529c-.75-1.279-2.124-2.376-3.509-2.933-.732.557-.818 1.654-.067 2.933l9.114 15.529c.75 1.279 2.124 2.376 3.509 2.933.731-.557.817-1.654.067-2.933z" fill="#3e4e60"/><path d="m156.726 322.122-2.584-4.403c-.75-1.279-2.124-2.376-3.509-2.933-.732.557-.818 1.654-.067 2.933l9.114 15.529c.75 1.279 2.124 2.376 3.509 2.933.732-.557.817-1.653.067-2.932 0 0 0 0 0-.001z" fill="#151516"/><path d="m110.897 360.339-9.114-15.529c-.75-1.279-.665-2.376.067-2.933-.604-.243-1.211-.394-1.769-.394h-12.356-8.455c-.558 0-.988.15-1.307.394 1.385.557 2.759 1.654 3.509 2.933l9.114 15.529c.75 1.279.665 2.376-.067 2.933.604.243 1.211.394 1.769.394h8.454 12.357c.558 0 .988-.151 1.307-.394-1.385-.557-2.759-1.654-3.509-2.933z" fill="#2e3140"/><path d="m90.586 360.339-9.114-15.529c-.75-1.279-2.124-2.376-3.509-2.933-.732.557-.818 1.654-.067 2.933l9.114 15.529c.75 1.279 2.124 2.376 3.509 2.933.732-.557.818-1.654.067-2.933z" fill="#3e4e60"/><path d="m101.783 344.81 9.114 15.529c.75 1.279 2.124 2.376 3.509 2.933.732-.557.818-1.654.067-2.933l-9.114-15.529c-.75-1.279-2.124-2.376-3.509-2.933-.732.557-.817 1.654-.067 2.933z" fill="#151516"/><path d="m113.813 344.81 9.114 15.529c.75 1.279.665 2.376-.067 2.933.604.243 1.211.394 1.769.394h8.454 3.902 8.454c.558 0 .988-.151 1.307-.394-1.385-.557-2.759-1.654-3.509-2.933l-9.114-15.529c-.75-1.279-.665-2.376.067-2.933-.604-.243-1.211-.394-1.769-.394h-8.454-3.902-8.454c-.558 0-.988.15-1.307.394 1.385.557 2.759 1.654 3.509 2.933z" fill="#2e3140"/><path d="m122.927 360.339-9.114-15.529c-.75-1.279-2.124-2.376-3.509-2.933-.732.557-.817 1.654-.067 2.933l9.114 15.529c.75 1.279 2.124 2.376 3.509 2.933.732-.557.818-1.654.067-2.933z" fill="#3e4e60"/><path d="m134.124 344.81 9.114 15.529c.75 1.279 2.124 2.376 3.509 2.933.732-.557.817-1.654.067-2.933l-9.114-15.529c-.75-1.279-2.124-2.376-3.509-2.933-.732.557-.818 1.654-.067 2.933z" fill="#151516"/><path d="m175.578 360.339-9.114-15.529c-.75-1.279-.665-2.376.067-2.933-.604-.243-1.211-.394-1.769-.394h-8.454-12.357c-.558 0-.988.15-1.307.394 1.385.557 2.759 1.654 3.509 2.933l9.114 15.529c.75 1.279.665 2.376-.067 2.933.604.243 1.211.394 1.769.394h12.357 8.454c.558 0 .988-.151 1.307-.394-1.384-.557-2.758-1.654-3.509-2.933z" fill="#2e3140"/><path d="m155.268 360.339-9.114-15.529c-.75-1.279-2.124-2.376-3.509-2.933-.732.557-.817 1.654-.067 2.933l9.114 15.529c.75 1.279 2.124 2.376 3.509 2.933.732-.557.817-1.654.067-2.933z" fill="#3e4e60"/><path d="m170.041 344.81c-.751-1.279-2.124-2.376-3.509-2.933-.732.557-.818 1.654-.067 2.933l9.114 15.529c.75 1.279 2.124 2.376 3.509 2.933.732-.557.817-1.654.067-2.932z" fill="#151516"/><path d="m97.371 371.901 9.114 15.53c.75 1.278.665 2.376-.067 2.933.604.243 1.211.393 1.769.393h8.454 12.357c.558 0 .988-.15 1.307-.393-1.385-.557-2.759-1.654-3.509-2.933l-9.114-15.53c-.75-1.279-.665-2.376.067-2.933-.604-.243-1.211-.393-1.769-.393h-12.357-8.454c-.558 0-.988.15-1.307.393 1.385.557 2.759 1.654 3.509 2.933z" fill="#2e3140"/><path d="m106.418 390.363c.732-.557.817-1.654.067-2.933l-9.114-15.53c-.75-1.279-2.124-2.376-3.509-2.933-.732.557-.818 1.654-.067 2.933l2.731 4.654 6.383 10.875c.751 1.28 2.124 2.378 3.509 2.934z" fill="#3e4e60"/><path d="m117.682 371.901 9.114 15.53c.75 1.278 2.124 2.376 3.509 2.933.732-.557.818-1.654.067-2.933l-9.114-15.53c-.75-1.279-2.124-2.376-3.509-2.933-.732.557-.817 1.654-.067 2.933z" fill="#151516"/><path d="m159.137 387.431-9.114-15.53c-.75-1.279-.665-2.376.067-2.933-.604-.243-1.211-.393-1.769-.393h-8.454-3.902-8.454c-.558 0-.988.15-1.307.393 1.385.557 2.759 1.654 3.509 2.933l9.114 15.53c.75 1.279.665 2.376-.067 2.933.604.243 1.211.393 1.769.393h8.454 3.902 8.454c.558 0 .988-.15 1.307-.393-1.385-.557-2.759-1.655-3.509-2.933z" fill="#2e3140"/><path d="m138.826 387.431-9.114-15.53c-.75-1.279-2.124-2.376-3.509-2.933-.732.557-.818 1.654-.067 2.933l9.114 15.53c.75 1.279 2.124 2.376 3.509 2.933.732-.557.818-1.655.067-2.933z" fill="#3e4e60"/><path d="m150.09 368.968c-.732.557-.817 1.654-.067 2.933l9.114 15.53c.75 1.279 2.124 2.376 3.509 2.933.732-.557.818-1.654.067-2.933l-9.114-15.53c-.75-1.279-2.124-2.376-3.509-2.933z" fill="#151516"/><path d="m191.478 387.431-9.114-15.53c-.75-1.279-.665-2.376.067-2.933-.604-.243-1.211-.393-1.769-.393h-8.454-12.357c-.558 0-.988.15-1.307.393 1.385.557 2.759 1.654 3.509 2.933l9.114 15.53c.75 1.278.665 2.376-.067 2.933.604.243 1.211.393 1.769.393h12.357 8.454c.558 0 .988-.15 1.307-.393-1.385-.557-2.759-1.655-3.509-2.933z" fill="#2e3140"/><path d="m171.167 387.431-9.114-15.53c-.75-1.279-2.124-2.376-3.509-2.933-.732.557-.817 1.654-.067 2.933l9.114 15.53c.75 1.278 2.124 2.376 3.509 2.933.731-.557.817-1.655.067-2.933z" fill="#3e4e60"/><path d="m185.94 371.901c-.751-1.279-2.124-2.376-3.509-2.933-.732.557-.817 1.654-.067 2.933l9.114 15.53c.75 1.279 2.124 2.376 3.509 2.933.732-.557.817-1.654.067-2.933l-2.584-4.403z" fill="#151516"/><path d="m72.699 374.719v37.383c.419.082.852.127 1.295.127.463 0 .915-.047 1.352-.136v-37.383c-.437.089-.889.136-1.352.136-.443.001-.876-.045-1.295-.127z" fill="#334353"/><path d="m77.193 374.038c-.571.31-1.192.539-1.847.673v37.383c.656-.134 1.276-.363 1.847-.673v-3.25z" fill="#3e4e60"/><path d="m73.994 412.229c-.443 0-.875-.046-1.295-.127v-37.383c.419.082.852.127 1.295.127.463 0 .915-.047 1.352-.136.656-.134 1.276-.363 1.847-.673v-9.41c-.669.363-1.409.607-2.191.726-.33.05-.664.083-1.008.083-1.158 0-2.248-.293-3.199-.809v43.542 5.136c0 1.767 1.432 3.199 3.199 3.199s3.199-1.432 3.199-3.199v-1.886c-.571.31-1.192.539-1.847.673-.437.091-.889.137-1.352.137z" fill="#2e3140"/><path d="m73.994 365.437c.344 0 .678-.034 1.008-.083-.367-.058-.725-.141-1.07-.255.01-.003.019-.009.029-.012-2.664-.893-4.586-3.405-4.586-6.37s1.922-5.478 4.586-6.37c-.01-.003-.019-.009-.029-.012-.001 0-.002 0-.003 0v-.002c.001 0 .002.001.003.001.345-.114.703-.198 1.07-.255-.216-.033-.435-.055-.658-.066-.117-.006-.232-.018-.35-.018-3.712 0-6.721 3.009-6.721 6.721 0 2.553 1.424 4.774 3.521 5.911.952.517 2.042.81 3.2.81z" fill="#2d2c33"/><path d="m78.548 358.717c0-2.965-1.922-5.478-4.586-6.37-2.664.893-4.586 3.405-4.586 6.37s1.922 5.477 4.586 6.37c2.664-.893 4.586-3.406 4.586-6.37z" fill="#2e3140"/><path d="m73.929 352.335.003-.001-.003-.001z" fill="#3e4e60"/><path d="m75.002 352.08c-.367.057-.725.141-1.07.255.01.003.019.009.029.012 2.664.893 4.586 3.405 4.586 6.37 0 2.964-1.922 5.477-4.586 6.37-.01.003-.019.009-.029.012.345.114.703.197 1.07.255.782-.118 1.522-.363 2.191-.726 1.222-.663 2.209-1.696 2.825-2.946.442-.896.696-1.9.696-2.965.001-3.368-2.48-6.15-5.712-6.637z" fill="#3e4e60"/><path d="m180.731 316.971c-1.933 0-3.5 1.567-3.5 3.5s1.567 3.5 3.5 3.5c40.388 0 84.985-5.136 102.999-66.467.545-1.854-.517-3.8-2.372-4.345-1.854-.546-3.8.518-4.344 2.372-16.653 56.696-56.696 61.44-96.283 61.44z" fill="#fad98f"/><path d="m317.544 130.982h18.735l1.849 19.736h8.717l-1.849-19.736h3.84c3.355 0 6.075-2.72 6.075-6.075s-2.72-6.075-6.075-6.075h-2.168c.998.498 1.69 1.518 1.69 2.709 0 1.677-1.36 3.038-3.037 3.038h-36.817c-1.678 0-3.037-1.36-3.037-3.038 0-1.191.692-2.211 1.69-2.709h-2.168c-3.355 0-6.075 2.72-6.075 6.075s2.72 6.075 6.075 6.075h3.84l-1.849 19.736h8.717z" fill="#2d2c33"/><path d="m369.11 235.61v2.86 3.708c0 2.396 1.942 4.339 4.339 4.339s4.339-1.943 4.339-4.339v-6.568h4.472c2.397 0 4.339-1.943 4.339-4.339s-1.942-4.339-4.339-4.339h-4.472v-6.568c0-2.396-1.942-4.339-4.339-4.339s-4.339 1.943-4.339 4.339v2.122 4.447 5.286c-.084.007-.164.025-.249.025h-13.979c-1.678 0-3.037-1.36-3.037-3.038 0-1.342.876-2.467 2.083-2.87l-3.045-32.509h14.337v3.486 3.083c0 2.396 1.942 4.339 4.339 4.339s4.339-1.943 4.339-4.339v-6.569h4.472c2.397 0 4.339-1.943 4.339-4.339s-1.943-4.339-4.339-4.339h-4.472v-6.568c0-2.396-1.943-4.339-4.339-4.339s-4.339 1.943-4.339 4.339v.819 5.749 5.342h-13.809c-1.678 0-3.037-1.36-3.037-3.038 0-1.179.679-2.189 1.66-2.693l-1.987-21.215h7.865c3.355 0 6.075-2.72 6.075-6.075s-2.72-6.075-6.075-6.075h-2.612c.695.557 1.148 1.402 1.148 2.361 0 1.677-1.36 3.038-3.037 3.038h-48.999c-1.678 0-3.038-1.36-3.038-3.038 0-.959.454-1.804 1.148-2.361h-2.611c-3.355 0-6.075 2.719-6.075 6.075s2.72 6.075 6.075 6.075h7.865l-1.997 21.317c.879.532 1.472 1.488 1.472 2.591 0 1.677-1.36 3.038-3.037 3.038h-13.611v-5.342-3.361-3.207c0-2.396-1.943-4.339-4.339-4.339-2.397 0-4.339 1.943-4.339 4.339v6.568h-4.472c-2.397 0-4.339 1.943-4.339 4.339s1.943 4.339 4.339 4.339h4.472v6.569c0 2.396 1.943 4.339 4.339 4.339 2.397 0 4.339-1.943 4.339-4.339v-2.289-4.28h14.337l-3.051 32.568c1.109.453 1.891 1.539 1.891 2.81 0 1.677-1.36 3.038-3.037 3.038h-13.979c-.018 0-.034-.005-.052-.005v-5.306-4.248-2.321c0-2.396-1.943-4.339-4.339-4.339-2.397 0-4.339 1.943-4.339 4.339v6.568h-4.472c-2.397 0-4.339 1.943-4.339 4.339s1.943 4.339 4.339 4.339h4.472v6.568c0 2.396 1.943 4.339 4.339 4.339 2.397 0 4.339-1.943 4.339-4.339v-2.081-4.487h14.314l-16.165 172.56-.336 3.591c-.223 2.386 1.53 4.501 3.916 4.725.138.013.275.02.41.02 2.214 0 4.105-1.687 4.316-3.935l.042-.448 3.995-3.953 31.708-31.372 31.708 31.372 3.995 3.953.042.448c.211 2.249 2.102 3.935 4.316 3.935.136 0 .272-.006.41-.02 2.386-.223 4.138-2.339 3.915-4.725l-.336-3.591-16.165-172.56h14.313zm-54.616-72.066h24.835l2.422 25.859c-.001.029-.008.055-.008.084 0 .006.002.012.002.018l-10.831 10.716-4.002 3.959 4.319 4.273 2.668-2.64 8.594-8.502 1.48 15.802.82 8.758-.409-.405c-.504.332-1.086.499-1.667.499-.777 0-1.555-.297-2.148-.89l-26.404-26.404c-.977-.976-1.136-2.448-.504-3.601l-1.583-1.566c0-.006.002-.012.002-.018 0-.029-.008-.055-.008-.084zm-3.164 33.768 11.262 11.142-13.562 13.418zm15.581 15.416 18.409 18.213-14.643 14.488-3.765 3.725 4.319 4.273 4.319-4.273 10.798-10.683 3.088 32.969-3.504-3.466c-.574.509-1.287.774-2.007.774-.777 0-1.555-.296-2.148-.89l-30.556-30.556c-1.079-1.079-1.165-2.761-.282-3.95l-2.436-2.411zm-19.436 25.742 15.117 14.957-18.206 18.012zm-4.6 49.108 19.717 19.508-23.746 23.494zm-10.785 115.126 5.174-55.237 25.328 25.059zm37.611-37.212-2.79 2.76 4.319 4.273 3.788-3.748 21.539-21.311 5.174 55.237-2.5-2.474c-.499.321-1.07.485-1.642.485-.777 0-1.555-.296-2.148-.89l-54.416-54.417c-.915-.914-1.116-2.265-.62-3.38l-2.247-2.223 28.752-28.447 28.752 28.447zm25.275-34.913-2.443-2.417c-.565.479-1.257.733-1.956.733-.777 0-1.555-.297-2.148-.89l-42.125-42.125c-1.042-1.042-1.167-2.651-.379-3.831l-1.812-1.792 22.798-22.556 22.798 22.556-19.427 19.22-3.371 3.336 4.319 4.273 2.449-2.422 17.269-17.085z" fill="#2d2c33"/><path d="m302.214 190.49c1.678 0 3.037-1.36 3.037-3.038 0-1.103-.593-2.059-1.472-2.591l-.027.286h-15.15v5.342h13.612z" fill="#334353"/><path d="m348.373 187.452c0 1.677 1.36 3.038 3.037 3.038h13.809v-5.342h-15.15l-.036-.388c-.981.503-1.66 1.513-1.66 2.692z" fill="#334353"/><path d="m284.763 232.242h13.979c1.678 0 3.037-1.36 3.037-3.038 0-1.271-.783-2.357-1.891-2.81l-.05.537h-15.127v5.306c.018 0 .035.005.052.005z" fill="#334353"/><path d="m351.844 229.205c0 1.677 1.36 3.038 3.037 3.038h13.979c.085 0 .166-.018.249-.025v-5.286h-15.127l-.056-.597c-1.205.402-2.082 1.528-2.082 2.87z" fill="#334353"/><path d="m311.221 237.301 30.556 30.556c.593.593 1.371.89 2.148.89.72 0 1.433-.266 2.007-.774l-14.702-14.546-4.319-4.273-15.972-15.802c-.884 1.188-.797 2.871.282 3.949z" fill="#334353"/><path d="m326.911 302.812-20.986-20.764c-.788 1.18-.662 2.79.379 3.831l42.125 42.125c.593.593 1.371.89 2.148.89.699 0 1.39-.253 1.956-.733l-21.302-21.076z" fill="#334353"/><path d="m333.679 304.663-2.449 2.422z" fill="#334353"/><path d="m329.701 365.492-2.79 2.76z" fill="#334353"/><path d="m301.026 345.409 54.416 54.417c.593.593 1.371.89 2.148.89.572 0 1.143-.164 1.642-.485l-28.002-27.705-4.319-4.273-26.505-26.223c-.496 1.114-.294 2.465.62 3.379z" fill="#334353"/><path d="m314.165 194.672 26.404 26.404c.593.593 1.371.89 2.148.89.581 0 1.163-.167 1.667-.499l-13.154-13.014-4.319-4.273-13.25-13.109c-.632 1.153-.473 2.625.504 3.601z" fill="#334353"/><path d="m333.898 205.814-2.668 2.64z" fill="#334353"/><path d="m299.374 153.755c0 1.677 1.36 3.038 3.038 3.038h48.999c1.678 0 3.037-1.36 3.037-3.038 0-.959-.454-1.804-1.148-2.361h-6.392l-.063-.676h-8.717l.063.676h-22.559l.063-.676h-8.717l-.063.676h-6.392c-.695.557-1.149 1.402-1.149 2.361z" fill="#334353"/><path d="m305.465 121.541c0 1.677 1.36 3.038 3.037 3.038h36.817c1.678 0 3.037-1.36 3.037-3.038 0-1.191-.692-2.211-1.69-2.709h-39.512c-.997.498-1.689 1.518-1.689 2.709z" fill="#334353"/><path d="m389.717 197.672c-1.003 1.652-.476 3.806 1.177 4.808 42.618 25.855 82.495 36.669 120.802 41.127-.111-2.332-.249-4.656-.422-6.97-37.254-4.39-75.283-14.985-116.75-40.142-1.651-1.004-3.805-.474-4.807 1.177z" fill="#fad98f"/><path d="m393.608 239.456c-1.003 1.652-.476 3.806 1.177 4.808 40.693 24.687 78.885 35.658 115.599 40.48.254-2.269.478-4.545.672-6.832-35.943-4.68-72.699-15.401-112.641-39.633-1.651-1.004-3.804-.474-4.807 1.177z" fill="#fad98f"/><path d="m139.658 176.525c25.153-3.868 42.408-27.393 38.541-52.546s-27.393-42.408-52.546-38.541c-25.153 3.868-42.408 27.393-38.541 52.546s27.393 42.409 52.546 38.541zm-12.465-81.069c19.62-3.017 37.971 10.443 40.988 30.063 3.017 19.621-10.443 37.972-30.064 40.988s-37.971-10.443-40.988-30.063c-3.016-19.62 10.444-37.971 30.064-40.988z" fill="#f9c744"/><path d="m138.117 166.508c19.62-3.017 33.08-21.368 30.064-40.988-3.017-19.62-21.368-33.08-40.988-30.063s-33.08 21.368-30.064 40.988c3.017 19.619 21.368 33.079 40.988 30.063z" fill="#fad98f"/><path d="m45.338 144.407c.417 2.714-1.445 5.252-4.158 5.67 6.29-.967 8.954-5.453 10.717-8.422 1.618-2.725 2.191-3.441 3.678-3.67s2.248.283 4.61 2.396c2.573 2.302 6.461 5.78 12.751 4.813 2.714-.417 4.576-2.956 4.158-5.67-.417-2.714-2.956-4.575-5.67-4.158-1.487.229-2.248-.283-4.61-2.396-2.573-2.302-6.461-5.781-12.751-4.814s-8.954 5.453-10.717 8.422c-1.618 2.725-2.191 3.441-3.678 3.67 2.715-.416 5.253 1.445 5.67 4.159z" fill="#f39e22"/><path d="m39.669 140.249c-.186.028-.36.045-.528.049.167-.004.342-.021.528-.049z" fill="#f39e22"/><path d="m39.993 150.208c-5.598.39-9.157-2.792-11.564-4.945-1.029-.92-1.747-1.523-2.361-1.907v.001c.614.384 1.332.986 2.361 1.906 2.406 2.154 5.965 5.336 11.564 4.945z" fill="#f39e22"/><path d="m39.993 150.208c.386-.027.781-.069 1.187-.131 2.714-.417 4.576-2.956 4.158-5.67-.417-2.714-2.956-4.576-5.67-4.158-.186.028-.36.045-.528.049-1.174.026-2.016-.596-4.083-2.445-1.172-1.048-2.622-2.338-4.442-3.343-1.574 2.914-3.085 5.866-4.548 8.847.614.384 1.332.986 2.361 1.907 2.408 2.153 5.966 5.335 11.565 4.944z" fill="#f9c744"/><path d="m225.642 121.715c.186-.028.36-.045.528-.049-.168.003-.343.021-.528.049z" fill="#f39e22"/><path d="m241.491 119.096c.001 0 .001 0 0 0-1.486.228-2.248-.284-4.609-2.396-2.251-2.014-5.51-4.929-10.503-4.979 4.993.049 8.251 2.965 10.503 4.979 2.361 2.113 3.123 2.625 4.609 2.396z" fill="#f39e22"/><path d="m192.374 116.77c-2.714.417-4.576 2.956-4.158 5.67s2.956 4.576 5.67 4.158c1.487-.229 2.248.283 4.61 2.396 2.573 2.302 6.461 5.78 12.751 4.813s8.954-5.453 10.717-8.422c1.618-2.725 2.191-3.441 3.678-3.67-2.714.417-5.252-1.444-5.67-4.158s1.445-5.252 4.158-5.669c-6.29.967-8.954 5.453-10.717 8.421-1.618 2.725-2.191 3.441-3.678 3.67s-2.248-.283-4.61-2.396c-2.573-2.302-6.461-5.78-12.751-4.813z" fill="#f39e22"/><path d="m219.972 117.557c.417 2.714 2.956 4.576 5.67 4.158.186-.028.36-.045.528-.049 1.174-.026 2.016.596 4.083 2.445 2.573 2.302 6.462 5.78 12.751 4.813h.002c2.714-.418 4.575-2.956 4.157-5.669-.417-2.714-2.956-4.576-5.67-4.159h-.001s0 0-.001 0c-1.487.229-2.248-.283-4.61-2.396-2.251-2.014-5.509-4.93-10.503-4.979-.713-.007-1.462.044-2.248.166-2.713.417-4.575 2.956-4.158 5.67z" fill="#f9c744"/><path d="m62.4 98.507c1.402.545 1.806 1.369 2.794 4.379 1.077 3.28 2.705 8.237 8.636 10.544 2.559.996 5.441-.272 6.436-2.831.996-2.559-.272-5.44-2.831-6.436-1.402-.545-1.806-1.369-2.794-4.379-1.077-3.28-2.705-8.237-8.636-10.544-1.231-.479-2.399-.739-3.51-.851-3.939 4.543-7.717 9.23-11.333 14.045 2.505-.513 4.588-1.674 6.217-2.588 2.765-1.551 3.619-1.885 5.021-1.339z" fill="#f39e22"/><path d="m185.044 151.364c-.996 2.559.272 5.44 2.831 6.436 1.402.545 1.805 1.369 2.794 4.38 1.077 3.28 2.705 8.236 8.636 10.544s10.481-.246 13.492-1.935c2.764-1.551 3.618-1.885 5.021-1.34-2.559-.996-3.826-3.877-2.831-6.436.996-2.559 3.877-3.826 6.436-2.831-5.931-2.308-10.481.245-13.492 1.935-2.764 1.551-3.618 1.885-5.021 1.339-1.402-.545-1.806-1.369-2.794-4.379-1.077-3.28-2.705-8.237-8.636-10.544-2.559-.995-5.441.272-6.436 2.831z" fill="#f39e22"/><path d="m218.303 169.673c-.148-.082-.309-.155-.486-.224.177.07.338.143.486.224z" fill="#f39e22"/><path d="m229.25 184.375h.001l-.002-.001z" fill="#f39e22"/><path d="m230.059 170.727c.989 3.011 1.393 3.834 2.794 4.38h.001c-1.401-.545-1.806-1.37-2.795-4.38-1.077-3.28-2.705-8.237-8.636-10.544 5.931 2.307 7.558 7.264 8.636 10.544z" fill="#f39e22"/><path d="m214.987 163.014c-.996 2.559.272 5.44 2.831 6.436.177.069.337.142.486.224 1.027.565 1.445 1.525 2.31 4.157 1.078 3.28 2.706 8.236 8.637 10.544.001 0 .001 0 .001.001 2.559.995 5.44-.272 6.435-2.831.996-2.559-.272-5.441-2.831-6.437h-.001s0 0-.001 0c-1.402-.545-1.806-1.369-2.794-4.38-1.077-3.28-2.705-8.237-8.636-10.544-2.56-.996-5.442.271-6.437 2.83z" fill="#f9c744"/><path d="m92.91 228.385c-3.011.989-3.834 1.393-4.38 2.794v.001c.546-1.401 1.369-1.805 4.38-2.795 3.28-1.077 8.237-2.705 10.544-8.636-2.307 5.931-7.264 7.559-10.544 8.636z" fill="#f39e22"/><path d="m112.273 183.37c-2.559-.996-5.441.272-6.436 2.831-.545 1.402-1.369 1.806-4.38 2.794-3.28 1.077-8.237 2.705-10.544 8.636-2.308 5.931.245 10.481 1.935 13.492 1.551 2.764 1.885 3.618 1.34 5.021.996-2.559 3.877-3.826 6.436-2.831s3.826 3.877 2.831 6.436c2.308-5.931-.245-10.481-1.935-13.492-1.551-2.764-1.885-3.618-1.34-5.021.545-1.402 1.369-1.806 4.38-2.794 3.28-1.077 8.237-2.705 10.544-8.636.995-2.558-.272-5.44-2.831-6.436z" fill="#f39e22"/><path d="m79.263 227.577-.001.001.001-.003z" fill="#f39e22"/><path d="m100.623 213.313c-2.559-.996-5.441.271-6.436 2.831-.546 1.402-1.369 1.806-4.38 2.795-3.28 1.077-8.236 2.706-10.544 8.636 0 .001-.001.002-.001.003-.994 2.559.273 5.439 2.831 6.435 2.559.996 5.441-.272 6.436-2.831v-.001c.545-1.402 1.369-1.806 4.38-2.794 3.28-1.077 8.237-2.705 10.544-8.636.997-2.561-.271-5.442-2.83-6.438z" fill="#f9c744"/><path d="m186.048 34.387v-.001l-.001.003z" fill="#f39e22"/><path d="m172.4 33.579c3.011-.989 3.834-1.393 4.38-2.794v-.001c-.545 1.401-1.369 1.805-4.38 2.795-3.28 1.077-8.237 2.705-10.544 8.636 2.308-5.931 7.264-7.559 10.544-8.636z" fill="#f39e22"/><path d="m153.037 78.594c2.559.996 5.441-.272 6.436-2.831.545-1.402 1.369-1.806 4.38-2.794 3.28-1.077 8.237-2.705 10.544-8.636 2.308-5.931-.245-10.481-1.935-13.492-1.551-2.764-1.885-3.618-1.34-5.021-.996 2.559-3.877 3.826-6.436 2.831s-3.826-3.877-2.831-6.436c-2.308 5.931.245 10.481 1.935 13.492 1.551 2.764 1.885 3.618 1.34 5.021-.545 1.402-1.369 1.806-4.38 2.794-3.28 1.077-8.237 2.705-10.544 8.636-.995 2.558.272 5.44 2.831 6.436z" fill="#f39e22"/><path d="m164.687 48.65c2.559.996 5.441-.271 6.436-2.831.546-1.402 1.369-1.806 4.38-2.795 3.28-1.077 8.236-2.706 10.544-8.636 0-.001.001-.002.001-.003.994-2.559-.273-5.439-2.831-6.435-2.559-.996-5.441.272-6.436 2.831v.001.001c-.545 1.402-1.369 1.806-4.38 2.794-3.28 1.077-8.237 2.705-10.544 8.636-.996 2.56.271 5.442 2.83 6.437z" fill="#f9c744"/><path d="m146.081 218.299c2.714-.417 5.252 1.444 5.67 4.158-.967-6.29-5.453-8.954-8.422-10.717-2.725-1.618-3.442-2.191-3.67-3.678-.229-1.487.283-2.248 2.396-4.61 2.302-2.573 5.781-6.461 4.814-12.751-.417-2.714-2.956-4.576-5.67-4.159s-4.576 2.956-4.159 5.67c.229 1.486-.283 2.248-2.396 4.61-2.302 2.573-5.781 6.461-4.814 12.751s5.453 8.954 8.422 10.717c2.725 1.618 3.442 2.191 3.67 3.678-.417-2.714 1.445-5.252 4.159-5.669z" fill="#f39e22"/><path d="m146.937 235.208c-2.113 2.362-2.624 3.124-2.396 4.61v.001c-.228-1.486.283-2.248 2.396-4.611 2.154-2.406 5.335-5.965 4.945-11.563.39 5.598-2.792 9.156-4.945 11.563z" fill="#f39e22"/><path d="m141.922 223.968c.029.186.046.361.049.528-.003-.167-.02-.342-.049-.528z" fill="#f39e22"/><path d="m134.713 241.331v.001.001z" fill="#f39e22"/><path d="m140.383 245.49c2.714-.417 4.576-2.956 4.158-5.67 0 0 0 0 0-.001 0 0 0 0 0-.001-.229-1.487.283-2.248 2.396-4.61 2.153-2.407 5.335-5.965 4.945-11.563-.027-.386-.069-.781-.132-1.188-.417-2.714-2.956-4.575-5.67-4.158s-4.576 2.956-4.158 5.669c.029.186.046.361.049.528.026 1.174-.596 2.016-2.445 4.083-2.302 2.573-5.78 6.462-4.813 12.752v.001c.418 2.714 2.956 4.575 5.67 4.158z" fill="#f9c744"/><path d="m123.388 37.996c-.029-.186-.046-.361-.049-.528.004.167.021.342.049.528z" fill="#f39e22"/><path d="m121.982 50.224c2.725 1.618 3.442 2.191 3.67 3.678.229 1.487-.283 2.248-2.396 4.61-2.302 2.573-5.781 6.461-4.814 12.751.417 2.714 2.956 4.576 5.67 4.159s4.576-2.956 4.158-5.67c-.229-1.486.283-2.248 2.396-4.61 2.302-2.573 5.781-6.461 4.814-12.751s-5.453-8.954-8.422-10.717c-2.725-1.618-3.442-2.191-3.67-3.678.417 2.714-1.445 5.252-4.158 5.669-1.601.246-3.129-.314-4.208-1.362-.192.127-.386.252-.578.38 1.714 4.082 5.126 6.109 7.538 7.541z" fill="#f39e22"/><path d="m119.23 43.665c2.714-.417 4.576-2.956 4.158-5.669-.029-.186-.046-.361-.049-.528-.004-.163.006-.318.029-.472-2.822 1.712-5.598 3.491-8.346 5.308 1.079 1.047 2.607 1.607 4.208 1.361z" fill="#f9c744"/><path d="m197.136 214.104c-.649 3.102-.711 4.017.23 5.19 0 0 0 0 .001.001-.941-1.173-.879-2.089-.231-5.191.708-3.379 1.776-8.485-2.207-13.45 3.983 4.964 2.914 10.071 2.207 13.45z" fill="#f39e22"/><path d="m174.823 175.594c-1.718-2.142-4.848-2.485-6.989-.767-2.142 1.718-2.485 4.848-.767 6.989.941 1.173.879 2.088.23 5.19-.707 3.379-1.776 8.486 2.207 13.45s9.199 5.028 12.652 5.07c3.169.039 4.076.177 5.018 1.35-1.718-2.142-1.375-5.271.767-6.989s5.271-1.375 6.989.767c-3.983-4.964-9.199-5.028-12.652-5.07-3.169-.039-4.076-.176-5.018-1.35-.941-1.173-.879-2.088-.23-5.19.707-3.379 1.776-8.486-2.207-13.45z" fill="#f39e22"/><path d="m189.612 225.519.001.001-.002-.002z" fill="#f39e22"/><path d="m187.481 207.31c-.087-.143-.189-.286-.307-.433.118.147.219.29.307.433z" fill="#f39e22"/><path d="m187.94 199.888c-2.142 1.719-2.485 4.848-.767 6.989.118.147.22.29.307.433.61 1.004.492 2.044-.076 4.759-.707 3.379-1.775 8.485 2.207 13.449l.002.002c1.719 2.141 4.847 2.483 6.988.766 2.142-1.718 2.485-4.848.767-6.989 0 0 0 0-.001-.001s0 0-.001-.001c-.941-1.173-.879-2.088-.23-5.19.707-3.379 1.776-8.486-2.207-13.45-1.718-2.142-4.847-2.486-6.989-.767z" fill="#f9c744"/><path d="m88.05 67.73c.941 1.173.879 2.088.23 5.19-.707 3.379-1.776 8.486 2.207 13.449 1.718 2.142 4.848 2.485 6.989.767s2.485-4.848.767-6.989c-.941-1.173-.879-2.088-.23-5.19.707-3.379 1.776-8.486-2.207-13.45-.942-1.173-1.953-2.065-2.993-2.756-2.998 2.483-5.941 5.032-8.822 7.647 2.401.064 3.221.288 4.059 1.332z" fill="#f39e22"/><path d="m56.327 185.807c.143-.087.286-.189.433-.307-.147.118-.289.22-.433.307z" fill="#f39e22"/><path d="m49.533 195.463c-3.102-.648-4.017-.711-5.19.23 0 0 0 0-.001 0 1.173-.94 2.089-.878 5.191-.23 3.379.708 8.485 1.776 13.449-2.207-4.963 3.983-10.07 2.914-13.449 2.207z" fill="#f39e22"/><path d="m63.749 186.267c1.718 2.142 1.375 5.271-.767 6.989 4.964-3.983 5.028-9.2 5.07-12.652.039-3.169.177-4.076 1.35-5.018 1.173-.941 2.088-.879 5.19-.23 3.379.707 8.486 1.776 13.449-2.207 2.142-1.718 2.485-4.848.767-6.989s-4.848-2.485-6.989-.767c-1.173.941-2.088.879-5.19.23-3.379-.707-8.486-1.775-13.449 2.207-4.964 3.982-5.028 9.199-5.07 12.652-.039 3.169-.177 4.076-1.35 5.018 2.142-1.718 5.271-1.375 6.989.767z" fill="#f39e22"/><path d="m38.119 187.938v.001h-.001z" fill="#f39e22"/><path d="m37.352 194.928c1.718 2.142 4.848 2.485 6.989.767 0 0 .001 0 .001-.001h.001c1.173-.941 2.088-.879 5.19-.23 3.379.707 8.486 1.776 13.449-2.207 2.142-1.718 2.485-4.848.767-6.989s-4.848-2.485-6.989-.767c-.147.118-.289.22-.433.307-1.004.61-2.044.492-4.758-.076-3.379-.707-8.486-1.775-13.45 2.208 0 0-.001.001-.001.001-2.141 1.717-2.484 4.846-.766 6.987z" fill="#f9c744"/><path d="m208.983 76.157c-.143.087-.286.189-.433.307.147-.118.29-.22.433-.307z" fill="#f39e22"/><path d="m215.777 66.501c3.102.649 4.017.711 5.19-.23 0 0 .001 0 .001-.001-1.173.941-2.089.879-5.191.231-3.379-.708-8.485-1.776-13.449 2.207 4.963-3.983 10.07-2.914 13.449-2.207z" fill="#f39e22"/><path d="m195.907 86.377c-1.173.941-2.088.879-5.19.23-3.379-.707-8.486-1.776-13.449 2.207-2.142 1.718-2.485 4.848-.767 6.989 1.718 2.142 4.848 2.485 6.989.767 1.173-.941 2.088-.879 5.19-.23 3.379.707 8.486 1.775 13.449-2.207 4.964-3.982 5.028-9.199 5.07-12.652.039-3.169.177-4.076 1.35-5.018-2.142 1.718-5.271 1.375-6.989-.767s-1.375-5.271.767-6.989c-4.964 3.983-5.028 9.2-5.07 12.652-.039 3.17-.176 4.077-1.35 5.018z" fill="#f39e22"/><path d="m227.192 74.025.001-.001-.002.002z" fill="#f39e22"/><path d="m201.561 75.697c1.718 2.142 4.848 2.485 6.989.767.147-.118.289-.22.433-.307 1.004-.61 2.044-.492 4.759.076 3.379.707 8.486 1.774 13.449-2.207.001-.001.001-.001.002-.002 2.141-1.719 2.483-4.847.765-6.988-1.718-2.142-4.848-2.485-6.989-.767 0 0 0 0-.001 0 0 0-.001.001-.001.001-1.173.941-2.088.879-5.19.23-3.379-.707-8.486-1.776-13.449 2.207-2.142 1.719-2.485 4.848-.767 6.99z" fill="#f9c744"/></g></svg>