<svg id="Capa_1" enable-background="new 0 0 512 512" height="512" viewBox="0 0 512 512" width="512" xmlns="http://www.w3.org/2000/svg"><g id="XMLID_2067_"><path id="XMLID_1310_" d="m285.162 138.195v-40.417c0-26.387-21.391-47.778-47.778-47.778h-55.11c-26.387 0-47.778 21.391-47.778 47.778v40.417z" fill="#c68a65"/><path id="XMLID_1309_" d="m312.122 178.618h-206.202c-11.162 0-20.211-9.049-20.211-20.211 0-11.162 9.049-20.211 20.211-20.211h206.202c11.162 0 20.211 9.049 20.211 20.211 0 11.162-9.049 20.211-20.211 20.211z" fill="#c68a65"/><path id="XMLID_1308_" d="m134.422 179.537v37.703c0 41.646 33.761 75.407 75.407 75.407 41.646 0 75.407-33.761 75.407-75.407v-37.703z" fill="#f3c9a6"/><path id="XMLID_1223_" d="m247.532 318.26h70.92c50.371 0 91.205 40.834 91.205 91.205v92.535h-199.828-199.829v-92.535c0-50.371 40.834-91.205 91.205-91.205h70.92z" fill="#fff"/><path id="XMLID_230_" d="m172.125 284.471v39.761l.116.116c20.78 20.864 54.576 20.812 75.291-.116v-39.761z" fill="#f3c9a6"/><path id="XMLID_2453_" d="m59.61 502v-171.184l50.219-9.34v104h100 100v-104l50.218 9.34v171.184z" fill="#d5ea79"/><path id="XMLID_2_" d="m502 502h-272.113l27.036-128.524h218.041z" fill="#ffce69"/><ellipse id="XMLID_1958_" cx="448.293" cy="89.61" fill="#ff7b79" rx="22.113" ry="22.113" transform="matrix(.16 -.987 .987 .16 288.031 517.761)"/><ellipse id="XMLID_1957_" cx="410.969" cy="118.353" fill="#d5ea79" rx="22.113" ry="22.113" transform="matrix(.707 -.707 .707 .707 36.682 325.264)"/><g fill="#ff7b79"><circle id="XMLID_1956_" cx="479.887" cy="129.625" r="22.113"/><circle id="XMLID_1955_" cx="426.694" cy="212.747" r="20"/><g id="XMLID_1946_"><circle id="XMLID_1954_" cx="297.205" cy="350.563" r="22.913"/><circle id="XMLID_1953_" cx="343.031" cy="350.563" r="22.913"/><ellipse id="XMLID_1948_" cx="388.856" cy="350.563" rx="22.913" ry="22.913" transform="matrix(.987 -.16 .16 .987 -51.133 66.815)"/><circle id="XMLID_1947_" cx="434.681" cy="350.563" r="22.913"/></g></g><ellipse id="XMLID_1914_" cx="414.694" cy="36.904" fill="#d5ea79" rx="75.694" ry="26.903"/><g id="XMLID_426_"><path id="XMLID_445_" d="m486.29 98.155c16.852-26.285 25.71-56.526 25.71-88.155 0-5.523-4.477-10-10-10s-10 4.477-10 10c0 4.829-.239 9.61-.703 14.332-19.012-15.345-46.968-24.332-76.603-24.332-33.006 0-63.937 11.143-82.739 29.806-1.891 1.877-2.955 4.432-2.955 7.097s1.063 5.22 2.955 7.097c18.802 18.664 49.733 29.807 82.739 29.807 1.917 0 3.826-.041 5.727-.116-2.235 3.898-3.678 8.305-4.103 13.003-1.741-.293-3.527-.454-5.35-.454-17.707 0-32.113 14.406-32.113 32.113 0 11.785 6.385 22.1 15.872 27.687-1.043.354-2.09.7-3.145 1.033-5.268 1.658-8.194 7.273-6.536 12.541 1.344 4.269 5.286 7 9.536 7 .995 0 2.006-.149 3.005-.464 18.897-5.949 36.285-15.13 51.593-27.123 4.03 13.134 16.269 22.711 30.706 22.711 17.707 0 32.113-14.406 32.113-32.113.001-15.515-11.059-28.494-25.709-31.47zm-37.997 3.568c-6.679 0-12.113-5.434-12.113-12.113s5.434-12.113 12.113-12.113 12.113 5.434 12.113 12.113-5.434 12.113-12.113 12.113zm-93.695-64.82c15.338-10.712 36.963-16.903 60.096-16.903s44.758 6.191 60.096 16.903c-15.338 10.712-36.963 16.904-60.096 16.904s-44.758-6.191-60.096-16.904zm130.603 17.073c-2.283 7.173-5.113 14.115-8.454 20.773-2.306-4.397-5.599-8.195-9.585-11.101 6.496-2.729 12.553-5.969 18.039-9.672zm-74.232 52.264c6.679 0 12.113 5.434 12.113 12.113s-5.434 12.113-12.113 12.113-12.113-5.434-12.113-12.113 5.434-12.113 12.113-12.113zm68.918 35.498c-6.679 0-12.113-5.434-12.113-12.113s5.434-12.113 12.113-12.113 12.113 5.434 12.113 12.113-5.434 12.113-12.113 12.113z"/><path id="XMLID_453_" d="m456.694 212.747c0-16.542-13.458-30-30-30s-30 13.458-30 30 13.458 30 30 30 30-13.458 30-30zm-40 0c0-5.514 4.486-10 10-10s10 4.486 10 10-4.486 10-10 10-10-4.486-10-10z"/><path id="XMLID_456_" d="m484.75 371.417c-.973-4.628-5.056-7.941-9.786-7.941h-10.012c1.699-3.967 2.642-8.331 2.642-12.913 0-18.148-14.765-32.913-32.913-32.913-8.901 0-16.982 3.557-22.913 9.318-5.93-5.76-14.012-9.318-22.913-9.318-6.585 0-12.719 1.951-17.869 5.295-15.802-9.629-33.808-14.685-52.534-14.685h-60.92v-20.21c22.731-15.363 37.704-41.371 37.704-70.811v-28.622h16.886c16.659 0 30.211-13.553 30.211-30.211s-13.553-30.211-30.211-30.211h-16.96v-30.417c0-31.859-25.919-57.778-57.778-57.778h-55.11c-31.859 0-57.778 25.919-57.778 57.778v30.417h-18.576c-16.659 0-30.211 13.553-30.211 30.211s13.553 30.211 30.211 30.211h18.503v28.622c0 29.44 14.973 55.448 37.703 70.811v20.21h-60.92c-55.806 0-101.206 45.401-101.206 101.205v92.535c0 5.523 4.477 10 10 10h310.943.076c5.523 0 10-4.477 10-10s-4.477-10-10-10h-.076-78.734l22.829-108.524h201.811l22.829 108.524h-78.734c-5.523 0-10 4.477-10 10s4.477 10 10 10h91.056c3.013 0 5.866-1.359 7.765-3.699s2.642-5.411 2.021-8.36zm-50.069-33.767c7.12 0 12.913 5.793 12.913 12.913s-5.793 12.913-12.913 12.913-12.913-5.792-12.913-12.913c.001-7.12 5.793-12.913 12.913-12.913zm-32.912 12.913c0 7.12-5.792 12.913-12.913 12.913-7.12 0-12.913-5.792-12.913-12.913 0-7.12 5.792-12.913 12.913-12.913 7.12 0 12.913 5.793 12.913 12.913zm-117.476 0c0-7.12 5.792-12.913 12.913-12.913 7.12 0 12.913 5.793 12.913 12.913s-5.792 12.913-12.913 12.913-12.913-5.793-12.913-12.913zm45.825 0c0-7.12 5.792-12.913 12.913-12.913 7.12 0 12.913 5.793 12.913 12.913s-5.793 12.913-12.913 12.913-12.913-5.793-12.913-12.913zm-185.623-252.785c0-20.831 16.947-37.778 37.778-37.778h55.11c20.831 0 37.778 16.947 37.778 37.778v30.417h-130.666zm-48.787 60.628c0-5.63 4.581-10.211 10.211-10.211h206.203c5.63 0 10.211 4.581 10.211 10.211s-4.581 10.211-10.211 10.211h-206.203c-5.63.001-10.211-4.58-10.211-10.211zm48.714 58.834v-28.622h130.814v28.622c0 36.066-29.342 65.407-65.407 65.407s-65.407-29.341-65.407-65.407zm65.407 85.407c9.696 0 19.01-1.647 27.704-4.638v21.86c-7.727 6.519-17.402 10.077-27.637 10.092-.023 0-.045 0-.068 0-10.25 0-19.948-3.555-27.702-10.095v-21.857c8.693 2.991 18.006 4.638 27.703 4.638zm-189.829 106.818c0-25.2 11.539-47.755 29.61-62.661v145.196h-29.61zm49.61 82.535v-157.341c9.316-3.949 19.522-6.185 30.219-6.364v97.18c0 5.523 4.477 10 10 10h123.833l-11.89 56.525zm187.313-128.524c-4.73 0-8.812 3.314-9.786 7.941l-9.268 44.059h-118.04v-87.216h43.167c.507 1.145 1.218 2.202 2.109 3.094 11.921 11.969 27.832 18.608 44.721 18.608h.1c16.926-.026 32.806-6.665 44.713-18.695.867-.876 1.548-1.899 2.036-3.006h16.354c-5.418 5.869-8.736 13.704-8.736 22.303 0 4.581.943 8.945 2.642 12.913h-10.012z"/><path id="XMLID_1191_" d="m209.829 253.096c5.812 0 11.625-2.212 16.05-6.637 3.905-3.905 3.905-10.237 0-14.143-3.905-3.905-10.237-3.905-14.143 0-1.052 1.053-2.764 1.053-3.815 0-3.905-3.905-10.237-3.905-14.143 0-3.905 3.905-3.905 10.237 0 14.143 4.426 4.425 10.238 6.637 16.051 6.637z"/><path id="XMLID_1192_" d="m365.94 492c-2.63 0-5.21 1.07-7.07 2.93s-2.93 4.44-2.93 7.07 1.07 5.21 2.93 7.07 4.441 2.93 7.07 2.93c2.64 0 5.21-1.07 7.08-2.93 1.86-1.86 2.92-4.44 2.92-7.07s-1.06-5.21-2.92-7.07c-1.87-1.86-4.44-2.93-7.08-2.93z"/></g></g></svg>