<svg id="Capa_1" enable-background="new 0 0 512 512" height="512" viewBox="0 0 512 512" width="512" xmlns="http://www.w3.org/2000/svg"><g><g><g><g><path d="m255.999 99.724h-39.763c-3.863 0-7.566 1.549-10.428 4.361-7.8 7.662-22.162 16.796-46.291 16.796-28.513 0-50.58-14.941-62.136-42.069-2.287-5.368-7.565-8.836-13.447-8.836h-35.273c-7.112 0-12.877-5.765-12.877-12.877s5.766-12.877 12.877-12.877h35.273c16.223 0 30.802 9.616 37.141 24.497 7.465 17.524 20.398 26.408 38.442 26.408 15.423 0 23.871-5.119 28.242-9.413 7.707-7.572 17.821-11.743 28.477-11.743h39.763z" fill="#5b5555"/></g></g><g><path d="m68.278 110.183c-4.267 0-7.726-3.459-7.726-7.726v-65.39c0-4.267 3.459-7.726 7.726-7.726s7.726 3.459 7.726 7.726v65.389c.001 4.267-3.459 7.727-7.726 7.727z" fill="#ffd597"/></g></g><g><g><g><path d="m256 99.724h39.763c3.863 0 7.566 1.549 10.428 4.361 7.8 7.662 22.162 16.796 46.291 16.796 28.513 0 50.58-14.941 62.136-42.069 2.287-5.368 7.565-8.836 13.447-8.836h35.273c7.112 0 12.877-5.765 12.877-12.877s-5.766-12.877-12.877-12.877h-35.273c-16.223 0-30.802 9.616-37.141 24.497-7.465 17.524-20.398 26.408-38.442 26.408-15.423 0-23.871-5.119-28.242-9.413-7.707-7.572-17.821-11.743-28.477-11.743h-39.763z" fill="#5b5555"/></g></g><g><path d="m443.72 110.183c-4.268 0-7.726-3.459-7.726-7.726l.001-65.389c0-4.267 3.46-7.726 7.726-7.726 4.268 0 7.726 3.459 7.726 7.726l-.001 65.389c.001 4.266-3.459 7.726-7.726 7.726z" fill="#ffd597"/></g></g><g><path d="m281.573 492.639h-51.146l12.493-448.78h26.16z" fill="#fcb44d"/><g fill="#fb9927"><path d="m270.083 79.699c-4.389 1.628-9.138 2.514-14.083 2.514s-9.694-.886-14.083-2.514l.999-35.84h26.167z"/><path d="m234.698 339.234-1.164 41.816h44.932l-1.164-41.816z"/></g></g><g><g><path d="m120.841 349.578c-3.436 0-6.571-2.308-7.473-5.789l-45.089-173.865-45.089 173.866c-1.071 4.13-5.289 6.608-9.419 5.539-4.13-1.071-6.611-5.288-5.539-9.419l52.568-202.705c.884-3.407 3.959-5.787 7.479-5.787s6.595 2.379 7.479 5.787l52.568 202.705c1.071 4.131-1.409 8.348-5.539 9.419-.651.168-1.304.249-1.946.249z" fill="#ffd597"/></g><g><g><path d="m93.12 397.46h-49.683c-23.99 0-43.437-19.448-43.437-43.437v-5.002c0-6.805 5.517-12.322 12.322-12.322h111.912c6.805 0 12.322 5.517 12.322 12.322v5.002c0 23.989-19.447 43.437-43.436 43.437z" fill="#fcb44d"/><g><path d="m136.509 356.134c-.258 5.481-1.535 10.693-3.637 15.453h-129.184c-2.102-4.759-3.379-9.972-3.637-15.453z" fill="#fb9927"/></g><path d="m136.557 349.027v4.99c0 23.991-19.444 43.447-43.435 43.447h-34.723c23.991 0 43.435-19.456 43.435-43.447v-4.99c0-6.814-5.52-12.322-12.322-12.322h34.723c6.802 0 12.322 5.508 12.322 12.322z" fill="#fb9927"/></g></g><g><circle cx="68.278" cy="119.77" fill="#fcb44d" r="19.374"/><path d="m87.65 119.771c0 10.702-8.674 19.376-19.376 19.376-4.233 0-8.141-1.359-11.329-3.658 6.689-3.052 11.329-9.803 11.329-17.631 0-6.469-3.167-12.196-8.037-15.708 2.446-1.129 5.173-1.756 8.037-1.756 10.702.001 19.376 8.675 19.376 19.377z" fill="#fb9927"/></g><g><path d="m496.285 349.578c-3.436 0-6.571-2.308-7.474-5.789l-45.09-173.866-45.088 173.867c-1.071 4.13-5.283 6.61-9.418 5.539-4.131-1.071-6.611-5.288-5.539-9.419l52.567-202.705c.883-3.407 3.959-5.787 7.479-5.787s6.596 2.379 7.479 5.787l52.568 202.705c1.071 4.131-1.408 8.348-5.539 9.419-.651.168-1.303.249-1.945.249z" fill="#ffd597"/></g><g><g><path d="m468.563 397.46h-49.683c-23.989 0-43.437-19.447-43.437-43.437v-5.002c0-6.805 5.517-12.322 12.322-12.322h111.912c6.805 0 12.322 5.517 12.322 12.322v5.002c0 23.989-19.447 43.437-43.436 43.437z" fill="#fcb44d"/><g><path d="m511.948 356.134c-.258 5.481-1.535 10.693-3.637 15.453h-129.184c-2.102-4.759-3.379-9.972-3.637-15.453z" fill="#fb9927"/></g><path d="m512 349.027v4.99c0 23.991-19.444 43.447-43.435 43.447h-34.723c23.991 0 43.435-19.456 43.435-43.447v-4.99c0-6.814-5.52-12.322-12.322-12.322h34.723c6.802 0 12.322 5.508 12.322 12.322z" fill="#fb9927"/></g></g><g><path d="m136.509 356.134c-.258 5.481-1.535 10.693-3.637 15.453h-34.737c2.112-4.759 3.389-9.972 3.647-15.453z" fill="#f98824"/></g><g><path d="m511.948 356.134c-.258 5.481-1.535 10.693-3.637 15.453h-34.738c2.112-4.759 3.389-9.972 3.647-15.453z" fill="#f98824"/></g><g><circle cx="443.722" cy="119.77" fill="#fcb44d" r="19.374"/><path d="m463.094 119.771c0 10.702-8.674 19.376-19.376 19.376-4.233 0-8.141-1.359-11.329-3.658 6.689-3.052 11.329-9.803 11.329-17.631 0-6.469-3.167-12.196-8.037-15.708 2.446-1.129 5.173-1.756 8.037-1.756 10.702.001 19.376 8.675 19.376 19.377z" fill="#fb9927"/></g></g><circle cx="256" cy="304.22" fill="#fb9927" r="33.683"/><path d="m289.687 304.217c0 18.605-15.082 33.687-33.687 33.687-4.523 0-8.839-.896-12.785-2.514 12.259-5.038 20.892-17.101 20.892-31.173s-8.633-26.125-20.892-31.163c3.946-1.617 8.262-2.514 12.785-2.514 18.605 0 33.687 15.082 33.687 33.677z" fill="#f98824"/><g><circle cx="255.999" cy="37.067" fill="#ffd597" r="25.049"/><path d="m281.053 37.072c0 13.832-11.222 25.041-25.054 25.041-3.934 0-7.649-.9-10.965-2.519 8.33-4.075 14.076-12.623 14.076-22.521s-5.746-18.459-14.076-22.534c3.317-1.62 7.032-2.52 10.965-2.52 13.832-.001 25.054 11.208 25.054 25.053z" fill="#fcc16d"/></g><path d="m358.506 471.355h-205.012v-26.882c0-8.534 6.918-15.453 15.453-15.453h174.106c8.534 0 15.453 6.918 15.453 15.453z" fill="#756f6f"/><path d="m358.503 444.476v26.877h-25.569v-26.877c0-8.54-6.923-15.453-15.453-15.453h25.569c8.541 0 15.453 6.913 15.453 15.453z" fill="#5b5555"/><g><path d="m392.228 499.982h-272.456c-5.69 0-10.302-4.612-10.302-10.302v-16.702c0-5.69 4.612-10.302 10.302-10.302h272.455c5.69 0 10.302 4.612 10.302 10.302v16.702c0 5.69-4.612 10.302-10.301 10.302z" fill="#ffd597"/><path d="m402.533 472.981v16.699c0 5.687-4.615 10.302-10.302 10.302h-25.579c5.697 0 10.302-4.615 10.302-10.302v-16.699c0-5.697-4.605-10.302-10.302-10.302h25.579c5.687 0 10.302 4.605 10.302 10.302z" fill="#fcc16d"/></g><path d="m291.621 358.355h-71.241c-5.69 0-10.302-4.612-10.302-10.302v-13.21c0-5.69 4.612-10.302 10.302-10.302h71.241c5.69 0 10.302 4.612 10.302 10.302v13.21c-.001 5.69-4.613 10.302-10.302 10.302z" fill="#ffd597"/><path d="m301.925 334.844v13.207c0 5.687-4.615 10.302-10.302 10.302h-25.579c5.697 0 10.302-4.615 10.302-10.302v-13.207c0-5.687-4.605-10.302-10.302-10.302h25.579c5.687 0 10.302 4.615 10.302 10.302z" fill="#fcc16d"/></g></svg>