<svg xmlns="http://www.w3.org/2000/svg" xmlns:xlink="http://www.w3.org/1999/xlink" viewBox="0 0 650.11 840.12"><defs><style>.cls-1{fill:url(#linear-gradient);}.cls-2{fill:#cff0fb;}.cls-3{opacity:0.2;}.cls-4{opacity:0.5;}.cls-5{fill:#328999;}.cls-6{fill:#6c9ab2;}.cls-7{fill:#366381;}.cls-8{fill:#fa4f3d;}.cls-9{fill:#e84939;}.cls-10,.cls-18{fill:#fff;}.cls-11{fill:#4f91bd;}.cls-12{fill:#e6e6e8;}.cls-13{fill:#fad000;}.cls-14{fill:#e7e7e9;}.cls-15{fill:#e66e6e;}.cls-16,.cls-19,.cls-20,.cls-21{fill:none;stroke-linecap:round;stroke-linejoin:round;}.cls-16{stroke:#e66e6e;stroke-width:1.48px;}.cls-17{fill:#fab802;}.cls-18{font-size:37.92px;font-family:BloggerSans-Medium, BloggerSans Medium;font-weight:500;}.cls-19,.cls-20,.cls-21{stroke:#fff;stroke-width:1.18px;}.cls-20{stroke-dasharray:0.89 1.48;}.cls-21{stroke-dasharray:0.89 1.48 0.89 1.48;}.cls-22{fill:#e9f8ff;}</style><linearGradient id="linear-gradient" y1="420.06" x2="650.11" y2="420.06" gradientUnits="userSpaceOnUse"><stop offset="0" stop-color="#daf4fc"/><stop offset="1" stop-color="#fff"/></linearGradient></defs><title>mission_img</title><g id="Layer_2" data-name="Layer 2"><g id="Layer_1-2" data-name="Layer 1"><path class="cls-1" d="M650.11,107.56S498.54-96.06,251.61,57s-283,431.77-231,553.07,172,69.32,172,69.32,48.2-31.77,100.54,30.32S378.68,816.59,448,768.94,572.07,751,650.11,840.12V107.56Z"/><path class="cls-2" d="M0,521.69s74.82-31.9,146.86-15.64,77.84,27.72,137.79-4.62S423.41,496.69,478.53,579s99,161.13,171.58,171v90.17s-36.2-25.12-55.54-42.86-37.23-41.89-73.49-42.87-58.51,4.93-80.75,21.68S366.84,815.49,318,753.9,259,658.3,191.34,682s-126.19-5.92-146.5-33S4.47,585.13,0,521.69Z"/><g class="cls-3"><g class="cls-4"><path class="cls-5" d="M514.73,340.14a3.85,3.85,0,0,0,3.83-3.84v-8.15a3.85,3.85,0,0,0-3.83-3.84h-.49a3.85,3.85,0,0,1-3.84-3.83v-8.15a3.85,3.85,0,0,0-3.83-3.84H488.36a3.84,3.84,0,0,1-3.83-3.83V296.5a3.85,3.85,0,0,0-3.84-3.83h-57a3.85,3.85,0,0,1-3.83-3.84v-8.15a3.85,3.85,0,0,0-3.84-3.83H371.61a3.85,3.85,0,0,1-3.84-3.84v-8.15a3.85,3.85,0,0,0-3.83-3.84H244.47a3.85,3.85,0,0,0-3.84,3.84V273a3.85,3.85,0,0,1-3.83,3.84h-25a3.85,3.85,0,0,0-3.84,3.83v8.15a3.85,3.85,0,0,1-3.83,3.84H169.57a3.84,3.84,0,0,0-3.83,3.83v8.16a3.85,3.85,0,0,1-3.84,3.83H150.76a3.85,3.85,0,0,0-3.84,3.84v8.15a3.84,3.84,0,0,1-3.83,3.83H131.24a3.85,3.85,0,0,0-3.84,3.84v8.15a3.85,3.85,0,0,0,3.84,3.84h18.3a3.84,3.84,0,0,1,3.83,3.83v8.15a3.85,3.85,0,0,1-3.83,3.84H111a3.84,3.84,0,0,0-3.83,3.83v8.15a3.85,3.85,0,0,0,3.83,3.84h29.07a3.85,3.85,0,0,1,3.84,3.83v8.16a3.85,3.85,0,0,1-3.84,3.83h-7.95a3.85,3.85,0,0,0-3.83,3.84v8.15a3.84,3.84,0,0,0,3.83,3.83h14.34a3.85,3.85,0,0,1,3.84,3.84v8.15a3.85,3.85,0,0,1-3.84,3.84H114.91a3.85,3.85,0,0,0-3.84,3.83v8.15a3.85,3.85,0,0,0,3.84,3.84h31.55a3.85,3.85,0,0,1,3.84,3.83v8.16a3.85,3.85,0,0,1-3.84,3.83H132.83a3.85,3.85,0,0,0-3.83,3.84v8.15a3.84,3.84,0,0,0,3.83,3.83h11.5a3.85,3.85,0,0,1,3.84,3.84v8.15a3.85,3.85,0,0,1-3.84,3.84H127.51a3.85,3.85,0,0,0-3.84,3.83v8.15a3.85,3.85,0,0,0,3.84,3.84h31.91a3.84,3.84,0,0,1,3.83,3.83v8.15a3.85,3.85,0,0,1-3.83,3.84H134.79A3.85,3.85,0,0,0,131,518v8.16a3.85,3.85,0,0,0,3.84,3.83h24.63a3.85,3.85,0,0,1,3.83,3.84V542a3.84,3.84,0,0,1-3.83,3.83h-8.07a3.85,3.85,0,0,0-3.84,3.84v8.15a3.85,3.85,0,0,0,3.84,3.84h26.07a3.84,3.84,0,0,1,3.83,3.83v8.15a3.85,3.85,0,0,0,3.84,3.84H220.7a3.85,3.85,0,0,0,3.84-3.84v-8.15a3.84,3.84,0,0,1,3.83-3.83h21.46a3.84,3.84,0,0,1,3.83,3.83v8.15a3.85,3.85,0,0,0,3.84,3.84h21.12a3.84,3.84,0,0,1,3.83,3.83v8.16a3.85,3.85,0,0,0,3.84,3.83h98a3.85,3.85,0,0,0,3.83-3.83V581.3a3.85,3.85,0,0,1,3.84-3.83H423a3.85,3.85,0,0,0,3.84-3.84v-8.15a3.84,3.84,0,0,1,3.83-3.83h31.49a3.84,3.84,0,0,1,3.83,3.83v8.15a3.85,3.85,0,0,0,3.84,3.84h32a3.85,3.85,0,0,0,3.84-3.84v-8.15c0-2.11-.74-3.83-1.64-3.83s-1.64-1.73-1.64-3.84v-8.15a3.85,3.85,0,0,0-3.83-3.84h-5.82a3.84,3.84,0,0,1-3.83-3.83v-8.15a3.85,3.85,0,0,1,3.83-3.84h13.86a3.84,3.84,0,0,0,3.83-3.83V518a3.84,3.84,0,0,0-3.83-3.83H501.1a3.85,3.85,0,0,1-3.83-3.84v-8.15a3.84,3.84,0,0,1,3.83-3.83h5.47a3.85,3.85,0,0,0,3.83-3.84v-8.15a3.84,3.84,0,0,0-3.83-3.83h-.37a3.85,3.85,0,0,1-3.84-3.84v-8.15a3.85,3.85,0,0,0-3.83-3.84H486.29a3.84,3.84,0,0,1-3.83-3.83v-8.15a3.85,3.85,0,0,1,3.83-3.84h20.28a3.84,3.84,0,0,0,3.83-3.83V438.9a3.84,3.84,0,0,0-3.83-3.83H496.31a3.85,3.85,0,0,1-3.84-3.84v-8.15a3.85,3.85,0,0,1,3.84-3.83h10.26a3.85,3.85,0,0,0,3.83-3.84v-8.15a3.85,3.85,0,0,0-3.83-3.84H501.1a3.84,3.84,0,0,1-3.83-3.83v-8.15a3.85,3.85,0,0,1,3.83-3.84h11a3.84,3.84,0,0,0,3.83-3.83v-8.16a3.84,3.84,0,0,0-3.83-3.83H506.2a3.85,3.85,0,0,1-3.84-3.84v-8.15A3.85,3.85,0,0,1,506.2,356h.37a3.85,3.85,0,0,0,3.83-3.84V344a3.85,3.85,0,0,1,3.84-3.83ZM343.15,577.47a3.85,3.85,0,0,1-3.84-3.84v-8.15a3.85,3.85,0,0,1,3.84-3.83h24.23a3.85,3.85,0,0,1,3.84,3.83v8.15a3.85,3.85,0,0,1-3.84,3.84Zm-56.85-12a3.84,3.84,0,0,1,3.83-3.83h15.28a3.84,3.84,0,0,1,3.83,3.83v8.15a3.85,3.85,0,0,1-3.83,3.84H290.13a3.85,3.85,0,0,1-3.83-3.84Zm34.09-276.65a3.85,3.85,0,0,1-3.84,3.84H276.6a3.85,3.85,0,0,1-3.84-3.84v-8.15a3.85,3.85,0,0,1,3.84-3.83h39.95a3.85,3.85,0,0,1,3.84,3.83Z"/></g><g class="cls-4"><rect class="cls-5" x="109.3" y="388.97" width="14.68" height="15.82" rx="3.84"/></g><g class="cls-4"><rect class="cls-5" x="128.11" y="546.81" width="14.68" height="15.82" rx="3.84"/></g><g class="cls-4"><rect class="cls-5" x="439.66" y="577.47" width="14.68" height="15.82" rx="3.84"/></g></g><ellipse class="cls-6" cx="313.43" cy="593.75" rx="206.05" ry="22.36"/><rect class="cls-7" x="341.59" y="318.8" width="1.56" height="58.26"/><polygon class="cls-8" points="343.98 318.8 343.98 330.14 380.75 330.14 343.98 318.8"/><polygon class="cls-9" points="343.98 330.14 343.98 342.89 380.8 330.16 380.75 330.14 343.98 330.14"/><circle class="cls-8" cx="262" cy="532.14" r="47.92" transform="translate(-309.55 373.58) rotate(-48.28)"/><circle class="cls-10" cx="262" cy="532.19" r="38.12" transform="translate(-299.57 341.14) rotate(-45)"/><circle class="cls-10" cx="262" cy="532.36" r="38.12" transform="translate(-299.7 341.19) rotate(-45)"/><circle class="cls-8" cx="262" cy="532.23" r="29.4" transform="translate(-294.61 327.07) rotate(-43.56)"/><circle class="cls-10" cx="262" cy="532.27" r="19.6" transform="translate(-299.63 341.16) rotate(-45)"/><path class="cls-8" d="M271.81,532.32a9.81,9.81,0,1,1-9.81-9.8A9.81,9.81,0,0,1,271.81,532.32Z"/><polygon class="cls-7" points="417.13 318.2 506.3 500.5 329.08 499.37 417.13 318.2"/><polygon class="cls-10" points="415.37 371.38 403.05 395.27 386.76 380.85 417.18 318.25 442.44 369.88 431.26 389.25 415.37 371.38"/><rect class="cls-7" x="161.02" y="553.03" width="82.5" height="30.33"/><polygon class="cls-7" points="221.41 508.14 220.25 508.14 184.2 508.14 179.22 508.14 179.22 526.95 184.07 526.95 184.07 512.39 219.86 512.39 219.86 526.95 224.11 526.95 224.11 508.14 221.41 508.14"/><rect class="cls-11" x="158.6" y="518.46" width="87.35" height="35.18"/><rect class="cls-12" x="176.19" y="540.29" width="9.71" height="23.66"/><rect class="cls-10" x="175.74" y="546.9" width="11.45" height="11.45"/><rect class="cls-12" x="218.04" y="540.29" width="9.71" height="23.66"/><rect class="cls-10" x="217.26" y="546.9" width="11.45" height="11.45"/><polygon class="cls-5" points="342.15 365.29 276.01 500.5 407.45 499.66 342.15 365.29"/><polygon class="cls-10" points="341.62 408.51 355.01 427.49 364.74 411.69 342.18 365.26 323.44 403.56 332.97 417.17 341.62 408.51"/><path class="cls-13" d="M173,427c9.34,0,18.69,6.87,18.7,17s-8.46,11.51-8.45,17.63,0,13.17,0,13.17l-10.2,0h-10.2s0-7,0-13.17-8.49-7.45-8.51-17.6S163.69,427,173,427Z"/><path class="cls-10" d="M163.36,442.77a3.35,3.35,0,0,1,1.68.6,3.54,3.54,0,0,0,.8.35c.28.07.58.13.76-.09a7.1,7.1,0,0,0,.92-1.48,11.17,11.17,0,0,1,1-1.53,5.63,5.63,0,0,1,3-2.08,6.36,6.36,0,0,1,3.69.06,5.42,5.42,0,0,1,1.66.92,7.88,7.88,0,0,1,1.27,1.38c.35.51.64,1.05.93,1.56s.62,1.07.85,1a3.28,3.28,0,0,0,1.49-.53,4.59,4.59,0,0,1,.89-.4,2.11,2.11,0,0,1,1,0,1.94,1.94,0,0,1,1.25,3.13c-1.4,2-2.86,3.81-4.17,5.78a49.48,49.48,0,0,0-3.51,6.17,31.68,31.68,0,0,0-3.32,13.57h-.85a29,29,0,0,0-1.29-7.84,45.46,45.46,0,0,0-3.07-7.4,71.53,71.53,0,0,0-4.1-6.95c-.76-1.12-1.53-2.22-2.33-3.32a4.49,4.49,0,0,1-.55-.89,1.73,1.73,0,0,1,.32-1A2.06,2.06,0,0,1,163.36,442.77Zm0,.09a2,2,0,0,0-1.61,1,1.72,1.72,0,0,0-.27.91,5.12,5.12,0,0,0,.54.8l2.5,3.2a55.08,55.08,0,0,1,4.5,6.79,38.49,38.49,0,0,1,3.23,7.52,26.84,26.84,0,0,1,1.26,8.11h-.85a30.79,30.79,0,0,1,3.8-13.75c2.16-4.26,5-8.1,7.65-12a2.23,2.23,0,0,0,.33-.69,1.78,1.78,0,0,0-.14-.75,1.4,1.4,0,0,0-1.15-.82,1.47,1.47,0,0,0-.73,0,4.11,4.11,0,0,0-.72.37,3.84,3.84,0,0,1-1.82.67,1,1,0,0,1-.64-.18,1.66,1.66,0,0,1-.4-.39,5.94,5.94,0,0,1-.51-.8c-.3-.52-.59-1-.91-1.48a7.07,7.07,0,0,0-1.1-1.27,4.82,4.82,0,0,0-1.42-.83,6.23,6.23,0,0,0-3.32-.21,5.25,5.25,0,0,0-2.86,1.77,11.26,11.26,0,0,0-1,1.44,8.9,8.9,0,0,1-1,1.5.62.62,0,0,1-.45.17,1.77,1.77,0,0,1-.46-.07,4.07,4.07,0,0,1-.82-.38A3.14,3.14,0,0,0,163.36,442.86Z"/><path class="cls-7" d="M166.05,477.63c0,3.47,3.14,6.28,7,6.28s7-2.83,7-6.3-3.14-6.28-7-6.27S166,474.16,166.05,477.63Z"/><rect class="cls-11" x="162.38" y="468.07" width="21.33" height="10.34" transform="translate(-0.7 0.26) rotate(-0.09)"/><path class="cls-14" d="M441.4,527.38a7.28,7.28,0,1,1-7.27-7.28A7.27,7.27,0,0,1,441.4,527.38Z"/><rect class="cls-13" x="451.93" y="498.03" width="12.32" height="70.16"/><rect class="cls-8" x="427.23" y="509.76" width="12.32" height="58.44"/><rect class="cls-13" x="402.53" y="523.33" width="12.32" height="44.87"/><rect class="cls-5" x="377.22" y="535.52" width="12.32" height="32.68"/><path class="cls-15" d="M453.37,465.75a.62.62,0,0,1-.05-1.18L466.69,456c.54-.35,1-.11,1,.54l.75,15.86c0,.65-.42.94-1,.64Z"/><path class="cls-16" d="M462.27,465.26s-18.95,45.89-89.53,45.89"/><path class="cls-17" d="M499.58,416.85A26.87,26.87,0,1,1,472.71,390,26.87,26.87,0,0,1,499.58,416.85Z"/><path class="cls-13" d="M495.24,416.85a22.53,22.53,0,1,1-22.53-22.53A22.53,22.53,0,0,1,495.24,416.85Z"/><text class="cls-18" transform="translate(462.99 428.23)">$</text><path class="cls-19" d="M346.91,277.71l-.34.29"/><path class="cls-20" d="M345.44,279l-1.27,1"/><path class="cls-21" d="M343.6,280.45c-10.85,8.69-22.87,15.8-34.59,23.23-12.07,7.66-24.74,15.4-38.53,19.52a64.54,64.54,0,0,1-23.85,2.53c-16.81-1.61-32.53-7.16-42.36-21.71-12.26-18.13-10.83-46.17,6.63-60.16a54.67,54.67,0,0,1,20.76-10.79c13.23-3.33,27.71-5.19,40.56.56s19.8,22.69,7.89,33.05a16.44,16.44,0,0,1-26.79-8.24c-3.39-13.07,7.95-24.74,18.49-30.61,24.78-13.81,54.07-7.09,80.72-4.92,27.22,2.2,58.66,2.89,85-5.31,15.29-4.77,30.26-15.14,38.67-29"/><path class="cls-19" d="M476.56,188l.22-.38"/><path class="cls-10" d="M469,190.07c-.53-.37-.48-.9.11-1.18l9.39-4.36c.59-.27,1,0,1,.68l-.92,10.31c-.05.65-.53.87-1.07.5Z"/><path class="cls-5" d="M403.12,227.73s-9.45-7.45-11.41-10.49-22.62-15-44.36-.91a36.45,36.45,0,0,0-16.51,25.47s20.84-1.14,34.61,20.16,37.08-33.23,37.08-33.23"/><path class="cls-5" d="M416.65,248.66s2.92,11.67,4.89,14.71,4.37,26.77-17.37,40.82a36.42,36.42,0,0,1-30,4.61s9.6-18.53-4.18-39.83,45.51-20.19,45.51-20.19"/><path class="cls-7" d="M448.71,249c35.43-22.91,37.66-57.62,36.45-59.5s-33.76-14.05-69.2,8.87S356,259,356,259l6.73,9.66,6,10.1S413.25,271.93,448.71,249Z"/><path class="cls-22" d="M462.12,215.94a16.2,16.2,0,1,1-15.58-16.79A16.2,16.2,0,0,1,462.12,215.94Z"/><path class="cls-5" d="M399.88,243.45c-1.9-3.16-35.45-1.64-64.52,41.34C387.05,277,401.78,246.62,399.88,243.45Z"/><path class="cls-17" d="M413.16,443.89h-65l-.08,9.63s39,.58,52.27.44c-.1,12.51-18.28,45.64-55,46.83,0,0,0,2.52-.09,10.42C357.21,511.32,411.91,500,413.16,443.89Z"/><path class="cls-17" d="M211.64,443.89h65l.08,9.63s-39,.58-52.28.44c.11,12.51,18.29,45.64,55,46.83,0,0,0,2.52.09,10.42C267.59,511.32,212.89,500,211.64,443.89Z"/><path class="cls-13" d="M367.28,428.26h-107a130.81,130.81,0,0,0-4.6,35.78c1.21,52.21,42.55,77.6,50.53,82.91v37.72h15.14V547c8-5.31,49.32-30.7,50.53-82.91A130.58,130.58,0,0,0,367.28,428.26Z"/><path class="cls-17" d="M260.35,428.5a112.77,112.77,0,0,0-2.57,11.4H369.92a112.77,112.77,0,0,0-2.57-11.4h-107Z"/><rect class="cls-17" x="272.8" y="578.91" width="81.95" height="10.88"/><rect class="cls-13" x="261.07" y="588.58" width="105.4" height="16.2"/><path class="cls-17" d="M311.62,460.66c.43-.87,1.13-.87,1.56,0l6.88,13.93a3.77,3.77,0,0,0,2.53,1.85L338,478.67c1,.14,1.18.81.48,1.49L327.33,491a3.75,3.75,0,0,0-1,3L329,509.29c.17,1-.4,1.38-1.26.92L314,503a3.74,3.74,0,0,0-3.14,0l-13.75,7.22c-.86.46-1.43,0-1.26-.92L298.44,494a3.75,3.75,0,0,0-1-3l-11.12-10.84c-.7-.68-.48-1.35.48-1.49l15.38-2.23a3.77,3.77,0,0,0,2.53-1.85Z"/></g></g></svg>