<svg xmlns="http://www.w3.org/2000/svg" xmlns:xlink="http://www.w3.org/1999/xlink" viewBox="0 0 786.14 740.18"><defs><style>.cls-1{isolation:isolate;}.cls-2{fill:url(#linear-gradient);}.cls-3{fill:#cff0fb;}.cls-4{fill:#bcddcb;}.cls-5{fill:#fff;}.cls-6{fill:#d6e8dd;}.cls-7{fill:#e4e9ef;}.cls-8,.cls-9{fill:#f6f7f9;}.cls-12,.cls-8{opacity:0.45;}.cls-10{fill:#d3dae2;}.cls-11,.cls-12,.cls-32{fill:#c6d2e0;}.cls-12{mix-blend-mode:screen;}.cls-13{fill:#e7eaf2;}.cls-14{fill:#8e9db2;}.cls-15,.cls-17,.cls-18,.cls-26,.cls-29,.cls-34,.cls-35,.cls-42,.cls-43,.cls-44{fill:none;}.cls-15{stroke:#8e9db2;}.cls-15,.cls-17,.cls-26,.cls-29,.cls-34,.cls-35,.cls-42,.cls-43,.cls-44{stroke-miterlimit:10;}.cls-15,.cls-29,.cls-34,.cls-35{stroke-width:0.39px;}.cls-16,.cls-20{fill:#ffcd5c;}.cls-17{stroke:#fff;stroke-width:0.77px;}.cls-18{stroke:#fe9;stroke-linecap:round;stroke-linejoin:bevel;stroke-width:5.03px;}.cls-19{fill:#fe9;}.cls-20,.cls-32{opacity:0.55;}.cls-20{mix-blend-mode:multiply;}.cls-21{fill:#28364c;}.cls-22{fill:#475577;}.cls-23{fill:#19202d;}.cls-24{fill:#ffcbbb;}.cls-25{fill:#4592dd;}.cls-26{stroke:#273b7a;stroke-width:0.29px;}.cls-27{fill:#273b7a;}.cls-28{fill:#b9b5b2;}.cls-29{stroke:#846a6a;}.cls-30{fill:#eb4f57;}.cls-31{fill:#f2f5f9;}.cls-33{fill:#264791;}.cls-34{stroke:#264791;}.cls-35{stroke:#f7a794;}.cls-36{fill:#f96479;}.cls-37{fill:#ffdede;}.cls-38{fill:#0c3656;}.cls-39{fill:#ffdfd9;}.cls-40{fill:#ff9189;}.cls-41{fill:#223554;}.cls-42{stroke:#123568;}.cls-42,.cls-43{stroke-width:0.29px;}.cls-43{stroke:#d15956;}.cls-44{stroke:#f2b6aa;stroke-width:0.19px;}</style><linearGradient id="linear-gradient" y1="370.09" x2="785.32" y2="370.09" gradientUnits="userSpaceOnUse"><stop offset="0" stop-color="#fff"/><stop offset="1" stop-color="#daf4fc"/></linearGradient></defs><title>vision_img</title><g class="cls-1"><g id="Layer_2" data-name="Layer 2"><g id="Layer_1-2" data-name="Layer 1"><path class="cls-2" d="M1,663.07s152.8-109,283.56-25.43,192.75,150.13,357.16,58.12C835.44,582,800.33,347.07,726.48,222.37S512.08-92.42,0,51.66Z"/><path class="cls-3" d="M31.53,649.75s133-95.37,276.55,3.17S510.68,764.9,632.2,701,792.46,506,785.32,417.9C777,336.78,762.5,304.34,762.5,304.34s-65-2.64-140.11,65.75-116.12,91.09-213.2,56.59-167.11-55.41-266.48,4.53S23.36,632.19,31.53,649.75Z"/><path class="cls-4" d="M340,509.6c4.13-2.65,14.08-31.85,16.88-38.1,2.16-4.85,4.38-10,3.76-15.28a3.29,3.29,0,0,0-.45-1.45c-.69-1-2.15-1-3.35-.8-4.07.73-7.73,2.93-11,5.43-11.91,9-20.25,35.5-22.92,50.2H340Z"/><path class="cls-5" d="M354.91,461.8c-3.27,2.1-5.2,5.9-7,9.21a111.15,111.15,0,0,0-5.55,11.92c-3.51,8.73-6.28,17.75-9.3,26.65,0,.1.11.13.15,0,3-8,5.44-16.17,8.48-24.15a125.34,125.34,0,0,1,5.24-12c2-3.95,4.29-9,8.1-11.49.11-.07,0-.24-.1-.17Z"/><path class="cls-6" d="M300.38,509.6c.87-3.07-.3-10.07-.65-13.14-.72-6.21-1.64-12.4-2.69-18.56-1.85-10.77-6.4-21.4-14.26-29.16-5.42-5.36-14.73-10.6-22.24-12.08-13.45-2.66-8.38,15.71-4.91,22.21,3.38,6.34,9.67,10.5,15.71,14.38,10,6.43,21,31.79,24.05,36.35"/><path class="cls-4" d="M311.44,509.6c5.58-9.09,3.61-48,.82-60.18-2.89-12.59-12.47-30.34-27.25-35.29a79,79,0,0,0-9.11-2.46c-2.6-.54-5,1-5.25,3.34a9.93,9.93,0,0,0,1.18,6.51c27.22,40.36,30.45,88.08,30.45,88.08"/><path class="cls-6" d="M312.46,509.6c-1.84-21.78-3.31-51.48,8-70.19,3.43-5.68,7.92-10.65,12.44-15.53,4.83-5.2,10-10.5,16.32-13.5a3.42,3.42,0,0,1,4.72,2.19c6.86,24.2-20.65,89.29-28.39,97"/><path class="cls-5" d="M257.77,443.69c22.66,14.32,37,39.61,40.36,65.91,0,.14.24.15.22,0-2.66-26.31-18-52-40.49-66.07-.1-.07-.19.09-.09.16Z"/><path class="cls-5" d="M280.53,418.76c11.62,9.68,17,24,20.42,38.29,4.15,17.24,6.06,34.87,6.95,52.55a.07.07,0,0,0,.14,0A257.16,257.16,0,0,0,301,456c-3.41-13.87-8.87-28.2-20.41-37.33,0,0-.1,0-.06.05Z"/><path class="cls-5" d="M346.85,421.68c-13.68,27.26-25,57.2-26.68,87.92a.08.08,0,1,0,.15,0c2.36-31.09,13.48-59.89,26.69-87.83.05-.11-.11-.2-.16-.09Z"/><path class="cls-4" d="M548.2,494.92c-.83-13.94,2.41-39.57,7.17-52.71,8.57-23.64,23.39-46.55,46.22-57.1,5.25-2.43,11.59-4.09,16.67-1.32a14.52,14.52,0,0,1,6.37,8.18c3.88,11.35-2.41,23.47-9,33.53-12.8,19.69-43.18,51-57.72,69.42"/><path class="cls-6" d="M532.48,494.92c-1-20.23-3.6-56.68-4.68-81.33-.52-11.93.45-27.74,3.61-39.17,4-14.36,12.39-23.45,25.11-29.12,19.49-8.67,19,25.33,19,36a158.65,158.65,0,0,1-5.34,38.88c-5.73,22.5-14.8,52.62-21.75,74.71"/><path class="cls-6" d="M517.93,494.92c-2.78-20.79-13.37-52.67-23.59-71.79A182.19,182.19,0,0,1,474.6,363c-.56-3.92-.8-8.38,2.12-11.29,2.59-2.58,7-3,10.64-1.92s6.59,3.53,9.23,6.05c11.88,11.32,19.47,26,23.78,41.13s12.86,58,13.46,98"/><path class="cls-4" d="M509.13,494.92c-13.15-4.71-24.86-16.54-35.32-25.55C455,453.16,439,432.08,437.14,409.18c-.42-5.27.23-11.14,4.54-14.26,2.64-1.9,6.27-2.43,9.76-2.08,11.8,1.18,20.8,11.06,27.81,20.34,13.73,18.17,29.9,62.62,41.88,81.74"/><path class="cls-5" d="M490.9,370.49c17.22,29.24,26.56,63.32,30.59,96.85q1.65,13.74,1.93,27.58a.1.1,0,0,0,.2,0,268.71,268.71,0,0,0-20.32-99.83A195.55,195.55,0,0,0,491,370.4a.08.08,0,0,0-.14.09Z"/><path class="cls-5" d="M458.92,416.87A379.93,379.93,0,0,0,514.14,495c.09.09.23-.05.15-.15a415.29,415.29,0,0,1-55.24-78.05c0-.09-.17,0-.13.07Z"/><path class="cls-5" d="M557.93,375.39a854,854,0,0,1-12.26,94.69q-2.4,12.46-5.41,24.81a.11.11,0,1,0,.22.06c7.92-30.64,12.13-62.37,15.34-93.82q1.32-12.86,2.29-25.74c0-.12-.17-.12-.18,0Z"/><path class="cls-5" d="M606.66,401.45a380.12,380.12,0,0,0-23.1,34.25,451.58,451.58,0,0,0-21.75,39.68c-3.06,6.39-5.92,12.87-8.36,19.52,0,.12.15.17.2.05,4.8-12.86,11-25.22,17.56-37.27q10.63-19.57,22.93-38.21c4-6.1,8.22-12.12,12.66-17.94.06-.08-.08-.17-.14-.08Z"/><rect class="cls-7" x="473.11" y="451.4" width="52.55" height="52.55" transform="translate(998.77 955.35) rotate(180)"/><rect class="cls-8" x="482.33" y="460.62" width="34.11" height="34.11" transform="translate(998.77 955.35) rotate(180)"/><polygon class="cls-9" points="488.82 441.81 541.38 441.81 525.66 451.4 473.11 451.4 488.82 441.81"/><polygon class="cls-10" points="541.38 494.37 525.66 503.95 525.66 451.4 541.38 441.81 541.38 494.37"/><rect class="cls-11" x="268.37" y="476.94" width="48.25" height="48.25"/><rect class="cls-12" x="276.84" y="485.4" width="31.32" height="31.32"/><polygon class="cls-13" points="302.19 468.14 253.94 468.14 268.37 476.94 316.62 476.94 302.19 468.14"/><polygon class="cls-14" points="253.94 516.39 268.37 525.19 268.37 476.94 253.94 468.14 253.94 516.39"/><path class="cls-15" d="M415.83,517.89v43.4a9.25,9.25,0,0,0,9.25,9.25h47.75"/><path class="cls-15" d="M426.21,514.79V544a6.69,6.69,0,0,0,6.68,6.69H576.78a9.39,9.39,0,0,0,9.39-9.4V366.44a5.74,5.74,0,0,1,5.75-5.74h16.75"/><path class="cls-15" d="M264.14,510.29H225.38c-13.36,0-24.27,2.93-26.82,10.56-2.32,6.93,3.25,16.75,31.49,16.75H381.61a8.39,8.39,0,0,0,8.38-8.39V511.36"/><path class="cls-15" d="M275.53,392h10.52a6.87,6.87,0,0,1,6.87,6.87V550.47a9.85,9.85,0,0,0,9.84,9.85h90.29a9.85,9.85,0,0,0,9.84-9.85V510.29"/><path class="cls-15" d="M499.39,504v15.82a3.77,3.77,0,0,1-3.78,3.77H435.7a4.09,4.09,0,0,1-4.09-4.08v-7.09"/><path class="cls-16" d="M281.61,285A129.27,129.27,0,1,1,515.37,361.1h0c-18.46,27.8-66.4,59.2-66.4,78v21.48a7.77,7.77,0,0,1-7.77,7.77H380.56a7.77,7.77,0,0,1-7.77-7.77V439.11c0-18.81-47.94-50.21-66.4-78h0A128.71,128.71,0,0,1,281.61,285Z"/><path class="cls-17" d="M426.7,466.16s-5.55-118.9,13.84-156.78c9.13-17.84,26.25-25.67,37.38-19,7.41,4.43,10.82,16.34,9.19,27.2-3.22,21.41-22.88,47.82-76.23,47.82s-73-26.41-76.23-47.82c-1.63-10.86,1.79-22.77,9.19-27.2,11.13-6.66,28.25,1.17,37.38,19,19.39,37.88,13.84,156.78,13.84,156.78"/><path class="cls-18" d="M437.41,180.52A107.79,107.79,0,0,1,518.63,285"/><circle class="cls-19" cx="415.81" cy="177.02" r="7.42"/><path class="cls-20" d="M539.9,292.62c-7.13,53-49.93,107.89-129,107.89s-120.29-57.45-129-107.89a128.66,128.66,0,0,0,24.53,68.48h0c18.46,27.8,66.4,59.2,66.4,78v21.48a7.77,7.77,0,0,0,7.77,7.77H441.2a7.77,7.77,0,0,0,7.77-7.77V439.11c0-18.81,47.94-50.21,66.4-78h0A128.66,128.66,0,0,0,539.9,292.62Z"/><path class="cls-21" d="M452,448.28H369.74V487.5A33.76,33.76,0,0,0,375,505.58h0A35.37,35.37,0,0,0,404.85,522h12.06a35.37,35.37,0,0,0,29.86-16.41h0A33.76,33.76,0,0,0,452,487.5Z"/><path class="cls-22" d="M452,474.69a5.65,5.65,0,0,1-.71-.05L369,463.23a5.13,5.13,0,1,1,1.41-10.17l82.29,11.41a5.13,5.13,0,0,1-.7,10.22Z"/><path class="cls-22" d="M452,492.64a5.65,5.65,0,0,1-.71-.05L369,481.18A5.13,5.13,0,1,1,370.44,471l82.29,11.4a5.14,5.14,0,0,1-.7,10.23Z"/><path class="cls-22" d="M448.74,510.29a5.78,5.78,0,0,1-.71-.05l-78-10.81a5.13,5.13,0,1,1,1.41-10.17l78,10.81a5.13,5.13,0,0,1-.7,10.22Z"/><path class="cls-23" d="M237.75,552.57s9,4.21,11.31,5.2c2.77,1.18,4.1,4,1.5,4H231.18c-3.93,0,1.32-9.23,1.32-9.23Z"/><path class="cls-24" d="M238.06,543.66l0,9.34s.33,1.81-1.79,2-3.75-1.9-3.75-1.9l-2.45-11.47"/><path class="cls-25" d="M238.26,387c4.81,14,6.32,38.35,6.32,81.49,0,37-6.47,78.56-6.47,78.56h-7.22s-15.66-44.35-16.83-61.15c-1.48-8.85-18-62.63-18-76.41s6.27-29.13,6.27-29.13"/><path class="cls-23" d="M180.73,552.57s9,4.21,11.32,5.2c2.76,1.18,4.09,4,1.5,4H174.17c-3.94,0,1.31-9.23,1.31-9.23Z"/><path class="cls-24" d="M182.93,543.66,181,553s.34,1.81-1.79,2-3.75-1.9-3.75-1.9V541.6"/><path class="cls-25" d="M218.62,386.73c-.53,17.53-4.37,45-13.56,85.69-8.16,36.11-22.52,74.63-22.52,74.63h-7.22s-3.69-39.77-2.69-58.52c1.34-24.83-7.1-60.74-4.45-79,2.86-19.77,14-30.27,14-30.27"/><path class="cls-26" d="M177.6,547.05s-2.55-39.77-1.54-58.52c1.33-24.83-7.11-60.74-4.46-79a85.25,85.25,0,0,1,12.78-33.78"/><path class="cls-26" d="M171.89,407.68s11.18,2.23,14.93-1.52c1.52-1.52,5.91-9.38,5.91-9.38"/><path class="cls-26" d="M207.49,461.38s7.22-28.85,6.52-60.29"/><path class="cls-26" d="M213.43,421.87s4.52.15,5.19-2.21.47-19.41.47-19.41"/><path class="cls-26" d="M228.74,401.09a17,17,0,0,0,3.37,5.74c2.21,2.2,10.37,1.68,10.37,1.68"/><path class="cls-26" d="M209.69,450.85S214,470.51,216.91,485c.29,1.49.51,3,.66,4.47,1.93,18.83,15.34,57.61,15.34,57.61"/><polygon class="cls-27" points="238.28 547.62 230.56 547.62 229.64 544.21 238.81 544.21 238.28 547.62"/><polygon class="cls-27" points="182.93 547.62 175.06 547.62 175.06 544.21 183.82 544.21 182.93 547.62"/><path class="cls-28" d="M206.45,302.79S225.35,301,237,315.2c10.86,13.26,12.84,31.32,15.22,57.31,6.11,6.11,24.64,14.55,24.64,14.55l-1.74,7.75s-43.95-2.07-52.28-14.45c-10-14.83-16.36-47.8-16.36-47.8"/><path class="cls-28" d="M238.26,342.38c1.68,11.43,3.13,40.14,3.13,51.62-19.58,8.28-60.57,4.94-73,.58-.51-1.53,4.67-81.79,27.42-90.68l14-1.28C235.27,314.25,236.59,331,238.26,342.38Z"/><path class="cls-29" d="M231.39,319.88c5.1,7.94,5.93,16.06,6.87,22.5,1.68,11.43,3.13,40.14,3.13,51.62"/><path class="cls-24" d="M208.94,271.07c2.19.44,5,4.81,6.23,7.47,1.72,3.67,2.26,10.61.35,13.68-1.25,2-5,2.44-9.49,2.52-3.82.06-9.94-1.18-9.94-7S198.56,269,208.94,271.07Z"/><path class="cls-24" d="M208.73,293.12l2.15,10.1s-6,5.65-15,.73l1.22-15.37"/><path class="cls-24" d="M214.9,279.25s3.43,3.43,3.44,4.45c0,1.93-2.77,1.51-2.77,1.51"/><path class="cls-30" d="M192.58,282.86a8.33,8.33,0,0,0,.82,2.32c.57,1,1.35,1.94,2,2.93,1.07,1.66,1.44,3.54,3.55,4.24,1.46.48,1.62.61,3.1.17,2.86-.86,1.27-4,1.93-6.31.14-.49.8-2.14,1.26-2.28s.65.2,1,.28c.64.13,1.39.19,1.41-.57a7.73,7.73,0,0,0-.58-2.59c-.41-1.24-.7-2.88.31-3.8,1.18-1.07,2.93-1.18,4.23-2a5.68,5.68,0,0,0,2.38-3.64,6.18,6.18,0,0,0,.05-2.1,5.93,5.93,0,0,0-.24-1,6.57,6.57,0,0,0-.44-.88.34.34,0,0,0-.08-.09.25.25,0,0,0-.12,0,6.3,6.3,0,0,0-.72.28,1.78,1.78,0,0,1-.69.05,19.92,19.92,0,0,1-2.75-.53c-3.4-.71-8.64.08-11.38,2.36-1.47,1.22-3,2.62-3.23,4.65a3,3,0,0,1-.16,1,2.86,2.86,0,0,1-.48.62,4.72,4.72,0,0,0-.8,1.6A11.27,11.27,0,0,0,192.58,282.86Z"/><path class="cls-25" d="M235.87,359.34,227,399.23h56.83l9-40.44a1.17,1.17,0,0,0-1-1.57h-53.6A2.64,2.64,0,0,0,235.87,359.34Z"/><path class="cls-31" d="M242.63,399.23H198.52l.24-2.22a2.92,2.92,0,0,1,2.84-2.57h41.54Z"/><path class="cls-32" d="M264.66,378.23c-.6,2.61-2.91,4.72-5.16,4.72s-3.6-2.11-3-4.72,2.9-4.73,5.16-4.73S265.25,375.62,264.66,378.23Z"/><path class="cls-24" d="M203.26,402.37h30.89a126.21,126.21,0,0,0,13,.66c5.74-.1,9.18-4.68,9.18-5.67,0-.79-3.35.06-8.09,0-2.91,0-5,.43-5.2-.21-.54-1.51,5-2.46,3.9-3.54-.41-.41-2.86-.33-4.53,0a56.07,56.07,0,0,0-9.71,3.39l-31.6-8.34"/><path class="cls-28" d="M195.85,304s-31.53-.3-38.31,26.87C150,361,158.25,391.38,174.47,398s48.66,4.75,48.66,4.75l2.13-8.06S188.45,380,187.87,376s-4.94-35.8-4.94-35.8"/><path class="cls-29" d="M225.26,394.73S188.45,380,187.87,376s-4.94-35.8-4.94-35.8"/><path class="cls-24" d="M206.32,284.31c-.19-.92-.91-1.78-2.52-1.2-1.05.38-1,1.85-.83,2.75a3.58,3.58,0,0,0,1.53,2.49,1.73,1.73,0,0,0,2.41-.79"/><path class="cls-5" d="M196.09,299.87s5.68,5.77,10.82,5.5l-4,7c-4.14-1.28-8.7-8.36-8.7-8.36Z"/><path class="cls-5" d="M206.91,305.37c2.77-.93,3.3-5.29,3.3-5.29l2.73,2.89s1,5.59-1.07,7.62Z"/><path class="cls-33" d="M210.88,280.36c0,.62.28,1.42.85,1.56a.36.36,0,0,0,.4-.17C212.74,280.86,210.88,279.06,210.88,280.36Z"/><path class="cls-34" d="M208.09,279.73a6.71,6.71,0,0,1,4.44-1.51"/><path class="cls-35" d="M216.51,289.3c-1.22,0-4-.45-4.75-2"/><circle class="cls-36" cx="329.37" cy="206.3" r="44.66" transform="translate(13.02 432.05) rotate(-67.57)"/><circle class="cls-37" cx="329.37" cy="206.3" r="32.31" transform="translate(52.52 479.06) rotate(-76.64)"/><path class="cls-36" d="M351.56,206.3a22.19,22.19,0,1,1-22.19-22.19A22.2,22.2,0,0,1,351.56,206.3Z"/><path class="cls-37" d="M341,206.3a11.63,11.63,0,1,1-11.62-11.62A11.62,11.62,0,0,1,341,206.3Z"/><polygon class="cls-38" points="331.17 208.1 323.87 208.1 331.17 200.8 331.17 208.1"/><polygon class="cls-38" points="283.83 160.77 275.48 160.77 275.48 158.66 281.73 158.66 281.73 152.42 283.83 152.42 283.83 160.77"/><polygon class="cls-38" points="280.01 156.94 271.66 156.94 271.66 154.84 277.91 154.84 277.91 148.59 280.01 148.59 280.01 156.94"/><rect class="cls-38" x="302.81" y="145.09" width="2.11" height="71.42" transform="translate(-38.84 267.82) rotate(-45)"/><path class="cls-30" d="M611.17,294.19s-6.71,10.77-4.58,21.15c4.2,1.12,15.93-.59,15.93-.59l-.59-20.56Z"/><path class="cls-39" d="M519.84,329.56c-1.32-1.11-4.76-4.54-5.11-4.87a25.78,25.78,0,0,0-4.81-3.66,6.07,6.07,0,0,0-1.85-.69,9.2,9.2,0,0,0-2-.36c-.19,0-.45.06-.46.25s.11.25.22.33c1.35,1,3,1.21,4.24,2.73a2.26,2.26,0,0,0-1.43.88,3.6,3.6,0,0,0-.58,1.33,10.65,10.65,0,0,0-.38,2.57,1.67,1.67,0,0,0,0,.5,1.44,1.44,0,0,0,.4.6c.79.81,1.91,1.81,3,.81.16-.15.33-.34.55-.33s.35.19.49.33a1.89,1.89,0,0,0,2.67.37l2.92,3.31"/><path class="cls-40" d="M616.15,318.25a55.21,55.21,0,0,0-29.76,8.41c-12.26,7.68-21.68,14.75-28.27,14.75s-40.26-13.65-40.26-13.65l-2.56,4.08s18.62,29.82,48.16,33.86A60.78,60.78,0,0,0,605,355.94"/><path class="cls-41" d="M656.84,558.81s2.59,4.5,1,5.75c-1.19,1-18.87,2.38-19.45.09-.34-1.33,13.94-6,13.94-6l5-4.56Z"/><path class="cls-39" d="M631,427.25s2,32.27,2.92,54.68c1.55,37,17.76,74.24,18.4,76.75a5.43,5.43,0,0,0,4.48.13s4.63-25.44,4.61-40.93c0-14.26-4.75-29.92-4.75-29.92s2-27.79,4.14-46.36C661.81,433.28,631,427.25,631,427.25Z"/><path class="cls-41" d="M611.17,558.81s2.59,4.5,1,5.75c-1.19,1-18.86,2.38-19.45.09-.33-1.33,13.94-6,13.94-6l5-4.56Z"/><path class="cls-39" d="M589.81,427.25s-.26,32.27.68,54.68c1.55,37,15.56,74.24,16.2,76.75a5.42,5.42,0,0,0,4.48.13s5.73-25.44,5.71-40.93c0-14.26-3.65-29.92-3.65-29.92s4.49-27.79,6.65-46.36C620.85,433.28,589.81,427.25,589.81,427.25Z"/><path class="cls-33" d="M591.27,405.63s-8.49,35.7-3.07,72.94c38.63,9.43,75.71-.54,75.71-.54s2.79-51.65-2.76-67.94c-6-17.62-17.06-20.21-17.06-20.21"/><path class="cls-42" d="M648.46,405.43s8.37,31.36,5,74.74"/><path class="cls-40" d="M650.35,334.15c6,13.38,1.76,35.67,1.8,39.82,0,11,7.74,22,9,36.12-2.93,2.65-64.22,6.28-71.18,0,.73-7.5,3.63-11.75,5.15-21.87.51-3.44.16-9.08.16-16.86-2.38-10.38-6.4-15.11-4.61-23.68,1.29-6.18,7.92-13.05,11.49-17.28,5.15-8.67-1.23-13.7,25.47-13C640,317.39,644.37,320.76,650.35,334.15Z"/><path class="cls-43" d="M592.34,361.66c-2-6-2.66-9.24-1.67-14,1.29-6.18,6.11-9.45,9.51-17.28"/><path class="cls-39" d="M612.41,292.41s-7.91,16.84-3.19,20,11.93-.53,14.19-3.95C626.61,303.63,627.68,283.38,612.41,292.41Z"/><path class="cls-44" d="M612.6,302.33s-3,2.91-2.66,3.73,1.3.58,1.3.58"/><path class="cls-41" d="M616.13,303.11l0,.17a2.27,2.27,0,0,1-.24,1.08c-.2.59-1.16.18-.89-.4a4,4,0,0,1,.63-1C615.92,302.65,616.07,302.86,616.13,303.11Z"/><path class="cls-41" d="M610.75,300.34l0,.16a2.44,2.44,0,0,1-.24,1.09c-.2.58-1.16.17-.89-.41a3.75,3.75,0,0,1,.63-1C610.54,299.87,610.69,300.08,610.75,300.34Z"/><path class="cls-41" d="M618.46,303.37a1.9,1.9,0,0,0,0-.74,2.8,2.8,0,0,0-.74-1.45,2.38,2.38,0,0,0-1.48-.74,1.66,1.66,0,0,0-.56.07l-.18.09.19.06a2,2,0,0,1,.43.2,4.59,4.59,0,0,1,1.06.84,7.94,7.94,0,0,1,.88,1.09c.11.16.22.3.28.41A1.15,1.15,0,0,0,618.46,303.37Z"/><path class="cls-41" d="M612.78,299.49v-.15a1.06,1.06,0,0,0-.14-.4,1.57,1.57,0,0,0-1-.71,1.82,1.82,0,0,0-1.21.18,1.13,1.13,0,0,0-.41.39h.15a2.49,2.49,0,0,1,.36,0,7.08,7.08,0,0,1,1,.13,4,4,0,0,1,.88.28A4.08,4.08,0,0,1,612.78,299.49Z"/><path class="cls-39" d="M615.94,307.15,614.86,319s1.13,3.64,2.57,3.64c2.08,0,9-4.4,9-4.4l-2.51-13.7"/><path class="cls-5" d="M609.58,308.38l3.33.85C611.19,312.27,608.83,310.16,609.58,308.38Z"/><path class="cls-44" d="M615.36,313.49s4.45-.47,6.57-3.38"/><polygon class="cls-5" points="626.71 315.34 617.12 322.24 621.02 327.53 627.92 317.39 626.71 315.34"/><polygon class="cls-5" points="617.12 322.24 615.07 316.72 612.28 318.17 613.15 326.63 617.12 322.24"/><path class="cls-22" d="M588,360.64l8.54,38.22H542.05l-8.67-38.74a1.12,1.12,0,0,1,1-1.51h51.35A2.52,2.52,0,0,1,588,360.64Z"/><path class="cls-22" d="M581.48,398.86h42.26l-.23-2.12a2.8,2.8,0,0,0-2.72-2.47H581Z"/><path class="cls-32" d="M560.38,378.74c.57,2.5,2.78,4.53,4.94,4.53s3.45-2,2.88-4.53-2.79-4.53-5-4.53S559.81,376.24,560.38,378.74Z"/><path class="cls-39" d="M605.71,394.1a54.2,54.2,0,0,1-7.06,2.16,29.58,29.58,0,0,0-3.55-1,23.56,23.56,0,0,0-3.46-.13.77.77,0,0,0-.34.08.27.27,0,0,0-.14.3.31.31,0,0,0,.14.16,16.43,16.43,0,0,0,1.84.74c.45.25.71.67.15.85-1.43.48-3.19.19-4.7.27a27.11,27.11,0,0,0-3.49.18c-.16,0-.34.09-.38.24a.43.43,0,0,0,.1.34,7.07,7.07,0,0,0,2.66,2.11,12.08,12.08,0,0,0,4.74,1.43,19.17,19.17,0,0,0,6.19-.89c.9-.12,5.12-.55,5.12-.55"/><path class="cls-40" d="M631,342.09s5,24.64,6.27,37.27c-3,3-37.74,16.49-37.74,16.49l2.17,5.62s43.91,1.24,54.71-9.56,6.42-42.44.76-56.85c-4.28-10.89-15.08-17.77-29.29-17.67"/><path class="cls-43" d="M601.74,401.47s43.91,1.24,54.71-9.56"/><path class="cls-43" d="M631,342.09s5,24.64,6.27,37.27c-3,3-37.74,16.49-37.74,16.49"/><path class="cls-30" d="M613.23,289c3.34-2.45,9.49-3.47,13.15-1.84,4.94,2.2,7.77,5.82,9.44,11.66.65,2.28,1.15,4.62,1.61,6.95s.58,4.91,1.38,7.13c-3.17,2.41-11.64,4.39-15.25,3.79.22-2.24.33-11.16-.51-12.88-.75-1.53-2-1.94-3.51-2.51a12,12,0,0,1-6.75-7.23,10.78,10.78,0,0,0-2.8,4.27A9.65,9.65,0,0,1,613.23,289Z"/><path class="cls-39" d="M622.42,305.36a2,2,0,0,1,3.5,1,2.89,2.89,0,0,1-1.56,3c-1.5,1-4.48-.67-3.12-2.07"/></g></g></g></svg>